G04 start of page 7 for group -4079 idx -4079
G04 Title: (unknown), topsilk *
G04 Creator: pcb 20070912 *
G04 CreationDate: Fri Dec  7 19:10:14 2007 UTC *
G04 For: sean *
G04 Format: Gerber/RS-274X *
G04 PCB-Dimensions: 260000 170000 *
G04 PCB-Coordinate-Origin: lower left *
%MOIN*%
%FSLAX24Y24*%
%LNFRONTSILK*%
%ADD11C,0.0100*%
%ADD12C,0.0200*%
%ADD42C,0.0080*%
%ADD43C,0.0060*%
G54D11*X10500Y13000D02*Y14000D01*
X9500Y13000D02*X10500D01*
G54D12*Y14000D02*X9500D01*
X10500Y10000D02*Y14000D01*
X9500Y10000D02*X10500D01*
X9500Y14000D02*Y10000D01*
G54D42*X6460Y13560D02*Y12860D01*
X7560Y13560D02*X6360D01*
X7560Y12860D02*Y13560D01*
X6360Y12860D02*X7560D01*
X6360Y13560D02*Y12860D01*
X6490Y14790D02*Y14090D01*
X7590Y14790D02*X6390D01*
X7590Y14090D02*Y14790D01*
X6390Y14090D02*X7590D01*
X6390Y14790D02*Y14090D01*
X6820Y9600D02*X7520D01*
X6820Y10700D02*Y9500D01*
Y10700D02*X7520D01*
Y9500D01*
X6820D02*X7520D01*
G54D43*X1475Y6165D02*X2538D01*
Y8251D02*Y6165D01*
X1475Y8251D02*X2538D01*
X1475D02*Y6165D01*
G54D11*X1080Y9260D02*X480D01*
X1080Y5160D02*Y9260D01*
X480Y5160D02*X1080D01*
X480Y9260D02*Y5160D01*
G54D12*X800Y15300D02*Y12800D01*
X5600Y15300D02*Y12800D01*
X800D02*X5600D01*
G54D42*X2820Y9400D02*X3520D01*
X2820Y10500D02*Y9300D01*
Y10500D02*X3520D01*
Y9300D01*
X2820D02*X3520D01*
X14050Y16960D02*Y16260D01*
X15150Y16960D02*X13950D01*
X15150Y16260D02*Y16960D01*
X13950Y16260D02*X15150D01*
X13950Y16960D02*Y16260D01*
X13760Y14900D02*Y14200D01*
X14860Y14900D02*X13660D01*
X14860Y14200D02*Y14900D01*
X13660Y14200D02*X14860D01*
X13660Y14900D02*Y14200D01*
X12900Y16150D02*X13600D01*
Y16250D02*Y15050D01*
X12900D02*X13600D01*
X12900Y16250D02*Y15050D01*
Y16250D02*X13600D01*
X12500Y14900D02*Y14200D01*
X13600Y14900D02*X12400D01*
X13600Y14200D02*Y14900D01*
X12400Y14200D02*X13600D01*
X12400Y14900D02*Y14200D01*
G54D11*X11100Y15800D02*Y16800D01*
X10100Y15800D02*X11100D01*
G54D12*Y16800D02*X10100D01*
X11100Y14800D02*Y16800D01*
X10100Y14800D02*X11100D01*
X10100Y16800D02*Y14800D01*
G54D42*X15980Y15560D02*Y14860D01*
X14880D02*X16080D01*
X14880Y15560D02*Y14860D01*
Y15560D02*X16080D01*
Y14860D01*
G54D11*X7000Y16900D02*Y15510D01*
X8180D01*
Y16900D01*
X7000D01*
G54D42*X16690Y16510D02*X17390D01*
X16690D02*Y15310D01*
X17390D01*
Y16510D02*Y15310D01*
X16690Y16410D02*X17390D01*
G54D11*X19190Y16360D02*X20190D01*
Y15360D01*
G54D12*X19190Y16360D02*Y15360D01*
Y16360D02*X21190D01*
Y15360D01*
X19190D02*X21190D01*
G54D42*X17950Y15260D02*Y14560D01*
X16750Y15260D02*X17950D01*
X16750D02*Y14560D01*
X17950D01*
X17850Y15260D02*Y14560D01*
G54D12*X17480Y16710D02*Y15710D01*
X18480D01*
Y16710D01*
X17480D01*
G54D11*Y15710D02*X18480D01*
Y16710D01*
X13600Y12420D02*X13880Y12700D01*
X13600Y7190D02*Y12420D01*
X19110Y7190D02*X13600D01*
X19110Y12700D02*Y7190D01*
X13880Y12700D02*X19110D01*
X13850Y12350D02*G75*G03X13850Y12350I100J0D01*G01*
X13650Y16300D02*Y14910D01*
X14830D01*
Y16300D01*
X13650D01*
X3070Y3280D02*Y5320D01*
X5570Y3280D02*X3070D01*
X5570Y5320D02*Y3280D01*
X4200Y5320D02*X5570D01*
X3070D02*X4440D01*
X4200D02*G75*G03X4440Y5320I120J0D01*G01*
G54D42*X6000Y3050D02*Y2350D01*
X7100Y3050D02*X5900D01*
X7100Y2350D02*Y3050D01*
X5900Y2350D02*X7100D01*
X5900Y3050D02*Y2350D01*
X6000Y3750D02*Y3050D01*
X7100Y3750D02*X5900D01*
X7100Y3050D02*Y3750D01*
X5900Y3050D02*X7100D01*
X5900Y3750D02*Y3050D01*
X5650Y4900D02*X6350D01*
Y5000D02*Y3800D01*
X5650D02*X6350D01*
X5650Y5000D02*Y3800D01*
Y5000D02*X6350D01*
X7500Y7650D02*Y6950D01*
X8600Y7650D02*X7400D01*
X8600Y6950D02*Y7650D01*
X7400Y6950D02*X8600D01*
X7400Y7650D02*Y6950D01*
G54D11*X22440Y4450D02*Y5450D01*
X21440Y4450D02*X22440D01*
G54D12*X23440Y5450D02*X21440D01*
X23440Y450D02*Y5450D01*
X21440Y450D02*X23440D01*
X21440Y5450D02*Y450D01*
G54D11*X20590Y3550D02*Y4550D01*
X19590Y3550D02*X20590D01*
G54D12*Y4550D02*X19590D01*
X20590Y550D02*Y4550D01*
X19590Y550D02*X20590D01*
X19590Y4550D02*Y550D01*
G54D11*X8770Y6400D02*Y7420D01*
X10820Y6400D02*X8770D01*
X10820Y7420D02*Y6400D01*
X9670Y7420D02*X10820D01*
X8770D02*X9910D01*
X9670D02*G75*G03X9910Y7420I120J0D01*G01*
G54D42*X7500Y6850D02*Y6150D01*
X8600Y6850D02*X7400D01*
X8600Y6150D02*Y6850D01*
X7400Y6150D02*X8600D01*
X7400Y6850D02*Y6150D01*
X9800Y6250D02*Y5550D01*
X10900Y6250D02*X9700D01*
X10900Y5550D02*Y6250D01*
X9700Y5550D02*X10900D01*
X9700Y6250D02*Y5550D01*
G54D11*X9300Y1900D02*X10300D01*
Y900D01*
G54D12*X9300Y2900D02*Y900D01*
Y2900D02*X12300D01*
Y900D01*
X9300D02*X12300D01*
G54D11*X24090Y2200D02*Y1200D01*
Y2200D02*X25090D01*
G54D12*X24090Y1200D02*X25090D01*
X24090Y3200D02*Y1200D01*
Y3200D02*X25090D01*
Y1200D01*
G54D11*X14200Y4600D02*Y5600D01*
X13200Y4600D02*X14200D01*
G54D12*Y5600D02*X13200D01*
X14200Y600D02*Y5600D01*
X13200Y600D02*X14200D01*
X13200Y5600D02*Y600D01*
G54D11*X15100Y1900D02*X16100D01*
Y900D01*
G54D12*X15100Y1900D02*Y900D01*
Y1900D02*X17100D01*
Y900D01*
X15100D02*X17100D01*
G54D11*X16000Y3500D02*X18000D01*
X16000Y2500D02*X18000D01*
X16000Y3500D02*G75*G03X16000Y2500I0J-500D01*G01*
X18000D02*G75*G03X18000Y3500I0J500D01*G01*
G54D42*X17050Y3800D02*X17750D01*
X17050Y4900D02*Y3700D01*
Y4900D02*X17750D01*
Y3700D01*
X17050D02*X17750D01*
X16150Y3800D02*X16850D01*
X16150Y4900D02*Y3700D01*
Y4900D02*X16850D01*
Y3700D01*
X16150D02*X16850D01*
G54D11*X1810Y6960D02*X2160D01*
X2210Y7010D01*
Y7110D02*Y7010D01*
Y7110D02*X2160Y7160D01*
X1810D02*X2160D01*
X1860Y7280D02*X1810Y7330D01*
Y7430D02*Y7330D01*
Y7430D02*X1860Y7480D01*
X2160D01*
X2210Y7430D02*X2160Y7480D01*
X2210Y7430D02*Y7330D01*
X2160Y7280D02*X2210Y7330D01*
X2010Y7480D02*Y7330D01*
X580Y4820D02*Y4470D01*
X630Y4420D01*
X730D01*
X780Y4470D01*
Y4820D02*Y4470D01*
X900Y4770D02*X950Y4820D01*
X1100D01*
X1150Y4770D01*
Y4670D01*
X900Y4420D02*X1150Y4670D01*
X900Y4420D02*X1150D01*
X4070Y4820D02*X4420D01*
X4070D02*X4020Y4770D01*
Y4670D01*
X4070Y4620D01*
X4420D01*
X4020Y4449D02*Y4349D01*
Y4399D02*X4420D01*
X4320Y4499D02*X4420Y4399D01*
X9540Y6920D02*X9890D01*
X9540D02*X9490Y6870D01*
Y6770D01*
X9540Y6720D01*
X9890D01*
Y6449D02*X9840Y6399D01*
X9890Y6549D02*Y6449D01*
X9840Y6599D02*X9890Y6549D01*
X9540Y6599D02*X9840D01*
X9540D02*X9490Y6549D01*
X9690Y6449D02*X9640Y6399D01*
X9690Y6599D02*Y6449D01*
X9490Y6549D02*Y6449D01*
X9540Y6399D01*
X9640D01*
X7200Y2900D02*X7400D01*
X7450Y2850D01*
Y2750D01*
X7400Y2700D02*X7450Y2750D01*
X7250Y2700D02*X7400D01*
X7250Y2900D02*Y2500D01*
Y2700D02*X7450Y2500D01*
X7570Y2850D02*X7620Y2900D01*
X7770D01*
X7820Y2850D01*
Y2750D01*
X7570Y2500D02*X7820Y2750D01*
X7570Y2500D02*X7820D01*
X7950Y5900D02*X8150D01*
X8200Y5850D01*
Y5750D01*
X8150Y5700D02*X8200Y5750D01*
X8000Y5700D02*X8150D01*
X8000Y5900D02*Y5500D01*
Y5700D02*X8200Y5500D01*
X8320Y5850D02*X8370Y5900D01*
X8470D01*
X8520Y5850D01*
Y5550D01*
X8470Y5500D02*X8520Y5550D01*
X8370Y5500D02*X8470D01*
X8320Y5550D02*X8370Y5500D01*
Y5700D02*X8520D01*
X7200Y3600D02*X7400D01*
X7450Y3550D01*
Y3450D01*
X7400Y3400D02*X7450Y3450D01*
X7250Y3400D02*X7400D01*
X7250Y3600D02*Y3200D01*
Y3400D02*X7450Y3200D01*
X7620D02*X7720D01*
X7670Y3600D02*Y3200D01*
X7570Y3500D02*X7670Y3600D01*
X6500Y4850D02*Y4700D01*
X6550Y4900D02*X6500Y4850D01*
X6550Y4900D02*X6850D01*
X6900Y4850D01*
Y4700D01*
X6500Y4579D02*X6750Y4329D01*
X6900D01*
Y4579D02*Y4329D01*
X10300Y4900D02*X10450D01*
X10250Y4950D02*X10300Y4900D01*
X10250Y5250D02*Y4950D01*
Y5250D02*X10300Y5300D01*
X10450D01*
X10620Y4900D02*X10720D01*
X10670Y5300D02*Y4900D01*
X10570Y5200D02*X10670Y5300D01*
X9350Y3100D02*X9500D01*
X9300Y3150D02*X9350Y3100D01*
X9300Y3450D02*Y3150D01*
Y3450D02*X9350Y3500D01*
X9500D01*
X9620Y3450D02*Y3150D01*
Y3450D02*X9670Y3500D01*
X9770D01*
X9820Y3450D01*
Y3150D01*
X9770Y3100D02*X9820Y3150D01*
X9670Y3100D02*X9770D01*
X9620Y3150D02*X9670Y3100D01*
X9940Y3500D02*Y3100D01*
Y3500D02*Y3450D01*
X10190Y3200D01*
Y3500D02*Y3100D01*
X10310Y3500D02*Y3100D01*
Y3500D02*Y3450D01*
X10560Y3200D01*
Y3500D02*Y3100D01*
X10830Y3500D02*X10880Y3450D01*
X10730Y3500D02*X10830D01*
X10680Y3450D02*X10730Y3500D01*
X10680Y3450D02*Y3150D01*
X10730Y3100D01*
X10830Y3300D02*X10880Y3250D01*
X10680Y3300D02*X10830D01*
X10730Y3100D02*X10830D01*
X10880Y3150D01*
Y3250D02*Y3150D01*
X7650Y7800D02*X7800D01*
X7600Y7850D02*X7650Y7800D01*
X7600Y8150D02*Y7850D01*
Y8150D02*X7650Y8200D01*
X7800D01*
X7920Y8150D02*X7970Y8200D01*
X8120D01*
X8170Y8150D01*
Y8050D01*
X7920Y7800D02*X8170Y8050D01*
X7920Y7800D02*X8170D01*
X13220Y16460D02*X13370D01*
X13170Y16510D02*X13220Y16460D01*
X13170Y16810D02*Y16510D01*
Y16810D02*X13220Y16860D01*
X13370D01*
X13490Y16460D02*X13690Y16660D01*
Y16810D02*Y16660D01*
X13640Y16860D02*X13690Y16810D01*
X13540Y16860D02*X13640D01*
X13490Y16810D02*X13540Y16860D01*
X13490Y16810D02*Y16710D01*
X13540Y16660D01*
X13690D01*
X14210Y13950D02*X14410D01*
X14460Y13900D01*
Y13800D01*
X14410Y13750D02*X14460Y13800D01*
X14260Y13750D02*X14410D01*
X14260Y13950D02*Y13550D01*
Y13750D02*X14460Y13550D01*
X14580Y13600D02*X14630Y13550D01*
X14580Y13700D02*Y13600D01*
Y13700D02*X14630Y13750D01*
X14730D01*
X14780Y13700D01*
Y13600D01*
X14730Y13550D02*X14780Y13600D01*
X14630Y13550D02*X14730D01*
X14580Y13800D02*X14630Y13750D01*
X14580Y13900D02*Y13800D01*
Y13900D02*X14630Y13950D01*
X14730D01*
X14780Y13900D01*
Y13800D01*
X14730Y13750D02*X14780Y13800D01*
X12950Y13950D02*X13150D01*
X13200Y13900D01*
Y13800D01*
X13150Y13750D02*X13200Y13800D01*
X13000Y13750D02*X13150D01*
X13000Y13950D02*Y13550D01*
Y13750D02*X13200Y13550D01*
X13320D02*X13570Y13800D01*
Y13950D02*Y13800D01*
X13320Y13950D02*X13570D01*
X10600D02*Y13800D01*
X10650Y14000D02*X10600Y13950D01*
X10650Y14000D02*X10950D01*
X11000Y13950D01*
Y13800D01*
X10650Y13679D02*X10950D01*
X11000Y13629D01*
Y13529D01*
X10950Y13479D01*
X10650D02*X10950D01*
X10600Y13529D02*X10650Y13479D01*
X10600Y13629D02*Y13529D01*
X10650Y13679D02*X10600Y13629D01*
Y13359D02*X11000D01*
X10950D02*X11000D01*
X10950D02*X10700Y13109D01*
X10600D02*X11000D01*
X10600Y12989D02*X11000D01*
X10950D02*X11000D01*
X10950D02*X10700Y12739D01*
X10600D02*X11000D01*
X10600Y12569D02*Y12469D01*
Y12519D02*X11000D01*
X10900Y12619D02*X11000Y12519D01*
X10650Y12349D02*X10600Y12299D01*
X10650Y12349D02*X10950D01*
X11000Y12299D01*
Y12199D01*
X10950Y12149D01*
X10650D02*X10950D01*
X10600Y12199D02*X10650Y12149D01*
X10600Y12299D02*Y12199D01*
X10700Y12349D02*X10900Y12149D01*
X6910Y12610D02*X7110D01*
X7160Y12560D01*
Y12460D01*
X7110Y12410D02*X7160Y12460D01*
X6960Y12410D02*X7110D01*
X6960Y12610D02*Y12210D01*
Y12410D02*X7160Y12210D01*
X7280Y12610D02*X7480D01*
X7280D02*Y12410D01*
X7330Y12460D01*
X7430D01*
X7480Y12410D01*
Y12260D01*
X7430Y12210D02*X7480Y12260D01*
X7330Y12210D02*X7430D01*
X7280Y12260D02*X7330Y12210D01*
X6940Y13840D02*X7140D01*
X7190Y13790D01*
Y13690D01*
X7140Y13640D02*X7190Y13690D01*
X6990Y13640D02*X7140D01*
X6990Y13840D02*Y13440D01*
Y13640D02*X7190Y13440D01*
X7310Y13640D02*X7510Y13840D01*
X7310Y13640D02*X7560D01*
X7510Y13840D02*Y13440D01*
X24430Y14150D02*Y14000D01*
X24480Y14200D02*X24430Y14150D01*
X24480Y14200D02*X24780D01*
X24830Y14150D01*
Y14000D01*
X24480Y13879D02*X24780D01*
X24830Y13829D01*
Y13729D01*
X24780Y13679D01*
X24480D02*X24780D01*
X24430Y13729D02*X24480Y13679D01*
X24430Y13829D02*Y13729D01*
X24480Y13879D02*X24430Y13829D01*
Y13559D02*X24830D01*
X24780D02*X24830D01*
X24780D02*X24530Y13309D01*
X24430D02*X24830D01*
X24430Y13189D02*X24830D01*
X24780D02*X24830D01*
X24780D02*X24530Y12939D01*
X24430D02*X24830D01*
X24430Y12769D02*Y12669D01*
Y12719D02*X24830D01*
X24730Y12819D02*X24830Y12719D01*
X24780Y12549D02*X24830Y12499D01*
Y12399D01*
X24780Y12349D01*
X24480D02*X24780D01*
X24430Y12399D02*X24480Y12349D01*
X24430Y12499D02*Y12399D01*
X24480Y12549D02*X24430Y12499D01*
X24630D02*Y12349D01*
X1900Y12600D02*X2050D01*
X2100Y12550D02*X2050Y12600D01*
X2100Y12550D02*Y12250D01*
X2050Y12200D01*
X1900D02*X2050D01*
X1779Y12550D02*Y12250D01*
X1729Y12200D01*
X1629D02*X1729D01*
X1629D02*X1579Y12250D01*
Y12550D02*Y12250D01*
X1629Y12600D02*X1579Y12550D01*
X1629Y12600D02*X1729D01*
X1779Y12550D02*X1729Y12600D01*
X1459D02*Y12200D01*
Y12250D02*Y12200D01*
Y12250D02*X1209Y12500D01*
Y12600D02*Y12200D01*
X1089Y12600D02*Y12200D01*
Y12250D02*Y12200D01*
Y12250D02*X839Y12500D01*
Y12600D02*Y12200D01*
X519D02*X719D01*
Y12400D02*Y12200D01*
Y12400D02*X669Y12350D01*
X569D02*X669D01*
X569D02*X519Y12400D01*
Y12550D02*Y12400D01*
X569Y12600D02*X519Y12550D01*
X569Y12600D02*X669D01*
X719Y12550D02*X669Y12600D01*
X12250Y15650D02*Y15500D01*
X12300Y15700D02*X12250Y15650D01*
X12300Y15700D02*X12600D01*
X12650Y15650D01*
Y15500D01*
X12250Y15329D02*Y15229D01*
Y15279D02*X12650D01*
X12550Y15379D02*X12650Y15279D01*
X12250Y15059D02*Y14959D01*
Y15009D02*X12650D01*
X12550Y15109D02*X12650Y15009D01*
X11600Y16600D02*X11550Y16550D01*
X11600Y16750D02*Y16600D01*
X11550Y16800D02*X11600Y16750D01*
X11450Y16800D02*X11550D01*
X11450D02*X11400Y16750D01*
Y16600D01*
X11350Y16550D01*
X11250D02*X11350D01*
X11200Y16600D02*X11250Y16550D01*
X11200Y16750D02*Y16600D01*
X11250Y16800D02*X11200Y16750D01*
Y16429D02*X11600D01*
X11200D02*X11350Y16279D01*
X11200Y16129D01*
X11600D01*
Y16009D02*Y15909D01*
X11200Y15959D02*X11600D01*
X11200Y16009D02*Y15909D01*
X11600Y15789D02*Y15589D01*
X11200Y15689D02*X11600D01*
X11200Y15419D02*Y15269D01*
X11250Y15469D02*X11200Y15419D01*
X11250Y15469D02*X11550D01*
X11600Y15419D01*
Y15269D01*
X11200Y15149D02*X11600D01*
X11200Y14899D02*X11600D01*
X11400Y15149D02*Y14899D01*
X11200Y14729D02*Y14629D01*
Y14679D02*X11600D01*
X11500Y14779D02*X11600Y14679D01*
X15680Y14810D02*X15830D01*
X15880Y14760D02*X15830Y14810D01*
X15880Y14760D02*Y14460D01*
X15830Y14410D01*
X15680D02*X15830D01*
X15409Y14810D02*X15509D01*
X15459D02*Y14410D01*
X15559Y14510D02*X15459Y14410D01*
X15289Y14760D02*X15239Y14810D01*
X15289Y14760D02*Y14460D01*
X15239Y14410D01*
X15139D02*X15239D01*
X15139D02*X15089Y14460D01*
Y14760D02*Y14460D01*
X15139Y14810D02*X15089Y14760D01*
X15139Y14810D02*X15239D01*
X15289Y14710D02*X15089Y14510D01*
X16470Y16960D02*Y16760D01*
X16420Y16710D01*
X16320D02*X16420D01*
X16270Y16760D02*X16320Y16710D01*
X16270Y16910D02*Y16760D01*
X16070Y16910D02*X16470D01*
X16270D02*X16070Y16710D01*
Y16539D02*Y16439D01*
Y16489D02*X16470D01*
X16370Y16589D02*X16470Y16489D01*
X16120Y16319D02*X16070Y16269D01*
X16120Y16319D02*X16420D01*
X16470Y16269D01*
Y16169D01*
X16420Y16119D01*
X16120D02*X16420D01*
X16070Y16169D02*X16120Y16119D01*
X16070Y16269D02*Y16169D01*
X16170Y16319D02*X16370Y16119D01*
X14650Y15900D02*Y15550D01*
X14700Y15500D01*
X14800D01*
X14850Y15550D01*
Y15900D02*Y15550D01*
X15020Y15500D02*X15120D01*
X15070Y15900D02*Y15500D01*
X14970Y15800D02*X15070Y15900D01*
X15240Y15850D02*X15290Y15900D01*
X15440D01*
X15490Y15850D01*
Y15750D01*
X15240Y15500D02*X15490Y15750D01*
X15240Y15500D02*X15490D01*
X17380Y14040D02*X17580D01*
X17380D02*X17330Y14090D01*
Y14190D02*Y14090D01*
X17380Y14240D02*X17330Y14190D01*
X17380Y14240D02*X17530D01*
Y14440D02*Y14040D01*
Y14240D02*X17330Y14440D01*
X17209D02*X17009Y14240D01*
Y14090D01*
X17059Y14040D02*X17009Y14090D01*
X17059Y14040D02*X17159D01*
X17209Y14090D02*X17159Y14040D01*
X17209Y14190D02*Y14090D01*
Y14190D02*X17159Y14240D01*
X17009D02*X17159D01*
X18580Y16660D02*Y16510D01*
X18630Y16710D02*X18580Y16660D01*
X18630Y16710D02*X18930D01*
X18980Y16660D01*
Y16510D01*
X18630Y16389D02*X18930D01*
X18980Y16339D01*
Y16239D01*
X18930Y16189D01*
X18630D02*X18930D01*
X18580Y16239D02*X18630Y16189D01*
X18580Y16339D02*Y16239D01*
X18630Y16389D02*X18580Y16339D01*
Y16069D02*X18980D01*
X18930D02*X18980D01*
X18930D02*X18680Y15819D01*
X18580D02*X18980D01*
X18580Y15699D02*X18980D01*
X18930D02*X18980D01*
X18930D02*X18680Y15449D01*
X18580D02*X18980D01*
X18580Y15279D02*Y15179D01*
Y15229D02*X18980D01*
X18880Y15329D02*X18980Y15229D01*
X18780Y15059D02*X18980Y14859D01*
X18780Y15059D02*Y14809D01*
X18580Y14859D02*X18980D01*
X8000Y16500D02*Y16150D01*
X8050Y16100D01*
X8150D01*
X8200Y16150D01*
Y16500D02*Y16150D01*
X8370Y16100D02*X8470D01*
X8420Y16500D02*Y16100D01*
X8320Y16400D02*X8420Y16500D01*
X8590Y16450D02*X8640Y16500D01*
X8740D01*
X8790Y16450D01*
Y16150D01*
X8740Y16100D02*X8790Y16150D01*
X8640Y16100D02*X8740D01*
X8590Y16150D02*X8640Y16100D01*
Y16300D02*X8790D01*
X19190Y16460D02*X19390D01*
X19440Y16510D01*
Y16610D02*Y16510D01*
X19390Y16660D02*X19440Y16610D01*
X19240Y16660D02*X19390D01*
X19240Y16860D02*Y16460D01*
X19190Y16860D02*X19390D01*
X19440Y16810D01*
Y16710D01*
X19390Y16660D02*X19440Y16710D01*
X19560Y16810D02*Y16460D01*
Y16810D02*X19610Y16860D01*
X19760D01*
X19810Y16810D01*
Y16460D01*
X19560Y16660D02*X19810D01*
X19930Y16860D02*X20130D01*
X20030D02*Y16460D01*
X20250Y16860D02*X20450D01*
X20350D02*Y16460D01*
X20570Y16660D02*X20720D01*
X20570Y16460D02*X20770D01*
X20570Y16860D02*Y16460D01*
Y16860D02*X20770D01*
X20890D02*X21090D01*
X21140Y16810D01*
Y16710D01*
X21090Y16660D02*X21140Y16710D01*
X20940Y16660D02*X21090D01*
X20940Y16860D02*Y16460D01*
Y16660D02*X21140Y16460D01*
X21260Y16860D02*Y16810D01*
X21360Y16710D01*
X21460Y16810D01*
Y16860D02*Y16810D01*
X21360Y16710D02*Y16460D01*
X21630D02*X21730D01*
X21680Y16860D02*Y16460D01*
X21580Y16760D02*X21680Y16860D01*
X8170Y10250D02*Y10100D01*
X8120Y10050D02*X8170Y10100D01*
X7820Y10050D02*X8120D01*
X7820D02*X7770Y10100D01*
Y10250D02*Y10100D01*
X7970Y10370D02*X7770Y10570D01*
X7970Y10620D02*Y10370D01*
X7770Y10570D02*X8170D01*
X4270Y10100D02*Y9950D01*
X4220Y9900D02*X4270Y9950D01*
X3920Y9900D02*X4220D01*
X3920D02*X3870Y9950D01*
Y10100D02*Y9950D01*
X3920Y10220D02*X3870Y10270D01*
Y10370D02*Y10270D01*
Y10370D02*X3920Y10420D01*
X4220D01*
X4270Y10370D02*X4220Y10420D01*
X4270Y10370D02*Y10270D01*
X4220Y10220D02*X4270Y10270D01*
X4070Y10420D02*Y10270D01*
X5170Y9800D02*Y9450D01*
X5220Y9400D01*
X5320D01*
X5370Y9450D01*
Y9800D02*Y9450D01*
X5490Y9800D02*X5690D01*
X5490D02*Y9600D01*
X5540Y9650D01*
X5640D01*
X5690Y9600D01*
Y9450D01*
X5640Y9400D02*X5690Y9450D01*
X5540Y9400D02*X5640D01*
X5490Y9450D02*X5540Y9400D01*
X14700Y9700D02*Y9350D01*
X14750Y9300D01*
X14850D01*
X14900Y9350D01*
Y9700D02*Y9350D01*
X15070Y9300D02*X15170D01*
X15120Y9700D02*Y9300D01*
X15020Y9600D02*X15120Y9700D01*
X15340Y9300D02*X15440D01*
X15390Y9700D02*Y9300D01*
X15290Y9600D02*X15390Y9700D01*
X23540Y5400D02*Y5250D01*
X23590Y5450D02*X23540Y5400D01*
X23590Y5450D02*X23890D01*
X23940Y5400D01*
Y5250D01*
X23590Y5129D02*X23890D01*
X23940Y5079D01*
Y4979D01*
X23890Y4929D01*
X23590D02*X23890D01*
X23540Y4979D02*X23590Y4929D01*
X23540Y5079D02*Y4979D01*
X23590Y5129D02*X23540Y5079D01*
Y4809D02*X23940D01*
X23890D02*X23940D01*
X23890D02*X23640Y4559D01*
X23540D02*X23940D01*
X23540Y4439D02*X23940D01*
X23890D02*X23940D01*
X23890D02*X23640Y4189D01*
X23540D02*X23940D01*
X23540Y4069D02*X23740Y3869D01*
X23890D01*
X23940Y3919D02*X23890Y3869D01*
X23940Y4019D02*Y3919D01*
X23890Y4069D02*X23940Y4019D01*
X23790Y4069D02*X23890D01*
X23790D02*X23740Y4019D01*
Y3869D01*
X23990Y1400D02*Y1250D01*
X23940Y1200D02*X23990Y1250D01*
X23640Y1200D02*X23940D01*
X23640D02*X23590Y1250D01*
Y1400D02*Y1250D01*
X23640Y1520D02*X23940D01*
X23640D02*X23590Y1570D01*
Y1670D02*Y1570D01*
Y1670D02*X23640Y1720D01*
X23940D01*
X23990Y1670D02*X23940Y1720D01*
X23990Y1670D02*Y1570D01*
X23940Y1520D02*X23990Y1570D01*
X23590Y1840D02*X23990D01*
X23590D02*X23640D01*
X23890Y2090D01*
X23590D02*X23990D01*
X23590Y2210D02*X23990D01*
X23590D02*X23640D01*
X23890Y2460D01*
X23590D02*X23990D01*
Y2730D02*Y2630D01*
X23590Y2680D02*X23990D01*
X23690Y2580D02*X23590Y2680D01*
X23640Y2850D02*X23590Y2900D01*
Y3050D02*Y2900D01*
Y3050D02*X23640Y3100D01*
X23740D01*
X23990Y2850D02*X23740Y3100D01*
X23990D02*Y2850D01*
X20690Y4500D02*Y4350D01*
X20740Y4550D02*X20690Y4500D01*
X20740Y4550D02*X21040D01*
X21090Y4500D01*
Y4350D01*
X20740Y4229D02*X21040D01*
X21090Y4179D01*
Y4079D01*
X21040Y4029D01*
X20740D02*X21040D01*
X20690Y4079D02*X20740Y4029D01*
X20690Y4179D02*Y4079D01*
X20740Y4229D02*X20690Y4179D01*
Y3909D02*X21090D01*
X21040D02*X21090D01*
X21040D02*X20790Y3659D01*
X20690D02*X21090D01*
X20690Y3539D02*X21090D01*
X21040D02*X21090D01*
X21040D02*X20790Y3289D01*
X20690D02*X21090D01*
X20690Y3119D02*Y3019D01*
Y3069D02*X21090D01*
X20990Y3169D02*X21090Y3069D01*
X14300Y5550D02*Y5400D01*
X14350Y5600D02*X14300Y5550D01*
X14350Y5600D02*X14650D01*
X14700Y5550D01*
Y5400D01*
X14350Y5279D02*X14650D01*
X14700Y5229D01*
Y5129D01*
X14650Y5079D01*
X14350D02*X14650D01*
X14300Y5129D02*X14350Y5079D01*
X14300Y5229D02*Y5129D01*
X14350Y5279D02*X14300Y5229D01*
Y4959D02*X14700D01*
X14650D02*X14700D01*
X14650D02*X14400Y4709D01*
X14300D02*X14700D01*
X14300Y4589D02*X14700D01*
X14650D02*X14700D01*
X14650D02*X14400Y4339D01*
X14300D02*X14700D01*
X14650Y4219D02*X14700Y4169D01*
Y4019D01*
X14650Y3969D01*
X14550D02*X14650D01*
X14300Y4219D02*X14550Y3969D01*
X14300Y4219D02*Y3969D01*
X15150Y2000D02*X15300D01*
X15100Y2050D02*X15150Y2000D01*
X15100Y2350D02*Y2050D01*
Y2350D02*X15150Y2400D01*
X15300D01*
X15420Y2350D02*Y2050D01*
Y2350D02*X15470Y2400D01*
X15570D01*
X15620Y2350D01*
Y2050D01*
X15570Y2000D02*X15620Y2050D01*
X15470Y2000D02*X15570D01*
X15420Y2050D02*X15470Y2000D01*
X15740Y2400D02*Y2000D01*
Y2400D02*Y2350D01*
X15990Y2100D01*
Y2400D02*Y2000D01*
X16110Y2400D02*Y2000D01*
Y2400D02*Y2350D01*
X16360Y2100D01*
Y2400D02*Y2000D01*
X16530D02*X16630D01*
X16580Y2400D02*Y2000D01*
X16480Y2300D02*X16580Y2400D01*
X16800Y2000D02*X16900D01*
X16850Y2400D02*Y2000D01*
X16750Y2300D02*X16850Y2400D01*
X18180Y2250D02*Y1900D01*
Y2250D02*X18130Y2300D01*
X18030D02*X18130D01*
X18030D02*X17980Y2250D01*
Y1900D01*
X17859Y2300D02*X17609Y2050D01*
Y1900D01*
X17859D01*
X18400Y4450D02*Y4300D01*
X18350Y4250D02*X18400Y4300D01*
X18050Y4250D02*X18350D01*
X18050D02*X18000Y4300D01*
Y4450D02*Y4300D01*
Y4720D02*X18050Y4770D01*
X18000Y4720D02*Y4620D01*
X18050Y4570D02*X18000Y4620D01*
X18050Y4570D02*X18350D01*
X18400Y4620D01*
X18200Y4720D02*X18250Y4770D01*
X18200Y4720D02*Y4570D01*
X18400Y4720D02*Y4620D01*
Y4720D02*X18350Y4770D01*
X18250D02*X18350D01*
X15900Y4100D02*Y3950D01*
X15850Y3900D02*X15900Y3950D01*
X15550Y3900D02*X15850D01*
X15550D02*X15500Y3950D01*
Y4100D02*Y3950D01*
Y4420D02*Y4220D01*
X15700D01*
X15650Y4270D01*
Y4370D02*Y4270D01*
Y4370D02*X15700Y4420D01*
X15850D01*
X15900Y4370D02*X15850Y4420D01*
X15900Y4370D02*Y4270D01*
X15850Y4220D02*X15900Y4270D01*
M02*
