M48
INCH,TZ
T12C0.020
T17C0.038
T18C0.028
T19C0.090
%
T12
X000780Y008960
X000780Y008460
X000780Y007960
X000780Y007460
X000780Y006960
X000780Y006460
X000780Y005960
X000780Y005460
X014280Y014980
X018190Y014400
X018470Y011642
X018100Y013735
X018470Y011262
X017585Y010458
X017145Y014117
X017900Y014090
X016500Y009025
X015935Y009355
X014755Y008465
X015462Y008695
X022230Y013760
X020160Y013530
X021850Y014040
X021470Y013250
X022610Y012895
X025165Y013175
X024785Y013455
X024885Y012120
X025020Y008840
X024160Y012535
X025775Y012555
X019075Y010952
X021710Y010645
X020190Y009430
X021530Y009075
X022212Y008445
X017832Y004880
X017145Y005160
X017525Y005720
X019660Y005720
X021230Y004350
X016000Y003722
X018995Y000619
X007610Y015720
X006850Y016420
X014945Y013741
X013720Y014040
X011770Y014029
X015585Y013741
X016205Y013735
X008410Y016140
X011745Y011925
X007720Y012320
X014980Y015867
X008940Y005850
X007420Y004917
X007180Y002650
X007700Y004265
X002432Y008422
X001247Y008240
X004298Y008096
X004710Y003360
X004430Y005197
X003980Y004917
X002280Y003440
X002789Y005409
X002789Y004000
X002115Y005165
X002499Y004690
X002381Y005994
X007940Y008091
X008300Y005994
X012092Y011279
X012443Y010137
X009930Y009710
X009550Y009508
X009550Y008831
X009170Y008955
X011410Y009809
X010995Y009480
X016220Y007439
X013715Y007670
X014375Y008745
X010210Y007332
X009645Y007300
T18
X018000Y003000
X002700Y014300
X003700Y014300
X003700Y015100
X002700Y015100
X016000Y003000
T17
X021940Y004950
X022940Y004950
X021940Y003950
X022940Y003950
X022940Y002950
X022940Y001950
X022940Y000950
X024590Y001700
X024590Y002700
X010000Y013500
X010000Y012500
X010000Y011500
X010000Y010500
X010600Y016300
X010600Y015300
X017980Y016210
X021940Y001950
X021940Y000950
X021940Y002950
X020090Y004050
X020090Y003050
X020090Y002050
X020090Y001050
X019690Y015860
X020690Y015860
X009800Y001400
X009800Y002400
X010800Y001400
X010800Y002400
X011800Y001400
X015600Y001400
X016600Y001400
X011800Y002400
X013700Y005100
X013700Y004100
X013700Y003100
X013700Y002100
X013700Y001100
T19
X000800Y016200
X005600Y016200
M30
