G04 start of page 9 for group -3984 idx -3984
G04 Title: (unknown), fab *
G04 Creator: pcb 20070912 *
G04 CreationDate: Fri Dec  7 19:10:14 2007 UTC *
G04 For: sean *
G04 Format: Gerber/RS-274X *
G04 PCB-Dimensions: 260000 170000 *
G04 PCB-Coordinate-Origin: lower left *
%MOIN*%
%FSLAX24Y24*%
%LNFAB*%
%ADD11C,0.0100*%
%ADD43C,0.0060*%
%ADD44R,0.0080X0.0080*%
G54D44*X720Y16200D02*G75*G03X880Y16200I80J0D01*G01*
G75*G03X720Y16200I-80J0D01*G01*
X5520D02*G75*G03X5680Y16200I80J0D01*G01*
G75*G03X5520Y16200I-80J0D01*G01*
X1420Y18125D02*G75*G03X1580Y18125I80J0D01*G01*
G75*G03X1420Y18125I-80J0D01*G01*
G54D43*X13500Y18350D02*Y18275D01*
X13650Y18125D01*
X13800Y18275D01*
Y18350D02*Y18275D01*
X13650Y18125D02*Y17750D01*
X13980Y18050D02*X14205D01*
X13980Y17750D02*X14280D01*
X13980Y18350D02*Y17750D01*
Y18350D02*X14280D01*
X14760D02*X14835Y18275D01*
X14535Y18350D02*X14760D01*
X14460Y18275D02*X14535Y18350D01*
X14460Y18275D02*Y18125D01*
X14535Y18050D01*
X14760D01*
X14835Y17975D01*
Y17825D01*
X14760Y17750D02*X14835Y17825D01*
X14535Y17750D02*X14760D01*
X14460Y17825D02*X14535Y17750D01*
X13500Y17424D02*X15015D01*
X9800Y18275D02*X9875Y18350D01*
X10100D01*
X10175Y18275D01*
Y18125D01*
X9800Y17750D02*X10175Y18125D01*
X9800Y17750D02*X10175D01*
X9800Y17424D02*X10355D01*
X4500Y17825D02*X4575Y17750D01*
X4500Y18275D02*Y17825D01*
Y18275D02*X4575Y18350D01*
X4725D01*
X4800Y18275D01*
Y17825D01*
X4725Y17750D02*X4800Y17825D01*
X4575Y17750D02*X4725D01*
X4500Y17900D02*X4800Y18200D01*
X4980Y17750D02*X5055D01*
X5235Y17825D02*X5310Y17750D01*
X5235Y18275D02*Y17825D01*
Y18275D02*X5310Y18350D01*
X5460D01*
X5535Y18275D01*
Y17825D01*
X5460Y17750D02*X5535Y17825D01*
X5310Y17750D02*X5460D01*
X5235Y17900D02*X5535Y18200D01*
X5715Y17750D02*X6015Y18050D01*
Y18275D02*Y18050D01*
X5940Y18350D02*X6015Y18275D01*
X5790Y18350D02*X5940D01*
X5715Y18275D02*X5790Y18350D01*
X5715Y18275D02*Y18125D01*
X5790Y18050D01*
X6015D01*
X6195Y17825D02*X6270Y17750D01*
X6195Y18275D02*Y17825D01*
Y18275D02*X6270Y18350D01*
X6420D01*
X6495Y18275D01*
Y17825D01*
X6420Y17750D02*X6495Y17825D01*
X6270Y17750D02*X6420D01*
X6195Y17900D02*X6495Y18200D01*
X4500Y17424D02*X6675D01*
X17860Y16330D02*X18100Y16090D01*
X17860D02*X18100Y16330D01*
X10480Y16420D02*X10720Y16180D01*
X10480D02*X10720Y16420D01*
X10480Y15420D02*X10720Y15180D01*
X10480D02*X10720Y15420D01*
X19570Y15980D02*X19810Y15740D01*
X19570D02*X19810Y15980D01*
X20570D02*X20810Y15740D01*
X20570D02*X20810Y15980D01*
X19970Y4170D02*X20210Y3930D01*
X19970D02*X20210Y4170D01*
X19970Y3170D02*X20210Y2930D01*
X19970D02*X20210Y3170D01*
X19970Y2170D02*X20210Y1930D01*
X19970D02*X20210Y2170D01*
X19970Y1170D02*X20210Y930D01*
X19970D02*X20210Y1170D01*
X15480Y1520D02*X15720Y1280D01*
X15480D02*X15720Y1520D01*
X16480D02*X16720Y1280D01*
X16480D02*X16720Y1520D01*
X13580Y5220D02*X13820Y4980D01*
X13580D02*X13820Y5220D01*
X13580Y4220D02*X13820Y3980D01*
X13580D02*X13820Y4220D01*
X13580Y3220D02*X13820Y2980D01*
X13580D02*X13820Y3220D01*
X13580Y2220D02*X13820Y1980D01*
X13580D02*X13820Y2220D01*
X13580Y1220D02*X13820Y980D01*
X13580D02*X13820Y1220D01*
X24470Y1820D02*X24710Y1580D01*
X24470D02*X24710Y1820D01*
X24470Y2820D02*X24710Y2580D01*
X24470D02*X24710Y2820D01*
X9680Y1520D02*X9920Y1280D01*
X9680D02*X9920Y1520D01*
X9680Y2520D02*X9920Y2280D01*
X9680D02*X9920Y2520D01*
X10680Y1520D02*X10920Y1280D01*
X10680D02*X10920Y1520D01*
X10680Y2520D02*X10920Y2280D01*
X10680D02*X10920Y2520D01*
X11680Y1520D02*X11920Y1280D01*
X11680D02*X11920Y1520D01*
X11680Y2520D02*X11920Y2280D01*
X11680D02*X11920Y2520D01*
X21820Y5070D02*X22060Y4830D01*
X21820D02*X22060Y5070D01*
X22820D02*X23060Y4830D01*
X22820D02*X23060Y5070D01*
X21820Y4070D02*X22060Y3830D01*
X21820D02*X22060Y4070D01*
X22820D02*X23060Y3830D01*
X22820D02*X23060Y4070D01*
X21820Y3070D02*X22060Y2830D01*
X21820D02*X22060Y3070D01*
X22820D02*X23060Y2830D01*
X22820D02*X23060Y3070D01*
X21820Y2070D02*X22060Y1830D01*
X21820D02*X22060Y2070D01*
X22820D02*X23060Y1830D01*
X22820D02*X23060Y2070D01*
X21820Y1070D02*X22060Y830D01*
X21820D02*X22060Y1070D01*
X22820D02*X23060Y830D01*
X22820D02*X23060Y1070D01*
X9880Y13620D02*X10120Y13380D01*
X9880D02*X10120Y13620D01*
X9880Y12620D02*X10120Y12380D01*
X9880D02*X10120Y12620D01*
X9880Y11620D02*X10120Y11380D01*
X9880D02*X10120Y11620D01*
X9880Y10620D02*X10120Y10380D01*
X9880D02*X10120Y10620D01*
X1380Y19745D02*X1620Y19505D01*
X1380D02*X1620Y19745D01*
X13500Y19850D02*Y19775D01*
X13650Y19625D01*
X13800Y19775D01*
Y19850D02*Y19775D01*
X13650Y19625D02*Y19250D01*
X13980Y19550D02*X14205D01*
X13980Y19250D02*X14280D01*
X13980Y19850D02*Y19250D01*
Y19850D02*X14280D01*
X14760D02*X14835Y19775D01*
X14535Y19850D02*X14760D01*
X14460Y19775D02*X14535Y19850D01*
X14460Y19775D02*Y19625D01*
X14535Y19550D01*
X14760D01*
X14835Y19475D01*
Y19325D01*
X14760Y19250D02*X14835Y19325D01*
X14535Y19250D02*X14760D01*
X14460Y19325D02*X14535Y19250D01*
X13500Y18924D02*X15015D01*
X9800Y19775D02*X9875Y19850D01*
X10025D01*
X10100Y19775D01*
Y19325D01*
X10025Y19250D02*X10100Y19325D01*
X9875Y19250D02*X10025D01*
X9800Y19325D02*X9875Y19250D01*
Y19550D02*X10100D01*
X10280Y19325D02*X10355Y19250D01*
X10280Y19475D02*Y19325D01*
Y19475D02*X10355Y19550D01*
X10505D01*
X10580Y19475D01*
Y19325D01*
X10505Y19250D02*X10580Y19325D01*
X10355Y19250D02*X10505D01*
X10280Y19625D02*X10355Y19550D01*
X10280Y19775D02*Y19625D01*
Y19775D02*X10355Y19850D01*
X10505D01*
X10580Y19775D01*
Y19625D01*
X10505Y19550D02*X10580Y19625D01*
X9800Y18924D02*X10760D01*
X4500Y19325D02*X4575Y19250D01*
X4500Y19775D02*Y19325D01*
Y19775D02*X4575Y19850D01*
X4725D01*
X4800Y19775D01*
Y19325D01*
X4725Y19250D02*X4800Y19325D01*
X4575Y19250D02*X4725D01*
X4500Y19400D02*X4800Y19700D01*
X4980Y19250D02*X5055D01*
X5235Y19325D02*X5310Y19250D01*
X5235Y19775D02*Y19325D01*
Y19775D02*X5310Y19850D01*
X5460D01*
X5535Y19775D01*
Y19325D01*
X5460Y19250D02*X5535Y19325D01*
X5310Y19250D02*X5460D01*
X5235Y19400D02*X5535Y19700D01*
X5715Y19775D02*X5790Y19850D01*
X5940D01*
X6015Y19775D01*
Y19325D01*
X5940Y19250D02*X6015Y19325D01*
X5790Y19250D02*X5940D01*
X5715Y19325D02*X5790Y19250D01*
Y19550D02*X6015D01*
X6195Y19325D02*X6270Y19250D01*
X6195Y19475D02*Y19325D01*
Y19475D02*X6270Y19550D01*
X6420D01*
X6495Y19475D01*
Y19325D01*
X6420Y19250D02*X6495Y19325D01*
X6270Y19250D02*X6420D01*
X6195Y19625D02*X6270Y19550D01*
X6195Y19775D02*Y19625D01*
Y19775D02*X6270Y19850D01*
X6420D01*
X6495Y19775D01*
Y19625D01*
X6420Y19550D02*X6495Y19625D01*
X4500Y18924D02*X6675D01*
X2700Y14460D02*Y14140D01*
X2540Y14300D02*X2860D01*
X3700Y14460D02*Y14140D01*
X3540Y14300D02*X3860D01*
X3700Y15260D02*Y14940D01*
X3540Y15100D02*X3860D01*
X2700Y15260D02*Y14940D01*
X2540Y15100D02*X2860D01*
X18000Y3160D02*Y2840D01*
X17840Y3000D02*X18160D01*
X16000Y3160D02*Y2840D01*
X15840Y3000D02*X16160D01*
X1500Y21285D02*Y20965D01*
X1340Y21125D02*X1660D01*
X13500Y21350D02*Y21275D01*
X13650Y21125D01*
X13800Y21275D01*
Y21350D02*Y21275D01*
X13650Y21125D02*Y20750D01*
X13980Y21050D02*X14205D01*
X13980Y20750D02*X14280D01*
X13980Y21350D02*Y20750D01*
Y21350D02*X14280D01*
X14760D02*X14835Y21275D01*
X14535Y21350D02*X14760D01*
X14460Y21275D02*X14535Y21350D01*
X14460Y21275D02*Y21125D01*
X14535Y21050D01*
X14760D01*
X14835Y20975D01*
Y20825D01*
X14760Y20750D02*X14835Y20825D01*
X14535Y20750D02*X14760D01*
X14460Y20825D02*X14535Y20750D01*
X13500Y20424D02*X15015D01*
X10025Y21350D02*X10100Y21275D01*
X9875Y21350D02*X10025D01*
X9800Y21275D02*X9875Y21350D01*
X9800Y21275D02*Y20825D01*
X9875Y20750D01*
X10025Y21050D02*X10100Y20975D01*
X9800Y21050D02*X10025D01*
X9875Y20750D02*X10025D01*
X10100Y20825D01*
Y20975D02*Y20825D01*
X9800Y20424D02*X10280D01*
X4500Y20825D02*X4575Y20750D01*
X4500Y21275D02*Y20825D01*
Y21275D02*X4575Y21350D01*
X4725D01*
X4800Y21275D01*
Y20825D01*
X4725Y20750D02*X4800Y20825D01*
X4575Y20750D02*X4725D01*
X4500Y20900D02*X4800Y21200D01*
X4980Y20750D02*X5055D01*
X5235Y20825D02*X5310Y20750D01*
X5235Y21275D02*Y20825D01*
Y21275D02*X5310Y21350D01*
X5460D01*
X5535Y21275D01*
Y20825D01*
X5460Y20750D02*X5535Y20825D01*
X5310Y20750D02*X5460D01*
X5235Y20900D02*X5535Y21200D01*
X5715Y21275D02*X5790Y21350D01*
X6015D01*
X6090Y21275D01*
Y21125D01*
X5715Y20750D02*X6090Y21125D01*
X5715Y20750D02*X6090D01*
X6270Y20825D02*X6345Y20750D01*
X6270Y20975D02*Y20825D01*
Y20975D02*X6345Y21050D01*
X6495D01*
X6570Y20975D01*
Y20825D01*
X6495Y20750D02*X6570Y20825D01*
X6345Y20750D02*X6495D01*
X6270Y21125D02*X6345Y21050D01*
X6270Y21275D02*Y21125D01*
Y21275D02*X6345Y21350D01*
X6495D01*
X6570Y21275D01*
Y21125D01*
X6495Y21050D02*X6570Y21125D01*
X4500Y20424D02*X6750D01*
X780Y8960D02*Y8800D01*
Y8960D02*X918Y9040D01*
X780Y8960D02*X641Y9040D01*
X780Y8460D02*Y8300D01*
Y8460D02*X918Y8540D01*
X780Y8460D02*X641Y8540D01*
X780Y7960D02*Y7800D01*
Y7960D02*X918Y8040D01*
X780Y7960D02*X641Y8040D01*
X780Y7460D02*Y7300D01*
Y7460D02*X918Y7540D01*
X780Y7460D02*X641Y7540D01*
X780Y6960D02*Y6800D01*
Y6960D02*X918Y7040D01*
X780Y6960D02*X641Y7040D01*
X780Y6460D02*Y6300D01*
Y6460D02*X918Y6540D01*
X780Y6460D02*X641Y6540D01*
X780Y5960D02*Y5800D01*
Y5960D02*X918Y6040D01*
X780Y5960D02*X641Y6040D01*
X780Y5460D02*Y5300D01*
Y5460D02*X918Y5540D01*
X780Y5460D02*X641Y5540D01*
X14945Y13741D02*Y13581D01*
Y13741D02*X15083Y13821D01*
X14945Y13741D02*X14806Y13821D01*
X13720Y14040D02*Y13880D01*
Y14040D02*X13858Y14120D01*
X13720Y14040D02*X13581Y14120D01*
X12092Y11279D02*Y11119D01*
Y11279D02*X12231Y11359D01*
X12092Y11279D02*X11953Y11359D01*
X11770Y14029D02*Y13869D01*
Y14029D02*X11908Y14109D01*
X11770Y14029D02*X11631Y14109D01*
X16220Y7439D02*Y7279D01*
Y7439D02*X16358Y7519D01*
X16220Y7439D02*X16081Y7519D01*
X8300Y5994D02*Y5834D01*
Y5994D02*X8438Y6074D01*
X8300Y5994D02*X8161Y6074D01*
X2381Y5994D02*Y5834D01*
Y5994D02*X2520Y6074D01*
X2381Y5994D02*X2242Y6074D01*
X7610Y15720D02*Y15560D01*
Y15720D02*X7748Y15800D01*
X7610Y15720D02*X7471Y15800D01*
X8410Y16140D02*Y15980D01*
Y16140D02*X8548Y16220D01*
X8410Y16140D02*X8271Y16220D01*
X12443Y10137D02*Y9977D01*
Y10137D02*X12582Y10217D01*
X12443Y10137D02*X12305Y10217D01*
X8940Y5850D02*Y5690D01*
Y5850D02*X9078Y5930D01*
X8940Y5850D02*X8801Y5930D01*
X2432Y8422D02*Y8262D01*
Y8422D02*X2570Y8502D01*
X2432Y8422D02*X2293Y8502D01*
X1247Y8240D02*Y8080D01*
Y8240D02*X1386Y8320D01*
X1247Y8240D02*X1108Y8320D01*
X4710Y3360D02*Y3200D01*
Y3360D02*X4848Y3440D01*
X4710Y3360D02*X4571Y3440D01*
X2280D02*Y3280D01*
Y3440D02*X2418Y3520D01*
X2280Y3440D02*X2141Y3520D01*
X2789Y5409D02*Y5249D01*
Y5409D02*X2928Y5489D01*
X2789Y5409D02*X2651Y5489D01*
X2789Y4000D02*Y3840D01*
Y4000D02*X2928Y4080D01*
X2789Y4000D02*X2651Y4080D01*
X7180Y2650D02*Y2490D01*
Y2650D02*X7318Y2730D01*
X7180Y2650D02*X7041Y2730D01*
X17900Y14090D02*Y13930D01*
Y14090D02*X18038Y14170D01*
X17900Y14090D02*X17761Y14170D01*
X2115Y5165D02*Y5005D01*
Y5165D02*X2253Y5245D01*
X2115Y5165D02*X1976Y5245D01*
X2499Y4690D02*Y4530D01*
Y4690D02*X2638Y4770D01*
X2499Y4690D02*X2360Y4770D01*
X6850Y16420D02*Y16260D01*
Y16420D02*X6988Y16500D01*
X6850Y16420D02*X6711Y16500D01*
X14280Y14980D02*Y14820D01*
Y14980D02*X14418Y15060D01*
X14280Y14980D02*X14141Y15060D01*
X14980Y15867D02*Y15707D01*
Y15867D02*X15118Y15947D01*
X14980Y15867D02*X14841Y15947D01*
X15585Y13741D02*Y13581D01*
Y13741D02*X15723Y13821D01*
X15585Y13741D02*X15446Y13821D01*
X18190Y14400D02*Y14240D01*
Y14400D02*X18328Y14480D01*
X18190Y14400D02*X18051Y14480D01*
X18470Y11262D02*Y11102D01*
Y11262D02*X18608Y11342D01*
X18470Y11262D02*X18331Y11342D01*
X22230Y13760D02*Y13600D01*
Y13760D02*X22368Y13840D01*
X22230Y13760D02*X22091Y13840D01*
X16205Y13735D02*Y13575D01*
Y13735D02*X16343Y13815D01*
X16205Y13735D02*X16066Y13815D01*
X20160Y13530D02*Y13370D01*
Y13530D02*X20298Y13610D01*
X20160Y13530D02*X20021Y13610D01*
X18470Y11642D02*Y11482D01*
Y11642D02*X18608Y11722D01*
X18470Y11642D02*X18331Y11722D01*
X21470Y13250D02*Y13090D01*
Y13250D02*X21608Y13330D01*
X21470Y13250D02*X21331Y13330D01*
X19075Y10952D02*Y10792D01*
Y10952D02*X19213Y11032D01*
X19075Y10952D02*X18936Y11032D01*
X24160Y12535D02*Y12375D01*
Y12535D02*X24298Y12615D01*
X24160Y12535D02*X24021Y12615D01*
X21850Y14040D02*Y13880D01*
Y14040D02*X21988Y14120D01*
X21850Y14040D02*X21711Y14120D01*
X25165Y13175D02*Y13015D01*
Y13175D02*X25303Y13255D01*
X25165Y13175D02*X25026Y13255D01*
X22610Y12895D02*Y12735D01*
Y12895D02*X22748Y12975D01*
X22610Y12895D02*X22471Y12975D01*
X24785Y13455D02*Y13295D01*
Y13455D02*X24923Y13535D01*
X24785Y13455D02*X24646Y13535D01*
X21710Y10645D02*Y10485D01*
Y10645D02*X21848Y10725D01*
X21710Y10645D02*X21571Y10725D01*
X25020Y8840D02*Y8680D01*
Y8840D02*X25158Y8920D01*
X25020Y8840D02*X24881Y8920D01*
X18995Y619D02*Y459D01*
Y619D02*X19133Y699D01*
X18995Y619D02*X18856Y699D01*
X20190Y9430D02*Y9270D01*
Y9430D02*X20328Y9510D01*
X20190Y9430D02*X20051Y9510D01*
X21530Y9075D02*Y8915D01*
Y9075D02*X21668Y9155D01*
X21530Y9075D02*X21391Y9155D01*
X22212Y8445D02*Y8285D01*
Y8445D02*X22351Y8525D01*
X22212Y8445D02*X22073Y8525D01*
X17832Y4880D02*Y4720D01*
Y4880D02*X17971Y4960D01*
X17832Y4880D02*X17693Y4960D01*
X16000Y3722D02*Y3562D01*
Y3722D02*X16138Y3802D01*
X16000Y3722D02*X15861Y3802D01*
X10995Y9480D02*Y9320D01*
Y9480D02*X11133Y9560D01*
X10995Y9480D02*X10856Y9560D01*
X11410Y9809D02*Y9649D01*
Y9809D02*X11548Y9889D01*
X11410Y9809D02*X11271Y9889D01*
X11745Y11925D02*Y11765D01*
Y11925D02*X11883Y12005D01*
X11745Y11925D02*X11606Y12005D01*
X17145Y5160D02*Y5000D01*
Y5160D02*X17283Y5240D01*
X17145Y5160D02*X17006Y5240D01*
X17525Y5720D02*Y5560D01*
Y5720D02*X17663Y5800D01*
X17525Y5720D02*X17386Y5800D01*
X19660Y5720D02*Y5560D01*
Y5720D02*X19798Y5800D01*
X19660Y5720D02*X19521Y5800D01*
X9170Y8955D02*Y8795D01*
Y8955D02*X9308Y9035D01*
X9170Y8955D02*X9031Y9035D01*
X4430Y5197D02*Y5037D01*
Y5197D02*X4568Y5277D01*
X4430Y5197D02*X4291Y5277D01*
X7700Y4265D02*Y4105D01*
Y4265D02*X7838Y4345D01*
X7700Y4265D02*X7561Y4345D01*
X7940Y8091D02*Y7931D01*
Y8091D02*X8078Y8171D01*
X7940Y8091D02*X7801Y8171D01*
X4298Y8096D02*Y7936D01*
Y8096D02*X4436Y8176D01*
X4298Y8096D02*X4159Y8176D01*
X15935Y9355D02*Y9195D01*
Y9355D02*X16073Y9435D01*
X15935Y9355D02*X15796Y9435D01*
X7720Y12320D02*Y12160D01*
Y12320D02*X7858Y12400D01*
X7720Y12320D02*X7581Y12400D01*
X13715Y7670D02*Y7510D01*
Y7670D02*X13853Y7750D01*
X13715Y7670D02*X13576Y7750D01*
X9930Y9710D02*Y9550D01*
Y9710D02*X10068Y9790D01*
X9930Y9710D02*X9791Y9790D01*
X17585Y10458D02*Y10298D01*
Y10458D02*X17723Y10538D01*
X17585Y10458D02*X17446Y10538D01*
X17145Y14117D02*Y13957D01*
Y14117D02*X17283Y14197D01*
X17145Y14117D02*X17006Y14197D01*
X14375Y8745D02*Y8585D01*
Y8745D02*X14513Y8825D01*
X14375Y8745D02*X14236Y8825D01*
X9550Y9508D02*Y9348D01*
Y9508D02*X9688Y9588D01*
X9550Y9508D02*X9411Y9588D01*
X9550Y8831D02*Y8671D01*
Y8831D02*X9688Y8911D01*
X9550Y8831D02*X9411Y8911D01*
X14755Y8465D02*Y8305D01*
Y8465D02*X14893Y8545D01*
X14755Y8465D02*X14616Y8545D01*
X3980Y4917D02*Y4757D01*
Y4917D02*X4118Y4997D01*
X3980Y4917D02*X3841Y4997D01*
X7420Y4917D02*Y4757D01*
Y4917D02*X7558Y4997D01*
X7420Y4917D02*X7281Y4997D01*
X10210Y7332D02*Y7172D01*
Y7332D02*X10348Y7412D01*
X10210Y7332D02*X10071Y7412D01*
X16500Y9025D02*Y8865D01*
Y9025D02*X16638Y9105D01*
X16500Y9025D02*X16361Y9105D01*
X15462Y8695D02*Y8535D01*
Y8695D02*X15601Y8775D01*
X15462Y8695D02*X15324Y8775D01*
X9645Y7300D02*Y7140D01*
Y7300D02*X9783Y7380D01*
X9645Y7300D02*X9506Y7380D01*
X21230Y4350D02*Y4190D01*
Y4350D02*X21368Y4430D01*
X21230Y4350D02*X21091Y4430D01*
X24885Y12120D02*Y11960D01*
Y12120D02*X25023Y12200D01*
X24885Y12120D02*X24746Y12200D01*
X18100Y13735D02*Y13575D01*
Y13735D02*X18238Y13815D01*
X18100Y13735D02*X17961Y13815D01*
X25775Y12555D02*Y12395D01*
Y12555D02*X25914Y12635D01*
X25775Y12555D02*X25636Y12635D01*
X1500Y22625D02*Y22465D01*
Y22625D02*X1638Y22705D01*
X1500Y22625D02*X1361Y22705D01*
X13500Y22850D02*Y22775D01*
X13650Y22625D01*
X13800Y22775D01*
Y22850D02*Y22775D01*
X13650Y22625D02*Y22250D01*
X13980Y22550D02*X14205D01*
X13980Y22250D02*X14280D01*
X13980Y22850D02*Y22250D01*
Y22850D02*X14280D01*
X14760D02*X14835Y22775D01*
X14535Y22850D02*X14760D01*
X14460Y22775D02*X14535Y22850D01*
X14460Y22775D02*Y22625D01*
X14535Y22550D01*
X14760D01*
X14835Y22475D01*
Y22325D01*
X14760Y22250D02*X14835Y22325D01*
X14535Y22250D02*X14760D01*
X14460Y22325D02*X14535Y22250D01*
X13500Y21924D02*X15015D01*
X9800Y22325D02*X9875Y22250D01*
X9800Y22475D02*Y22325D01*
Y22475D02*X9875Y22550D01*
X10025D01*
X10100Y22475D01*
Y22325D01*
X10025Y22250D02*X10100Y22325D01*
X9875Y22250D02*X10025D01*
X9800Y22625D02*X9875Y22550D01*
X9800Y22775D02*Y22625D01*
Y22775D02*X9875Y22850D01*
X10025D01*
X10100Y22775D01*
Y22625D01*
X10025Y22550D02*X10100Y22625D01*
X10280Y22850D02*X10580D01*
X10280D02*Y22550D01*
X10355Y22625D01*
X10505D01*
X10580Y22550D01*
Y22325D01*
X10505Y22250D02*X10580Y22325D01*
X10355Y22250D02*X10505D01*
X10280Y22325D02*X10355Y22250D01*
X9800Y21924D02*X10760D01*
X4500Y22325D02*X4575Y22250D01*
X4500Y22775D02*Y22325D01*
Y22775D02*X4575Y22850D01*
X4725D01*
X4800Y22775D01*
Y22325D01*
X4725Y22250D02*X4800Y22325D01*
X4575Y22250D02*X4725D01*
X4500Y22400D02*X4800Y22700D01*
X4980Y22250D02*X5055D01*
X5235Y22325D02*X5310Y22250D01*
X5235Y22775D02*Y22325D01*
Y22775D02*X5310Y22850D01*
X5460D01*
X5535Y22775D01*
Y22325D01*
X5460Y22250D02*X5535Y22325D01*
X5310Y22250D02*X5460D01*
X5235Y22400D02*X5535Y22700D01*
X5715Y22775D02*X5790Y22850D01*
X6015D01*
X6090Y22775D01*
Y22625D01*
X5715Y22250D02*X6090Y22625D01*
X5715Y22250D02*X6090D01*
X6270Y22325D02*X6345Y22250D01*
X6270Y22775D02*Y22325D01*
Y22775D02*X6345Y22850D01*
X6495D01*
X6570Y22775D01*
Y22325D01*
X6495Y22250D02*X6570Y22325D01*
X6345Y22250D02*X6495D01*
X6270Y22400D02*X6570Y22700D01*
X4500Y21924D02*X6750D01*
X300Y24350D02*X375Y24275D01*
X75Y24350D02*X300D01*
X0Y24275D02*X75Y24350D01*
X0Y24275D02*Y24125D01*
X75Y24050D01*
X300D01*
X375Y23975D01*
Y23825D01*
X300Y23750D02*X375Y23825D01*
X75Y23750D02*X300D01*
X0Y23825D02*X75Y23750D01*
X555Y24050D02*Y23825D01*
X630Y23750D01*
X855Y24050D02*Y23600D01*
X780Y23525D02*X855Y23600D01*
X630Y23525D02*X780D01*
X555Y23600D02*X630Y23525D01*
Y23750D02*X780D01*
X855Y23825D01*
X1110Y23975D02*Y23750D01*
Y23975D02*X1185Y24050D01*
X1260D01*
X1335Y23975D01*
Y23750D01*
Y23975D02*X1410Y24050D01*
X1485D01*
X1560Y23975D01*
Y23750D01*
X1035Y24050D02*X1110Y23975D01*
X1740Y24350D02*Y23750D01*
Y23825D02*X1815Y23750D01*
X1965D01*
X2040Y23825D01*
Y23975D02*Y23825D01*
X1965Y24050D02*X2040Y23975D01*
X1815Y24050D02*X1965D01*
X1740Y23975D02*X1815Y24050D01*
X2220Y23975D02*Y23825D01*
Y23975D02*X2295Y24050D01*
X2445D01*
X2520Y23975D01*
Y23825D01*
X2445Y23750D02*X2520Y23825D01*
X2295Y23750D02*X2445D01*
X2220Y23825D02*X2295Y23750D01*
X2700Y24350D02*Y23825D01*
X2775Y23750D01*
X4175Y24350D02*Y23750D01*
X4400Y24350D02*X4475Y24275D01*
Y23825D01*
X4400Y23750D02*X4475Y23825D01*
X4100Y23750D02*X4400D01*
X4100Y24350D02*X4400D01*
X4655Y24200D02*Y24125D01*
Y23975D02*Y23750D01*
X5030Y24050D02*X5105Y23975D01*
X4880Y24050D02*X5030D01*
X4805Y23975D02*X4880Y24050D01*
X4805Y23975D02*Y23825D01*
X4880Y23750D01*
X5105Y24050D02*Y23825D01*
X5180Y23750D01*
X4880D02*X5030D01*
X5105Y23825D01*
X5435Y23975D02*Y23750D01*
Y23975D02*X5510Y24050D01*
X5585D01*
X5660Y23975D01*
Y23750D01*
Y23975D02*X5735Y24050D01*
X5810D01*
X5885Y23975D01*
Y23750D01*
X5360Y24050D02*X5435Y23975D01*
X6065Y23750D02*X6140D01*
X6590Y23825D02*X6665Y23750D01*
X6590Y24275D02*X6665Y24350D01*
X6590Y24275D02*Y23825D01*
X6845Y24350D02*X6995D01*
X6920D02*Y23750D01*
X6845D02*X6995D01*
X7251Y23975D02*Y23750D01*
Y23975D02*X7326Y24050D01*
X7401D01*
X7476Y23975D01*
Y23750D01*
X7176Y24050D02*X7251Y23975D01*
X7731Y24050D02*X7956D01*
X7656Y23975D02*X7731Y24050D01*
X7656Y23975D02*Y23825D01*
X7731Y23750D01*
X7956D01*
X8136Y24350D02*Y23750D01*
Y23975D02*X8211Y24050D01*
X8361D01*
X8436Y23975D01*
Y23750D01*
X8616Y24350D02*X8691Y24275D01*
Y23825D01*
X8616Y23750D02*X8691Y23825D01*
X9575Y23750D02*X9800D01*
X9500Y23825D02*X9575Y23750D01*
X9500Y24275D02*Y23825D01*
Y24275D02*X9575Y24350D01*
X9800D01*
X9980Y23975D02*Y23825D01*
Y23975D02*X10055Y24050D01*
X10205D01*
X10280Y23975D01*
Y23825D01*
X10205Y23750D02*X10280Y23825D01*
X10055Y23750D02*X10205D01*
X9980Y23825D02*X10055Y23750D01*
X10460Y24050D02*Y23825D01*
X10535Y23750D01*
X10685D01*
X10760Y23825D01*
Y24050D02*Y23825D01*
X11015Y23975D02*Y23750D01*
Y23975D02*X11090Y24050D01*
X11165D01*
X11240Y23975D01*
Y23750D01*
X10940Y24050D02*X11015Y23975D01*
X11495Y24350D02*Y23825D01*
X11570Y23750D01*
X11420Y24125D02*X11570D01*
X13075Y24350D02*Y23750D01*
X13000Y24350D02*X13300D01*
X13375Y24275D01*
Y24125D01*
X13300Y24050D02*X13375Y24125D01*
X13075Y24050D02*X13300D01*
X13555Y24350D02*Y23825D01*
X13630Y23750D01*
X14005Y24050D02*X14080Y23975D01*
X13855Y24050D02*X14005D01*
X13780Y23975D02*X13855Y24050D01*
X13780Y23975D02*Y23825D01*
X13855Y23750D01*
X14080Y24050D02*Y23825D01*
X14155Y23750D01*
X13855D02*X14005D01*
X14080Y23825D01*
X14410Y24350D02*Y23825D01*
X14485Y23750D01*
X14335Y24125D02*X14485D01*
X14710Y23750D02*X14935D01*
X14635Y23825D02*X14710Y23750D01*
X14635Y23975D02*Y23825D01*
Y23975D02*X14710Y24050D01*
X14860D01*
X14935Y23975D01*
X14635Y23900D02*X14935D01*
Y23975D02*Y23900D01*
X15415Y24350D02*Y23750D01*
X15340D02*X15415Y23825D01*
X15190Y23750D02*X15340D01*
X15115Y23825D02*X15190Y23750D01*
X15115Y23975D02*Y23825D01*
Y23975D02*X15190Y24050D01*
X15340D01*
X15415Y23975D01*
X15745Y24050D02*Y23975D01*
Y23825D02*Y23750D01*
X15595Y24275D02*Y24200D01*
Y24275D02*X15670Y24350D01*
X15820D01*
X15895Y24275D01*
Y24200D01*
X15745Y24050D02*X15895Y24200D01*
X0Y25850D02*X300D01*
X150D02*Y25250D01*
X480Y25850D02*Y25250D01*
Y25475D02*X555Y25550D01*
X705D01*
X780Y25475D01*
Y25250D01*
X1035D02*X1260D01*
X960Y25325D02*X1035Y25250D01*
X960Y25475D02*Y25325D01*
Y25475D02*X1035Y25550D01*
X1185D01*
X1260Y25475D01*
X960Y25400D02*X1260D01*
Y25475D02*Y25400D01*
X1515Y25475D02*Y25250D01*
Y25475D02*X1590Y25550D01*
X1740D01*
X1440D02*X1515Y25475D01*
X1995Y25250D02*X2220D01*
X1920Y25325D02*X1995Y25250D01*
X1920Y25475D02*Y25325D01*
Y25475D02*X1995Y25550D01*
X2145D01*
X2220Y25475D01*
X1920Y25400D02*X2220D01*
Y25475D02*Y25400D01*
X2895Y25550D02*X2970Y25475D01*
X2745Y25550D02*X2895D01*
X2670Y25475D02*X2745Y25550D01*
X2670Y25475D02*Y25325D01*
X2745Y25250D01*
X2970Y25550D02*Y25325D01*
X3045Y25250D01*
X2745D02*X2895D01*
X2970Y25325D01*
X3300Y25475D02*Y25250D01*
Y25475D02*X3375Y25550D01*
X3525D01*
X3225D02*X3300Y25475D01*
X3781Y25250D02*X4006D01*
X3706Y25325D02*X3781Y25250D01*
X3706Y25475D02*Y25325D01*
Y25475D02*X3781Y25550D01*
X3931D01*
X4006Y25475D01*
X3706Y25400D02*X4006D01*
Y25475D02*Y25400D01*
X4456Y25550D02*X4756Y25850D01*
X4456Y25550D02*X4831D01*
X4756Y25850D02*Y25250D01*
X5581Y25850D02*Y25250D01*
X5506D02*X5581Y25325D01*
X5356Y25250D02*X5506D01*
X5281Y25325D02*X5356Y25250D01*
X5281Y25475D02*Y25325D01*
Y25475D02*X5356Y25550D01*
X5506D01*
X5581Y25475D01*
X5761Y25700D02*Y25625D01*
Y25475D02*Y25250D01*
X5986Y25775D02*Y25250D01*
Y25775D02*X6061Y25850D01*
X6136D01*
X5911Y25550D02*X6061D01*
X6361Y25775D02*Y25250D01*
Y25775D02*X6436Y25850D01*
X6511D01*
X6286Y25550D02*X6436D01*
X6736Y25250D02*X6961D01*
X6661Y25325D02*X6736Y25250D01*
X6661Y25475D02*Y25325D01*
Y25475D02*X6736Y25550D01*
X6886D01*
X6961Y25475D01*
X6661Y25400D02*X6961D01*
Y25475D02*Y25400D01*
X7217Y25475D02*Y25250D01*
Y25475D02*X7292Y25550D01*
X7442D01*
X7142D02*X7217Y25475D01*
X7697Y25250D02*X7922D01*
X7622Y25325D02*X7697Y25250D01*
X7622Y25475D02*Y25325D01*
Y25475D02*X7697Y25550D01*
X7847D01*
X7922Y25475D01*
X7622Y25400D02*X7922D01*
Y25475D02*Y25400D01*
X8177Y25475D02*Y25250D01*
Y25475D02*X8252Y25550D01*
X8327D01*
X8402Y25475D01*
Y25250D01*
X8102Y25550D02*X8177Y25475D01*
X8657Y25850D02*Y25325D01*
X8732Y25250D01*
X8582Y25625D02*X8732D01*
X9452Y25850D02*Y25250D01*
X9377D02*X9452Y25325D01*
X9227Y25250D02*X9377D01*
X9152Y25325D02*X9227Y25250D01*
X9152Y25475D02*Y25325D01*
Y25475D02*X9227Y25550D01*
X9377D01*
X9452Y25475D01*
X9707D02*Y25250D01*
Y25475D02*X9782Y25550D01*
X9932D01*
X9632D02*X9707Y25475D01*
X10113Y25700D02*Y25625D01*
Y25475D02*Y25250D01*
X10263Y25850D02*Y25325D01*
X10338Y25250D01*
X10488Y25850D02*Y25325D01*
X10563Y25250D01*
X11058D02*X11283D01*
X11358Y25325D01*
X11283Y25400D02*X11358Y25325D01*
X11058Y25400D02*X11283D01*
X10983Y25475D02*X11058Y25400D01*
X10983Y25475D02*X11058Y25550D01*
X11283D01*
X11358Y25475D01*
X10983Y25325D02*X11058Y25250D01*
X11538Y25700D02*Y25625D01*
Y25475D02*Y25250D01*
X11688Y25550D02*X11988D01*
X11688Y25250D02*X11988Y25550D01*
X11688Y25250D02*X11988D01*
X12243D02*X12468D01*
X12168Y25325D02*X12243Y25250D01*
X12168Y25475D02*Y25325D01*
Y25475D02*X12243Y25550D01*
X12393D01*
X12468Y25475D01*
X12168Y25400D02*X12468D01*
Y25475D02*Y25400D01*
X12724Y25250D02*X12949D01*
X13024Y25325D01*
X12949Y25400D02*X13024Y25325D01*
X12724Y25400D02*X12949D01*
X12649Y25475D02*X12724Y25400D01*
X12649Y25475D02*X12724Y25550D01*
X12949D01*
X13024Y25475D01*
X12649Y25325D02*X12724Y25250D01*
X13474Y25550D02*Y25325D01*
X13549Y25250D01*
X13699D01*
X13774Y25325D01*
Y25550D02*Y25325D01*
X14029Y25250D02*X14254D01*
X14329Y25325D01*
X14254Y25400D02*X14329Y25325D01*
X14029Y25400D02*X14254D01*
X13954Y25475D02*X14029Y25400D01*
X13954Y25475D02*X14029Y25550D01*
X14254D01*
X14329Y25475D01*
X13954Y25325D02*X14029Y25250D01*
X14584D02*X14809D01*
X14509Y25325D02*X14584Y25250D01*
X14509Y25475D02*Y25325D01*
Y25475D02*X14584Y25550D01*
X14734D01*
X14809Y25475D01*
X14509Y25400D02*X14809D01*
Y25475D02*Y25400D01*
X15289Y25850D02*Y25250D01*
X15214D02*X15289Y25325D01*
X15064Y25250D02*X15214D01*
X14989Y25325D02*X15064Y25250D01*
X14989Y25475D02*Y25325D01*
Y25475D02*X15064Y25550D01*
X15214D01*
X15289Y25475D01*
X15739Y25700D02*Y25625D01*
Y25475D02*Y25250D01*
X15964Y25475D02*Y25250D01*
Y25475D02*X16039Y25550D01*
X16114D01*
X16189Y25475D01*
Y25250D01*
X15889Y25550D02*X15964Y25475D01*
X16715Y25850D02*Y25325D01*
X16790Y25250D01*
X16640Y25625D02*X16790D01*
X16940Y25850D02*Y25250D01*
Y25475D02*X17015Y25550D01*
X17165D01*
X17240Y25475D01*
Y25250D01*
X17420Y25700D02*Y25625D01*
Y25475D02*Y25250D01*
X17645D02*X17870D01*
X17945Y25325D01*
X17870Y25400D02*X17945Y25325D01*
X17645Y25400D02*X17870D01*
X17570Y25475D02*X17645Y25400D01*
X17570Y25475D02*X17645Y25550D01*
X17870D01*
X17945Y25475D01*
X17570Y25325D02*X17645Y25250D01*
X18395Y25850D02*Y25325D01*
X18470Y25250D01*
X18845Y25550D02*X18920Y25475D01*
X18695Y25550D02*X18845D01*
X18620Y25475D02*X18695Y25550D01*
X18620Y25475D02*Y25325D01*
X18695Y25250D01*
X18920Y25550D02*Y25325D01*
X18995Y25250D01*
X18695D02*X18845D01*
X18920Y25325D01*
X19176Y25550D02*Y25325D01*
X19251Y25250D01*
X19476Y25550D02*Y25100D01*
X19401Y25025D02*X19476Y25100D01*
X19251Y25025D02*X19401D01*
X19176Y25100D02*X19251Y25025D01*
Y25250D02*X19401D01*
X19476Y25325D01*
X19656Y25475D02*Y25325D01*
Y25475D02*X19731Y25550D01*
X19881D01*
X19956Y25475D01*
Y25325D01*
X19881Y25250D02*X19956Y25325D01*
X19731Y25250D02*X19881D01*
X19656Y25325D02*X19731Y25250D01*
X20136Y25550D02*Y25325D01*
X20211Y25250D01*
X20361D01*
X20436Y25325D01*
Y25550D02*Y25325D01*
X20691Y25850D02*Y25325D01*
X20766Y25250D01*
X20616Y25625D02*X20766D01*
X20916Y25100D02*X21066Y25250D01*
X21591D02*X21741D01*
X21666Y25850D02*Y25250D01*
X21516Y25700D02*X21666Y25850D01*
X21921Y25775D02*X21996Y25850D01*
X22146D01*
X22221Y25775D01*
Y25325D01*
X22146Y25250D02*X22221Y25325D01*
X21996Y25250D02*X22146D01*
X21921Y25325D02*X21996Y25250D01*
Y25550D02*X22221D01*
X22477Y25250D02*X22627D01*
X22552Y25850D02*Y25250D01*
X22402Y25700D02*X22552Y25850D01*
X23077D02*Y25250D01*
Y25475D02*X23152Y25550D01*
X23302D01*
X23377Y25475D01*
Y25250D01*
X23557Y25475D02*Y25325D01*
Y25475D02*X23632Y25550D01*
X23782D01*
X23857Y25475D01*
Y25325D01*
X23782Y25250D02*X23857Y25325D01*
X23632Y25250D02*X23782D01*
X23557Y25325D02*X23632Y25250D01*
X24037Y25850D02*Y25325D01*
X24112Y25250D01*
X24337D02*X24562D01*
X24262Y25325D02*X24337Y25250D01*
X24262Y25475D02*Y25325D01*
Y25475D02*X24337Y25550D01*
X24487D01*
X24562Y25475D01*
X24262Y25400D02*X24562D01*
Y25475D02*Y25400D01*
X24817Y25250D02*X25042D01*
X25117Y25325D01*
X25042Y25400D02*X25117Y25325D01*
X24817Y25400D02*X25042D01*
X24742Y25475D02*X24817Y25400D01*
X24742Y25475D02*X24817Y25550D01*
X25042D01*
X25117Y25475D01*
X24742Y25325D02*X24817Y25250D01*
X25642Y25850D02*Y25325D01*
X25717Y25250D01*
X25567Y25625D02*X25717D01*
X25868Y25475D02*Y25325D01*
Y25475D02*X25943Y25550D01*
X26093D01*
X26168Y25475D01*
Y25325D01*
X26093Y25250D02*X26168Y25325D01*
X25943Y25250D02*X26093D01*
X25868Y25325D02*X25943Y25250D01*
X26423Y25850D02*Y25325D01*
X26498Y25250D01*
X26348Y25625D02*X26498D01*
X26873Y25550D02*X26948Y25475D01*
X26723Y25550D02*X26873D01*
X26648Y25475D02*X26723Y25550D01*
X26648Y25475D02*Y25325D01*
X26723Y25250D01*
X26948Y25550D02*Y25325D01*
X27023Y25250D01*
X26723D02*X26873D01*
X26948Y25325D01*
X27203Y25850D02*Y25325D01*
X27278Y25250D01*
G54D11*X0Y17000D02*X26000D01*
X0D02*Y0D01*
X26000Y17000D02*Y0D01*
X0D02*X26000D01*
G54D43*X20000Y18350D02*Y17750D01*
Y18350D02*X20225Y18125D01*
X20450Y18350D01*
Y17750D01*
X20855Y18050D02*X20930Y17975D01*
X20705Y18050D02*X20855D01*
X20630Y17975D02*X20705Y18050D01*
X20630Y17975D02*Y17825D01*
X20705Y17750D01*
X20930Y18050D02*Y17825D01*
X21005Y17750D01*
X20705D02*X20855D01*
X20930Y17825D01*
X21185Y18050D02*X21485Y17750D01*
X21185D02*X21485Y18050D01*
X21665Y18200D02*Y18125D01*
Y17975D02*Y17750D01*
X21890Y17975D02*Y17750D01*
Y17975D02*X21965Y18050D01*
X22040D01*
X22115Y17975D01*
Y17750D01*
Y17975D02*X22190Y18050D01*
X22265D01*
X22340Y17975D01*
Y17750D01*
X21815Y18050D02*X21890Y17975D01*
X22520Y18050D02*Y17825D01*
X22595Y17750D01*
X22745D01*
X22820Y17825D01*
Y18050D02*Y17825D01*
X23075Y17975D02*Y17750D01*
Y17975D02*X23150Y18050D01*
X23225D01*
X23300Y17975D01*
Y17750D01*
Y17975D02*X23375Y18050D01*
X23450D01*
X23525Y17975D01*
Y17750D01*
X23000Y18050D02*X23075Y17975D01*
X24051Y18350D02*Y17750D01*
X24276Y18350D02*X24351Y18275D01*
Y17825D01*
X24276Y17750D02*X24351Y17825D01*
X23976Y17750D02*X24276D01*
X23976Y18350D02*X24276D01*
X24531Y18200D02*Y18125D01*
Y17975D02*Y17750D01*
X24756Y17975D02*Y17750D01*
Y17975D02*X24831Y18050D01*
X24906D01*
X24981Y17975D01*
Y17750D01*
Y17975D02*X25056Y18050D01*
X25131D01*
X25206Y17975D01*
Y17750D01*
X24681Y18050D02*X24756Y17975D01*
X25461Y17750D02*X25686D01*
X25386Y17825D02*X25461Y17750D01*
X25386Y17975D02*Y17825D01*
Y17975D02*X25461Y18050D01*
X25611D01*
X25686Y17975D01*
X25386Y17900D02*X25686D01*
Y17975D02*Y17900D01*
X25941Y17975D02*Y17750D01*
Y17975D02*X26016Y18050D01*
X26091D01*
X26166Y17975D01*
Y17750D01*
X25866Y18050D02*X25941Y17975D01*
X26421Y17750D02*X26646D01*
X26721Y17825D01*
X26646Y17900D02*X26721Y17825D01*
X26421Y17900D02*X26646D01*
X26346Y17975D02*X26421Y17900D01*
X26346Y17975D02*X26421Y18050D01*
X26646D01*
X26721Y17975D01*
X26346Y17825D02*X26421Y17750D01*
X26901Y18200D02*Y18125D01*
Y17975D02*Y17750D01*
X27052Y17975D02*Y17825D01*
Y17975D02*X27127Y18050D01*
X27277D01*
X27352Y17975D01*
Y17825D01*
X27277Y17750D02*X27352Y17825D01*
X27127Y17750D02*X27277D01*
X27052Y17825D02*X27127Y17750D01*
X27607Y17975D02*Y17750D01*
Y17975D02*X27682Y18050D01*
X27757D01*
X27832Y17975D01*
Y17750D01*
X27532Y18050D02*X27607Y17975D01*
X28087Y17750D02*X28312D01*
X28387Y17825D01*
X28312Y17900D02*X28387Y17825D01*
X28087Y17900D02*X28312D01*
X28012Y17975D02*X28087Y17900D01*
X28012Y17975D02*X28087Y18050D01*
X28312D01*
X28387Y17975D01*
X28012Y17825D02*X28087Y17750D01*
X28567Y18125D02*X28642D01*
X28567Y17975D02*X28642D01*
X29092Y18275D02*X29167Y18350D01*
X29392D01*
X29467Y18275D01*
Y18125D01*
X29092Y17750D02*X29467Y18125D01*
X29092Y17750D02*X29467D01*
X29872Y18350D02*X29947Y18275D01*
X29722Y18350D02*X29872D01*
X29647Y18275D02*X29722Y18350D01*
X29647Y18275D02*Y17825D01*
X29722Y17750D01*
X29872Y18050D02*X29947Y17975D01*
X29647Y18050D02*X29872D01*
X29722Y17750D02*X29872D01*
X29947Y17825D01*
Y17975D02*Y17825D01*
X30128D02*X30203Y17750D01*
X30128Y18275D02*Y17825D01*
Y18275D02*X30203Y18350D01*
X30353D01*
X30428Y18275D01*
Y17825D01*
X30353Y17750D02*X30428Y17825D01*
X30203Y17750D02*X30353D01*
X30128Y17900D02*X30428Y18200D01*
X30608Y17825D02*X30683Y17750D01*
X30608Y18275D02*Y17825D01*
Y18275D02*X30683Y18350D01*
X30833D01*
X30908Y18275D01*
Y17825D01*
X30833Y17750D02*X30908Y17825D01*
X30683Y17750D02*X30833D01*
X30608Y17900D02*X30908Y18200D01*
X31433Y17975D02*Y17750D01*
Y17975D02*X31508Y18050D01*
X31583D01*
X31658Y17975D01*
Y17750D01*
Y17975D02*X31733Y18050D01*
X31808D01*
X31883Y17975D01*
Y17750D01*
X31358Y18050D02*X31433Y17975D01*
X32063Y18200D02*Y18125D01*
Y17975D02*Y17750D01*
X32213Y18350D02*Y17825D01*
X32288Y17750D01*
X32513D02*X32738D01*
X32813Y17825D01*
X32738Y17900D02*X32813Y17825D01*
X32513Y17900D02*X32738D01*
X32438Y17975D02*X32513Y17900D01*
X32438Y17975D02*X32513Y18050D01*
X32738D01*
X32813Y17975D01*
X32438Y17825D02*X32513Y17750D01*
X33263Y18050D02*Y17825D01*
X33338Y17750D01*
X33413D01*
X33488Y17825D01*
Y18050D02*Y17825D01*
X33563Y17750D01*
X33638D01*
X33713Y17825D01*
Y18050D02*Y17825D01*
X33894Y18200D02*Y18125D01*
Y17975D02*Y17750D01*
X34344Y18350D02*Y17750D01*
X34269D02*X34344Y17825D01*
X34119Y17750D02*X34269D01*
X34044Y17825D02*X34119Y17750D01*
X34044Y17975D02*Y17825D01*
Y17975D02*X34119Y18050D01*
X34269D01*
X34344Y17975D01*
X34599Y17750D02*X34824D01*
X34524Y17825D02*X34599Y17750D01*
X34524Y17975D02*Y17825D01*
Y17975D02*X34599Y18050D01*
X34749D01*
X34824Y17975D01*
X34524Y17900D02*X34824D01*
Y17975D02*Y17900D01*
X35004Y17600D02*X35154Y17750D01*
X35679D02*X35829D01*
X35754Y18350D02*Y17750D01*
X35604Y18200D02*X35754Y18350D01*
X36009Y17750D02*X36384Y18125D01*
Y18350D02*Y18125D01*
X36009Y18350D02*X36384D01*
X36564Y17825D02*X36639Y17750D01*
X36564Y18275D02*Y17825D01*
Y18275D02*X36639Y18350D01*
X36789D01*
X36864Y18275D01*
Y17825D01*
X36789Y17750D02*X36864Y17825D01*
X36639Y17750D02*X36789D01*
X36564Y17900D02*X36864Y18200D01*
X37045Y17825D02*X37120Y17750D01*
X37045Y18275D02*Y17825D01*
Y18275D02*X37120Y18350D01*
X37270D01*
X37345Y18275D01*
Y17825D01*
X37270Y17750D02*X37345Y17825D01*
X37120Y17750D02*X37270D01*
X37045Y17900D02*X37345Y18200D01*
X37870Y17975D02*Y17750D01*
Y17975D02*X37945Y18050D01*
X38020D01*
X38095Y17975D01*
Y17750D01*
Y17975D02*X38170Y18050D01*
X38245D01*
X38320Y17975D01*
Y17750D01*
X37795Y18050D02*X37870Y17975D01*
X38500Y18200D02*Y18125D01*
Y17975D02*Y17750D01*
X38650Y18350D02*Y17825D01*
X38725Y17750D01*
X38950D02*X39175D01*
X39250Y17825D01*
X39175Y17900D02*X39250Y17825D01*
X38950Y17900D02*X39175D01*
X38875Y17975D02*X38950Y17900D01*
X38875Y17975D02*X38950Y18050D01*
X39175D01*
X39250Y17975D01*
X38875Y17825D02*X38950Y17750D01*
X39700Y18350D02*Y17750D01*
Y17975D02*X39775Y18050D01*
X39925D01*
X40000Y17975D01*
Y17750D01*
X40181Y18200D02*Y18125D01*
Y17975D02*Y17750D01*
X40556Y18050D02*X40631Y17975D01*
X40406Y18050D02*X40556D01*
X40331Y17975D02*X40406Y18050D01*
X40331Y17975D02*Y17825D01*
X40406Y17750D01*
X40556D01*
X40631Y17825D01*
X40331Y17600D02*X40406Y17525D01*
X40556D01*
X40631Y17600D01*
Y18050D02*Y17600D01*
X40811Y18350D02*Y17750D01*
Y17975D02*X40886Y18050D01*
X41036D01*
X41111Y17975D01*
Y17750D01*
X0Y-950D02*X300D01*
X375Y-875D01*
Y-725D02*Y-875D01*
X300Y-650D02*X375Y-725D01*
X75Y-650D02*X300D01*
X75Y-350D02*Y-950D01*
X0Y-350D02*X300D01*
X375Y-425D01*
Y-575D01*
X300Y-650D02*X375Y-575D01*
X555Y-725D02*Y-875D01*
Y-725D02*X630Y-650D01*
X780D01*
X855Y-725D01*
Y-875D01*
X780Y-950D02*X855Y-875D01*
X630Y-950D02*X780D01*
X555Y-875D02*X630Y-950D01*
X1260Y-650D02*X1335Y-725D01*
X1110Y-650D02*X1260D01*
X1035Y-725D02*X1110Y-650D01*
X1035Y-725D02*Y-875D01*
X1110Y-950D01*
X1335Y-650D02*Y-875D01*
X1410Y-950D01*
X1110D02*X1260D01*
X1335Y-875D01*
X1665Y-725D02*Y-950D01*
Y-725D02*X1740Y-650D01*
X1890D01*
X1590D02*X1665Y-725D01*
X2370Y-350D02*Y-950D01*
X2295D02*X2370Y-875D01*
X2145Y-950D02*X2295D01*
X2070Y-875D02*X2145Y-950D01*
X2070Y-725D02*Y-875D01*
Y-725D02*X2145Y-650D01*
X2295D01*
X2370Y-725D01*
X2820D02*Y-875D01*
Y-725D02*X2895Y-650D01*
X3045D01*
X3120Y-725D01*
Y-875D01*
X3045Y-950D02*X3120Y-875D01*
X2895Y-950D02*X3045D01*
X2820Y-875D02*X2895Y-950D01*
X3300Y-650D02*Y-875D01*
X3375Y-950D01*
X3525D01*
X3600Y-875D01*
Y-650D02*Y-875D01*
X3856Y-350D02*Y-875D01*
X3931Y-950D01*
X3781Y-575D02*X3931D01*
X4081Y-350D02*Y-875D01*
X4156Y-950D01*
X4306Y-500D02*Y-575D01*
Y-725D02*Y-950D01*
X4531Y-725D02*Y-950D01*
Y-725D02*X4606Y-650D01*
X4681D01*
X4756Y-725D01*
Y-950D01*
X4456Y-650D02*X4531Y-725D01*
X5011Y-950D02*X5236D01*
X4936Y-875D02*X5011Y-950D01*
X4936Y-725D02*Y-875D01*
Y-725D02*X5011Y-650D01*
X5161D01*
X5236Y-725D01*
X4936Y-800D02*X5236D01*
Y-725D02*Y-800D01*
X5686Y-500D02*Y-575D01*
Y-725D02*Y-950D01*
X5911D02*X6136D01*
X6211Y-875D01*
X6136Y-800D02*X6211Y-875D01*
X5911Y-800D02*X6136D01*
X5836Y-725D02*X5911Y-800D01*
X5836Y-725D02*X5911Y-650D01*
X6136D01*
X6211Y-725D01*
X5836Y-875D02*X5911Y-950D01*
X6737Y-350D02*Y-875D01*
X6812Y-950D01*
X6662Y-575D02*X6812D01*
X6962Y-350D02*Y-950D01*
Y-725D02*X7037Y-650D01*
X7187D01*
X7262Y-725D01*
Y-950D01*
X7517D02*X7742D01*
X7442Y-875D02*X7517Y-950D01*
X7442Y-725D02*Y-875D01*
Y-725D02*X7517Y-650D01*
X7667D01*
X7742Y-725D01*
X7442Y-800D02*X7742D01*
Y-725D02*Y-800D01*
X8267Y-650D02*X8492D01*
X8192Y-725D02*X8267Y-650D01*
X8192Y-725D02*Y-875D01*
X8267Y-950D01*
X8492D01*
X8747D02*X8972D01*
X8672Y-875D02*X8747Y-950D01*
X8672Y-725D02*Y-875D01*
Y-725D02*X8747Y-650D01*
X8897D01*
X8972Y-725D01*
X8672Y-800D02*X8972D01*
Y-725D02*Y-800D01*
X9227Y-725D02*Y-950D01*
Y-725D02*X9302Y-650D01*
X9377D01*
X9452Y-725D01*
Y-950D01*
X9152Y-650D02*X9227Y-725D01*
X9708Y-350D02*Y-875D01*
X9783Y-950D01*
X9633Y-575D02*X9783D01*
X10008Y-950D02*X10233D01*
X9933Y-875D02*X10008Y-950D01*
X9933Y-725D02*Y-875D01*
Y-725D02*X10008Y-650D01*
X10158D01*
X10233Y-725D01*
X9933Y-800D02*X10233D01*
Y-725D02*Y-800D01*
X10488Y-725D02*Y-950D01*
Y-725D02*X10563Y-650D01*
X10713D01*
X10413D02*X10488Y-725D01*
X10893Y-350D02*Y-875D01*
X10968Y-950D01*
X11118Y-500D02*Y-575D01*
Y-725D02*Y-950D01*
X11343Y-725D02*Y-950D01*
Y-725D02*X11418Y-650D01*
X11493D01*
X11568Y-725D01*
Y-950D01*
X11268Y-650D02*X11343Y-725D01*
X11823Y-950D02*X12048D01*
X11748Y-875D02*X11823Y-950D01*
X11748Y-725D02*Y-875D01*
Y-725D02*X11823Y-650D01*
X11973D01*
X12048Y-725D01*
X11748Y-800D02*X12048D01*
Y-725D02*Y-800D01*
X12499Y-725D02*Y-875D01*
Y-725D02*X12574Y-650D01*
X12724D01*
X12799Y-725D01*
Y-875D01*
X12724Y-950D02*X12799Y-875D01*
X12574Y-950D02*X12724D01*
X12499Y-875D02*X12574Y-950D01*
X13054Y-425D02*Y-950D01*
Y-425D02*X13129Y-350D01*
X13204D01*
X12979Y-650D02*X13129D01*
X13699Y-350D02*Y-875D01*
X13774Y-950D01*
X13624Y-575D02*X13774D01*
X13924Y-350D02*Y-950D01*
Y-725D02*X13999Y-650D01*
X14149D01*
X14224Y-725D01*
Y-950D01*
X14404Y-500D02*Y-575D01*
Y-725D02*Y-950D01*
X14629D02*X14854D01*
X14929Y-875D01*
X14854Y-800D02*X14929Y-875D01*
X14629Y-800D02*X14854D01*
X14554Y-725D02*X14629Y-800D01*
X14554Y-725D02*X14629Y-650D01*
X14854D01*
X14929Y-725D01*
X14554Y-875D02*X14629Y-950D01*
X15454D02*X15604D01*
X15529Y-350D02*Y-950D01*
X15379Y-500D02*X15529Y-350D01*
X15785Y-875D02*X15860Y-950D01*
X15785Y-425D02*Y-875D01*
Y-425D02*X15860Y-350D01*
X16010D01*
X16085Y-425D01*
Y-875D01*
X16010Y-950D02*X16085Y-875D01*
X15860Y-950D02*X16010D01*
X15785Y-800D02*X16085Y-500D01*
X16610Y-725D02*Y-950D01*
Y-725D02*X16685Y-650D01*
X16760D01*
X16835Y-725D01*
Y-950D01*
Y-725D02*X16910Y-650D01*
X16985D01*
X17060Y-725D01*
Y-950D01*
X16535Y-650D02*X16610Y-725D01*
X17240Y-500D02*Y-575D01*
Y-725D02*Y-950D01*
X17390Y-350D02*Y-875D01*
X17465Y-950D01*
X17960Y-725D02*Y-950D01*
Y-725D02*X18035Y-650D01*
X18185D01*
X17885D02*X17960Y-725D01*
X18440Y-950D02*X18665D01*
X18365Y-875D02*X18440Y-950D01*
X18365Y-725D02*Y-875D01*
Y-725D02*X18440Y-650D01*
X18590D01*
X18665Y-725D01*
X18365Y-800D02*X18665D01*
Y-725D02*Y-800D01*
X18921Y-650D02*X19146D01*
X18846Y-725D02*X18921Y-650D01*
X18846Y-725D02*Y-875D01*
X18921Y-950D01*
X19146D01*
X19401Y-350D02*Y-875D01*
X19476Y-950D01*
X19326Y-575D02*X19476D01*
X19851Y-650D02*X19926Y-725D01*
X19701Y-650D02*X19851D01*
X19626Y-725D02*X19701Y-650D01*
X19626Y-725D02*Y-875D01*
X19701Y-950D01*
X19926Y-650D02*Y-875D01*
X20001Y-950D01*
X19701D02*X19851D01*
X19926Y-875D01*
X20256Y-725D02*Y-950D01*
Y-725D02*X20331Y-650D01*
X20406D01*
X20481Y-725D01*
Y-950D01*
X20181Y-650D02*X20256Y-725D01*
X20886Y-650D02*X20961Y-725D01*
X20736Y-650D02*X20886D01*
X20661Y-725D02*X20736Y-650D01*
X20661Y-725D02*Y-875D01*
X20736Y-950D01*
X20886D01*
X20961Y-875D01*
X20661Y-1100D02*X20736Y-1175D01*
X20886D01*
X20961Y-1100D01*
Y-650D02*Y-1100D01*
X21141Y-350D02*Y-875D01*
X21216Y-950D01*
X21441D02*X21666D01*
X21366Y-875D02*X21441Y-950D01*
X21366Y-725D02*Y-875D01*
Y-725D02*X21441Y-650D01*
X21591D01*
X21666Y-725D01*
X21366Y-800D02*X21666D01*
Y-725D02*Y-800D01*
X22117Y-650D02*X22417D01*
X22867Y-875D02*X22942Y-950D01*
X22867Y-425D02*Y-875D01*
Y-425D02*X22942Y-350D01*
X23092D01*
X23167Y-425D01*
Y-875D01*
X23092Y-950D02*X23167Y-875D01*
X22942Y-950D02*X23092D01*
X22867Y-800D02*X23167Y-500D01*
X23347Y-1100D02*X23497Y-950D01*
X23677Y-875D02*X23752Y-950D01*
X23677Y-425D02*Y-875D01*
Y-425D02*X23752Y-350D01*
X23902D01*
X23977Y-425D01*
Y-875D01*
X23902Y-950D02*X23977Y-875D01*
X23752Y-950D02*X23902D01*
X23677Y-800D02*X23977Y-500D01*
X24502Y-350D02*Y-875D01*
X24577Y-950D01*
X24427Y-575D02*X24577D01*
X24727Y-725D02*Y-875D01*
Y-725D02*X24802Y-650D01*
X24952D01*
X25027Y-725D01*
Y-875D01*
X24952Y-950D02*X25027Y-875D01*
X24802Y-950D02*X24952D01*
X24727Y-875D02*X24802Y-950D01*
X25477Y-425D02*X25552Y-350D01*
X25777D01*
X25852Y-425D01*
Y-575D01*
X25477Y-950D02*X25852Y-575D01*
X25477Y-950D02*X25852D01*
X26258Y-350D02*X26333Y-425D01*
X26108Y-350D02*X26258D01*
X26033Y-425D02*X26108Y-350D01*
X26033Y-425D02*Y-875D01*
X26108Y-950D01*
X26258Y-650D02*X26333Y-725D01*
X26033Y-650D02*X26258D01*
X26108Y-950D02*X26258D01*
X26333Y-875D01*
Y-725D02*Y-875D01*
X26513D02*X26588Y-950D01*
X26513Y-425D02*Y-875D01*
Y-425D02*X26588Y-350D01*
X26738D01*
X26813Y-425D01*
Y-875D01*
X26738Y-950D02*X26813Y-875D01*
X26588Y-950D02*X26738D01*
X26513Y-800D02*X26813Y-500D01*
X26993Y-875D02*X27068Y-950D01*
X26993Y-425D02*Y-875D01*
Y-425D02*X27068Y-350D01*
X27218D01*
X27293Y-425D01*
Y-875D01*
X27218Y-950D02*X27293Y-875D01*
X27068Y-950D02*X27218D01*
X26993Y-800D02*X27293Y-500D01*
X27473Y-1100D02*X27623Y-950D01*
X27878D02*X28028D01*
X27953Y-350D02*Y-950D01*
X27803Y-500D02*X27953Y-350D01*
X28208Y-950D02*X28583Y-575D01*
Y-350D02*Y-575D01*
X28208Y-350D02*X28583D01*
X28764Y-875D02*X28839Y-950D01*
X28764Y-425D02*Y-875D01*
Y-425D02*X28839Y-350D01*
X28989D01*
X29064Y-425D01*
Y-875D01*
X28989Y-950D02*X29064Y-875D01*
X28839Y-950D02*X28989D01*
X28764Y-800D02*X29064Y-500D01*
X29244Y-875D02*X29319Y-950D01*
X29244Y-425D02*Y-875D01*
Y-425D02*X29319Y-350D01*
X29469D01*
X29544Y-425D01*
Y-875D01*
X29469Y-950D02*X29544Y-875D01*
X29319Y-950D02*X29469D01*
X29244Y-800D02*X29544Y-500D01*
X30069Y-725D02*Y-950D01*
Y-725D02*X30144Y-650D01*
X30219D01*
X30294Y-725D01*
Y-950D01*
Y-725D02*X30369Y-650D01*
X30444D01*
X30519Y-725D01*
Y-950D01*
X29994Y-650D02*X30069Y-725D01*
X30699Y-500D02*Y-575D01*
Y-725D02*Y-950D01*
X30849Y-350D02*Y-875D01*
X30924Y-950D01*
X31149D02*X31374D01*
X31449Y-875D01*
X31374Y-800D02*X31449Y-875D01*
X31149Y-800D02*X31374D01*
X31074Y-725D02*X31149Y-800D01*
X31074Y-725D02*X31149Y-650D01*
X31374D01*
X31449Y-725D01*
X31074Y-875D02*X31149Y-950D01*
X20075Y19850D02*Y19250D01*
X20300Y19850D02*X20375Y19775D01*
Y19325D01*
X20300Y19250D02*X20375Y19325D01*
X20000Y19250D02*X20300D01*
X20000Y19850D02*X20300D01*
X20780Y19550D02*X20855Y19475D01*
X20630Y19550D02*X20780D01*
X20555Y19475D02*X20630Y19550D01*
X20555Y19475D02*Y19325D01*
X20630Y19250D01*
X20855Y19550D02*Y19325D01*
X20930Y19250D01*
X20630D02*X20780D01*
X20855Y19325D01*
X21185Y19850D02*Y19325D01*
X21260Y19250D01*
X21110Y19625D02*X21260D01*
X21485Y19250D02*X21710D01*
X21410Y19325D02*X21485Y19250D01*
X21410Y19475D02*Y19325D01*
Y19475D02*X21485Y19550D01*
X21635D01*
X21710Y19475D01*
X21410Y19400D02*X21710D01*
Y19475D02*Y19400D01*
X21890Y19625D02*X21965D01*
X21890Y19475D02*X21965D01*
X22415Y19850D02*Y19250D01*
Y19850D02*X22715D01*
X22415Y19550D02*X22640D01*
X22970Y19475D02*Y19250D01*
Y19475D02*X23045Y19550D01*
X23195D01*
X22895D02*X22970Y19475D01*
X23376Y19700D02*Y19625D01*
Y19475D02*Y19250D01*
X23871Y19850D02*Y19250D01*
X24096Y19850D02*X24171Y19775D01*
Y19325D01*
X24096Y19250D02*X24171Y19325D01*
X23796Y19250D02*X24096D01*
X23796Y19850D02*X24096D01*
X24426Y19250D02*X24651D01*
X24351Y19325D02*X24426Y19250D01*
X24351Y19475D02*Y19325D01*
Y19475D02*X24426Y19550D01*
X24576D01*
X24651Y19475D01*
X24351Y19400D02*X24651D01*
Y19475D02*Y19400D01*
X24906Y19550D02*X25131D01*
X24831Y19475D02*X24906Y19550D01*
X24831Y19475D02*Y19325D01*
X24906Y19250D01*
X25131D01*
X25851D02*X26226Y19625D01*
Y19850D02*Y19625D01*
X25851Y19850D02*X26226D01*
X26751Y19250D02*X26901D01*
X26826Y19850D02*Y19250D01*
X26676Y19700D02*X26826Y19850D01*
X27081Y19250D02*X27381Y19550D01*
Y19775D02*Y19550D01*
X27306Y19850D02*X27381Y19775D01*
X27156Y19850D02*X27306D01*
X27081Y19775D02*X27156Y19850D01*
X27081Y19775D02*Y19625D01*
X27156Y19550D01*
X27381D01*
X27562Y19625D02*X27637D01*
X27562Y19475D02*X27637D01*
X27892Y19250D02*X28042D01*
X27967Y19850D02*Y19250D01*
X27817Y19700D02*X27967Y19850D01*
X28222Y19325D02*X28297Y19250D01*
X28222Y19775D02*Y19325D01*
Y19775D02*X28297Y19850D01*
X28447D01*
X28522Y19775D01*
Y19325D01*
X28447Y19250D02*X28522Y19325D01*
X28297Y19250D02*X28447D01*
X28222Y19400D02*X28522Y19700D01*
X28702Y19625D02*X28777D01*
X28702Y19475D02*X28777D01*
X29032Y19250D02*X29182D01*
X29107Y19850D02*Y19250D01*
X28957Y19700D02*X29107Y19850D01*
X29362Y19550D02*X29662Y19850D01*
X29362Y19550D02*X29737D01*
X29662Y19850D02*Y19250D01*
X30188Y19775D02*X30263Y19850D01*
X30488D01*
X30563Y19775D01*
Y19625D01*
X30188Y19250D02*X30563Y19625D01*
X30188Y19250D02*X30563D01*
X30743Y19325D02*X30818Y19250D01*
X30743Y19775D02*Y19325D01*
Y19775D02*X30818Y19850D01*
X30968D01*
X31043Y19775D01*
Y19325D01*
X30968Y19250D02*X31043Y19325D01*
X30818Y19250D02*X30968D01*
X30743Y19400D02*X31043Y19700D01*
X31223Y19325D02*X31298Y19250D01*
X31223Y19775D02*Y19325D01*
Y19775D02*X31298Y19850D01*
X31448D01*
X31523Y19775D01*
Y19325D01*
X31448Y19250D02*X31523Y19325D01*
X31298Y19250D02*X31448D01*
X31223Y19400D02*X31523Y19700D01*
X31703Y19250D02*X32078Y19625D01*
Y19850D02*Y19625D01*
X31703Y19850D02*X32078D01*
X32528D02*Y19325D01*
X32603Y19250D01*
X32753D01*
X32828Y19325D01*
Y19850D02*Y19325D01*
X33008Y19850D02*X33308D01*
X33158D02*Y19250D01*
X33563D02*X33788D01*
X33488Y19325D02*X33563Y19250D01*
X33488Y19775D02*Y19325D01*
Y19775D02*X33563Y19850D01*
X33788D01*
X20000Y21275D02*Y20750D01*
Y21275D02*X20075Y21350D01*
X20300D01*
X20375Y21275D01*
Y20750D01*
X20000Y21050D02*X20375D01*
X20555D02*Y20825D01*
X20630Y20750D01*
X20780D01*
X20855Y20825D01*
Y21050D02*Y20825D01*
X21110Y21350D02*Y20825D01*
X21185Y20750D01*
X21035Y21125D02*X21185D01*
X21335Y21350D02*Y20750D01*
Y20975D02*X21410Y21050D01*
X21560D01*
X21635Y20975D01*
Y20750D01*
X21815Y20975D02*Y20825D01*
Y20975D02*X21890Y21050D01*
X22040D01*
X22115Y20975D01*
Y20825D01*
X22040Y20750D02*X22115Y20825D01*
X21890Y20750D02*X22040D01*
X21815Y20825D02*X21890Y20750D01*
X22370Y20975D02*Y20750D01*
Y20975D02*X22445Y21050D01*
X22595D01*
X22295D02*X22370Y20975D01*
X22775Y21125D02*X22850D01*
X22775Y20975D02*X22850D01*
X20000Y22850D02*X20300D01*
X20150D02*Y22250D01*
X20480Y22700D02*Y22625D01*
Y22475D02*Y22250D01*
X20705Y22850D02*Y22325D01*
X20780Y22250D01*
X20630Y22625D02*X20780D01*
X20930Y22850D02*Y22325D01*
X21005Y22250D01*
X21230D02*X21455D01*
X21155Y22325D02*X21230Y22250D01*
X21155Y22475D02*Y22325D01*
Y22475D02*X21230Y22550D01*
X21380D01*
X21455Y22475D01*
X21155Y22400D02*X21455D01*
Y22475D02*Y22400D01*
X21635Y22625D02*X21710D01*
X21635Y22475D02*X21710D01*
X22160Y22325D02*X22235Y22250D01*
X22160Y22775D02*X22235Y22850D01*
X22160Y22775D02*Y22325D01*
X22416Y22550D02*Y22325D01*
X22491Y22250D01*
X22641D01*
X22716Y22325D01*
Y22550D02*Y22325D01*
X22971Y22475D02*Y22250D01*
Y22475D02*X23046Y22550D01*
X23121D01*
X23196Y22475D01*
Y22250D01*
X22896Y22550D02*X22971Y22475D01*
X23376Y22850D02*Y22250D01*
Y22475D02*X23601Y22250D01*
X23376Y22475D02*X23526Y22625D01*
X23856Y22475D02*Y22250D01*
Y22475D02*X23931Y22550D01*
X24006D01*
X24081Y22475D01*
Y22250D01*
X23781Y22550D02*X23856Y22475D01*
X24261D02*Y22325D01*
Y22475D02*X24336Y22550D01*
X24486D01*
X24561Y22475D01*
Y22325D01*
X24486Y22250D02*X24561Y22325D01*
X24336Y22250D02*X24486D01*
X24261Y22325D02*X24336Y22250D01*
X24741Y22550D02*Y22325D01*
X24816Y22250D01*
X24891D01*
X24966Y22325D01*
Y22550D02*Y22325D01*
X25041Y22250D01*
X25116D01*
X25191Y22325D01*
Y22550D02*Y22325D01*
X25446Y22475D02*Y22250D01*
Y22475D02*X25521Y22550D01*
X25596D01*
X25671Y22475D01*
Y22250D01*
X25371Y22550D02*X25446Y22475D01*
X25852Y22850D02*X25927Y22775D01*
Y22325D01*
X25852Y22250D02*X25927Y22325D01*
X26377Y22550D02*X26677D01*
X27127Y22850D02*Y22250D01*
Y22850D02*X27427D01*
X27127Y22550D02*X27352D01*
X27832D02*X27907Y22475D01*
X27682Y22550D02*X27832D01*
X27607Y22475D02*X27682Y22550D01*
X27607Y22475D02*Y22325D01*
X27682Y22250D01*
X27907Y22550D02*Y22325D01*
X27982Y22250D01*
X27682D02*X27832D01*
X27907Y22325D01*
X28162Y22850D02*Y22250D01*
Y22325D02*X28237Y22250D01*
X28387D01*
X28462Y22325D01*
Y22475D02*Y22325D01*
X28387Y22550D02*X28462Y22475D01*
X28237Y22550D02*X28387D01*
X28162Y22475D02*X28237Y22550D01*
X28717Y22475D02*Y22250D01*
Y22475D02*X28792Y22550D01*
X28942D01*
X28642D02*X28717Y22475D01*
X29123Y22700D02*Y22625D01*
Y22475D02*Y22250D01*
X29348Y22550D02*X29573D01*
X29273Y22475D02*X29348Y22550D01*
X29273Y22475D02*Y22325D01*
X29348Y22250D01*
X29573D01*
X29978Y22550D02*X30053Y22475D01*
X29828Y22550D02*X29978D01*
X29753Y22475D02*X29828Y22550D01*
X29753Y22475D02*Y22325D01*
X29828Y22250D01*
X30053Y22550D02*Y22325D01*
X30128Y22250D01*
X29828D02*X29978D01*
X30053Y22325D01*
X30383Y22850D02*Y22325D01*
X30458Y22250D01*
X30308Y22625D02*X30458D01*
X30608Y22700D02*Y22625D01*
Y22475D02*Y22250D01*
X30758Y22475D02*Y22325D01*
Y22475D02*X30833Y22550D01*
X30983D01*
X31058Y22475D01*
Y22325D01*
X30983Y22250D02*X31058Y22325D01*
X30833Y22250D02*X30983D01*
X30758Y22325D02*X30833Y22250D01*
X31313Y22475D02*Y22250D01*
Y22475D02*X31388Y22550D01*
X31463D01*
X31538Y22475D01*
Y22250D01*
X31238Y22550D02*X31313Y22475D01*
X32064Y22850D02*Y22250D01*
X32289Y22850D02*X32364Y22775D01*
Y22325D01*
X32289Y22250D02*X32364Y22325D01*
X31989Y22250D02*X32289D01*
X31989Y22850D02*X32289D01*
X32619Y22475D02*Y22250D01*
Y22475D02*X32694Y22550D01*
X32844D01*
X32544D02*X32619Y22475D01*
X33249Y22550D02*X33324Y22475D01*
X33099Y22550D02*X33249D01*
X33024Y22475D02*X33099Y22550D01*
X33024Y22475D02*Y22325D01*
X33099Y22250D01*
X33324Y22550D02*Y22325D01*
X33399Y22250D01*
X33099D02*X33249D01*
X33324Y22325D01*
X33579Y22550D02*Y22325D01*
X33654Y22250D01*
X33729D01*
X33804Y22325D01*
Y22550D02*Y22325D01*
X33879Y22250D01*
X33954D01*
X34029Y22325D01*
Y22550D02*Y22325D01*
X34209Y22700D02*Y22625D01*
Y22475D02*Y22250D01*
X34434Y22475D02*Y22250D01*
Y22475D02*X34509Y22550D01*
X34584D01*
X34659Y22475D01*
Y22250D01*
X34359Y22550D02*X34434Y22475D01*
X35064Y22550D02*X35139Y22475D01*
X34914Y22550D02*X35064D01*
X34839Y22475D02*X34914Y22550D01*
X34839Y22475D02*Y22325D01*
X34914Y22250D01*
X35064D01*
X35139Y22325D01*
X34839Y22100D02*X34914Y22025D01*
X35064D01*
X35139Y22100D01*
Y22550D02*Y22100D01*
M02*
