G04 start of page 3 for group 1 idx 3
G04 Title: (unknown), component *
G04 Creator: pcb 20070912 *
G04 CreationDate: Fri Dec  7 19:10:14 2007 UTC *
G04 For: sean *
G04 Format: Gerber/RS-274X *
G04 PCB-Dimensions: 260000 170000 *
G04 PCB-Coordinate-Origin: lower left *
%MOIN*%
%FSLAX24Y24*%
%LNFRONT*%
%ADD11C,0.0100*%
%ADD12C,0.0200*%
%ADD13C,0.0600*%
%ADD14C,0.0360*%
%ADD15C,0.1200*%
%ADD16C,0.0300*%
%ADD17C,0.0380*%
%ADD18C,0.0280*%
%ADD19C,0.0900*%
%ADD20R,0.0300X0.0300*%
%ADD21R,0.0240X0.0240*%
%ADD22C,0.0240*%
%ADD23R,0.0820X0.0820*%
%ADD24R,0.0150X0.0150*%
%ADD25R,0.0216X0.0216*%
%ADD26C,0.0160*%
%ADD27R,0.0160X0.0160*%
%ADD28R,0.0118X0.0118*%
%ADD29C,0.0150*%
G54D11*X13984Y10430D02*X13330D01*
X11410Y9800D02*Y9809D01*
Y9800D02*X12870D01*
X10995Y9480D02*X12870D01*
Y11370D02*X12092D01*
Y11279D01*
X12870Y11615D02*Y11690D01*
X14320Y12685D02*X15462D01*
X13984Y10430D02*Y12970D01*
X14000D01*
X14320Y12685D02*Y12970D01*
X15132Y10430D02*X13984D01*
X13535Y11060D02*Y13070D01*
X13330Y11060D02*X13535D01*
X13715Y10740D02*X13330D01*
X12700Y13250D02*X13715D01*
Y10740D01*
X19075Y11922D02*Y10952D01*
X17585Y10458D02*X18710D01*
X15890Y12970D02*Y11262D01*
X15462Y12685D02*Y8695D01*
X15890Y11262D02*X18470D01*
X15935Y9355D02*X16820D01*
X20160Y13530D02*X21950D01*
X18190Y14480D02*X22960D01*
Y14420D01*
X22230Y14030D02*Y13760D01*
Y14030D02*X22960D01*
X18410Y14040D02*X21850D01*
X17150Y12505D02*X22960D01*
X18720Y12895D02*X22610D01*
X17470Y13430D02*X17544D01*
X18410Y14040D02*Y13430D01*
X21950Y13530D02*Y13455D01*
X22710D01*
X21470Y13250D02*X22960D01*
X22710Y13640D02*Y13455D01*
Y13640D02*X22960D01*
Y12505D02*Y12470D01*
X24160Y12860D02*X23810D01*
X24160D02*Y12535D01*
X23810Y12080D02*X24885D01*
Y12120D02*Y12080D01*
X24785Y13455D02*X25445D01*
X25775Y15200D02*X23810D01*
X25775D02*Y12555D01*
X19840Y12300D02*X22710D01*
X19840Y11980D02*X22530D01*
X19840Y11670D02*X22350D01*
X19840Y11350D02*X22170D01*
X19840Y11040D02*X21990D01*
X19840Y10720D02*X21710D01*
Y10645D01*
X19840Y9150D02*X21530D01*
Y9075D01*
X19840Y10410D02*Y10335D01*
X21810D01*
X19380Y10090D02*X18995D01*
X19380Y9780D02*X19175D01*
X25165Y13175D02*Y11690D01*
X23810D01*
Y8960D02*X25020D01*
X25445Y11300D02*X23810D01*
X22710Y12300D02*Y10910D01*
X22530Y11980D02*Y10520D01*
X22350Y11670D02*Y10130D01*
X22170Y11350D02*Y9740D01*
X21990Y11040D02*Y9350D01*
X22710Y10910D02*X22960D01*
X22530Y10520D02*X22960D01*
X22350Y10130D02*X22960D01*
X22170Y9740D02*X22960D01*
X21990Y9350D02*X22960D01*
X21810Y10335D02*Y8960D01*
X22960D01*
X25020D02*Y8840D01*
X25445Y13455D02*Y11300D01*
X20690Y15185D02*Y15860D01*
Y15185D02*Y14810D01*
X22960D01*
X17650Y14960D02*Y15185D01*
X20690D01*
X19660Y2050D02*X20090D01*
X24160Y1700D02*X24590D01*
X22492Y2950D02*X21940D01*
X24160Y2380D02*Y1700D01*
X23800Y6710D02*Y8570D01*
X22212Y8520D02*Y8445D01*
X19840Y8755D02*X22492D01*
Y2950D01*
X21510Y8200D02*Y3950D01*
X23800Y6710D02*X25020D01*
Y519D02*Y6710D01*
X17832Y6460D02*Y4880D01*
X18154Y6460D02*Y3430D01*
X18430D01*
Y1830D01*
X18995Y619D02*X18995D01*
X17450Y3442D02*Y4000D01*
X15870Y4600D02*X16000D01*
X16450D01*
X16000D02*Y3722D01*
X21510Y3950D02*X21940D01*
X21319Y4260D02*Y2380D01*
X24160D01*
X21940Y950D02*Y519D01*
X25020D01*
X19175Y1519D02*X22940D01*
Y1950D01*
X18995Y10090D02*Y619D01*
X18710Y10458D02*Y6920D01*
X19175Y1519D02*Y9780D01*
X19840Y9460D02*X20190D01*
Y9430D01*
X19840Y8520D02*X22212D01*
X19840Y8200D02*X21510D01*
X15170Y3442D02*X15519D01*
X17450D01*
X18430Y1830D02*X15600D01*
X17450Y4600D02*X17974D01*
X17450Y4880D02*Y4600D01*
X17974D02*Y3000D01*
X18000D01*
X16190Y4880D02*X17450D01*
X15132Y7125D02*Y7439D01*
Y10430D01*
Y7439D02*X16220D01*
X16500Y9025D02*Y6920D01*
X16820Y9355D02*Y6920D01*
X15519Y3442D02*Y6460D01*
X16190D02*Y4880D01*
X15870Y6460D02*Y4600D01*
X14610Y6460D02*Y2530D01*
X14300Y6460D02*Y3530D01*
X15170Y669D02*Y3442D01*
X18190Y14480D02*Y14400D01*
X17544Y14810D02*Y13430D01*
X18100Y13735D02*Y13430D01*
X17770D02*Y14080D01*
X17780Y13430D02*X17770D01*
X17900Y14090D02*Y14080D01*
X17770D01*
X16520Y12970D02*Y11642D01*
X16840Y12970D02*Y11922D01*
X17150Y12970D02*Y12505D01*
X16840Y11922D02*X19075D01*
X16520Y11642D02*X18470D01*
X18720Y12970D02*Y12895D01*
X16899Y14800D02*Y14860D01*
X17050D01*
X16899D02*X17050D01*
X17544Y14810D02*X17650Y14860D01*
X17544Y14810D01*
X17650D02*X17544D01*
X17050Y14860D02*X17145D01*
X17090Y14960D02*X17050D01*
X17525D02*X17650D01*
X17090D02*Y15610D01*
X11770Y14390D02*Y14029D01*
X12700Y14500D02*Y13250D01*
Y15795D02*Y14600D01*
Y15795D02*X13200D01*
X13850Y15350D02*X13300D01*
X14280Y14980D02*Y14500D01*
X14074Y13430D02*X14000D01*
X14074D02*Y14213D01*
X14280Y14500D02*X14560D01*
X16205Y13735D02*X16210D01*
X15585Y13741D02*X15580D01*
X14945D02*X14950D01*
X16210Y13735D02*Y13430D01*
X15580Y13741D02*Y13430D01*
X14950Y13741D02*Y13430D01*
X15600Y1830D02*Y1400D01*
X14930Y1100D02*X13700D01*
X14610Y2530D02*X11800D01*
Y2400D01*
X14300Y3530D02*X10800D01*
Y2400D01*
Y1400D02*X11800D01*
X13700Y4265D02*Y4100D01*
X11800Y1400D02*Y669D01*
X15170D01*
X13330Y7590D02*X13715D01*
X13270Y6460D02*X13990D01*
X13715Y7590D02*Y7569D01*
Y7670D02*Y7590D01*
Y7569D01*
X15519Y6460D02*X15560D01*
X15132Y7125D02*X15240D01*
X13090D02*X15132D01*
X13330Y8850D02*X14375D01*
X12870D02*Y8831D01*
X13330Y8540D02*Y8465D01*
X14755D01*
X14375Y8850D02*Y8745D01*
X13330Y7803D02*Y7910D01*
X13270Y4637D02*Y6460D01*
X13090Y5569D02*Y7125D01*
X17450Y6460D02*Y5720D01*
X17525D01*
X17350Y4000D02*X16550D01*
X17130Y5160D02*X17145D01*
X17130Y6460D02*Y5160D01*
X19660Y5720D02*Y2050D01*
X20090Y4050D02*X21230D01*
Y4350D02*Y4260D01*
X21319D01*
X21230D02*Y4350D01*
Y4050D02*Y4260D01*
X17760Y6460D02*X17832D01*
X18080D02*X18154D01*
X19840Y8830D02*Y8755D01*
X14930Y6460D02*Y1100D01*
X11770Y14390D02*X7290D01*
X7610Y15720D02*X7200D01*
X7980Y15880D02*Y16210D01*
X7590D01*
X7980Y15439D02*Y15720D01*
X8115D01*
Y15795D02*Y15720D01*
Y15795D02*X12700D01*
X6970Y13260D02*Y15100D01*
X13535Y13070D02*X7260D01*
X8410Y16540D02*Y16140D01*
Y16540D02*X7980D01*
X7200D02*X6850D01*
Y16420D01*
X7590Y16210D02*Y16540D01*
X17090Y16210D02*X17980D01*
X15029Y15160D02*X15180D01*
X15029D02*Y15120D01*
X15180Y14213D02*Y15160D01*
X15029Y15120D02*X14630D01*
X14074Y14213D02*X15180D01*
X13960Y14600D02*X13300D01*
X13720Y14500D02*Y14040D01*
Y14500D02*X13960D01*
X13200Y15950D02*Y15795D01*
X17145Y14117D02*Y14860D01*
X16899D02*Y14800D01*
X15480D01*
X17525Y15890D02*X15780D01*
Y15260D01*
X17525Y15890D02*Y14960D01*
X15480Y15583D02*X13850D01*
Y15940D01*
X14630D02*X14980D01*
Y15867D01*
X15480Y15583D02*Y14800D01*
X14630Y16560D02*Y16100D01*
X14250D02*X14240D01*
X14250Y16560D02*Y16100D01*
X13300Y15950D02*Y16560D01*
X14250D01*
X14630D02*X14850D01*
X15240Y7125D02*Y6920D01*
X12870Y10110D02*X12443D01*
Y10137D02*Y10110D01*
X10000Y11615D02*Y11500D01*
X10510Y12310D02*Y11930D01*
X12870Y11615D02*X10000D01*
X10740Y6860D02*Y6780D01*
Y6860D01*
Y6520D02*Y6780D01*
X12870Y12000D02*X11745D01*
Y11925D01*
X12870Y12310D02*X10510D01*
X10210Y7019D02*Y7332D01*
X8940Y5850D02*X10000D01*
X5490Y5270D02*Y5190D01*
X5420Y5270D02*X5490D01*
X10520Y5950D02*X10600D01*
X10520Y6520D02*Y5950D01*
X10320Y6300D02*Y5569D01*
X13090D01*
X10740Y7030D02*Y6860D01*
Y7290D02*Y7030D01*
X6800Y4700D02*Y4637D01*
X13270D01*
X7700Y4265D02*X13700D01*
X8769Y7300D02*Y7250D01*
X8300Y5994D02*Y6450D01*
X9645Y7300D02*X9070D01*
X9280Y7019D02*X10210D01*
X9280Y7040D02*Y7019D01*
Y6530D01*
X5420Y9585D02*X6351D01*
X5600Y8401D02*Y9270D01*
Y8401D02*X5700D01*
X7660D01*
Y8540D02*Y8401D01*
X12870Y9170D02*X9170D01*
Y8955D02*Y9170D01*
Y8955D02*X6803D01*
X8300Y6450D02*X8520D01*
Y6300D01*
X8769Y6790D02*X8850D01*
X8769Y6830D02*Y6790D01*
X8520Y6300D02*X10320D01*
X8769Y7250D02*X8300D01*
X9070Y7040D02*X9280D01*
Y6530D02*X9070D01*
X7649Y7250D02*X7700D01*
X8769Y6830D02*X7700D01*
X7649D02*Y7250D01*
Y6830D02*X7700D01*
Y6550D01*
X5420Y5270D02*Y9585D01*
X5950Y4680D02*Y4700D01*
X5490Y4680D02*X5950D01*
X5490Y4940D02*X5670D01*
Y4935D01*
Y4940D02*Y4935D01*
X5700Y4940D02*X5670D01*
X5700D02*Y8401D01*
X7940Y8220D02*Y8091D01*
X6803Y9585D02*Y9520D01*
Y9900D02*X7120D01*
Y9800D01*
X5002Y11930D02*X10510D01*
X5002D02*Y10529D01*
X9930Y9800D02*Y9710D01*
X9550Y8831D02*X12870D01*
X6940Y10400D02*Y10215D01*
X6350Y10529D02*Y10215D01*
X6940Y10400D02*Y10529D01*
X6803D01*
X12870Y8220D02*X7940D01*
X7420Y7803D02*X13330D01*
X7660Y8540D02*X12870D01*
X8769Y7300D02*X8850D01*
X9930Y9800D02*X7220D01*
X6803Y9520D02*X9550D01*
Y9508D01*
X3370Y4940D02*Y4960D01*
Y4940D02*Y4960D01*
X3150Y4690D02*X2499D01*
X2184Y6618D02*Y6558D01*
Y6618D02*X2192D01*
X2789Y6748D02*Y5409D01*
X2381Y6283D02*Y5994D01*
X1987Y6283D02*Y5165D01*
X2560Y3720D02*Y3660D01*
X3150D01*
X2789Y4000D02*Y3920D01*
X3150D01*
X2115Y5165D02*X1987D01*
Y6558D02*Y6748D01*
X1840D01*
X3150Y3440D02*Y3410D01*
X1790Y3720D02*X2560D01*
X2280Y3440D02*X3150D01*
X1404Y3159D02*X3580D01*
X470Y2979D02*X3760D01*
X3370Y4940D02*X3980D01*
Y4917D01*
X4430Y5200D02*Y5197D01*
X3370Y5200D02*X4430D01*
X3580Y4170D02*X3370D01*
X3580Y3159D02*Y4170D01*
X3370Y4430D02*X3760D01*
Y2979D01*
X2381Y8422D02*Y8133D01*
X1790Y6283D02*Y3720D01*
X1404Y7858D02*Y3159D01*
X470Y2979D02*Y8460D01*
X1790Y7858D02*Y6748D01*
X1594D02*Y6558D01*
Y6748D02*X1790D01*
X470Y8460D02*X780D01*
X1790Y6748D02*X1790D01*
X1790D02*X1790D01*
X7720Y12320D02*X4800D01*
X6660Y13260D02*X6970D01*
X3700Y14390D02*Y14300D01*
Y14390D02*X6690D01*
X4870Y15530D02*Y15439D01*
X7980D01*
X6970Y15100D02*X3700D01*
X3220Y15530D02*X4870D01*
X3220D02*Y15100D01*
Y10200D01*
Y15100D02*X2700D01*
X1987Y8702D02*Y10200D01*
X3120D01*
X3220Y9585D02*Y9600D01*
X1987Y8702D02*X3337D01*
X1987Y8133D02*Y8702D01*
X3337D02*Y7108D01*
X5060D01*
X4778Y8096D02*X4298D01*
X4778Y8955D02*X4028D01*
X4778Y8096D02*Y8955D01*
X3575Y9585D02*Y9270D01*
X4346Y9900D02*Y9585D01*
X4028D01*
X4800Y10844D02*X4028D01*
X6351Y9900D02*X4346D01*
X5002Y10529D02*X4028D01*
X4028Y10215D02*X6350D01*
X4800Y10844D02*Y12320D01*
X5600Y9270D02*X6351D01*
X6803Y10215D02*X6940D01*
X7120Y10400D02*X6940D01*
X3575Y10215D02*Y9900D01*
X3220Y10200D02*X3418D01*
Y10215D02*Y10200D01*
Y10215D02*X3575D01*
X3220Y9585D02*X3575D01*
X4710Y6928D02*Y3360D01*
X5060Y7108D02*Y4170D01*
X5724Y3660D02*X5490D01*
X5724Y4120D02*Y3660D01*
Y4170D02*Y4120D01*
X5490Y4170D02*X5724D01*
X5490Y4430D02*Y4680D01*
X5060Y4170D02*X5270D01*
X9370Y3030D02*Y1400D01*
X7420Y4917D02*Y7803D01*
X6520Y3030D02*X9370D01*
Y1400D02*X9800D01*
X10800D02*X9800D01*
X6520Y4100D02*Y3030D01*
X6800Y4637D02*Y3450D01*
Y2650D02*Y2369D01*
X7180Y2650D02*X6800D01*
X6200Y3350D02*Y2750D01*
X5490Y3350D02*X6200D01*
X5060Y3910D02*X5270D01*
X5490Y3400D02*Y3350D01*
X5060Y2369D02*Y3910D01*
X6800Y2369D02*X5060D01*
X6050Y4700D02*X6800D01*
X5950Y4120D02*Y4100D01*
X5724Y4120D02*X5950D01*
X6050Y4100D02*X6520D01*
X2184Y6928D02*X4710D01*
X1140Y8240D02*X1247D01*
X1594Y7858D02*X1404D01*
X1140Y8240D02*Y6460D01*
X780D01*
X2192Y6618D02*Y6748D01*
X2789D01*
X2184Y7858D02*Y6928D01*
X2432Y8422D02*X2381D01*
G54D12*G36*
X21640Y5250D02*Y4650D01*
X22240D01*
Y5250D01*
X21640D01*
G37*
G54D13*X22940Y4950D03*
X21940Y3950D03*
X22940D03*
Y2950D03*
Y1950D03*
Y950D03*
G54D12*G36*
X24290Y2000D02*Y1400D01*
X24890D01*
Y2000D01*
X24290D01*
G37*
G54D13*X24590Y2700D03*
G54D12*G36*
X17700Y3300D02*Y2700D01*
X18300D01*
Y3300D01*
X17700D01*
G37*
G54D14*X780Y8960D03*
Y8460D03*
Y7960D03*
Y7460D03*
Y6960D03*
Y6460D03*
Y5960D03*
Y5460D03*
G54D12*G36*
X2400Y14600D02*Y14000D01*
X3000D01*
Y14600D01*
X2400D01*
G37*
G54D13*X3700Y14300D03*
Y15100D03*
X2700D03*
G54D15*X800Y16200D03*
X5600D03*
G54D12*G36*
X9700Y13800D02*Y13200D01*
X10300D01*
Y13800D01*
X9700D01*
G37*
G54D13*X10000Y12500D03*
Y11500D03*
Y10500D03*
G54D12*G36*
X10300Y16600D02*Y16000D01*
X10900D01*
Y16600D01*
X10300D01*
G37*
G54D13*X10600Y15300D03*
G54D12*G36*
X17680Y16510D02*Y15910D01*
X18280D01*
Y16510D01*
X17680D01*
G37*
G54D13*X21940Y1950D03*
Y950D03*
Y2950D03*
G54D12*G36*
X19790Y4350D02*Y3750D01*
X20390D01*
Y4350D01*
X19790D01*
G37*
G54D13*X20090Y3050D03*
Y2050D03*
Y1050D03*
G54D12*G36*
X19390Y16160D02*Y15560D01*
X19990D01*
Y16160D01*
X19390D01*
G37*
G54D13*X20690Y15860D03*
G54D12*G36*
X9500Y1700D02*Y1100D01*
X10100D01*
Y1700D01*
X9500D01*
G37*
G54D13*X9800Y2400D03*
X10800Y1400D03*
Y2400D03*
X11800Y1400D03*
G54D12*G36*
X15300Y1700D02*Y1100D01*
X15900D01*
Y1700D01*
X15300D01*
G37*
G54D13*X16600Y1400D03*
X11800Y2400D03*
X16000Y3000D03*
G54D12*G36*
X13400Y5400D02*Y4800D01*
X14000D01*
Y5400D01*
X13400D01*
G37*
G54D13*X13700Y4100D03*
Y3100D03*
Y2100D03*
Y1100D03*
G54D16*X14280Y14980D03*
X18190Y14400D03*
X18470Y11642D03*
X18100Y13735D03*
X18470Y11262D03*
X17585Y10458D03*
X17145Y14117D03*
X17900Y14090D03*
X16500Y9025D03*
X15935Y9355D03*
X14755Y8465D03*
X15462Y8695D03*
X22230Y13760D03*
X20160Y13530D03*
X21850Y14040D03*
X21470Y13250D03*
X22610Y12895D03*
X25165Y13175D03*
X24785Y13455D03*
X24885Y12120D03*
X25020Y8840D03*
X24160Y12535D03*
X25775Y12555D03*
X19075Y10952D03*
X21710Y10645D03*
X20190Y9430D03*
X21530Y9075D03*
X22212Y8445D03*
X17832Y4880D03*
X17145Y5160D03*
X17525Y5720D03*
X19660D03*
X21230Y4350D03*
X16000Y3722D03*
X18995Y619D03*
X7610Y15720D03*
X6850Y16420D03*
X14945Y13741D03*
X13720Y14040D03*
X11770Y14029D03*
X15585Y13741D03*
X16205Y13735D03*
X8410Y16140D03*
X11745Y11925D03*
X7720Y12320D03*
X14980Y15867D03*
X8940Y5850D03*
X7420Y4917D03*
X7180Y2650D03*
X7700Y4265D03*
X2432Y8422D03*
X1247Y8240D03*
X4298Y8096D03*
X4710Y3360D03*
X4430Y5197D03*
X3980Y4917D03*
X2280Y3440D03*
X2789Y5409D03*
Y4000D03*
X2115Y5165D03*
X2499Y4690D03*
X2381Y5994D03*
X7940Y8091D03*
X8300Y5994D03*
X12092Y11279D03*
X12443Y10137D03*
X9930Y9710D03*
X9550Y9508D03*
X9550Y8831D03*
X9170Y8955D03*
X11410Y9809D03*
X10995Y9480D03*
X16220Y7439D03*
X13715Y7670D03*
X14375Y8745D03*
X10210Y7332D03*
X9645Y7300D03*
G54D20*X14250Y16660D02*Y16560D01*
X14850Y16660D02*Y16560D01*
G54D21*X13850Y16100D02*Y15940D01*
X14240Y16100D02*Y15940D01*
X14630Y16100D02*Y15940D01*
G54D20*X15780Y15260D02*Y15160D01*
X17650Y14960D02*Y14860D01*
X17050Y14960D02*Y14860D01*
X15180Y15260D02*Y15160D01*
G54D21*X14630Y15280D02*Y15120D01*
X13850Y15280D02*Y15120D01*
G54D20*X13200Y15950D02*X13300D01*
X13200Y15350D02*X13300D01*
X12700Y14600D02*Y14500D01*
X13300Y14600D02*Y14500D01*
X13960Y14600D02*Y14500D01*
X14560Y14600D02*Y14500D01*
G54D22*X22960Y15200D02*X23810D01*
G54D21*X22960Y14810D02*X23810D01*
X22960Y14420D02*X23810D01*
X22960Y14030D02*X23810D01*
X22960Y13640D02*X23810D01*
X22960Y13250D02*X23810D01*
X22960Y12860D02*X23810D01*
X22960Y12470D02*X23810D01*
G54D23*X24340Y16440D02*X25440D01*
G54D20*X16990Y16210D02*X17090D01*
X16990Y15610D02*X17090D01*
G54D24*X18720Y13430D02*Y12970D01*
X18410Y13430D02*Y12970D01*
X18100Y13430D02*Y12970D01*
X17780Y13430D02*Y12970D01*
X17470Y13430D02*Y12970D01*
X17150Y13430D02*Y12970D01*
X16840Y13430D02*Y12970D01*
X16520Y13430D02*Y12970D01*
X16210Y13430D02*Y12970D01*
X15890Y13430D02*Y12970D01*
X15580Y13430D02*Y12970D01*
X15260Y13430D02*Y12970D01*
X14950Y13430D02*Y12970D01*
X14630Y13430D02*Y12970D01*
X14320Y13430D02*Y12970D01*
X14000Y13430D02*Y12970D01*
G54D20*X6660Y13260D02*Y13160D01*
X7260Y13260D02*Y13160D01*
X6690Y14490D02*Y14390D01*
X7290Y14490D02*Y14390D01*
G54D21*X7200Y16700D02*Y16540D01*
X7590Y16700D02*Y16540D01*
X7980Y16700D02*Y16540D01*
Y15880D02*Y15720D01*
X7200Y15880D02*Y15720D01*
G54D20*X7120Y9800D02*X7220D01*
X7120Y10400D02*X7220D01*
X3120Y9600D02*X3220D01*
X3120Y10200D02*X3220D01*
G54D25*X3575Y10215D02*X4028D01*
X3575Y9900D02*X4028D01*
X3575Y9585D02*X4028D01*
X3575Y11159D02*X4540D01*
X3575Y10844D02*X4028D01*
X3575Y10529D02*X4028D01*
X3575Y9270D02*X4028D01*
X3575Y8955D02*X4028D01*
X3575Y8640D02*X4540D01*
X5839D02*X6803D01*
X6351Y8955D02*X6803D01*
X6351Y9270D02*X6803D01*
X6351Y9585D02*X6803D01*
X6351Y9900D02*X6803D01*
X6350Y10215D02*X6803D01*
X6351Y10529D02*X6803D01*
X6351Y10844D02*X6803D01*
X5839Y11159D02*X6803D01*
G54D26*X3150Y5200D02*X3370D01*
G54D27*X3150Y4940D02*X3370D01*
X3150Y4690D02*X3370D01*
X3150Y4430D02*X3370D01*
X3150Y4170D02*X3370D01*
X3150Y3920D02*X3370D01*
X3150Y3660D02*X3370D01*
X3150Y3410D02*X3370D01*
X5270Y3400D02*X5490D01*
X5270Y3660D02*X5490D01*
X5270Y3910D02*X5490D01*
X5270Y4170D02*X5490D01*
X5270Y4430D02*X5490D01*
X5270Y4680D02*X5490D01*
X5270Y4940D02*X5490D01*
X5270Y5190D02*X5490D01*
G54D20*X6200Y2750D02*Y2650D01*
X6800Y2750D02*Y2650D01*
X6200Y3450D02*Y3350D01*
X6800Y3450D02*Y3350D01*
X5950Y4700D02*X6050D01*
X5950Y4100D02*X6050D01*
G54D28*X1594Y6558D02*Y6283D01*
X1790Y6558D02*Y6283D01*
X1987Y6558D02*Y6283D01*
X2184Y6558D02*Y6283D01*
X2381Y6558D02*Y6283D01*
Y8133D02*Y7858D01*
X2184Y8133D02*Y7858D01*
X1987Y8133D02*Y7858D01*
X1790Y8133D02*Y7858D01*
X1594Y8133D02*Y7858D01*
G54D26*X8850Y7300D02*X9070D01*
G54D27*X8850Y7040D02*X9070D01*
G54D20*X7700Y6550D02*Y6450D01*
X8300Y6550D02*Y6450D01*
G54D27*X8850Y6790D02*X9070D01*
X8850Y6530D02*X9070D01*
X10520Y6520D02*X10740D01*
X10520Y6780D02*X10740D01*
X10520Y7030D02*X10740D01*
X10520Y7290D02*X10740D01*
G54D20*X10000Y5950D02*Y5850D01*
X10600Y5950D02*Y5850D01*
X7700Y7350D02*Y7250D01*
X8300Y7350D02*Y7250D01*
G54D21*X22960Y12080D02*X23810D01*
X22960Y11690D02*X23810D01*
X22960Y11300D02*X23810D01*
X22960Y10910D02*X23810D01*
X22960Y10520D02*X23810D01*
X22960Y10130D02*X23810D01*
X22960Y9740D02*X23810D01*
X22960Y9350D02*X23810D01*
X22960Y8960D02*X23810D01*
X22960Y8570D02*X23810D01*
G54D23*X24340Y7330D02*X25440D01*
G54D29*X12870Y12310D02*X13330D01*
G54D24*X12870Y12000D02*X13330D01*
X12870Y11690D02*X13330D01*
X12870Y11370D02*X13330D01*
X12870Y11060D02*X13330D01*
X12870Y10740D02*X13330D01*
X12870Y10430D02*X13330D01*
X12870Y10110D02*X13330D01*
X12870Y9800D02*X13330D01*
X12870Y9480D02*X13330D01*
X12870Y9170D02*X13330D01*
X12870Y8850D02*X13330D01*
X12870Y8540D02*X13330D01*
X12870Y8220D02*X13330D01*
X12870Y7910D02*X13330D01*
X12870Y7590D02*X13330D01*
X13990Y6920D02*Y6460D01*
X14300Y6920D02*Y6460D01*
X14610Y6920D02*Y6460D01*
X14930Y6920D02*Y6460D01*
X15240Y6920D02*Y6460D01*
X15560Y6920D02*Y6460D01*
X15870Y6920D02*Y6460D01*
X16190Y6920D02*Y6460D01*
X16500Y6920D02*Y6460D01*
X16820Y6920D02*Y6460D01*
X17130Y6920D02*Y6460D01*
G54D20*X17350Y4000D02*X17450D01*
X17350Y4600D02*X17450D01*
X16450Y4000D02*X16550D01*
X16450Y4600D02*X16550D01*
G54D24*X17450Y6920D02*Y6460D01*
X17760Y6920D02*Y6460D01*
X18080Y6920D02*Y6460D01*
X18390Y6920D02*Y6460D01*
X18710Y6920D02*Y6460D01*
X19380Y7580D02*X19840D01*
X19380Y7890D02*X19840D01*
X19380Y8200D02*X19840D01*
X19380Y8520D02*X19840D01*
X19380Y8830D02*X19840D01*
X19380Y9150D02*X19840D01*
X19380Y9460D02*X19840D01*
X19380Y9780D02*X19840D01*
X19380Y10090D02*X19840D01*
X19380Y10410D02*X19840D01*
X19380Y10720D02*X19840D01*
X19380Y11040D02*X19840D01*
X19380Y11350D02*X19840D01*
X19380Y11670D02*X19840D01*
X19380Y11980D02*X19840D01*
X19380Y12300D02*X19840D01*
G54D17*G54D18*G54D12*G54D18*G54D19*G54D17*G54D18*G54D17*G54D12*M02*
