G04 start of page 5 for group -4062 idx -4062
G04 Title: (unknown), soldermask *
G04 Creator: pcb 20070912 *
G04 CreationDate: Fri Dec  7 19:10:14 2007 UTC *
G04 For: sean *
G04 Format: Gerber/RS-274X *
G04 PCB-Dimensions: 260000 170000 *
G04 PCB-Coordinate-Origin: lower left *
%MOIN*%
%FSLAX24Y24*%
%LNBACKMASK*%
%ADD12C,0.0200*%
%ADD30C,0.0660*%
%ADD31C,0.0420*%
%ADD32C,0.1260*%
G54D12*G36*
X21610Y5280D02*Y4620D01*
X22270D01*
Y5280D01*
X21610D01*
G37*
G54D30*X22940Y4950D03*
X21940Y3950D03*
X22940D03*
Y2950D03*
Y1950D03*
Y950D03*
G54D12*G36*
X24260Y2030D02*Y1370D01*
X24920D01*
Y2030D01*
X24260D01*
G37*
G54D30*X24590Y2700D03*
G54D12*G36*
X17670Y3330D02*Y2670D01*
X18330D01*
Y3330D01*
X17670D01*
G37*
G54D31*X780Y8960D03*
Y8460D03*
Y7960D03*
Y7460D03*
Y6960D03*
Y6460D03*
Y5960D03*
Y5460D03*
G54D12*G36*
X2370Y14630D02*Y13970D01*
X3030D01*
Y14630D01*
X2370D01*
G37*
G54D30*X3700Y14300D03*
Y15100D03*
X2700D03*
G54D32*X800Y16200D03*
X5600D03*
G54D12*G36*
X9670Y13830D02*Y13170D01*
X10330D01*
Y13830D01*
X9670D01*
G37*
G54D30*X10000Y12500D03*
Y11500D03*
Y10500D03*
G54D12*G36*
X10270Y16630D02*Y15970D01*
X10930D01*
Y16630D01*
X10270D01*
G37*
G54D30*X10600Y15300D03*
G54D12*G36*
X17650Y16540D02*Y15880D01*
X18310D01*
Y16540D01*
X17650D01*
G37*
G54D30*X21940Y1950D03*
Y950D03*
Y2950D03*
G54D12*G36*
X19760Y4380D02*Y3720D01*
X20420D01*
Y4380D01*
X19760D01*
G37*
G54D30*X20090Y3050D03*
Y2050D03*
Y1050D03*
G54D12*G36*
X19360Y16190D02*Y15530D01*
X20020D01*
Y16190D01*
X19360D01*
G37*
G54D30*X20690Y15860D03*
G54D12*G36*
X9470Y1730D02*Y1070D01*
X10130D01*
Y1730D01*
X9470D01*
G37*
G54D30*X9800Y2400D03*
X10800Y1400D03*
Y2400D03*
X11800Y1400D03*
G54D12*G36*
X15270Y1730D02*Y1070D01*
X15930D01*
Y1730D01*
X15270D01*
G37*
G54D30*X16600Y1400D03*
X11800Y2400D03*
X16000Y3000D03*
G54D12*G36*
X13370Y5430D02*Y4770D01*
X14030D01*
Y5430D01*
X13370D01*
G37*
G54D30*X13700Y4100D03*
Y3100D03*
Y2100D03*
Y1100D03*
M02*
