M48
INCH,TZ
T13C0.020
T16C0.120
T19C0.038
T20C0.030
T21C0.028
T22C0.090
T23C0.018
%
T23
X001991Y009285
X001615Y007790
X001560Y005170
X010620Y011253
X010526Y012385
X006610Y016870
X005619Y018853
X005665Y017082
X006230Y017970
X004839Y024614
X004719Y024934
X006430Y024926
X007001Y024926
X008954Y024926
X005919Y019490
X006345Y020189
X008365Y020902
X007290Y018990
X007920Y018989
X004658Y022211
X007110Y022573
X002643Y022211
X001615Y022211
X012380Y019620
X004730Y019490
X006540Y019260
X011268Y016250
X005915Y016165
X007158Y016255
X012111Y016589
X012111Y017734
X011769Y018028
X010869Y017708
X010869Y018400
X011268Y018028
X011518Y018374
X011518Y018900
X009040Y018650
X008800Y017579
X009120Y017329
X008839Y016800
X008550Y018128
X007825Y013015
X009502Y009900
X009549Y010837
X009949Y010150
X008863Y011830
X006904Y011570
X007158Y011250
X008863Y013696
X009150Y010400
X008850Y008650
X008348Y009595
X007995Y006480
X008028Y009312
X007418Y010929
X007205Y010554
X007180Y009901
X006795Y010224
X004945Y009565
X005665Y010804
X003020Y009637
X004780Y010107
X005365Y009815
T13
X008570Y015650
X009070Y015650
X009570Y015650
X010070Y015650
X010570Y015650
X011070Y015650
X011570Y015650
X012070Y015650
T21
X008010Y003390
X007010Y003390
X007010Y002590
X008010Y002590
T20
X002711Y018423
X005270Y018423
X005270Y016652
X002711Y016652
X002710Y026025
X002710Y024254
X005269Y026025
X005269Y024254
X008810Y022423
X011369Y022423
X011369Y020652
X008810Y020652
T19
X011730Y008080
X011730Y006080
X011730Y009080
X011730Y007080
X001990Y007110
X005560Y007550
X001990Y006110
X005560Y006550
X005560Y005550
X003650Y028010
X004650Y028010
X009530Y027740
X009530Y026740
X009530Y025740
X009530Y024740
X009530Y023740
T22
X009910Y001490
X005110Y001490
T16
X003190Y004340
X010890Y026850
M30
