G04 start of page 2 for group 0 idx 0
G04 Title: (unknown), solder *
G04 Creator: pcb 20080202 *
G04 CreationDate: Fri Jun  6 05:00:44 2008 UTC *
G04 For: sean *
G04 Format: Gerber/RS-274X *
G04 PCB-Dimensions: 130000 290000 *
G04 PCB-Coordinate-Origin: lower left *
%MOIN*%
%FSLAX24Y24*%
%LNBACK*%
%ADD11C,0.0100*%
%ADD12C,0.0600*%
%ADD13C,0.0200*%
%ADD14C,0.0360*%
%ADD15C,0.0460*%
%ADD16C,0.1200*%
%ADD17C,0.1400*%
%ADD18C,0.0240*%
%ADD19C,0.0380*%
%ADD20C,0.0300*%
%ADD21C,0.0280*%
%ADD22C,0.0900*%
%ADD23C,0.0180*%
G54D11*X700Y28840D02*X300Y26760D01*
Y21580D01*
X2710Y24254D02*X2480D01*
X2710D01*
X2351D02*X2480D01*
X2643Y22211D02*Y22211D01*
X4730Y21883D02*X5629D01*
X2643Y22211D02*X4658D01*
X1991Y24934D02*X4719D01*
X5629Y21883D02*Y27480D01*
X2171Y24614D02*X4839D01*
Y24614D01*
X2710Y26025D02*X5269D01*
Y24254D02*X2710D01*
X9570Y15650D02*X9760D01*
X9120Y17329D02*Y15650D01*
X9070D01*
X8550Y16800D02*X8839D01*
X8260Y20267D02*Y15260D01*
X8550Y17853D02*Y16800D01*
Y17853D02*X8800D01*
Y18400D02*Y17853D01*
Y18400D02*X8790D01*
Y19774D02*Y18400D01*
X9530Y20267D02*X8260D01*
X9530D02*Y23740D01*
X11070Y15339D02*X12380D01*
Y19620D02*Y15339D01*
X12111Y17734D02*Y16589D01*
X10619Y15960D02*X12070D01*
Y15650D01*
X10869Y18400D02*Y17708D01*
X10869Y18400D02*X10869D01*
X11268Y18028D02*X11769D01*
X11518Y18900D02*Y18374D01*
X10869Y18400D02*X10869D01*
X11268Y18650D02*X9040D01*
X11268D02*Y18028D01*
X8800Y17579D02*X10619D01*
Y15960D01*
X11268Y18028D02*Y16250D01*
X5915Y17640D02*Y16165D01*
Y17640D02*X6540D01*
Y19260D02*Y17640D01*
X6230Y18423D02*Y17970D01*
X12690Y28100D02*X8150Y28840D01*
X700D01*
X3650Y27480D02*X5629D01*
X3650D02*Y28010D01*
X9530Y26740D02*X5949D01*
Y19807D01*
X7575Y20652D02*X8810D01*
X6345Y24926D02*Y20189D01*
X7290Y20902D02*X8365D01*
X10140Y19774D02*Y25940D01*
X10010D02*X10140D01*
X10010Y26740D02*Y25940D01*
X7110Y22423D02*X8810D01*
X8954Y24926D02*Y24926D01*
X10010Y26740D02*X9530D01*
X6680Y25740D02*X9530D01*
X6345Y24926D02*X6430D01*
X7001Y24926D02*X8954D01*
X8790Y19774D02*X10140D01*
X8550Y20034D02*X9960D01*
X9530Y24740D02*Y24170D01*
Y28010D02*Y27740D01*
X4650Y28010D02*X9530D01*
X6860Y17120D02*Y24170D01*
Y17120D02*X6904D01*
X8550Y20034D02*Y18128D01*
X6680Y19627D02*Y25740D01*
X7290Y20902D02*Y18990D01*
X9530Y24170D02*X6860D01*
X7110Y22423D02*Y22573D01*
X9960Y20034D02*Y24740D01*
X9530D01*
X5619Y19807D02*X5949D01*
X5619D02*Y18853D01*
X2711Y18423D02*X5270D01*
X6230D02*X5270D01*
X5919Y19627D02*Y19490D01*
X5270Y16652D02*X2711D01*
X5919Y19627D02*X6680D01*
X10220Y130D02*X5270D01*
X6930Y3820D02*X7580D01*
Y2590D01*
X6029Y2220D02*Y2159D01*
X8440D01*
X7580Y2590D02*X8010D01*
X4950Y5170D02*Y2220D01*
X5270Y130D02*X1310Y4070D01*
X4950Y2220D02*X6029D01*
X8440Y6820D02*Y2159D01*
Y6820D02*X8028D01*
X10220Y130D02*X11880Y3970D01*
X12690Y7310D01*
X1310Y4070D02*Y18080D01*
X300Y21580D02*X1310Y18080D01*
X1615Y22211D02*Y7790D01*
X4730Y21883D02*Y19490D01*
X2171Y9637D02*X3020D01*
X2171D02*Y24614D01*
X2351Y10368D02*Y24254D01*
X1991Y9285D02*Y24934D01*
X1560Y6110D02*X1990D01*
X1560Y7540D02*Y6110D01*
X3350Y7540D02*X1560D01*
X9760Y15650D02*Y12635D01*
X11070Y15650D02*Y15339D01*
X9549Y10837D02*Y15260D01*
X7825Y13015D02*X8600D01*
X9549Y15260D02*X8260D01*
X7920Y13946D02*X9150D01*
X8348Y9595D02*X7778D01*
X9150Y13946D02*Y10400D01*
X6610Y16870D02*Y10929D01*
X6904Y17120D02*Y11570D01*
X7158Y16255D02*Y11250D01*
X5665Y17082D02*Y10804D01*
X5665D01*
X6930Y9815D02*X5365D01*
X7205Y10554D02*X5270D01*
X6795Y10368D02*Y10224D01*
X5270Y10554D02*Y16652D01*
X6610Y10929D02*X7418D01*
X7778Y9595D02*Y6480D01*
X7995D01*
X7669Y9901D02*X7180D01*
X8028Y9312D02*Y6820D01*
X6930Y9815D02*Y3820D01*
X7669Y9901D02*Y12685D01*
X7575D01*
Y20652D02*Y12685D01*
X7920Y18989D02*Y13946D01*
X8600Y13015D02*Y7080D01*
X11730D01*
X10620Y9900D02*X9502D01*
X8850Y11830D02*X8863D01*
X8850D02*Y8650D01*
X8863Y13696D02*Y11830D01*
X9760Y12635D02*X11730D01*
Y9080D01*
X10620Y11253D02*Y9900D01*
X10526Y12385D02*X9949D01*
Y10150D02*Y12385D01*
X12690Y7310D02*Y28100D01*
X1990Y7110D02*X5130D01*
Y5550D01*
X5560D01*
X5365Y9815D02*X4780D01*
X4945Y9565D02*X5560D01*
Y7550D01*
X3350Y9815D02*Y7540D01*
X4780Y9815D02*X3350D01*
X4780Y10107D02*Y9815D01*
X6795Y10368D02*X2351D01*
X1560Y5170D02*X4950D01*
G54D12*X11730Y8080D03*
Y6080D03*
G54D13*G36*
X11430Y9380D02*Y8780D01*
X12030D01*
Y9380D01*
X11430D01*
G37*
G54D14*X8570Y15650D03*
X9070D03*
X9570D03*
X10070D03*
X10570D03*
X11070D03*
X11570D03*
X12070D03*
G54D15*X2711Y18423D03*
X5270D03*
Y16652D03*
X2711D03*
X2710Y26025D03*
Y24254D03*
G54D12*X11730Y7080D03*
G54D13*G36*
X1690Y7410D02*Y6810D01*
X2290D01*
Y7410D01*
X1690D01*
G37*
G36*
X5260Y7850D02*Y7250D01*
X5860D01*
Y7850D01*
X5260D01*
G37*
G54D12*X1990Y6110D03*
X5560Y6550D03*
Y5550D03*
G54D13*G36*
X7710Y3690D02*Y3090D01*
X8310D01*
Y3690D01*
X7710D01*
G37*
G54D12*X7010Y3390D03*
Y2590D03*
X8010D03*
G54D16*X9910Y1490D03*
X5110D03*
G54D13*G36*
X3350Y28310D02*Y27710D01*
X3950D01*
Y28310D01*
X3350D01*
G37*
G54D12*X4650Y28010D03*
G54D13*G36*
X9230Y28040D02*Y27440D01*
X9830D01*
Y28040D01*
X9230D01*
G37*
G54D12*X9530Y26740D03*
Y25740D03*
G54D15*X5269Y26025D03*
Y24254D03*
G54D12*X9530Y24740D03*
Y23740D03*
G54D15*X8810Y22423D03*
X11369D03*
Y20652D03*
X8810D03*
G54D17*X3190Y4340D03*
G54D18*X1991Y9285D03*
X1615Y7790D03*
X1560Y5170D03*
G54D17*X10890Y26850D03*
G54D18*X10620Y11253D03*
X10526Y12385D03*
X6610Y16870D03*
X5619Y18853D03*
X5665Y17082D03*
X6230Y17970D03*
X4839Y24614D03*
X4719Y24934D03*
X6430Y24926D03*
X7001Y24926D03*
X8954Y24926D03*
X5919Y19490D03*
X6345Y20189D03*
X8365Y20902D03*
X7290Y18990D03*
X7920Y18989D03*
X4658Y22211D03*
X7110Y22573D03*
X2643Y22211D03*
X1615Y22211D03*
X12380Y19620D03*
X4730Y19490D03*
X6540Y19260D03*
X11268Y16250D03*
X5915Y16165D03*
X7158Y16255D03*
X12111Y16589D03*
Y17734D03*
X11769Y18028D03*
X10869Y17708D03*
Y18400D03*
X11268Y18028D03*
X11518Y18374D03*
Y18900D03*
X9040Y18650D03*
X8800Y17579D03*
X9120Y17329D03*
X8839Y16800D03*
X8550Y18128D03*
X7825Y13015D03*
X9502Y9900D03*
X9549Y10837D03*
X9949Y10150D03*
X8863Y11830D03*
X6904Y11570D03*
X7158Y11250D03*
X8863Y13696D03*
X9150Y10400D03*
X8850Y8650D03*
X8348Y9595D03*
X7995Y6480D03*
X8028Y9312D03*
X7418Y10929D03*
X7205Y10554D03*
X7180Y9901D03*
X6795Y10224D03*
X4945Y9565D03*
X5665Y10804D03*
X3020Y9637D03*
X4780Y10107D03*
X5365Y9815D03*
G54D19*G54D13*G54D20*G54D19*G54D21*G54D22*G54D19*G54D20*G54D19*G54D20*G54D16*G54D23*G54D16*G54D23*M02*
