G04 start of page 8 for group -4015 idx -4015
G04 Title: (unknown), toppaste *
G04 Creator: pcb 20080202 *
G04 CreationDate: Fri Jun  6 05:00:44 2008 UTC *
G04 For: sean *
G04 Format: Gerber/RS-274X *
G04 PCB-Dimensions: 130000 290000 *
G04 PCB-Coordinate-Origin: lower left *
%MOIN*%
%FSLAX24Y24*%
%LNFRONTPASTE*%
%ADD13C,0.0200*%
%ADD24R,0.0300X0.0300*%
%ADD25R,0.0240X0.0240*%
%ADD26R,0.0450X0.0450*%
%ADD27C,0.0150*%
%ADD28R,0.0150X0.0150*%
%ADD29R,0.0945X0.0945*%
%ADD30R,0.0110X0.0110*%
%ADD31C,0.0160*%
%ADD32R,0.0160X0.0160*%
%ADD33R,0.0216X0.0216*%
G54D31*X5900Y22590D02*X6120D01*
G54D32*X5900Y22330D02*X6120D01*
X5900Y22080D02*X6120D01*
X5900Y21820D02*X6120D01*
X7570Y21810D02*X7790D01*
X7570Y22070D02*X7790D01*
X7570Y22320D02*X7790D01*
X7570Y22580D02*X7790D01*
G54D24*X7770Y23650D02*Y23550D01*
X7170Y23650D02*Y23550D01*
G54D33*X6050Y25130D02*Y24165D01*
X6365Y24618D02*Y24165D01*
X6680Y24618D02*Y24165D01*
X6994Y24618D02*Y24165D01*
X7310Y24618D02*Y24165D01*
X7624Y24618D02*Y24165D01*
X7939Y24618D02*Y24165D01*
X8254Y24618D02*Y24165D01*
X8569Y25130D02*Y24165D01*
Y27393D02*Y26429D01*
X8254Y27393D02*Y26941D01*
X7939Y27393D02*Y26941D01*
X7624Y27393D02*Y26941D01*
X7310Y27393D02*Y26941D01*
X6994Y27393D02*Y26940D01*
X6680Y27393D02*Y26941D01*
X6365Y27393D02*Y26941D01*
X6050Y27393D02*Y26429D01*
G54D24*X6920Y19710D02*Y19610D01*
X6320Y19710D02*Y19610D01*
X4470Y21030D02*Y20930D01*
X5070Y21030D02*Y20930D01*
G54D26*X9320Y6870D02*X9460D01*
X9320Y6070D02*X9460D01*
G54D27*X2710Y9290D02*Y8830D01*
G54D28*X3020Y9290D02*Y8830D01*
X3330Y9290D02*Y8830D01*
X3650Y9290D02*Y8830D01*
X3960Y9290D02*Y8830D01*
X4280Y9290D02*Y8830D01*
X4590Y9290D02*Y8830D01*
X4910Y9290D02*Y8830D01*
X5220Y9290D02*Y8830D01*
X5540Y9290D02*Y8830D01*
X5850Y9290D02*Y8830D01*
X6170Y9290D02*Y8830D01*
X6480Y9290D02*Y8830D01*
X6800Y9290D02*Y8830D01*
X7110Y9290D02*Y8830D01*
X7430Y9290D02*Y8830D01*
X8100Y9950D02*X8560D01*
X8100Y10260D02*X8560D01*
X8100Y10570D02*X8560D01*
X8100Y10890D02*X8560D01*
X8100Y11200D02*X8560D01*
X8100Y11520D02*X8560D01*
X8100Y11830D02*X8560D01*
X8100Y12150D02*X8560D01*
X8100Y12460D02*X8560D01*
X8100Y12780D02*X8560D01*
X8100Y13090D02*X8560D01*
X8100Y13410D02*X8560D01*
X8100Y13720D02*X8560D01*
X8100Y14040D02*X8560D01*
X8100Y14350D02*X8560D01*
X8100Y14670D02*X8560D01*
X7440Y15800D02*Y15340D01*
X7130Y15800D02*Y15340D01*
X6820Y15800D02*Y15340D01*
X6500Y15800D02*Y15340D01*
X6190Y15800D02*Y15340D01*
X5870Y15800D02*Y15340D01*
X5560Y15800D02*Y15340D01*
X5240Y15800D02*Y15340D01*
X4930Y15800D02*Y15340D01*
X4610Y15800D02*Y15340D01*
X4300Y15800D02*Y15340D01*
X3980Y15800D02*Y15340D01*
X3670Y15800D02*Y15340D01*
X3350Y15800D02*Y15340D01*
X3040Y15800D02*Y15340D01*
X2720Y15800D02*Y15340D01*
X1590Y14680D02*X2050D01*
X1590Y14370D02*X2050D01*
X1590Y14060D02*X2050D01*
X1590Y13740D02*X2050D01*
X1590Y13430D02*X2050D01*
X1590Y13110D02*X2050D01*
X1590Y12800D02*X2050D01*
X1590Y12480D02*X2050D01*
X1590Y12170D02*X2050D01*
X1590Y11850D02*X2050D01*
X1590Y11540D02*X2050D01*
X1590Y11220D02*X2050D01*
X1590Y10910D02*X2050D01*
X1590Y10590D02*X2050D01*
X1590Y10280D02*X2050D01*
X1590Y9960D02*X2050D01*
G54D26*X8720Y7750D02*Y7610D01*
X7920Y7750D02*Y7610D01*
G54D25*X7960Y6980D02*Y6820D01*
X8350Y6980D02*Y6820D01*
X8740Y6980D02*Y6820D01*
Y6160D02*Y6000D01*
X7960Y6160D02*Y6000D01*
G54D26*X5090Y21820D02*X5230D01*
X5090Y22620D02*X5230D01*
G54D29*X9716Y11725D02*X9773D01*
X11506D02*X11563D01*
X9716Y13733D02*X9773D01*
X11506D02*X11563D01*
G54D31*X5900Y21240D02*X6120D01*
G54D32*X5900Y20980D02*X6120D01*
X5900Y20730D02*X6120D01*
X5900Y20470D02*X6120D01*
X7570Y20460D02*X7790D01*
X7570Y20720D02*X7790D01*
X7570Y20970D02*X7790D01*
X7570Y21230D02*X7790D01*
G54D24*X6890Y18910D02*Y18810D01*
X6290Y18910D02*Y18810D01*
X9800Y8750D02*Y8650D01*
X9200Y8750D02*Y8650D01*
X6700Y17300D02*X6800D01*
X6700Y17900D02*X6800D01*
G54D31*X9500Y16860D02*X9720D01*
G54D32*X9500Y17120D02*X9720D01*
X9500Y17370D02*X9720D01*
X9500Y17630D02*X9720D01*
X9500Y17890D02*X9720D01*
X9500Y18140D02*X9720D01*
X9500Y18400D02*X9720D01*
X9500Y18650D02*X9720D01*
X7380Y18660D02*X7600D01*
X7380Y18400D02*X7600D01*
X7380Y18150D02*X7600D01*
X7380Y17890D02*X7600D01*
X7380Y17630D02*X7600D01*
X7380Y17380D02*X7600D01*
X7380Y17120D02*X7600D01*
X7380Y16870D02*X7600D01*
G54D24*X4490Y4760D02*X4590D01*
X4490Y5360D02*X4590D01*
X8400Y19720D02*Y19620D01*
X7800Y19720D02*Y19620D01*
X7370Y28000D02*Y27900D01*
X6770Y28000D02*Y27900D01*
X4420Y2710D02*X4520D01*
X4420Y3310D02*X4520D01*
G54D30*X10786Y17435D02*X10951D01*
X10786Y17238D02*X10951D01*
X10786Y17041D02*X10951D01*
X10786Y16844D02*X10951D01*
X11124Y16671D02*Y16506D01*
X11321Y16671D02*Y16506D01*
X11518Y16671D02*Y16506D01*
X11715Y16671D02*Y16506D01*
X11888Y16844D02*X12053D01*
X11888Y17041D02*X12053D01*
X11888Y17238D02*X12053D01*
X11888Y17435D02*X12053D01*
X11715Y17773D02*Y17608D01*
X11518Y17773D02*Y17608D01*
X11321Y17773D02*Y17608D01*
X11124Y17773D02*Y17608D01*
G54D13*G36*
Y17435D02*Y16844D01*
X11715D01*
Y17435D01*
X11124D01*
G37*
G54D24*X9800Y9550D02*Y9450D01*
X9200Y9550D02*Y9450D01*
M02*
