G04 start of page 8 for group -4015 idx -4015
G04 Title: (unknown), toppaste *
G04 Creator: pcb 20070912 *
G04 CreationDate: Mon May 19 07:55:49 2008 UTC *
G04 For: sean *
G04 Format: Gerber/RS-274X *
G04 PCB-Dimensions: 132000 290000 *
G04 PCB-Coordinate-Origin: lower left *
%MOIN*%
%FSLAX24Y24*%
%LNFRONTPASTE*%
%ADD12C,0.0200*%
%ADD23R,0.0110X0.0110*%
%ADD24R,0.0118X0.0118*%
%ADD25C,0.0160*%
%ADD26R,0.0160X0.0160*%
%ADD27R,0.0300X0.0300*%
%ADD28R,0.0945X0.0945*%
%ADD29R,0.0450X0.0450*%
%ADD30R,0.0150X0.0150*%
%ADD31R,0.0216X0.0216*%
%ADD32R,0.0240X0.0240*%
%ADD33C,0.0150*%
G54D27*X10740Y4710D02*Y4610D01*
X11340Y4710D02*Y4610D01*
G54D29*X9890Y25400D02*X10030D01*
X9890Y24600D02*X10030D01*
X9670Y6870D02*X9810D01*
X9670Y6070D02*X9810D01*
G54D31*X8085Y19129D02*X9050D01*
X8085Y18814D02*X8538D01*
X8085Y18499D02*X8538D01*
X8085Y18185D02*X8538D01*
X8085Y17870D02*X8538D01*
X8085Y17555D02*X8538D01*
X8085Y17240D02*X8538D01*
X8085Y16925D02*X8538D01*
X8085Y16610D02*X9050D01*
X10349D02*X11313D01*
X10861Y16925D02*X11313D01*
X10861Y17240D02*X11313D01*
X10861Y17555D02*X11313D01*
X10861Y17870D02*X11313D01*
X10860Y18185D02*X11313D01*
X10861Y18499D02*X11313D01*
X10861Y18814D02*X11313D01*
X10349Y19129D02*X11313D01*
G54D29*X9070Y7750D02*Y7610D01*
X8270Y7750D02*Y7610D01*
G54D32*X8310Y6980D02*Y6820D01*
X8700Y6980D02*Y6820D01*
X9090Y6980D02*Y6820D01*
Y6160D02*Y6000D01*
X8310Y6160D02*Y6000D01*
G54D27*X7410Y17410D02*X7510D01*
X7410Y18010D02*X7510D01*
X11750Y17830D02*X11850D01*
X11750Y18430D02*X11850D01*
G54D25*X9070Y24530D02*X9290D01*
G54D26*X9070Y24790D02*X9290D01*
X9070Y25040D02*X9290D01*
X9070Y25300D02*X9290D01*
X7400Y25310D02*X7620D01*
X7400Y25050D02*X7620D01*
X7400Y24800D02*X7620D01*
X7400Y24540D02*X7620D01*
G54D27*X7530Y23870D02*Y23770D01*
X8130Y23870D02*Y23770D01*
X7850Y20930D02*Y20830D01*
X8450Y20930D02*Y20830D01*
G54D24*X3054Y19438D02*Y19163D01*
X3250Y19438D02*Y19163D01*
X3447Y19438D02*Y19163D01*
X3644Y19438D02*Y19163D01*
X3841Y19438D02*Y19163D01*
Y21013D02*Y20738D01*
X3644Y21013D02*Y20738D01*
X3447Y21013D02*Y20738D01*
X3250Y21013D02*Y20738D01*
X3054Y21013D02*Y20738D01*
G54D25*X9070Y25770D02*X9290D01*
G54D26*X9070Y26030D02*X9290D01*
X9070Y26280D02*X9290D01*
X9070Y26540D02*X9290D01*
X7400Y26550D02*X7620D01*
X7400Y26290D02*X7620D01*
X7400Y26040D02*X7620D01*
X7400Y25780D02*X7620D01*
G54D28*X10326Y11955D02*X10483D01*
X12216D02*X12373D01*
X10326Y13963D02*X10483D01*
X12216D02*X12373D01*
G54D27*X9920Y23740D02*Y23640D01*
X10520Y23740D02*Y23640D01*
G54D33*X3260Y9260D02*Y8800D01*
G54D30*X3570Y9260D02*Y8800D01*
X3880Y9260D02*Y8800D01*
X4200Y9260D02*Y8800D01*
X4510Y9260D02*Y8800D01*
X4830Y9260D02*Y8800D01*
X5140Y9260D02*Y8800D01*
X5460Y9260D02*Y8800D01*
X5770Y9260D02*Y8800D01*
X6090Y9260D02*Y8800D01*
X6400Y9260D02*Y8800D01*
X6720Y9260D02*Y8800D01*
X7030Y9260D02*Y8800D01*
X7350Y9260D02*Y8800D01*
X7660Y9260D02*Y8800D01*
X7980Y9260D02*Y8800D01*
X8650Y9920D02*X9110D01*
X8650Y10230D02*X9110D01*
X8650Y10540D02*X9110D01*
X8650Y10860D02*X9110D01*
X8650Y11170D02*X9110D01*
X8650Y11490D02*X9110D01*
X8650Y11800D02*X9110D01*
X8650Y12120D02*X9110D01*
X8650Y12430D02*X9110D01*
X8650Y12750D02*X9110D01*
X8650Y13060D02*X9110D01*
X8650Y13380D02*X9110D01*
X8650Y13690D02*X9110D01*
X8650Y14010D02*X9110D01*
X8650Y14320D02*X9110D01*
X8650Y14640D02*X9110D01*
X7990Y15770D02*Y15310D01*
X7680Y15770D02*Y15310D01*
X7370Y15770D02*Y15310D01*
X7050Y15770D02*Y15310D01*
X6740Y15770D02*Y15310D01*
X6420Y15770D02*Y15310D01*
X6110Y15770D02*Y15310D01*
X5790Y15770D02*Y15310D01*
X5480Y15770D02*Y15310D01*
X5160Y15770D02*Y15310D01*
X4850Y15770D02*Y15310D01*
X4530Y15770D02*Y15310D01*
X4220Y15770D02*Y15310D01*
X3900Y15770D02*Y15310D01*
X3590Y15770D02*Y15310D01*
X3270Y15770D02*Y15310D01*
X2140Y14650D02*X2600D01*
X2140Y14340D02*X2600D01*
X2140Y14030D02*X2600D01*
X2140Y13710D02*X2600D01*
X2140Y13400D02*X2600D01*
X2140Y13080D02*X2600D01*
X2140Y12770D02*X2600D01*
X2140Y12450D02*X2600D01*
X2140Y12140D02*X2600D01*
X2140Y11820D02*X2600D01*
X2140Y11510D02*X2600D01*
X2140Y11190D02*X2600D01*
X2140Y10880D02*X2600D01*
X2140Y10560D02*X2600D01*
X2140Y10250D02*X2600D01*
X2140Y9930D02*X2600D01*
G54D25*X4990Y22930D02*X5210D01*
G54D26*X4990Y22670D02*X5210D01*
X4990Y22420D02*X5210D01*
X4990Y22160D02*X5210D01*
X4990Y21900D02*X5210D01*
X4990Y21650D02*X5210D01*
X4990Y21390D02*X5210D01*
X4990Y21140D02*X5210D01*
X7110Y21130D02*X7330D01*
X7110Y21390D02*X7330D01*
X7110Y21640D02*X7330D01*
X7110Y21900D02*X7330D01*
X7110Y22160D02*X7330D01*
X7110Y22410D02*X7330D01*
X7110Y22670D02*X7330D01*
X7110Y22920D02*X7330D01*
G54D27*X10740Y3950D02*Y3850D01*
X11340Y3950D02*Y3850D01*
X7860Y20170D02*Y20070D01*
X8460Y20170D02*Y20070D01*
X10460Y15850D02*Y15750D01*
X9860Y15850D02*Y15750D01*
X7810Y22410D02*X7910D01*
X7810Y21810D02*X7910D01*
G54D23*X3254Y22391D02*Y22226D01*
X3451Y22391D02*Y22226D01*
X3648Y22391D02*Y22226D01*
X3845Y22391D02*Y22226D01*
X4018Y22564D02*X4183D01*
X4018Y22761D02*X4183D01*
X4018Y22958D02*X4183D01*
X4018Y23155D02*X4183D01*
X3845Y23493D02*Y23328D01*
X3648Y23493D02*Y23328D01*
X3451Y23493D02*Y23328D01*
X3254Y23493D02*Y23328D01*
X2916Y23155D02*X3081D01*
X2916Y22958D02*X3081D01*
X2916Y22761D02*X3081D01*
X2916Y22564D02*X3081D01*
G54D12*G36*
X3254Y23155D02*Y22564D01*
X3845D01*
Y23155D01*
X3254D01*
G37*
G54D27*X10490Y10050D02*Y9950D01*
X9890Y10050D02*Y9950D01*
M02*
