G04 start of page 9 for group -3984 idx -3984
G04 Title: (unknown), fab *
G04 Creator: pcb 20070912 *
G04 CreationDate: Mon May 19 07:55:49 2008 UTC *
G04 For: sean *
G04 Format: Gerber/RS-274X *
G04 PCB-Dimensions: 132000 290000 *
G04 PCB-Coordinate-Origin: lower left *
%MOIN*%
%FSLAX24Y24*%
%LNFAB*%
%ADD11C,0.0100*%
%ADD47C,0.0060*%
%ADD49R,0.0080X0.0080*%
G54D49*X11240Y26840D02*Y26520D01*
G54D12*G36*
X11185Y26854D02*X11531Y27054D01*
X11571Y26985D01*
X11225Y26785D01*
X11185Y26854D01*
G37*
G54D49*G54D12*G36*
X11254Y26785D02*X10908Y26985D01*
X10948Y27054D01*
X11294Y26854D01*
X11254Y26785D01*
G37*
G54D49*X11080Y26840D02*G75*G03X11400Y26840I160J0D01*G01*
G75*G03X11080Y26840I-160J0D01*G01*
X3540Y4340D02*Y4020D01*
G54D12*G36*
X3485Y4354D02*X3831Y4554D01*
X3871Y4485D01*
X3525Y4285D01*
X3485Y4354D01*
G37*
G54D49*G54D12*G36*
X3554Y4285D02*X3208Y4485D01*
X3248Y4554D01*
X3594Y4354D01*
X3554Y4285D01*
G37*
G54D49*X3380Y4340D02*G75*G03X3700Y4340I160J0D01*G01*
G75*G03X3380Y4340I-160J0D01*G01*
X1500Y30125D02*Y29805D01*
G54D12*G36*
X1445Y30139D02*X1791Y30339D01*
X1831Y30270D01*
X1485Y30070D01*
X1445Y30139D01*
G37*
G54D49*G54D12*G36*
X1514Y30070D02*X1168Y30270D01*
X1208Y30339D01*
X1554Y30139D01*
X1514Y30070D01*
G37*
G54D49*X1340Y30125D02*G75*G03X1660Y30125I160J0D01*G01*
G75*G03X1340Y30125I-160J0D01*G01*
G54D47*X13500Y30350D02*Y30275D01*
X13650Y30125D01*
X13800Y30275D01*
Y30350D02*Y30275D01*
X13650Y30125D02*Y29750D01*
X13980Y30050D02*X14205D01*
X13980Y29750D02*X14280D01*
X13980Y30350D02*Y29750D01*
Y30350D02*X14280D01*
X14760D02*X14835Y30275D01*
X14535Y30350D02*X14760D01*
X14460Y30275D02*X14535Y30350D01*
X14460Y30275D02*Y30125D01*
X14535Y30050D01*
X14760D01*
X14835Y29975D01*
Y29825D01*
X14760Y29750D02*X14835Y29825D01*
X14535Y29750D02*X14760D01*
X14460Y29825D02*X14535Y29750D01*
X13500Y29424D02*X15015D01*
X9800Y30275D02*X9875Y30350D01*
X10100D01*
X10175Y30275D01*
Y30125D01*
X9800Y29750D02*X10175Y30125D01*
X9800Y29750D02*X10175D01*
X9800Y29424D02*X10355D01*
X4500Y29825D02*X4575Y29750D01*
X4500Y30275D02*Y29825D01*
Y30275D02*X4575Y30350D01*
X4725D01*
X4800Y30275D01*
Y29825D01*
X4725Y29750D02*X4800Y29825D01*
X4575Y29750D02*X4725D01*
X4500Y29900D02*X4800Y30200D01*
X4980Y29750D02*X5055D01*
X5310D02*X5460D01*
X5385Y30350D02*Y29750D01*
X5235Y30200D02*X5385Y30350D01*
X5640Y30275D02*X5715Y30350D01*
X5940D01*
X6015Y30275D01*
Y30125D01*
X5640Y29750D02*X6015Y30125D01*
X5640Y29750D02*X6015D01*
X6195Y29825D02*X6270Y29750D01*
X6195Y30275D02*Y29825D01*
Y30275D02*X6270Y30350D01*
X6420D01*
X6495Y30275D01*
Y29825D01*
X6420Y29750D02*X6495Y29825D01*
X6270Y29750D02*X6420D01*
X6195Y29900D02*X6495Y30200D01*
X4500Y29424D02*X6675D01*
X10100Y1650D02*X10420D01*
X10100D02*Y1330D01*
X10420D01*
Y1650D02*Y1330D01*
X5300Y1650D02*X5620D01*
X5300D02*Y1330D01*
X5620D01*
Y1650D02*Y1330D01*
X1340Y31785D02*X1660D01*
X1340D02*Y31465D01*
X1660D01*
Y31785D02*Y31465D01*
X13500Y31850D02*Y31775D01*
X13650Y31625D01*
X13800Y31775D01*
Y31850D02*Y31775D01*
X13650Y31625D02*Y31250D01*
X13980Y31550D02*X14205D01*
X13980Y31250D02*X14280D01*
X13980Y31850D02*Y31250D01*
Y31850D02*X14280D01*
X14760D02*X14835Y31775D01*
X14535Y31850D02*X14760D01*
X14460Y31775D02*X14535Y31850D01*
X14460Y31775D02*Y31625D01*
X14535Y31550D01*
X14760D01*
X14835Y31475D01*
Y31325D01*
X14760Y31250D02*X14835Y31325D01*
X14535Y31250D02*X14760D01*
X14460Y31325D02*X14535Y31250D01*
X13500Y30924D02*X15015D01*
X9800Y31775D02*X9875Y31850D01*
X10100D01*
X10175Y31775D01*
Y31625D01*
X9800Y31250D02*X10175Y31625D01*
X9800Y31250D02*X10175D01*
X9800Y30924D02*X10355D01*
X4500Y31325D02*X4575Y31250D01*
X4500Y31775D02*Y31325D01*
Y31775D02*X4575Y31850D01*
X4725D01*
X4800Y31775D01*
Y31325D01*
X4725Y31250D02*X4800Y31325D01*
X4575Y31250D02*X4725D01*
X4500Y31400D02*X4800Y31700D01*
X4980Y31250D02*X5055D01*
X5235Y31325D02*X5310Y31250D01*
X5235Y31775D02*Y31325D01*
Y31775D02*X5310Y31850D01*
X5460D01*
X5535Y31775D01*
Y31325D01*
X5460Y31250D02*X5535Y31325D01*
X5310Y31250D02*X5460D01*
X5235Y31400D02*X5535Y31700D01*
X5715Y31250D02*X6015Y31550D01*
Y31775D02*Y31550D01*
X5940Y31850D02*X6015Y31775D01*
X5790Y31850D02*X5940D01*
X5715Y31775D02*X5790Y31850D01*
X5715Y31775D02*Y31625D01*
X5790Y31550D01*
X6015D01*
X6195Y31325D02*X6270Y31250D01*
X6195Y31775D02*Y31325D01*
Y31775D02*X6270Y31850D01*
X6420D01*
X6495Y31775D01*
Y31325D01*
X6420Y31250D02*X6495Y31325D01*
X6270Y31250D02*X6420D01*
X6195Y31400D02*X6495Y31700D01*
X4500Y30924D02*X6675D01*
X2260Y7110D02*G75*G03X2420Y7110I80J0D01*G01*
G75*G03X2260Y7110I-80J0D01*G01*
Y6110D02*G75*G03X2420Y6110I80J0D01*G01*
G75*G03X2260Y6110I-80J0D01*G01*
X5830Y7550D02*G75*G03X5990Y7550I80J0D01*G01*
G75*G03X5830Y7550I-80J0D01*G01*
Y6550D02*G75*G03X5990Y6550I80J0D01*G01*
G75*G03X5830Y6550I-80J0D01*G01*
Y5550D02*G75*G03X5990Y5550I80J0D01*G01*
G75*G03X5830Y5550I-80J0D01*G01*
X12330Y24080D02*G75*G03X12490Y24080I80J0D01*G01*
G75*G03X12330Y24080I-80J0D01*G01*
Y23080D02*G75*G03X12490Y23080I80J0D01*G01*
G75*G03X12330Y23080I-80J0D01*G01*
Y22080D02*G75*G03X12490Y22080I80J0D01*G01*
G75*G03X12330Y22080I-80J0D01*G01*
Y21080D02*G75*G03X12490Y21080I80J0D01*G01*
G75*G03X12330Y21080I-80J0D01*G01*
Y20080D02*G75*G03X12490Y20080I80J0D01*G01*
G75*G03X12330Y20080I-80J0D01*G01*
X11940Y8620D02*G75*G03X12100Y8620I80J0D01*G01*
G75*G03X11940Y8620I-80J0D01*G01*
Y7620D02*G75*G03X12100Y7620I80J0D01*G01*
G75*G03X11940Y7620I-80J0D01*G01*
Y6620D02*G75*G03X12100Y6620I80J0D01*G01*
G75*G03X11940Y6620I-80J0D01*G01*
Y5620D02*G75*G03X12100Y5620I80J0D01*G01*
G75*G03X11940Y5620I-80J0D01*G01*
X6730Y28140D02*G75*G03X6890Y28140I80J0D01*G01*
G75*G03X6730Y28140I-80J0D01*G01*
X7730D02*G75*G03X7890Y28140I80J0D01*G01*
G75*G03X7730Y28140I-80J0D01*G01*
X1420Y33125D02*G75*G03X1580Y33125I80J0D01*G01*
G75*G03X1420Y33125I-80J0D01*G01*
X13500Y33350D02*Y33275D01*
X13650Y33125D01*
X13800Y33275D01*
Y33350D02*Y33275D01*
X13650Y33125D02*Y32750D01*
X13980Y33050D02*X14205D01*
X13980Y32750D02*X14280D01*
X13980Y33350D02*Y32750D01*
Y33350D02*X14280D01*
X14760D02*X14835Y33275D01*
X14535Y33350D02*X14760D01*
X14460Y33275D02*X14535Y33350D01*
X14460Y33275D02*Y33125D01*
X14535Y33050D01*
X14760D01*
X14835Y32975D01*
Y32825D01*
X14760Y32750D02*X14835Y32825D01*
X14535Y32750D02*X14760D01*
X14460Y32825D02*X14535Y32750D01*
X13500Y32424D02*X15015D01*
X9875Y32750D02*X10025D01*
X9950Y33350D02*Y32750D01*
X9800Y33200D02*X9950Y33350D01*
X10430D02*X10505Y33275D01*
X10280Y33350D02*X10430D01*
X10205Y33275D02*X10280Y33350D01*
X10205Y33275D02*Y32825D01*
X10280Y32750D01*
X10430Y33050D02*X10505Y32975D01*
X10205Y33050D02*X10430D01*
X10280Y32750D02*X10430D01*
X10505Y32825D01*
Y32975D02*Y32825D01*
X9800Y32424D02*X10685D01*
X4500Y32825D02*X4575Y32750D01*
X4500Y33275D02*Y32825D01*
Y33275D02*X4575Y33350D01*
X4725D01*
X4800Y33275D01*
Y32825D01*
X4725Y32750D02*X4800Y32825D01*
X4575Y32750D02*X4725D01*
X4500Y32900D02*X4800Y33200D01*
X4980Y32750D02*X5055D01*
X5235Y32825D02*X5310Y32750D01*
X5235Y33275D02*Y32825D01*
Y33275D02*X5310Y33350D01*
X5460D01*
X5535Y33275D01*
Y32825D01*
X5460Y32750D02*X5535Y32825D01*
X5310Y32750D02*X5460D01*
X5235Y32900D02*X5535Y33200D01*
X5715Y33275D02*X5790Y33350D01*
X5940D01*
X6015Y33275D01*
Y32825D01*
X5940Y32750D02*X6015Y32825D01*
X5790Y32750D02*X5940D01*
X5715Y32825D02*X5790Y32750D01*
Y33050D02*X6015D01*
X6195Y32825D02*X6270Y32750D01*
X6195Y32975D02*Y32825D01*
Y32975D02*X6270Y33050D01*
X6420D01*
X6495Y32975D01*
Y32825D01*
X6420Y32750D02*X6495Y32825D01*
X6270Y32750D02*X6420D01*
X6195Y33125D02*X6270Y33050D01*
X6195Y33275D02*Y33125D01*
Y33275D02*X6270Y33350D01*
X6420D01*
X6495Y33275D01*
Y33125D01*
X6420Y33050D02*X6495Y33125D01*
X4500Y32424D02*X6675D01*
X8240Y3510D02*X8480Y3270D01*
X8240D02*X8480Y3510D01*
X7240D02*X7480Y3270D01*
X7240D02*X7480Y3510D01*
X7240Y2710D02*X7480Y2470D01*
X7240D02*X7480Y2710D01*
X8240D02*X8480Y2470D01*
X8240D02*X8480Y2710D01*
X1380Y34745D02*X1620Y34505D01*
X1380D02*X1620Y34745D01*
X13500Y34850D02*Y34775D01*
X13650Y34625D01*
X13800Y34775D01*
Y34850D02*Y34775D01*
X13650Y34625D02*Y34250D01*
X13980Y34550D02*X14205D01*
X13980Y34250D02*X14280D01*
X13980Y34850D02*Y34250D01*
Y34850D02*X14280D01*
X14760D02*X14835Y34775D01*
X14535Y34850D02*X14760D01*
X14460Y34775D02*X14535Y34850D01*
X14460Y34775D02*Y34625D01*
X14535Y34550D01*
X14760D01*
X14835Y34475D01*
Y34325D01*
X14760Y34250D02*X14835Y34325D01*
X14535Y34250D02*X14760D01*
X14460Y34325D02*X14535Y34250D01*
X13500Y33924D02*X15015D01*
X9800Y34550D02*X10100Y34850D01*
X9800Y34550D02*X10175D01*
X10100Y34850D02*Y34250D01*
X9800Y33924D02*X10355D01*
X4500Y34325D02*X4575Y34250D01*
X4500Y34775D02*Y34325D01*
Y34775D02*X4575Y34850D01*
X4725D01*
X4800Y34775D01*
Y34325D01*
X4725Y34250D02*X4800Y34325D01*
X4575Y34250D02*X4725D01*
X4500Y34400D02*X4800Y34700D01*
X4980Y34250D02*X5055D01*
X5235Y34325D02*X5310Y34250D01*
X5235Y34775D02*Y34325D01*
Y34775D02*X5310Y34850D01*
X5460D01*
X5535Y34775D01*
Y34325D01*
X5460Y34250D02*X5535Y34325D01*
X5310Y34250D02*X5460D01*
X5235Y34400D02*X5535Y34700D01*
X5715Y34775D02*X5790Y34850D01*
X6015D01*
X6090Y34775D01*
Y34625D01*
X5715Y34250D02*X6090Y34625D01*
X5715Y34250D02*X6090D01*
X6270Y34325D02*X6345Y34250D01*
X6270Y34475D02*Y34325D01*
Y34475D02*X6345Y34550D01*
X6495D01*
X6570Y34475D01*
Y34325D01*
X6495Y34250D02*X6570Y34325D01*
X6345Y34250D02*X6495D01*
X6270Y34625D02*X6345Y34550D01*
X6270Y34775D02*Y34625D01*
Y34775D02*X6345Y34850D01*
X6495D01*
X6570Y34775D01*
Y34625D01*
X6495Y34550D02*X6570Y34625D01*
X4500Y33924D02*X6750D01*
X3060Y26185D02*Y25865D01*
X2900Y26025D02*X3220D01*
X5619Y26185D02*Y25865D01*
X5459Y26025D02*X5779D01*
X5619Y24414D02*Y24094D01*
X5459Y24254D02*X5779D01*
X3060Y24414D02*Y24094D01*
X2900Y24254D02*X3220D01*
X1920Y24110D02*Y23790D01*
X1760Y23950D02*X2080D01*
X1920Y23610D02*Y23290D01*
X1760Y23450D02*X2080D01*
X1920Y23110D02*Y22790D01*
X1760Y22950D02*X2080D01*
X1920Y22610D02*Y22290D01*
X1760Y22450D02*X2080D01*
X1920Y22110D02*Y21790D01*
X1760Y21950D02*X2080D01*
X1920Y21610D02*Y21290D01*
X1760Y21450D02*X2080D01*
X1920Y21110D02*Y20790D01*
X1760Y20950D02*X2080D01*
X1920Y20610D02*Y20290D01*
X1760Y20450D02*X2080D01*
X3060Y18585D02*Y18265D01*
X2900Y18425D02*X3220D01*
X5619Y18585D02*Y18265D01*
X5459Y18425D02*X5779D01*
X5619Y16814D02*Y16494D01*
X5459Y16654D02*X5779D01*
X3060Y16814D02*Y16494D01*
X2900Y16654D02*X3220D01*
X9160Y22585D02*Y22265D01*
X9000Y22425D02*X9320D01*
X11719Y22585D02*Y22265D01*
X11559Y22425D02*X11879D01*
X11719Y20814D02*Y20494D01*
X11559Y20654D02*X11879D01*
X9160Y20814D02*Y20494D01*
X9000Y20654D02*X9320D01*
X1500Y36285D02*Y35965D01*
X1340Y36125D02*X1660D01*
X13500Y36350D02*Y36275D01*
X13650Y36125D01*
X13800Y36275D01*
Y36350D02*Y36275D01*
X13650Y36125D02*Y35750D01*
X13980Y36050D02*X14205D01*
X13980Y35750D02*X14280D01*
X13980Y36350D02*Y35750D01*
Y36350D02*X14280D01*
X14760D02*X14835Y36275D01*
X14535Y36350D02*X14760D01*
X14460Y36275D02*X14535Y36350D01*
X14460Y36275D02*Y36125D01*
X14535Y36050D01*
X14760D01*
X14835Y35975D01*
Y35825D01*
X14760Y35750D02*X14835Y35825D01*
X14535Y35750D02*X14760D01*
X14460Y35825D02*X14535Y35750D01*
X13500Y35424D02*X15015D01*
X9800Y36275D02*X9875Y36350D01*
X10100D01*
X10175Y36275D01*
Y36125D01*
X9800Y35750D02*X10175Y36125D01*
X9800Y35750D02*X10175D01*
X10355Y35825D02*X10430Y35750D01*
X10355Y36275D02*Y35825D01*
Y36275D02*X10430Y36350D01*
X10580D01*
X10655Y36275D01*
Y35825D01*
X10580Y35750D02*X10655Y35825D01*
X10430Y35750D02*X10580D01*
X10355Y35900D02*X10655Y36200D01*
X9800Y35424D02*X10835D01*
X4500Y35825D02*X4575Y35750D01*
X4500Y36275D02*Y35825D01*
Y36275D02*X4575Y36350D01*
X4725D01*
X4800Y36275D01*
Y35825D01*
X4725Y35750D02*X4800Y35825D01*
X4575Y35750D02*X4725D01*
X4500Y35900D02*X4800Y36200D01*
X4980Y35750D02*X5055D01*
X5235Y35825D02*X5310Y35750D01*
X5235Y36275D02*Y35825D01*
Y36275D02*X5310Y36350D01*
X5460D01*
X5535Y36275D01*
Y35825D01*
X5460Y35750D02*X5535Y35825D01*
X5310Y35750D02*X5460D01*
X5235Y35900D02*X5535Y36200D01*
X5715Y36275D02*X5790Y36350D01*
X6015D01*
X6090Y36275D01*
Y36125D01*
X5715Y35750D02*X6090Y36125D01*
X5715Y35750D02*X6090D01*
X6270Y35825D02*X6345Y35750D01*
X6270Y36275D02*Y35825D01*
Y36275D02*X6345Y36350D01*
X6495D01*
X6570Y36275D01*
Y35825D01*
X6495Y35750D02*X6570Y35825D01*
X6345Y35750D02*X6495D01*
X6270Y35900D02*X6570Y36200D01*
X4500Y35424D02*X6750D01*
X11790Y3920D02*Y3760D01*
Y3920D02*X11928Y4000D01*
X11790Y3920D02*X11651Y4000D01*
X11800Y4690D02*Y4530D01*
Y4690D02*X11938Y4770D01*
X11800Y4690D02*X11661Y4770D01*
X4200Y8500D02*Y8340D01*
Y8500D02*X4338Y8580D01*
X4200Y8500D02*X4061Y8580D01*
X4510Y7920D02*Y7760D01*
Y7920D02*X4648Y8000D01*
X4510Y7920D02*X4371Y8000D01*
X6211Y9800D02*Y9640D01*
Y9800D02*X6349Y9880D01*
X6211Y9800D02*X6072Y9880D01*
X9179Y17555D02*Y17395D01*
Y17555D02*X9318Y17635D01*
X9179Y17555D02*X9041Y17635D01*
X10220Y17865D02*Y17705D01*
Y17865D02*X10358Y17945D01*
X10220Y17865D02*X10081Y17945D01*
X9920Y23165D02*Y23005D01*
Y23165D02*X10058Y23245D01*
X9920Y23165D02*X9781Y23245D01*
X4780Y24564D02*Y24404D01*
Y24564D02*X4918Y24644D01*
X4780Y24564D02*X4641Y24644D01*
X5505Y8282D02*Y8122D01*
Y8282D02*X5643Y8362D01*
X5505Y8282D02*X5366Y8362D01*
X2787Y22319D02*Y22159D01*
Y22319D02*X2925Y22399D01*
X2787Y22319D02*X2648Y22399D01*
X4429Y22865D02*Y22705D01*
Y22865D02*X4567Y22945D01*
X4429Y22865D02*X4290Y22945D01*
X3359Y21980D02*Y21820D01*
Y21980D02*X3497Y22060D01*
X3359Y21980D02*X3220Y22060D01*
X3000Y23400D02*Y23240D01*
Y23400D02*X3138Y23480D01*
X3000Y23400D02*X2861Y23480D01*
X4090Y21109D02*Y20949D01*
Y21109D02*X4229Y21189D01*
X4090Y21109D02*X3952Y21189D01*
X3451Y24804D02*Y24644D01*
Y24804D02*X3590Y24884D01*
X3451Y24804D02*X3313Y24884D01*
X4330Y20769D02*Y20609D01*
Y20769D02*X4469Y20849D01*
X4330Y20769D02*X4192Y20849D01*
X5044Y23200D02*Y23040D01*
Y23200D02*X5183Y23280D01*
X5044Y23200D02*X4906Y23280D01*
X4343Y23880D02*Y23720D01*
Y23880D02*X4482Y23960D01*
X4343Y23880D02*X4205Y23960D01*
X4779Y20639D02*Y20479D01*
Y20639D02*X4918Y20719D01*
X4779Y20639D02*X4641Y20719D01*
X6020Y19201D02*Y19041D01*
Y19201D02*X6158Y19281D01*
X6020Y19201D02*X5881Y19281D01*
X7332Y19201D02*Y19041D01*
Y19201D02*X7471Y19281D01*
X7332Y19201D02*X7194Y19281D01*
X7282Y19736D02*Y19576D01*
Y19736D02*X7421Y19816D01*
X7282Y19736D02*X7143Y19816D01*
X2804Y19337D02*Y19177D01*
Y19337D02*X2943Y19417D01*
X2804Y19337D02*X2666Y19417D01*
X2247Y19337D02*Y19177D01*
Y19337D02*X2386Y19417D01*
X2247Y19337D02*X2108Y19417D01*
X5242Y20848D02*Y20688D01*
Y20848D02*X5381Y20928D01*
X5242Y20848D02*X5103Y20928D01*
X2699Y23640D02*Y23480D01*
Y23640D02*X2838Y23720D01*
X2699Y23640D02*X2561Y23720D01*
X5480Y21900D02*Y21740D01*
Y21900D02*X5618Y21980D01*
X5480Y21900D02*X5341Y21980D01*
X4170Y22109D02*Y21949D01*
Y22109D02*X4308Y22189D01*
X4170Y22109D02*X4031Y22189D01*
X5772Y20368D02*Y20208D01*
Y20368D02*X5911Y20448D01*
X5772Y20368D02*X5634Y20448D01*
X7250Y6709D02*Y6549D01*
Y6709D02*X7388Y6789D01*
X7250Y6709D02*X7111Y6789D01*
X9046Y18235D02*Y18075D01*
Y18235D02*X9184Y18315D01*
X9046Y18235D02*X8907Y18315D01*
X8385Y13305D02*Y13145D01*
Y13305D02*X8523Y13385D01*
X8385Y13305D02*X8246Y13385D01*
X8385Y12985D02*Y12825D01*
Y12985D02*X8523Y13065D01*
X8385Y12985D02*X8246Y13065D01*
X8334Y12660D02*Y12500D01*
Y12660D02*X8473Y12740D01*
X8334Y12660D02*X8196Y12740D01*
X10326Y12659D02*Y12499D01*
Y12659D02*X10465Y12739D01*
X10326Y12659D02*X10187Y12739D01*
X12216Y14626D02*Y14466D01*
Y14626D02*X12354Y14706D01*
X12216Y14626D02*X12077Y14706D01*
X8113Y11800D02*Y11640D01*
Y11800D02*X8252Y11880D01*
X8113Y11800D02*X7975Y11880D01*
X10140Y14626D02*Y14466D01*
Y14626D02*X10278Y14706D01*
X10140Y14626D02*X10001Y14706D01*
X9550Y8675D02*Y8515D01*
Y8675D02*X9688Y8755D01*
X9550Y8675D02*X9411Y8755D01*
X6501Y23170D02*Y23010D01*
Y23170D02*X6639Y23250D01*
X6501Y23170D02*X6362Y23250D01*
X6501Y11173D02*Y11013D01*
Y11173D02*X6639Y11253D01*
X6501Y11173D02*X6362Y11253D01*
X9902Y22115D02*Y21955D01*
Y22115D02*X10041Y22195D01*
X9902Y22115D02*X9764Y22195D01*
X8810Y23429D02*Y23269D01*
Y23429D02*X8948Y23509D01*
X8810Y23429D02*X8671Y23509D01*
X11440Y23429D02*Y23269D01*
Y23429D02*X11578Y23509D01*
X11440Y23429D02*X11301Y23509D01*
X3570Y8455D02*Y8295D01*
Y8455D02*X3708Y8535D01*
X3570Y8455D02*X3431Y8535D01*
X3428Y10116D02*Y9956D01*
Y10116D02*X3567Y10196D01*
X3428Y10116D02*X3290Y10196D01*
X7332Y14892D02*Y14732D01*
Y14892D02*X7471Y14972D01*
X7332Y14892D02*X7194Y14972D01*
X7282Y16231D02*Y16071D01*
Y16231D02*X7421Y16311D01*
X7282Y16231D02*X7143Y16311D01*
X8779Y16231D02*Y16071D01*
Y16231D02*X8918Y16311D01*
X8779Y16231D02*X8641Y16311D01*
X8843Y18814D02*Y18654D01*
Y18814D02*X8982Y18894D01*
X8843Y18814D02*X8705Y18894D01*
X3188Y8534D02*Y8374D01*
Y8534D02*X3327Y8614D01*
X3188Y8534D02*X3050Y8614D01*
X3188Y10416D02*Y10256D01*
Y10416D02*X3327Y10496D01*
X3188Y10416D02*X3050Y10496D01*
X8372Y12360D02*Y12200D01*
Y12360D02*X8511Y12440D01*
X8372Y12360D02*X8233Y12440D01*
X8372Y6470D02*Y6310D01*
Y6470D02*X8511Y6550D01*
X8372Y6470D02*X8233Y6550D01*
X7042Y11173D02*Y11013D01*
Y11173D02*X7181Y11253D01*
X7042Y11173D02*X6904Y11253D01*
X8310Y22930D02*Y22770D01*
Y22930D02*X8449Y23010D01*
X8310Y22930D02*X8171Y23010D01*
X11553Y11955D02*Y11795D01*
Y11955D02*X11692Y12035D01*
X11553Y11955D02*X11414Y12035D01*
X11553Y8120D02*Y7960D01*
Y8120D02*X11692Y8200D01*
X11553Y8120D02*X11414Y8200D01*
X9050Y23729D02*Y23569D01*
Y23729D02*X9188Y23809D01*
X9050Y23729D02*X8911Y23809D01*
X11740Y23729D02*Y23569D01*
Y23729D02*X11878Y23809D01*
X11740Y23729D02*X11601Y23809D01*
X7980Y10850D02*Y10690D01*
Y10850D02*X8118Y10930D01*
X7980Y10850D02*X7841Y10930D01*
X7384Y11345D02*Y11185D01*
Y11345D02*X7523Y11425D01*
X7384Y11345D02*X7246Y11425D01*
X7347Y9540D02*Y9380D01*
Y9540D02*X7486Y9620D01*
X7347Y9540D02*X7208Y9620D01*
X2450Y16264D02*Y16104D01*
Y16264D02*X2589Y16344D01*
X2450Y16264D02*X2311Y16344D01*
X6260Y22629D02*Y22469D01*
Y22629D02*X6398Y22709D01*
X6260Y22629D02*X6121Y22709D01*
X6260Y15044D02*Y14884D01*
Y15044D02*X6398Y15124D01*
X6260Y15044D02*X6121Y15124D01*
X8020Y23412D02*Y23252D01*
Y23412D02*X8158Y23492D01*
X8020Y23412D02*X7881Y23492D01*
X6802Y14379D02*Y14219D01*
Y14379D02*X6941Y14459D01*
X6802Y14379D02*X6663Y14459D01*
X9056Y14905D02*Y14745D01*
Y14905D02*X9195Y14985D01*
X9056Y14905D02*X8917Y14985D01*
X11055Y2590D02*Y2430D01*
Y2590D02*X11193Y2670D01*
X11055Y2590D02*X10916Y2670D01*
X1935Y9585D02*Y9425D01*
Y9585D02*X2073Y9665D01*
X1935Y9585D02*X1796Y9665D01*
X10468Y15409D02*Y15249D01*
Y15409D02*X10607Y15489D01*
X10468Y15409D02*X10329Y15489D01*
X10366Y18235D02*Y18075D01*
Y18235D02*X10505Y18315D01*
X10366Y18235D02*X10228Y18315D01*
X5064Y16964D02*Y16804D01*
Y16964D02*X5203Y17044D01*
X5064Y16964D02*X4926Y17044D01*
X1500Y37625D02*Y37465D01*
Y37625D02*X1638Y37705D01*
X1500Y37625D02*X1361Y37705D01*
X13500Y37850D02*Y37775D01*
X13650Y37625D01*
X13800Y37775D01*
Y37850D02*Y37775D01*
X13650Y37625D02*Y37250D01*
X13980Y37550D02*X14205D01*
X13980Y37250D02*X14280D01*
X13980Y37850D02*Y37250D01*
Y37850D02*X14280D01*
X14760D02*X14835Y37775D01*
X14535Y37850D02*X14760D01*
X14460Y37775D02*X14535Y37850D01*
X14460Y37775D02*Y37625D01*
X14535Y37550D01*
X14760D01*
X14835Y37475D01*
Y37325D01*
X14760Y37250D02*X14835Y37325D01*
X14535Y37250D02*X14760D01*
X14460Y37325D02*X14535Y37250D01*
X13500Y36924D02*X15015D01*
X9800Y37250D02*X10175Y37625D01*
Y37850D02*Y37625D01*
X9800Y37850D02*X10175D01*
X10355D02*X10655D01*
X10355D02*Y37550D01*
X10430Y37625D01*
X10580D01*
X10655Y37550D01*
Y37325D01*
X10580Y37250D02*X10655Y37325D01*
X10430Y37250D02*X10580D01*
X10355Y37325D02*X10430Y37250D01*
X9800Y36924D02*X10835D01*
X4500Y37325D02*X4575Y37250D01*
X4500Y37775D02*Y37325D01*
Y37775D02*X4575Y37850D01*
X4725D01*
X4800Y37775D01*
Y37325D01*
X4725Y37250D02*X4800Y37325D01*
X4575Y37250D02*X4725D01*
X4500Y37400D02*X4800Y37700D01*
X4980Y37250D02*X5055D01*
X5235Y37325D02*X5310Y37250D01*
X5235Y37775D02*Y37325D01*
Y37775D02*X5310Y37850D01*
X5460D01*
X5535Y37775D01*
Y37325D01*
X5460Y37250D02*X5535Y37325D01*
X5310Y37250D02*X5460D01*
X5235Y37400D02*X5535Y37700D01*
X5790Y37250D02*X5940D01*
X5865Y37850D02*Y37250D01*
X5715Y37700D02*X5865Y37850D01*
X6120Y37325D02*X6195Y37250D01*
X6120Y37475D02*Y37325D01*
Y37475D02*X6195Y37550D01*
X6345D01*
X6420Y37475D01*
Y37325D01*
X6345Y37250D02*X6420Y37325D01*
X6195Y37250D02*X6345D01*
X6120Y37625D02*X6195Y37550D01*
X6120Y37775D02*Y37625D01*
Y37775D02*X6195Y37850D01*
X6345D01*
X6420Y37775D01*
Y37625D01*
X6345Y37550D02*X6420Y37625D01*
X4500Y36924D02*X6600D01*
X300Y39350D02*X375Y39275D01*
X75Y39350D02*X300D01*
X0Y39275D02*X75Y39350D01*
X0Y39275D02*Y39125D01*
X75Y39050D01*
X300D01*
X375Y38975D01*
Y38825D01*
X300Y38750D02*X375Y38825D01*
X75Y38750D02*X300D01*
X0Y38825D02*X75Y38750D01*
X555Y39050D02*Y38825D01*
X630Y38750D01*
X855Y39050D02*Y38600D01*
X780Y38525D02*X855Y38600D01*
X630Y38525D02*X780D01*
X555Y38600D02*X630Y38525D01*
Y38750D02*X780D01*
X855Y38825D01*
X1110Y38975D02*Y38750D01*
Y38975D02*X1185Y39050D01*
X1260D01*
X1335Y38975D01*
Y38750D01*
Y38975D02*X1410Y39050D01*
X1485D01*
X1560Y38975D01*
Y38750D01*
X1035Y39050D02*X1110Y38975D01*
X1740Y39350D02*Y38750D01*
Y38825D02*X1815Y38750D01*
X1965D01*
X2040Y38825D01*
Y38975D02*Y38825D01*
X1965Y39050D02*X2040Y38975D01*
X1815Y39050D02*X1965D01*
X1740Y38975D02*X1815Y39050D01*
X2220Y38975D02*Y38825D01*
Y38975D02*X2295Y39050D01*
X2445D01*
X2520Y38975D01*
Y38825D01*
X2445Y38750D02*X2520Y38825D01*
X2295Y38750D02*X2445D01*
X2220Y38825D02*X2295Y38750D01*
X2700Y39350D02*Y38825D01*
X2775Y38750D01*
X4175Y39350D02*Y38750D01*
X4400Y39350D02*X4475Y39275D01*
Y38825D01*
X4400Y38750D02*X4475Y38825D01*
X4100Y38750D02*X4400D01*
X4100Y39350D02*X4400D01*
X4655Y39200D02*Y39125D01*
Y38975D02*Y38750D01*
X5030Y39050D02*X5105Y38975D01*
X4880Y39050D02*X5030D01*
X4805Y38975D02*X4880Y39050D01*
X4805Y38975D02*Y38825D01*
X4880Y38750D01*
X5105Y39050D02*Y38825D01*
X5180Y38750D01*
X4880D02*X5030D01*
X5105Y38825D01*
X5435Y38975D02*Y38750D01*
Y38975D02*X5510Y39050D01*
X5585D01*
X5660Y38975D01*
Y38750D01*
Y38975D02*X5735Y39050D01*
X5810D01*
X5885Y38975D01*
Y38750D01*
X5360Y39050D02*X5435Y38975D01*
X6065Y38750D02*X6140D01*
X6590Y38825D02*X6665Y38750D01*
X6590Y39275D02*X6665Y39350D01*
X6590Y39275D02*Y38825D01*
X6845Y39350D02*X6995D01*
X6920D02*Y38750D01*
X6845D02*X6995D01*
X7251Y38975D02*Y38750D01*
Y38975D02*X7326Y39050D01*
X7401D01*
X7476Y38975D01*
Y38750D01*
X7176Y39050D02*X7251Y38975D01*
X7731Y39050D02*X7956D01*
X7656Y38975D02*X7731Y39050D01*
X7656Y38975D02*Y38825D01*
X7731Y38750D01*
X7956D01*
X8136Y39350D02*Y38750D01*
Y38975D02*X8211Y39050D01*
X8361D01*
X8436Y38975D01*
Y38750D01*
X8616Y39350D02*X8691Y39275D01*
Y38825D01*
X8616Y38750D02*X8691Y38825D01*
X9575Y38750D02*X9800D01*
X9500Y38825D02*X9575Y38750D01*
X9500Y39275D02*Y38825D01*
Y39275D02*X9575Y39350D01*
X9800D01*
X9980Y38975D02*Y38825D01*
Y38975D02*X10055Y39050D01*
X10205D01*
X10280Y38975D01*
Y38825D01*
X10205Y38750D02*X10280Y38825D01*
X10055Y38750D02*X10205D01*
X9980Y38825D02*X10055Y38750D01*
X10460Y39050D02*Y38825D01*
X10535Y38750D01*
X10685D01*
X10760Y38825D01*
Y39050D02*Y38825D01*
X11015Y38975D02*Y38750D01*
Y38975D02*X11090Y39050D01*
X11165D01*
X11240Y38975D01*
Y38750D01*
X10940Y39050D02*X11015Y38975D01*
X11495Y39350D02*Y38825D01*
X11570Y38750D01*
X11420Y39125D02*X11570D01*
X13075Y39350D02*Y38750D01*
X13000Y39350D02*X13300D01*
X13375Y39275D01*
Y39125D01*
X13300Y39050D02*X13375Y39125D01*
X13075Y39050D02*X13300D01*
X13555Y39350D02*Y38825D01*
X13630Y38750D01*
X14005Y39050D02*X14080Y38975D01*
X13855Y39050D02*X14005D01*
X13780Y38975D02*X13855Y39050D01*
X13780Y38975D02*Y38825D01*
X13855Y38750D01*
X14080Y39050D02*Y38825D01*
X14155Y38750D01*
X13855D02*X14005D01*
X14080Y38825D01*
X14410Y39350D02*Y38825D01*
X14485Y38750D01*
X14335Y39125D02*X14485D01*
X14710Y38750D02*X14935D01*
X14635Y38825D02*X14710Y38750D01*
X14635Y38975D02*Y38825D01*
Y38975D02*X14710Y39050D01*
X14860D01*
X14935Y38975D01*
X14635Y38900D02*X14935D01*
Y38975D02*Y38900D01*
X15415Y39350D02*Y38750D01*
X15340D02*X15415Y38825D01*
X15190Y38750D02*X15340D01*
X15115Y38825D02*X15190Y38750D01*
X15115Y38975D02*Y38825D01*
Y38975D02*X15190Y39050D01*
X15340D01*
X15415Y38975D01*
X15745Y39050D02*Y38975D01*
Y38825D02*Y38750D01*
X15595Y39275D02*Y39200D01*
Y39275D02*X15670Y39350D01*
X15820D01*
X15895Y39275D01*
Y39200D01*
X15745Y39050D02*X15895Y39200D01*
X0Y40850D02*X300D01*
X150D02*Y40250D01*
X480Y40850D02*Y40250D01*
Y40475D02*X555Y40550D01*
X705D01*
X780Y40475D01*
Y40250D01*
X1035D02*X1260D01*
X960Y40325D02*X1035Y40250D01*
X960Y40475D02*Y40325D01*
Y40475D02*X1035Y40550D01*
X1185D01*
X1260Y40475D01*
X960Y40400D02*X1260D01*
Y40475D02*Y40400D01*
X1515Y40475D02*Y40250D01*
Y40475D02*X1590Y40550D01*
X1740D01*
X1440D02*X1515Y40475D01*
X1995Y40250D02*X2220D01*
X1920Y40325D02*X1995Y40250D01*
X1920Y40475D02*Y40325D01*
Y40475D02*X1995Y40550D01*
X2145D01*
X2220Y40475D01*
X1920Y40400D02*X2220D01*
Y40475D02*Y40400D01*
X2895Y40550D02*X2970Y40475D01*
X2745Y40550D02*X2895D01*
X2670Y40475D02*X2745Y40550D01*
X2670Y40475D02*Y40325D01*
X2745Y40250D01*
X2970Y40550D02*Y40325D01*
X3045Y40250D01*
X2745D02*X2895D01*
X2970Y40325D01*
X3300Y40475D02*Y40250D01*
Y40475D02*X3375Y40550D01*
X3525D01*
X3225D02*X3300Y40475D01*
X3781Y40250D02*X4006D01*
X3706Y40325D02*X3781Y40250D01*
X3706Y40475D02*Y40325D01*
Y40475D02*X3781Y40550D01*
X3931D01*
X4006Y40475D01*
X3706Y40400D02*X4006D01*
Y40475D02*Y40400D01*
X4681Y40850D02*X4756Y40775D01*
X4531Y40850D02*X4681D01*
X4456Y40775D02*X4531Y40850D01*
X4456Y40775D02*Y40325D01*
X4531Y40250D01*
X4681Y40550D02*X4756Y40475D01*
X4456Y40550D02*X4681D01*
X4531Y40250D02*X4681D01*
X4756Y40325D01*
Y40475D02*Y40325D01*
X5506Y40850D02*Y40250D01*
X5431D02*X5506Y40325D01*
X5281Y40250D02*X5431D01*
X5206Y40325D02*X5281Y40250D01*
X5206Y40475D02*Y40325D01*
Y40475D02*X5281Y40550D01*
X5431D01*
X5506Y40475D01*
X5686Y40700D02*Y40625D01*
Y40475D02*Y40250D01*
X5911Y40775D02*Y40250D01*
Y40775D02*X5986Y40850D01*
X6061D01*
X5836Y40550D02*X5986D01*
X6286Y40775D02*Y40250D01*
Y40775D02*X6361Y40850D01*
X6436D01*
X6211Y40550D02*X6361D01*
X6661Y40250D02*X6886D01*
X6586Y40325D02*X6661Y40250D01*
X6586Y40475D02*Y40325D01*
Y40475D02*X6661Y40550D01*
X6811D01*
X6886Y40475D01*
X6586Y40400D02*X6886D01*
Y40475D02*Y40400D01*
X7142Y40475D02*Y40250D01*
Y40475D02*X7217Y40550D01*
X7367D01*
X7067D02*X7142Y40475D01*
X7622Y40250D02*X7847D01*
X7547Y40325D02*X7622Y40250D01*
X7547Y40475D02*Y40325D01*
Y40475D02*X7622Y40550D01*
X7772D01*
X7847Y40475D01*
X7547Y40400D02*X7847D01*
Y40475D02*Y40400D01*
X8102Y40475D02*Y40250D01*
Y40475D02*X8177Y40550D01*
X8252D01*
X8327Y40475D01*
Y40250D01*
X8027Y40550D02*X8102Y40475D01*
X8582Y40850D02*Y40325D01*
X8657Y40250D01*
X8507Y40625D02*X8657D01*
X9377Y40850D02*Y40250D01*
X9302D02*X9377Y40325D01*
X9152Y40250D02*X9302D01*
X9077Y40325D02*X9152Y40250D01*
X9077Y40475D02*Y40325D01*
Y40475D02*X9152Y40550D01*
X9302D01*
X9377Y40475D01*
X9632D02*Y40250D01*
Y40475D02*X9707Y40550D01*
X9857D01*
X9557D02*X9632Y40475D01*
X10038Y40700D02*Y40625D01*
Y40475D02*Y40250D01*
X10188Y40850D02*Y40325D01*
X10263Y40250D01*
X10413Y40850D02*Y40325D01*
X10488Y40250D01*
X10983D02*X11208D01*
X11283Y40325D01*
X11208Y40400D02*X11283Y40325D01*
X10983Y40400D02*X11208D01*
X10908Y40475D02*X10983Y40400D01*
X10908Y40475D02*X10983Y40550D01*
X11208D01*
X11283Y40475D01*
X10908Y40325D02*X10983Y40250D01*
X11463Y40700D02*Y40625D01*
Y40475D02*Y40250D01*
X11613Y40550D02*X11913D01*
X11613Y40250D02*X11913Y40550D01*
X11613Y40250D02*X11913D01*
X12168D02*X12393D01*
X12093Y40325D02*X12168Y40250D01*
X12093Y40475D02*Y40325D01*
Y40475D02*X12168Y40550D01*
X12318D01*
X12393Y40475D01*
X12093Y40400D02*X12393D01*
Y40475D02*Y40400D01*
X12649Y40250D02*X12874D01*
X12949Y40325D01*
X12874Y40400D02*X12949Y40325D01*
X12649Y40400D02*X12874D01*
X12574Y40475D02*X12649Y40400D01*
X12574Y40475D02*X12649Y40550D01*
X12874D01*
X12949Y40475D01*
X12574Y40325D02*X12649Y40250D01*
X13399Y40550D02*Y40325D01*
X13474Y40250D01*
X13624D01*
X13699Y40325D01*
Y40550D02*Y40325D01*
X13954Y40250D02*X14179D01*
X14254Y40325D01*
X14179Y40400D02*X14254Y40325D01*
X13954Y40400D02*X14179D01*
X13879Y40475D02*X13954Y40400D01*
X13879Y40475D02*X13954Y40550D01*
X14179D01*
X14254Y40475D01*
X13879Y40325D02*X13954Y40250D01*
X14509D02*X14734D01*
X14434Y40325D02*X14509Y40250D01*
X14434Y40475D02*Y40325D01*
Y40475D02*X14509Y40550D01*
X14659D01*
X14734Y40475D01*
X14434Y40400D02*X14734D01*
Y40475D02*Y40400D01*
X15214Y40850D02*Y40250D01*
X15139D02*X15214Y40325D01*
X14989Y40250D02*X15139D01*
X14914Y40325D02*X14989Y40250D01*
X14914Y40475D02*Y40325D01*
Y40475D02*X14989Y40550D01*
X15139D01*
X15214Y40475D01*
X15664Y40700D02*Y40625D01*
Y40475D02*Y40250D01*
X15889Y40475D02*Y40250D01*
Y40475D02*X15964Y40550D01*
X16039D01*
X16114Y40475D01*
Y40250D01*
X15814Y40550D02*X15889Y40475D01*
X16640Y40850D02*Y40325D01*
X16715Y40250D01*
X16565Y40625D02*X16715D01*
X16865Y40850D02*Y40250D01*
Y40475D02*X16940Y40550D01*
X17090D01*
X17165Y40475D01*
Y40250D01*
X17345Y40700D02*Y40625D01*
Y40475D02*Y40250D01*
X17570D02*X17795D01*
X17870Y40325D01*
X17795Y40400D02*X17870Y40325D01*
X17570Y40400D02*X17795D01*
X17495Y40475D02*X17570Y40400D01*
X17495Y40475D02*X17570Y40550D01*
X17795D01*
X17870Y40475D01*
X17495Y40325D02*X17570Y40250D01*
X18320Y40850D02*Y40325D01*
X18395Y40250D01*
X18770Y40550D02*X18845Y40475D01*
X18620Y40550D02*X18770D01*
X18545Y40475D02*X18620Y40550D01*
X18545Y40475D02*Y40325D01*
X18620Y40250D01*
X18845Y40550D02*Y40325D01*
X18920Y40250D01*
X18620D02*X18770D01*
X18845Y40325D01*
X19101Y40550D02*Y40325D01*
X19176Y40250D01*
X19401Y40550D02*Y40100D01*
X19326Y40025D02*X19401Y40100D01*
X19176Y40025D02*X19326D01*
X19101Y40100D02*X19176Y40025D01*
Y40250D02*X19326D01*
X19401Y40325D01*
X19581Y40475D02*Y40325D01*
Y40475D02*X19656Y40550D01*
X19806D01*
X19881Y40475D01*
Y40325D01*
X19806Y40250D02*X19881Y40325D01*
X19656Y40250D02*X19806D01*
X19581Y40325D02*X19656Y40250D01*
X20061Y40550D02*Y40325D01*
X20136Y40250D01*
X20286D01*
X20361Y40325D01*
Y40550D02*Y40325D01*
X20616Y40850D02*Y40325D01*
X20691Y40250D01*
X20541Y40625D02*X20691D01*
X20841Y40100D02*X20991Y40250D01*
X21516D02*X21666D01*
X21591Y40850D02*Y40250D01*
X21441Y40700D02*X21591Y40850D01*
X21921Y40250D02*X22071D01*
X21996Y40850D02*Y40250D01*
X21846Y40700D02*X21996Y40850D01*
X22252Y40250D02*X22552Y40550D01*
Y40775D02*Y40550D01*
X22477Y40850D02*X22552Y40775D01*
X22327Y40850D02*X22477D01*
X22252Y40775D02*X22327Y40850D01*
X22252Y40775D02*Y40625D01*
X22327Y40550D01*
X22552D01*
X23002Y40850D02*Y40250D01*
Y40475D02*X23077Y40550D01*
X23227D01*
X23302Y40475D01*
Y40250D01*
X23482Y40475D02*Y40325D01*
Y40475D02*X23557Y40550D01*
X23707D01*
X23782Y40475D01*
Y40325D01*
X23707Y40250D02*X23782Y40325D01*
X23557Y40250D02*X23707D01*
X23482Y40325D02*X23557Y40250D01*
X23962Y40850D02*Y40325D01*
X24037Y40250D01*
X24262D02*X24487D01*
X24187Y40325D02*X24262Y40250D01*
X24187Y40475D02*Y40325D01*
Y40475D02*X24262Y40550D01*
X24412D01*
X24487Y40475D01*
X24187Y40400D02*X24487D01*
Y40475D02*Y40400D01*
X24742Y40250D02*X24967D01*
X25042Y40325D01*
X24967Y40400D02*X25042Y40325D01*
X24742Y40400D02*X24967D01*
X24667Y40475D02*X24742Y40400D01*
X24667Y40475D02*X24742Y40550D01*
X24967D01*
X25042Y40475D01*
X24667Y40325D02*X24742Y40250D01*
X25567Y40850D02*Y40325D01*
X25642Y40250D01*
X25492Y40625D02*X25642D01*
X25793Y40475D02*Y40325D01*
Y40475D02*X25868Y40550D01*
X26018D01*
X26093Y40475D01*
Y40325D01*
X26018Y40250D02*X26093Y40325D01*
X25868Y40250D02*X26018D01*
X25793Y40325D02*X25868Y40250D01*
X26348Y40850D02*Y40325D01*
X26423Y40250D01*
X26273Y40625D02*X26423D01*
X26798Y40550D02*X26873Y40475D01*
X26648Y40550D02*X26798D01*
X26573Y40475D02*X26648Y40550D01*
X26573Y40475D02*Y40325D01*
X26648Y40250D01*
X26873Y40550D02*Y40325D01*
X26948Y40250D01*
X26648D02*X26798D01*
X26873Y40325D01*
X27128Y40850D02*Y40325D01*
X27203Y40250D01*
G54D11*X0Y29000D02*X13200D01*
X0D02*Y0D01*
X13200Y29000D02*Y0D01*
X0D02*X13200D01*
G54D47*X20000Y30350D02*Y29750D01*
Y30350D02*X20225Y30125D01*
X20450Y30350D01*
Y29750D01*
X20855Y30050D02*X20930Y29975D01*
X20705Y30050D02*X20855D01*
X20630Y29975D02*X20705Y30050D01*
X20630Y29975D02*Y29825D01*
X20705Y29750D01*
X20930Y30050D02*Y29825D01*
X21005Y29750D01*
X20705D02*X20855D01*
X20930Y29825D01*
X21185Y30050D02*X21485Y29750D01*
X21185D02*X21485Y30050D01*
X21665Y30200D02*Y30125D01*
Y29975D02*Y29750D01*
X21890Y29975D02*Y29750D01*
Y29975D02*X21965Y30050D01*
X22040D01*
X22115Y29975D01*
Y29750D01*
Y29975D02*X22190Y30050D01*
X22265D01*
X22340Y29975D01*
Y29750D01*
X21815Y30050D02*X21890Y29975D01*
X22520Y30050D02*Y29825D01*
X22595Y29750D01*
X22745D01*
X22820Y29825D01*
Y30050D02*Y29825D01*
X23075Y29975D02*Y29750D01*
Y29975D02*X23150Y30050D01*
X23225D01*
X23300Y29975D01*
Y29750D01*
Y29975D02*X23375Y30050D01*
X23450D01*
X23525Y29975D01*
Y29750D01*
X23000Y30050D02*X23075Y29975D01*
X24051Y30350D02*Y29750D01*
X24276Y30350D02*X24351Y30275D01*
Y29825D01*
X24276Y29750D02*X24351Y29825D01*
X23976Y29750D02*X24276D01*
X23976Y30350D02*X24276D01*
X24531Y30200D02*Y30125D01*
Y29975D02*Y29750D01*
X24756Y29975D02*Y29750D01*
Y29975D02*X24831Y30050D01*
X24906D01*
X24981Y29975D01*
Y29750D01*
Y29975D02*X25056Y30050D01*
X25131D01*
X25206Y29975D01*
Y29750D01*
X24681Y30050D02*X24756Y29975D01*
X25461Y29750D02*X25686D01*
X25386Y29825D02*X25461Y29750D01*
X25386Y29975D02*Y29825D01*
Y29975D02*X25461Y30050D01*
X25611D01*
X25686Y29975D01*
X25386Y29900D02*X25686D01*
Y29975D02*Y29900D01*
X25941Y29975D02*Y29750D01*
Y29975D02*X26016Y30050D01*
X26091D01*
X26166Y29975D01*
Y29750D01*
X25866Y30050D02*X25941Y29975D01*
X26421Y29750D02*X26646D01*
X26721Y29825D01*
X26646Y29900D02*X26721Y29825D01*
X26421Y29900D02*X26646D01*
X26346Y29975D02*X26421Y29900D01*
X26346Y29975D02*X26421Y30050D01*
X26646D01*
X26721Y29975D01*
X26346Y29825D02*X26421Y29750D01*
X26901Y30200D02*Y30125D01*
Y29975D02*Y29750D01*
X27052Y29975D02*Y29825D01*
Y29975D02*X27127Y30050D01*
X27277D01*
X27352Y29975D01*
Y29825D01*
X27277Y29750D02*X27352Y29825D01*
X27127Y29750D02*X27277D01*
X27052Y29825D02*X27127Y29750D01*
X27607Y29975D02*Y29750D01*
Y29975D02*X27682Y30050D01*
X27757D01*
X27832Y29975D01*
Y29750D01*
X27532Y30050D02*X27607Y29975D01*
X28087Y29750D02*X28312D01*
X28387Y29825D01*
X28312Y29900D02*X28387Y29825D01*
X28087Y29900D02*X28312D01*
X28012Y29975D02*X28087Y29900D01*
X28012Y29975D02*X28087Y30050D01*
X28312D01*
X28387Y29975D01*
X28012Y29825D02*X28087Y29750D01*
X28567Y30125D02*X28642D01*
X28567Y29975D02*X28642D01*
X29167Y29750D02*X29317D01*
X29242Y30350D02*Y29750D01*
X29092Y30200D02*X29242Y30350D01*
X29497Y30275D02*X29572Y30350D01*
X29722D01*
X29797Y30275D01*
Y29825D01*
X29722Y29750D02*X29797Y29825D01*
X29572Y29750D02*X29722D01*
X29497Y29825D02*X29572Y29750D01*
Y30050D02*X29797D01*
X29978Y30275D02*X30053Y30350D01*
X30278D01*
X30353Y30275D01*
Y30125D01*
X29978Y29750D02*X30353Y30125D01*
X29978Y29750D02*X30353D01*
X30533Y29825D02*X30608Y29750D01*
X30533Y30275D02*Y29825D01*
Y30275D02*X30608Y30350D01*
X30758D01*
X30833Y30275D01*
Y29825D01*
X30758Y29750D02*X30833Y29825D01*
X30608Y29750D02*X30758D01*
X30533Y29900D02*X30833Y30200D01*
X31358Y29975D02*Y29750D01*
Y29975D02*X31433Y30050D01*
X31508D01*
X31583Y29975D01*
Y29750D01*
Y29975D02*X31658Y30050D01*
X31733D01*
X31808Y29975D01*
Y29750D01*
X31283Y30050D02*X31358Y29975D01*
X31988Y30200D02*Y30125D01*
Y29975D02*Y29750D01*
X32138Y30350D02*Y29825D01*
X32213Y29750D01*
X32438D02*X32663D01*
X32738Y29825D01*
X32663Y29900D02*X32738Y29825D01*
X32438Y29900D02*X32663D01*
X32363Y29975D02*X32438Y29900D01*
X32363Y29975D02*X32438Y30050D01*
X32663D01*
X32738Y29975D01*
X32363Y29825D02*X32438Y29750D01*
X33188Y30050D02*Y29825D01*
X33263Y29750D01*
X33338D01*
X33413Y29825D01*
Y30050D02*Y29825D01*
X33488Y29750D01*
X33563D01*
X33638Y29825D01*
Y30050D02*Y29825D01*
X33819Y30200D02*Y30125D01*
Y29975D02*Y29750D01*
X34269Y30350D02*Y29750D01*
X34194D02*X34269Y29825D01*
X34044Y29750D02*X34194D01*
X33969Y29825D02*X34044Y29750D01*
X33969Y29975D02*Y29825D01*
Y29975D02*X34044Y30050D01*
X34194D01*
X34269Y29975D01*
X34524Y29750D02*X34749D01*
X34449Y29825D02*X34524Y29750D01*
X34449Y29975D02*Y29825D01*
Y29975D02*X34524Y30050D01*
X34674D01*
X34749Y29975D01*
X34449Y29900D02*X34749D01*
Y29975D02*Y29900D01*
X34929Y29600D02*X35079Y29750D01*
X35529Y30275D02*X35604Y30350D01*
X35829D01*
X35904Y30275D01*
Y30125D01*
X35529Y29750D02*X35904Y30125D01*
X35529Y29750D02*X35904D01*
X36084D02*X36384Y30050D01*
Y30275D02*Y30050D01*
X36309Y30350D02*X36384Y30275D01*
X36159Y30350D02*X36309D01*
X36084Y30275D02*X36159Y30350D01*
X36084Y30275D02*Y30125D01*
X36159Y30050D01*
X36384D01*
X36564Y29825D02*X36639Y29750D01*
X36564Y30275D02*Y29825D01*
Y30275D02*X36639Y30350D01*
X36789D01*
X36864Y30275D01*
Y29825D01*
X36789Y29750D02*X36864Y29825D01*
X36639Y29750D02*X36789D01*
X36564Y29900D02*X36864Y30200D01*
X37045Y29825D02*X37120Y29750D01*
X37045Y30275D02*Y29825D01*
Y30275D02*X37120Y30350D01*
X37270D01*
X37345Y30275D01*
Y29825D01*
X37270Y29750D02*X37345Y29825D01*
X37120Y29750D02*X37270D01*
X37045Y29900D02*X37345Y30200D01*
X37870Y29975D02*Y29750D01*
Y29975D02*X37945Y30050D01*
X38020D01*
X38095Y29975D01*
Y29750D01*
Y29975D02*X38170Y30050D01*
X38245D01*
X38320Y29975D01*
Y29750D01*
X37795Y30050D02*X37870Y29975D01*
X38500Y30200D02*Y30125D01*
Y29975D02*Y29750D01*
X38650Y30350D02*Y29825D01*
X38725Y29750D01*
X38950D02*X39175D01*
X39250Y29825D01*
X39175Y29900D02*X39250Y29825D01*
X38950Y29900D02*X39175D01*
X38875Y29975D02*X38950Y29900D01*
X38875Y29975D02*X38950Y30050D01*
X39175D01*
X39250Y29975D01*
X38875Y29825D02*X38950Y29750D01*
X39700Y30350D02*Y29750D01*
Y29975D02*X39775Y30050D01*
X39925D01*
X40000Y29975D01*
Y29750D01*
X40181Y30200D02*Y30125D01*
Y29975D02*Y29750D01*
X40556Y30050D02*X40631Y29975D01*
X40406Y30050D02*X40556D01*
X40331Y29975D02*X40406Y30050D01*
X40331Y29975D02*Y29825D01*
X40406Y29750D01*
X40556D01*
X40631Y29825D01*
X40331Y29600D02*X40406Y29525D01*
X40556D01*
X40631Y29600D01*
Y30050D02*Y29600D01*
X40811Y30350D02*Y29750D01*
Y29975D02*X40886Y30050D01*
X41036D01*
X41111Y29975D01*
Y29750D01*
X0Y-950D02*X300D01*
X375Y-875D01*
Y-725D02*Y-875D01*
X300Y-650D02*X375Y-725D01*
X75Y-650D02*X300D01*
X75Y-350D02*Y-950D01*
X0Y-350D02*X300D01*
X375Y-425D01*
Y-575D01*
X300Y-650D02*X375Y-575D01*
X555Y-725D02*Y-875D01*
Y-725D02*X630Y-650D01*
X780D01*
X855Y-725D01*
Y-875D01*
X780Y-950D02*X855Y-875D01*
X630Y-950D02*X780D01*
X555Y-875D02*X630Y-950D01*
X1260Y-650D02*X1335Y-725D01*
X1110Y-650D02*X1260D01*
X1035Y-725D02*X1110Y-650D01*
X1035Y-725D02*Y-875D01*
X1110Y-950D01*
X1335Y-650D02*Y-875D01*
X1410Y-950D01*
X1110D02*X1260D01*
X1335Y-875D01*
X1665Y-725D02*Y-950D01*
Y-725D02*X1740Y-650D01*
X1890D01*
X1590D02*X1665Y-725D01*
X2370Y-350D02*Y-950D01*
X2295D02*X2370Y-875D01*
X2145Y-950D02*X2295D01*
X2070Y-875D02*X2145Y-950D01*
X2070Y-725D02*Y-875D01*
Y-725D02*X2145Y-650D01*
X2295D01*
X2370Y-725D01*
X2820D02*Y-875D01*
Y-725D02*X2895Y-650D01*
X3045D01*
X3120Y-725D01*
Y-875D01*
X3045Y-950D02*X3120Y-875D01*
X2895Y-950D02*X3045D01*
X2820Y-875D02*X2895Y-950D01*
X3300Y-650D02*Y-875D01*
X3375Y-950D01*
X3525D01*
X3600Y-875D01*
Y-650D02*Y-875D01*
X3856Y-350D02*Y-875D01*
X3931Y-950D01*
X3781Y-575D02*X3931D01*
X4081Y-350D02*Y-875D01*
X4156Y-950D01*
X4306Y-500D02*Y-575D01*
Y-725D02*Y-950D01*
X4531Y-725D02*Y-950D01*
Y-725D02*X4606Y-650D01*
X4681D01*
X4756Y-725D01*
Y-950D01*
X4456Y-650D02*X4531Y-725D01*
X5011Y-950D02*X5236D01*
X4936Y-875D02*X5011Y-950D01*
X4936Y-725D02*Y-875D01*
Y-725D02*X5011Y-650D01*
X5161D01*
X5236Y-725D01*
X4936Y-800D02*X5236D01*
Y-725D02*Y-800D01*
X5686Y-500D02*Y-575D01*
Y-725D02*Y-950D01*
X5911D02*X6136D01*
X6211Y-875D01*
X6136Y-800D02*X6211Y-875D01*
X5911Y-800D02*X6136D01*
X5836Y-725D02*X5911Y-800D01*
X5836Y-725D02*X5911Y-650D01*
X6136D01*
X6211Y-725D01*
X5836Y-875D02*X5911Y-950D01*
X6737Y-350D02*Y-875D01*
X6812Y-950D01*
X6662Y-575D02*X6812D01*
X6962Y-350D02*Y-950D01*
Y-725D02*X7037Y-650D01*
X7187D01*
X7262Y-725D01*
Y-950D01*
X7517D02*X7742D01*
X7442Y-875D02*X7517Y-950D01*
X7442Y-725D02*Y-875D01*
Y-725D02*X7517Y-650D01*
X7667D01*
X7742Y-725D01*
X7442Y-800D02*X7742D01*
Y-725D02*Y-800D01*
X8267Y-650D02*X8492D01*
X8192Y-725D02*X8267Y-650D01*
X8192Y-725D02*Y-875D01*
X8267Y-950D01*
X8492D01*
X8747D02*X8972D01*
X8672Y-875D02*X8747Y-950D01*
X8672Y-725D02*Y-875D01*
Y-725D02*X8747Y-650D01*
X8897D01*
X8972Y-725D01*
X8672Y-800D02*X8972D01*
Y-725D02*Y-800D01*
X9227Y-725D02*Y-950D01*
Y-725D02*X9302Y-650D01*
X9377D01*
X9452Y-725D01*
Y-950D01*
X9152Y-650D02*X9227Y-725D01*
X9708Y-350D02*Y-875D01*
X9783Y-950D01*
X9633Y-575D02*X9783D01*
X10008Y-950D02*X10233D01*
X9933Y-875D02*X10008Y-950D01*
X9933Y-725D02*Y-875D01*
Y-725D02*X10008Y-650D01*
X10158D01*
X10233Y-725D01*
X9933Y-800D02*X10233D01*
Y-725D02*Y-800D01*
X10488Y-725D02*Y-950D01*
Y-725D02*X10563Y-650D01*
X10713D01*
X10413D02*X10488Y-725D01*
X10893Y-350D02*Y-875D01*
X10968Y-950D01*
X11118Y-500D02*Y-575D01*
Y-725D02*Y-950D01*
X11343Y-725D02*Y-950D01*
Y-725D02*X11418Y-650D01*
X11493D01*
X11568Y-725D01*
Y-950D01*
X11268Y-650D02*X11343Y-725D01*
X11823Y-950D02*X12048D01*
X11748Y-875D02*X11823Y-950D01*
X11748Y-725D02*Y-875D01*
Y-725D02*X11823Y-650D01*
X11973D01*
X12048Y-725D01*
X11748Y-800D02*X12048D01*
Y-725D02*Y-800D01*
X12499Y-725D02*Y-875D01*
Y-725D02*X12574Y-650D01*
X12724D01*
X12799Y-725D01*
Y-875D01*
X12724Y-950D02*X12799Y-875D01*
X12574Y-950D02*X12724D01*
X12499Y-875D02*X12574Y-950D01*
X13054Y-425D02*Y-950D01*
Y-425D02*X13129Y-350D01*
X13204D01*
X12979Y-650D02*X13129D01*
X13699Y-350D02*Y-875D01*
X13774Y-950D01*
X13624Y-575D02*X13774D01*
X13924Y-350D02*Y-950D01*
Y-725D02*X13999Y-650D01*
X14149D01*
X14224Y-725D01*
Y-950D01*
X14404Y-500D02*Y-575D01*
Y-725D02*Y-950D01*
X14629D02*X14854D01*
X14929Y-875D01*
X14854Y-800D02*X14929Y-875D01*
X14629Y-800D02*X14854D01*
X14554Y-725D02*X14629Y-800D01*
X14554Y-725D02*X14629Y-650D01*
X14854D01*
X14929Y-725D01*
X14554Y-875D02*X14629Y-950D01*
X15454D02*X15604D01*
X15529Y-350D02*Y-950D01*
X15379Y-500D02*X15529Y-350D01*
X15785Y-875D02*X15860Y-950D01*
X15785Y-425D02*Y-875D01*
Y-425D02*X15860Y-350D01*
X16010D01*
X16085Y-425D01*
Y-875D01*
X16010Y-950D02*X16085Y-875D01*
X15860Y-950D02*X16010D01*
X15785Y-800D02*X16085Y-500D01*
X16610Y-725D02*Y-950D01*
Y-725D02*X16685Y-650D01*
X16760D01*
X16835Y-725D01*
Y-950D01*
Y-725D02*X16910Y-650D01*
X16985D01*
X17060Y-725D01*
Y-950D01*
X16535Y-650D02*X16610Y-725D01*
X17240Y-500D02*Y-575D01*
Y-725D02*Y-950D01*
X17390Y-350D02*Y-875D01*
X17465Y-950D01*
X17960Y-725D02*Y-950D01*
Y-725D02*X18035Y-650D01*
X18185D01*
X17885D02*X17960Y-725D01*
X18440Y-950D02*X18665D01*
X18365Y-875D02*X18440Y-950D01*
X18365Y-725D02*Y-875D01*
Y-725D02*X18440Y-650D01*
X18590D01*
X18665Y-725D01*
X18365Y-800D02*X18665D01*
Y-725D02*Y-800D01*
X18921Y-650D02*X19146D01*
X18846Y-725D02*X18921Y-650D01*
X18846Y-725D02*Y-875D01*
X18921Y-950D01*
X19146D01*
X19401Y-350D02*Y-875D01*
X19476Y-950D01*
X19326Y-575D02*X19476D01*
X19851Y-650D02*X19926Y-725D01*
X19701Y-650D02*X19851D01*
X19626Y-725D02*X19701Y-650D01*
X19626Y-725D02*Y-875D01*
X19701Y-950D01*
X19926Y-650D02*Y-875D01*
X20001Y-950D01*
X19701D02*X19851D01*
X19926Y-875D01*
X20256Y-725D02*Y-950D01*
Y-725D02*X20331Y-650D01*
X20406D01*
X20481Y-725D01*
Y-950D01*
X20181Y-650D02*X20256Y-725D01*
X20886Y-650D02*X20961Y-725D01*
X20736Y-650D02*X20886D01*
X20661Y-725D02*X20736Y-650D01*
X20661Y-725D02*Y-875D01*
X20736Y-950D01*
X20886D01*
X20961Y-875D01*
X20661Y-1100D02*X20736Y-1175D01*
X20886D01*
X20961Y-1100D01*
Y-650D02*Y-1100D01*
X21141Y-350D02*Y-875D01*
X21216Y-950D01*
X21441D02*X21666D01*
X21366Y-875D02*X21441Y-950D01*
X21366Y-725D02*Y-875D01*
Y-725D02*X21441Y-650D01*
X21591D01*
X21666Y-725D01*
X21366Y-800D02*X21666D01*
Y-725D02*Y-800D01*
X22117Y-650D02*X22417D01*
X22867Y-875D02*X22942Y-950D01*
X22867Y-425D02*Y-875D01*
Y-425D02*X22942Y-350D01*
X23092D01*
X23167Y-425D01*
Y-875D01*
X23092Y-950D02*X23167Y-875D01*
X22942Y-950D02*X23092D01*
X22867Y-800D02*X23167Y-500D01*
X23347Y-1100D02*X23497Y-950D01*
X23677Y-875D02*X23752Y-950D01*
X23677Y-425D02*Y-875D01*
Y-425D02*X23752Y-350D01*
X23902D01*
X23977Y-425D01*
Y-875D01*
X23902Y-950D02*X23977Y-875D01*
X23752Y-950D02*X23902D01*
X23677Y-800D02*X23977Y-500D01*
X24502Y-350D02*Y-875D01*
X24577Y-950D01*
X24427Y-575D02*X24577D01*
X24727Y-725D02*Y-875D01*
Y-725D02*X24802Y-650D01*
X24952D01*
X25027Y-725D01*
Y-875D01*
X24952Y-950D02*X25027Y-875D01*
X24802Y-950D02*X24952D01*
X24727Y-875D02*X24802Y-950D01*
X25552D02*X25702D01*
X25627Y-350D02*Y-950D01*
X25477Y-500D02*X25627Y-350D01*
X25883Y-425D02*X25958Y-350D01*
X26108D01*
X26183Y-425D01*
Y-875D01*
X26108Y-950D02*X26183Y-875D01*
X25958Y-950D02*X26108D01*
X25883Y-875D02*X25958Y-950D01*
Y-650D02*X26183D01*
X26363Y-425D02*X26438Y-350D01*
X26663D01*
X26738Y-425D01*
Y-575D01*
X26363Y-950D02*X26738Y-575D01*
X26363Y-950D02*X26738D01*
X26918Y-875D02*X26993Y-950D01*
X26918Y-425D02*Y-875D01*
Y-425D02*X26993Y-350D01*
X27143D01*
X27218Y-425D01*
Y-875D01*
X27143Y-950D02*X27218Y-875D01*
X26993Y-950D02*X27143D01*
X26918Y-800D02*X27218Y-500D01*
X27398Y-1100D02*X27548Y-950D01*
X27728Y-425D02*X27803Y-350D01*
X28028D01*
X28103Y-425D01*
Y-575D01*
X27728Y-950D02*X28103Y-575D01*
X27728Y-950D02*X28103D01*
X28283D02*X28583Y-650D01*
Y-425D02*Y-650D01*
X28508Y-350D02*X28583Y-425D01*
X28358Y-350D02*X28508D01*
X28283Y-425D02*X28358Y-350D01*
X28283Y-425D02*Y-575D01*
X28358Y-650D01*
X28583D01*
X28764Y-875D02*X28839Y-950D01*
X28764Y-425D02*Y-875D01*
Y-425D02*X28839Y-350D01*
X28989D01*
X29064Y-425D01*
Y-875D01*
X28989Y-950D02*X29064Y-875D01*
X28839Y-950D02*X28989D01*
X28764Y-800D02*X29064Y-500D01*
X29244Y-875D02*X29319Y-950D01*
X29244Y-425D02*Y-875D01*
Y-425D02*X29319Y-350D01*
X29469D01*
X29544Y-425D01*
Y-875D01*
X29469Y-950D02*X29544Y-875D01*
X29319Y-950D02*X29469D01*
X29244Y-800D02*X29544Y-500D01*
X30069Y-725D02*Y-950D01*
Y-725D02*X30144Y-650D01*
X30219D01*
X30294Y-725D01*
Y-950D01*
Y-725D02*X30369Y-650D01*
X30444D01*
X30519Y-725D01*
Y-950D01*
X29994Y-650D02*X30069Y-725D01*
X30699Y-500D02*Y-575D01*
Y-725D02*Y-950D01*
X30849Y-350D02*Y-875D01*
X30924Y-950D01*
X31149D02*X31374D01*
X31449Y-875D01*
X31374Y-800D02*X31449Y-875D01*
X31149Y-800D02*X31374D01*
X31074Y-725D02*X31149Y-800D01*
X31074Y-725D02*X31149Y-650D01*
X31374D01*
X31449Y-725D01*
X31074Y-875D02*X31149Y-950D01*
X20075Y31850D02*Y31250D01*
X20300Y31850D02*X20375Y31775D01*
Y31325D01*
X20300Y31250D02*X20375Y31325D01*
X20000Y31250D02*X20300D01*
X20000Y31850D02*X20300D01*
X20780Y31550D02*X20855Y31475D01*
X20630Y31550D02*X20780D01*
X20555Y31475D02*X20630Y31550D01*
X20555Y31475D02*Y31325D01*
X20630Y31250D01*
X20855Y31550D02*Y31325D01*
X20930Y31250D01*
X20630D02*X20780D01*
X20855Y31325D01*
X21185Y31850D02*Y31325D01*
X21260Y31250D01*
X21110Y31625D02*X21260D01*
X21485Y31250D02*X21710D01*
X21410Y31325D02*X21485Y31250D01*
X21410Y31475D02*Y31325D01*
Y31475D02*X21485Y31550D01*
X21635D01*
X21710Y31475D01*
X21410Y31400D02*X21710D01*
Y31475D02*Y31400D01*
X21890Y31625D02*X21965D01*
X21890Y31475D02*X21965D01*
X22415Y31850D02*Y31250D01*
Y31850D02*X22640Y31625D01*
X22865Y31850D01*
Y31250D01*
X23045Y31475D02*Y31325D01*
Y31475D02*X23120Y31550D01*
X23270D01*
X23345Y31475D01*
Y31325D01*
X23270Y31250D02*X23345Y31325D01*
X23120Y31250D02*X23270D01*
X23045Y31325D02*X23120Y31250D01*
X23601Y31475D02*Y31250D01*
Y31475D02*X23676Y31550D01*
X23751D01*
X23826Y31475D01*
Y31250D01*
X23526Y31550D02*X23601Y31475D01*
X24276Y31850D02*Y31250D01*
Y31850D02*X24501Y31625D01*
X24726Y31850D01*
Y31250D01*
X25131Y31550D02*X25206Y31475D01*
X24981Y31550D02*X25131D01*
X24906Y31475D02*X24981Y31550D01*
X24906Y31475D02*Y31325D01*
X24981Y31250D01*
X25206Y31550D02*Y31325D01*
X25281Y31250D01*
X24981D02*X25131D01*
X25206Y31325D01*
X25461Y31550D02*Y31325D01*
X25536Y31250D01*
X25761Y31550D02*Y31100D01*
X25686Y31025D02*X25761Y31100D01*
X25536Y31025D02*X25686D01*
X25461Y31100D02*X25536Y31025D01*
Y31250D02*X25686D01*
X25761Y31325D01*
X26286Y31250D02*X26436D01*
X26361Y31850D02*Y31250D01*
X26211Y31700D02*X26361Y31850D01*
X26616Y31250D02*X26916Y31550D01*
Y31775D02*Y31550D01*
X26841Y31850D02*X26916Y31775D01*
X26691Y31850D02*X26841D01*
X26616Y31775D02*X26691Y31850D01*
X26616Y31775D02*Y31625D01*
X26691Y31550D01*
X26916D01*
X27366Y31325D02*X27441Y31250D01*
X27366Y31775D02*Y31325D01*
Y31775D02*X27441Y31850D01*
X27591D01*
X27666Y31775D01*
Y31325D01*
X27591Y31250D02*X27666Y31325D01*
X27441Y31250D02*X27591D01*
X27366Y31400D02*X27666Y31700D01*
X27847Y31250D02*X28222Y31625D01*
Y31850D02*Y31625D01*
X27847Y31850D02*X28222D01*
X28402Y31625D02*X28477D01*
X28402Y31475D02*X28477D01*
X28657Y31850D02*X28957D01*
X28657D02*Y31550D01*
X28732Y31625D01*
X28882D01*
X28957Y31550D01*
Y31325D01*
X28882Y31250D02*X28957Y31325D01*
X28732Y31250D02*X28882D01*
X28657Y31325D02*X28732Y31250D01*
X29137Y31850D02*X29437D01*
X29137D02*Y31550D01*
X29212Y31625D01*
X29362D01*
X29437Y31550D01*
Y31325D01*
X29362Y31250D02*X29437Y31325D01*
X29212Y31250D02*X29362D01*
X29137Y31325D02*X29212Y31250D01*
X29617Y31625D02*X29692D01*
X29617Y31475D02*X29692D01*
X29872Y31550D02*X30172Y31850D01*
X29872Y31550D02*X30247D01*
X30172Y31850D02*Y31250D01*
X30428D02*X30728Y31550D01*
Y31775D02*Y31550D01*
X30653Y31850D02*X30728Y31775D01*
X30503Y31850D02*X30653D01*
X30428Y31775D02*X30503Y31850D01*
X30428Y31775D02*Y31625D01*
X30503Y31550D01*
X30728D01*
X31178Y31775D02*X31253Y31850D01*
X31478D01*
X31553Y31775D01*
Y31625D01*
X31178Y31250D02*X31553Y31625D01*
X31178Y31250D02*X31553D01*
X31733Y31325D02*X31808Y31250D01*
X31733Y31775D02*Y31325D01*
Y31775D02*X31808Y31850D01*
X31958D01*
X32033Y31775D01*
Y31325D01*
X31958Y31250D02*X32033Y31325D01*
X31808Y31250D02*X31958D01*
X31733Y31400D02*X32033Y31700D01*
X32213Y31325D02*X32288Y31250D01*
X32213Y31775D02*Y31325D01*
Y31775D02*X32288Y31850D01*
X32438D01*
X32513Y31775D01*
Y31325D01*
X32438Y31250D02*X32513Y31325D01*
X32288Y31250D02*X32438D01*
X32213Y31400D02*X32513Y31700D01*
X32693Y31325D02*X32768Y31250D01*
X32693Y31475D02*Y31325D01*
Y31475D02*X32768Y31550D01*
X32918D01*
X32993Y31475D01*
Y31325D01*
X32918Y31250D02*X32993Y31325D01*
X32768Y31250D02*X32918D01*
X32693Y31625D02*X32768Y31550D01*
X32693Y31775D02*Y31625D01*
Y31775D02*X32768Y31850D01*
X32918D01*
X32993Y31775D01*
Y31625D01*
X32918Y31550D02*X32993Y31625D01*
X33443Y31850D02*Y31325D01*
X33518Y31250D01*
X33668D01*
X33743Y31325D01*
Y31850D02*Y31325D01*
X33923Y31850D02*X34223D01*
X34073D02*Y31250D01*
X34479D02*X34704D01*
X34404Y31325D02*X34479Y31250D01*
X34404Y31775D02*Y31325D01*
Y31775D02*X34479Y31850D01*
X34704D01*
X20000Y33275D02*Y32750D01*
Y33275D02*X20075Y33350D01*
X20300D01*
X20375Y33275D01*
Y32750D01*
X20000Y33050D02*X20375D01*
X20555D02*Y32825D01*
X20630Y32750D01*
X20780D01*
X20855Y32825D01*
Y33050D02*Y32825D01*
X21110Y33350D02*Y32825D01*
X21185Y32750D01*
X21035Y33125D02*X21185D01*
X21335Y33350D02*Y32750D01*
Y32975D02*X21410Y33050D01*
X21560D01*
X21635Y32975D01*
Y32750D01*
X21815Y32975D02*Y32825D01*
Y32975D02*X21890Y33050D01*
X22040D01*
X22115Y32975D01*
Y32825D01*
X22040Y32750D02*X22115Y32825D01*
X21890Y32750D02*X22040D01*
X21815Y32825D02*X21890Y32750D01*
X22370Y32975D02*Y32750D01*
Y32975D02*X22445Y33050D01*
X22595D01*
X22295D02*X22370Y32975D01*
X22775Y33125D02*X22850D01*
X22775Y32975D02*X22850D01*
X20000Y34850D02*X20300D01*
X20150D02*Y34250D01*
X20480Y34700D02*Y34625D01*
Y34475D02*Y34250D01*
X20705Y34850D02*Y34325D01*
X20780Y34250D01*
X20630Y34625D02*X20780D01*
X20930Y34850D02*Y34325D01*
X21005Y34250D01*
X21230D02*X21455D01*
X21155Y34325D02*X21230Y34250D01*
X21155Y34475D02*Y34325D01*
Y34475D02*X21230Y34550D01*
X21380D01*
X21455Y34475D01*
X21155Y34400D02*X21455D01*
Y34475D02*Y34400D01*
X21635Y34625D02*X21710D01*
X21635Y34475D02*X21710D01*
X22160Y34325D02*X22235Y34250D01*
X22160Y34775D02*X22235Y34850D01*
X22160Y34775D02*Y34325D01*
X22416Y34550D02*Y34325D01*
X22491Y34250D01*
X22641D01*
X22716Y34325D01*
Y34550D02*Y34325D01*
X22971Y34475D02*Y34250D01*
Y34475D02*X23046Y34550D01*
X23121D01*
X23196Y34475D01*
Y34250D01*
X22896Y34550D02*X22971Y34475D01*
X23376Y34850D02*Y34250D01*
Y34475D02*X23601Y34250D01*
X23376Y34475D02*X23526Y34625D01*
X23856Y34475D02*Y34250D01*
Y34475D02*X23931Y34550D01*
X24006D01*
X24081Y34475D01*
Y34250D01*
X23781Y34550D02*X23856Y34475D01*
X24261D02*Y34325D01*
Y34475D02*X24336Y34550D01*
X24486D01*
X24561Y34475D01*
Y34325D01*
X24486Y34250D02*X24561Y34325D01*
X24336Y34250D02*X24486D01*
X24261Y34325D02*X24336Y34250D01*
X24741Y34550D02*Y34325D01*
X24816Y34250D01*
X24891D01*
X24966Y34325D01*
Y34550D02*Y34325D01*
X25041Y34250D01*
X25116D01*
X25191Y34325D01*
Y34550D02*Y34325D01*
X25446Y34475D02*Y34250D01*
Y34475D02*X25521Y34550D01*
X25596D01*
X25671Y34475D01*
Y34250D01*
X25371Y34550D02*X25446Y34475D01*
X25852Y34850D02*X25927Y34775D01*
Y34325D01*
X25852Y34250D02*X25927Y34325D01*
X26377Y34550D02*X26677D01*
X27127Y34850D02*Y34250D01*
Y34850D02*X27427D01*
X27127Y34550D02*X27352D01*
X27832D02*X27907Y34475D01*
X27682Y34550D02*X27832D01*
X27607Y34475D02*X27682Y34550D01*
X27607Y34475D02*Y34325D01*
X27682Y34250D01*
X27907Y34550D02*Y34325D01*
X27982Y34250D01*
X27682D02*X27832D01*
X27907Y34325D01*
X28162Y34850D02*Y34250D01*
Y34325D02*X28237Y34250D01*
X28387D01*
X28462Y34325D01*
Y34475D02*Y34325D01*
X28387Y34550D02*X28462Y34475D01*
X28237Y34550D02*X28387D01*
X28162Y34475D02*X28237Y34550D01*
X28717Y34475D02*Y34250D01*
Y34475D02*X28792Y34550D01*
X28942D01*
X28642D02*X28717Y34475D01*
X29123Y34700D02*Y34625D01*
Y34475D02*Y34250D01*
X29348Y34550D02*X29573D01*
X29273Y34475D02*X29348Y34550D01*
X29273Y34475D02*Y34325D01*
X29348Y34250D01*
X29573D01*
X29978Y34550D02*X30053Y34475D01*
X29828Y34550D02*X29978D01*
X29753Y34475D02*X29828Y34550D01*
X29753Y34475D02*Y34325D01*
X29828Y34250D01*
X30053Y34550D02*Y34325D01*
X30128Y34250D01*
X29828D02*X29978D01*
X30053Y34325D01*
X30383Y34850D02*Y34325D01*
X30458Y34250D01*
X30308Y34625D02*X30458D01*
X30608Y34700D02*Y34625D01*
Y34475D02*Y34250D01*
X30758Y34475D02*Y34325D01*
Y34475D02*X30833Y34550D01*
X30983D01*
X31058Y34475D01*
Y34325D01*
X30983Y34250D02*X31058Y34325D01*
X30833Y34250D02*X30983D01*
X30758Y34325D02*X30833Y34250D01*
X31313Y34475D02*Y34250D01*
Y34475D02*X31388Y34550D01*
X31463D01*
X31538Y34475D01*
Y34250D01*
X31238Y34550D02*X31313Y34475D01*
X32064Y34850D02*Y34250D01*
X32289Y34850D02*X32364Y34775D01*
Y34325D01*
X32289Y34250D02*X32364Y34325D01*
X31989Y34250D02*X32289D01*
X31989Y34850D02*X32289D01*
X32619Y34475D02*Y34250D01*
Y34475D02*X32694Y34550D01*
X32844D01*
X32544D02*X32619Y34475D01*
X33249Y34550D02*X33324Y34475D01*
X33099Y34550D02*X33249D01*
X33024Y34475D02*X33099Y34550D01*
X33024Y34475D02*Y34325D01*
X33099Y34250D01*
X33324Y34550D02*Y34325D01*
X33399Y34250D01*
X33099D02*X33249D01*
X33324Y34325D01*
X33579Y34550D02*Y34325D01*
X33654Y34250D01*
X33729D01*
X33804Y34325D01*
Y34550D02*Y34325D01*
X33879Y34250D01*
X33954D01*
X34029Y34325D01*
Y34550D02*Y34325D01*
X34209Y34700D02*Y34625D01*
Y34475D02*Y34250D01*
X34434Y34475D02*Y34250D01*
Y34475D02*X34509Y34550D01*
X34584D01*
X34659Y34475D01*
Y34250D01*
X34359Y34550D02*X34434Y34475D01*
X35064Y34550D02*X35139Y34475D01*
X34914Y34550D02*X35064D01*
X34839Y34475D02*X34914Y34550D01*
X34839Y34475D02*Y34325D01*
X34914Y34250D01*
X35064D01*
X35139Y34325D01*
X34839Y34100D02*X34914Y34025D01*
X35064D01*
X35139Y34100D01*
Y34550D02*Y34100D01*
M02*
