G04 start of page 2 for group 0 idx 0
G04 Title: (unknown), solder *
G04 Creator: pcb 20070912 *
G04 CreationDate: Mon May 19 07:55:49 2008 UTC *
G04 For: sean *
G04 Format: Gerber/RS-274X *
G04 PCB-Dimensions: 132000 290000 *
G04 PCB-Coordinate-Origin: lower left *
%MOIN*%
%FSLAX24Y24*%
%LNBACK*%
%ADD11C,0.0100*%
%ADD12C,0.0200*%
%ADD13C,0.0600*%
%ADD14C,0.0360*%
%ADD15C,0.1200*%
%ADD16C,0.2400*%
%ADD17C,0.0220*%
%ADD18C,0.0380*%
%ADD19C,0.0900*%
%ADD20C,0.0280*%
%ADD21C,0.0180*%
G54D11*X3359Y23400D02*Y22865D01*
X3000Y22319D02*X2787D01*
X3359Y22865D02*Y21980D01*
Y22865D02*X4429D01*
X4330Y21450D02*Y20769D01*
X4170Y22109D02*Y21740D01*
X3000Y22319D02*Y23400D01*
X1920Y20950D02*X4090D01*
X4330Y21450D02*X1920D01*
X4170Y21740D02*X2303D01*
X5720Y20608D02*X4779D01*
X7282Y19736D02*X7282D01*
X6020Y19337D02*Y19201D01*
X7282Y19736D02*X7282D01*
X4779Y20639D02*Y20608D01*
X6020Y19337D02*X2804D01*
X1920Y20368D02*X5772D01*
X3060Y18425D02*X2210D01*
X2007Y19374D02*Y18735D01*
X6004D01*
X3060Y16654D02*X5619D01*
X7914Y20654D02*Y14650D01*
X6260Y22629D02*Y15044D01*
X6802Y14379D02*Y23412D01*
X6004Y18735D02*Y16964D01*
X5064D02*Y16964D01*
X9160Y20654D02*X11719D01*
X9160Y22425D02*X11719D01*
X9160Y20654D02*X7914D01*
X9056Y15409D02*X10468D01*
X9056D02*Y14905D01*
X11553Y11955D02*Y8120D01*
X7980Y10933D02*Y10850D01*
Y10933D02*X3060D01*
X7384Y14650D02*Y11345D01*
Y14650D02*X7914D01*
X3830Y9540D02*X7347D01*
X2804Y19337D02*X2247D01*
X3060Y10933D02*Y16654D01*
X2210Y18425D02*Y9585D01*
X1910Y6110D02*X2340D01*
X2210Y9585D02*X1910D01*
Y6110D01*
X3428Y10116D02*X3428D01*
X3428D01*
X3188Y8534D02*Y10416D01*
X3830Y10705D02*Y9540D01*
X4200Y8500D02*Y8540D01*
X4510Y7980D02*X4560D01*
X4510Y7920D02*Y7980D01*
X3830Y10705D02*X2450D01*
Y16264D02*Y10705D01*
X10570Y130D02*X5620D01*
X1660Y4070D01*
X5180Y3920D02*X4910Y4190D01*
X5290Y4700D02*X5100Y4890D01*
X1660Y4070D02*Y18080D01*
X4910Y4190D02*Y7630D01*
X5100Y4890D02*Y7700D01*
X11800Y4700D02*X5290D01*
X11790Y3920D02*X5180D01*
X4910Y7630D02*X4560Y7980D01*
X5100Y7700D02*X4260Y8540D01*
X6211Y9800D02*X8132D01*
Y6229D01*
X5505Y8282D02*X5910D01*
Y7550D01*
X10570Y130D02*X13040Y5830D01*
X11800Y3920D02*X11790D01*
X11800D01*
Y4700D02*X11830D01*
X11800Y4690D02*Y4700D01*
X11830D02*X11800D01*
X8132Y6229D02*X12020D01*
Y6620D01*
X11055Y2590D02*X8360D01*
X13040Y5830D02*Y28100D01*
X12450Y13305D02*Y7620D01*
X12020Y12985D02*Y8620D01*
X9179Y17865D02*Y17555D01*
X7282Y19736D02*X7332D01*
Y19201D01*
X7282Y16231D02*X7332D01*
X9902Y22115D02*Y22115D01*
X11980Y25430D02*Y24080D01*
X8850Y21080D02*X12410D01*
X11719Y22425D02*X11980D01*
X10468Y18235D02*Y15409D01*
Y18235D02*X10366D01*
X9179Y17865D02*X10220D01*
X7250Y6709D02*X5910D01*
X12450Y7620D02*X12020D01*
X5910Y6709D02*Y6550D01*
X8385Y13305D02*X12450D01*
X8385Y12985D02*X12020D01*
X8334Y12660D02*X10326D01*
Y12659D01*
X10140Y14626D02*Y14626D01*
X5619Y18425D02*X3060D01*
X5064Y16964D02*X6004D01*
X10366Y18235D02*X9046D01*
X8779Y16231D02*Y18814D01*
X8843D01*
X9550Y8675D02*Y7189D01*
X12630D01*
Y20080D01*
X12410D02*X12630D01*
X6501Y23170D02*Y11173D01*
X7332Y16231D02*Y14892D01*
X7282Y16231D02*X7282D01*
X7282D02*X7282D01*
X7042Y11173D02*Y21080D01*
X12840Y23080D02*Y21649D01*
X9902D02*X12840D01*
X9902D02*Y22115D01*
Y22115D02*Y22115D01*
X8850Y21080D02*X7042D01*
X8094Y11800D02*X8113D01*
X3570Y10116D02*Y8455D01*
Y10116D02*X3428D01*
X8372Y12360D02*Y6470D01*
X10140Y14626D02*X12216D01*
X8094Y14626D02*Y11800D01*
Y14626D02*X10140D01*
X4200Y8540D02*X4260D01*
X7042Y11173D02*X7042D01*
X1660Y18080D02*X50Y23650D01*
X1610Y22950D02*X1920D01*
X1430Y20950D02*Y24804D01*
X50Y23650D02*X1050Y28840D01*
X1610Y24564D02*Y22950D01*
X3451Y24804D02*X1430D01*
X2303Y23450D02*X1920D01*
X3450Y28140D02*Y25044D01*
X1250D02*X3450D01*
X2303Y21740D02*Y23450D01*
X1250Y25044D02*Y20488D01*
X1430Y20950D02*X1920D01*
Y20368D02*Y20450D01*
X1250Y20488D02*X1610D01*
Y19374D01*
X2007D01*
X8500Y28840D02*X1050D01*
X13040Y28100D02*X8500Y28840D01*
X6810Y28140D02*X3450D01*
X4343Y23880D02*X5720D01*
X5619Y25430D02*Y26025D01*
X7810D02*Y28140D01*
X5619Y26025D02*X7810D01*
X2699Y23640D02*X4103D01*
Y23440D01*
X5480D01*
X3060Y24254D02*X5619D01*
X8570Y24564D02*Y23165D01*
Y24564D02*X4780D01*
X1610D01*
X3000Y23400D02*X3359D01*
X5720Y23880D02*Y20608D01*
X4090Y21109D02*Y20950D01*
X5044Y23200D02*Y21450D01*
X4330D01*
X5242Y21900D02*X5480D01*
X5242D02*Y20848D01*
X5480Y23440D02*Y21900D01*
X8310Y22930D02*X8850D01*
Y21080D01*
X11980Y25430D02*X5619D01*
X8570Y23165D02*X9920D01*
X8810Y23429D02*X11440D01*
X9050Y23729D02*X11740D01*
X8020Y23412D02*X6802D01*
X11980Y24080D02*X12410D01*
Y23080D02*X12840D01*
X11980Y22425D02*Y24080D01*
G54D12*G36*
X6510Y28440D02*Y27840D01*
X7110D01*
Y28440D01*
X6510D01*
G37*
G54D13*X7810Y28140D03*
G54D12*G36*
X12110Y24380D02*Y23780D01*
X12710D01*
Y24380D01*
X12110D01*
G37*
G54D13*X12410Y23080D03*
Y22080D03*
Y21080D03*
Y20080D03*
G54D14*X11719Y20654D03*
G54D12*G36*
X11720Y8920D02*Y8320D01*
X12320D01*
Y8920D01*
X11720D01*
G37*
G54D14*X9160Y22425D03*
X11719D03*
X9160Y20654D03*
X3060Y18425D03*
X5619D03*
Y16654D03*
Y26025D03*
Y24254D03*
X3060Y16654D03*
X1920Y23950D03*
Y23450D03*
Y22950D03*
X3060Y26025D03*
Y24254D03*
X1920Y22450D03*
Y21950D03*
Y21450D03*
Y20950D03*
Y20450D03*
G54D13*X12020Y7620D03*
Y6620D03*
Y5620D03*
G54D15*X10260Y1490D03*
G54D12*G36*
X5610Y7850D02*Y7250D01*
X6210D01*
Y7850D01*
X5610D01*
G37*
G36*
X2040Y7410D02*Y6810D01*
X2640D01*
Y7410D01*
X2040D01*
G37*
G54D13*X2340Y6110D03*
X5910Y6550D03*
Y5550D03*
G54D12*G36*
X8060Y3690D02*Y3090D01*
X8660D01*
Y3690D01*
X8060D01*
G37*
G54D13*X7360Y3390D03*
Y2590D03*
X8360D03*
G54D15*X5460Y1490D03*
G54D16*X11240Y26840D03*
G54D17*X9920Y23165D03*
X9902Y22115D03*
X8810Y23429D03*
X9050Y23729D03*
X11440Y23429D03*
X11740Y23729D03*
X8310Y22930D03*
X8020Y23412D03*
G54D16*X3540Y4340D03*
G54D17*X11790Y3920D03*
X11800Y4690D03*
X11553Y8120D03*
X11055Y2590D03*
X4200Y8500D03*
X4510Y7920D03*
X6211Y9800D03*
X5505Y8282D03*
X7250Y6709D03*
X7347Y9540D03*
X9550Y8675D03*
X8372Y6470D03*
X3570Y8455D03*
X3188Y8534D03*
X3428Y10116D03*
X3188Y10416D03*
X1935Y9585D03*
X9179Y17555D03*
X7282Y16231D03*
X8779D03*
X10220Y17865D03*
X6020Y19201D03*
X7332D03*
X7282Y19736D03*
X9046Y18235D03*
X8843Y18814D03*
X2450Y16264D03*
X5064Y16964D03*
X10366Y18235D03*
X4780Y24564D03*
X4429Y22865D03*
X5044Y23200D03*
X4343Y23880D03*
X2787Y22319D03*
X3359Y21980D03*
X2804Y19337D03*
X2247D03*
X4090Y21109D03*
X4330Y20769D03*
X4779Y20639D03*
X5242Y20848D03*
X5772Y20368D03*
X3000Y23400D03*
X3451Y24804D03*
X2699Y23640D03*
X5480Y21900D03*
X6501Y23170D03*
X6260Y22629D03*
X4170Y22109D03*
X8385Y13305D03*
X12216Y14626D03*
X10140Y14626D03*
X7332Y14892D03*
X9056Y14905D03*
X10468Y15409D03*
X8385Y12985D03*
X8334Y12660D03*
X10326Y12659D03*
X8372Y12360D03*
X8113Y11800D03*
X6501Y11173D03*
X7042D03*
X7384Y11345D03*
X11553Y11955D03*
X7980Y10850D03*
X6260Y15044D03*
X6802Y14379D03*
G54D18*G54D12*G54D18*G54D12*G54D18*G54D19*G54D18*G54D20*G54D19*G54D15*G54D21*G54D15*G54D21*M02*
