G04 start of page 4 for group -4063 idx -4063
G04 Title: (unknown), componentmask *
G04 Creator: pcb 20070912 *
G04 CreationDate: Mon May 19 07:55:49 2008 UTC *
G04 For: sean *
G04 Format: Gerber/RS-274X *
G04 PCB-Dimensions: 132000 290000 *
G04 PCB-Coordinate-Origin: lower left *
%MOIN*%
%FSLAX24Y24*%
%LNFRONTMASK*%
%ADD12C,0.0200*%
%ADD17C,0.0220*%
%ADD34C,0.0660*%
%ADD35C,0.0420*%
%ADD36C,0.1260*%
%ADD37R,0.0140X0.0140*%
%ADD38R,0.0318X0.0318*%
%ADD39R,0.0220X0.0220*%
%ADD40R,0.0360X0.0360*%
%ADD41R,0.1145X0.1145*%
%ADD42R,0.0510X0.0510*%
%ADD43R,0.0210X0.0210*%
%ADD44R,0.0416X0.0416*%
%ADD45R,0.0540X0.0540*%
%ADD46C,0.0210*%
G54D12*G36*
X6480Y28470D02*Y27810D01*
X7140D01*
Y28470D01*
X6480D01*
G37*
G54D34*X7810Y28140D03*
G54D12*G36*
X12080Y24410D02*Y23750D01*
X12740D01*
Y24410D01*
X12080D01*
G37*
G54D34*X12410Y23080D03*
Y22080D03*
Y21080D03*
Y20080D03*
G54D35*X11719Y20654D03*
G54D12*G36*
X11690Y8950D02*Y8290D01*
X12350D01*
Y8950D01*
X11690D01*
G37*
G54D35*X9160Y22425D03*
X11719D03*
X9160Y20654D03*
X3060Y18425D03*
X5619D03*
Y16654D03*
Y26025D03*
Y24254D03*
X3060Y16654D03*
X1920Y23950D03*
Y23450D03*
Y22950D03*
X3060Y26025D03*
Y24254D03*
X1920Y22450D03*
Y21950D03*
Y21450D03*
Y20950D03*
Y20450D03*
G54D34*X12020Y7620D03*
Y6620D03*
Y5620D03*
G54D36*X10260Y1490D03*
G54D12*G36*
X5580Y7880D02*Y7220D01*
X6240D01*
Y7880D01*
X5580D01*
G37*
G36*
X2010Y7440D02*Y6780D01*
X2670D01*
Y7440D01*
X2010D01*
G37*
G54D34*X2340Y6110D03*
X5910Y6550D03*
Y5550D03*
G54D12*G36*
X8030Y3720D02*Y3060D01*
X8690D01*
Y3720D01*
X8030D01*
G37*
G54D34*X7360Y3390D03*
Y2590D03*
X8360D03*
G54D36*X5460Y1490D03*
G54D37*X3254Y22391D02*Y22226D01*
X3451Y22391D02*Y22226D01*
X3648Y22391D02*Y22226D01*
X3845Y22391D02*Y22226D01*
X4018Y22564D02*X4183D01*
X2916D02*X3081D01*
X4018Y22761D02*X4183D01*
G54D38*X3841Y21013D02*Y20738D01*
X3644Y21013D02*Y20738D01*
X3447Y21013D02*Y20738D01*
X3250Y21013D02*Y20738D01*
X3054Y21013D02*Y20738D01*
G54D37*X4018Y23155D02*X4183D01*
X2916D02*X3081D01*
X2916Y22958D02*X3081D01*
X2916Y22761D02*X3081D01*
G54D12*G36*
X3234Y23175D02*Y22544D01*
X3865D01*
Y23175D01*
X3234D01*
G37*
G54D37*X3845Y23493D02*Y23328D01*
X3648Y23493D02*Y23328D01*
X3451Y23493D02*Y23328D01*
X3254Y23493D02*Y23328D01*
G54D38*X3054Y19438D02*Y19163D01*
X3250Y19438D02*Y19163D01*
X3447Y19438D02*Y19163D01*
X3644Y19438D02*Y19163D01*
X3841Y19438D02*Y19163D01*
G54D37*X4018Y22958D02*X4183D01*
G54D17*X4990Y22930D02*X5210D01*
G54D39*X4990Y22670D02*X5210D01*
X4990Y22420D02*X5210D01*
X4990Y22160D02*X5210D01*
X4990Y21900D02*X5210D01*
X4990Y21650D02*X5210D01*
X4990Y21390D02*X5210D01*
X4990Y21140D02*X5210D01*
G54D40*X10490Y10050D02*Y9950D01*
X9890Y10050D02*Y9950D01*
X10740Y3950D02*Y3850D01*
Y4710D02*Y4610D01*
X11340Y3950D02*Y3850D01*
Y4710D02*Y4610D01*
G54D41*X10326Y11955D02*X10483D01*
X10326Y13963D02*X10483D01*
G54D42*X9670Y6870D02*X9810D01*
X9670Y6070D02*X9810D01*
G54D43*X5770Y9260D02*Y8800D01*
X6090Y9260D02*Y8800D01*
X6400Y9260D02*Y8800D01*
X6720Y9260D02*Y8800D01*
X7030Y9260D02*Y8800D01*
X7350Y9260D02*Y8800D01*
X8650Y10540D02*X9110D01*
X8650Y10860D02*X9110D01*
X8650Y11170D02*X9110D01*
G54D40*X7410Y17410D02*X7510D01*
X7410Y18010D02*X7510D01*
G54D44*X8085Y18499D02*X8538D01*
X8085Y18185D02*X8538D01*
X8085Y17870D02*X8538D01*
X8085Y17555D02*X8538D01*
X8085Y17240D02*X8538D01*
X8085Y16925D02*X8538D01*
X8085Y16610D02*X9050D01*
G54D43*X8650Y11490D02*X9110D01*
X8650Y11800D02*X9110D01*
X8650Y12120D02*X9110D01*
X8650Y12430D02*X9110D01*
X8650Y12750D02*X9110D01*
X8650Y13060D02*X9110D01*
X8650Y13380D02*X9110D01*
X8650Y13690D02*X9110D01*
X8650Y14010D02*X9110D01*
G54D41*X12216Y11955D02*X12373D01*
X12216Y13963D02*X12373D01*
G54D43*X7660Y9260D02*Y8800D01*
X7980Y9260D02*Y8800D01*
X8650Y9920D02*X9110D01*
X8650Y10230D02*X9110D01*
G54D45*X8310Y6980D02*Y6820D01*
X8700Y6980D02*Y6820D01*
X9090Y6980D02*Y6820D01*
Y6160D02*Y6000D01*
X8310Y6160D02*Y6000D01*
G54D42*X9070Y7750D02*Y7610D01*
X8270Y7750D02*Y7610D01*
G54D40*X10460Y15850D02*Y15750D01*
G54D44*X10349Y16610D02*X11313D01*
G54D40*X9860Y15850D02*Y15750D01*
X11750Y17830D02*X11850D01*
X11750Y18430D02*X11850D01*
G54D44*X10861Y18499D02*X11313D01*
X10860Y18185D02*X11313D01*
X10861Y16925D02*X11313D01*
X10861Y17240D02*X11313D01*
X10861Y17555D02*X11313D01*
X10861Y17870D02*X11313D01*
X10861Y18814D02*X11313D01*
X10349Y19129D02*X11313D01*
G54D46*X3260Y9260D02*Y8800D01*
G54D43*X3570Y9260D02*Y8800D01*
X3880Y9260D02*Y8800D01*
X4200Y9260D02*Y8800D01*
X4510Y9260D02*Y8800D01*
X4830Y9260D02*Y8800D01*
X5140Y9260D02*Y8800D01*
X5460Y9260D02*Y8800D01*
X8650Y14320D02*X9110D01*
X8650Y14640D02*X9110D01*
X7990Y15770D02*Y15310D01*
X7680Y15770D02*Y15310D01*
X7370Y15770D02*Y15310D01*
X7050Y15770D02*Y15310D01*
X6740Y15770D02*Y15310D01*
X6420Y15770D02*Y15310D01*
X6110Y15770D02*Y15310D01*
X5790Y15770D02*Y15310D01*
X5480Y15770D02*Y15310D01*
X5160Y15770D02*Y15310D01*
X4850Y15770D02*Y15310D01*
X4530Y15770D02*Y15310D01*
X4220Y15770D02*Y15310D01*
X3900Y15770D02*Y15310D01*
X3590Y15770D02*Y15310D01*
X3270Y15770D02*Y15310D01*
X2140Y14650D02*X2600D01*
X2140Y14340D02*X2600D01*
X2140Y14030D02*X2600D01*
X2140Y13710D02*X2600D01*
X2140Y13400D02*X2600D01*
X2140Y13080D02*X2600D01*
X2140Y12770D02*X2600D01*
X2140Y12450D02*X2600D01*
X2140Y12140D02*X2600D01*
X2140Y11820D02*X2600D01*
X2140Y11510D02*X2600D01*
X2140Y11190D02*X2600D01*
X2140Y10880D02*X2600D01*
X2140Y10560D02*X2600D01*
X2140Y10250D02*X2600D01*
X2140Y9930D02*X2600D01*
G54D40*X7810Y22410D02*X7910D01*
X7810Y21810D02*X7910D01*
X7850Y20930D02*Y20830D01*
G54D39*X7110Y21130D02*X7330D01*
X7110Y21390D02*X7330D01*
X7110Y21640D02*X7330D01*
X7110Y21900D02*X7330D01*
X7110Y22160D02*X7330D01*
X7110Y22410D02*X7330D01*
X7110Y22670D02*X7330D01*
X7110Y22920D02*X7330D01*
G54D40*X9920Y23740D02*Y23640D01*
X10520Y23740D02*Y23640D01*
G54D39*X9070Y26030D02*X9290D01*
X9070Y26280D02*X9290D01*
X9070Y26540D02*X9290D01*
G54D17*X9070Y25770D02*X9290D01*
X9070Y24530D02*X9290D01*
G54D39*X9070Y24790D02*X9290D01*
X9070Y25040D02*X9290D01*
X9070Y25300D02*X9290D01*
G54D42*X9890Y25400D02*X10030D01*
X9890Y24600D02*X10030D01*
G54D39*X7400Y26550D02*X7620D01*
X7400Y26290D02*X7620D01*
X7400Y26040D02*X7620D01*
X7400Y25780D02*X7620D01*
X7400Y25310D02*X7620D01*
G54D40*X7530Y23870D02*Y23770D01*
X8130Y23870D02*Y23770D01*
G54D39*X7400Y25050D02*X7620D01*
X7400Y24800D02*X7620D01*
X7400Y24540D02*X7620D01*
G54D40*X7860Y20170D02*Y20070D01*
X8460Y20170D02*Y20070D01*
X8450Y20930D02*Y20830D01*
G54D44*X8085Y19129D02*X9050D01*
X8085Y18814D02*X8538D01*
M02*
