M48
INCH,TZ
T12C0.020
T15C0.120
T18C0.038
T19C0.090
T20C0.028
T21C0.018
%
T21
X009920Y023165
X009902Y022115
X008810Y023429
X009050Y023729
X011440Y023429
X011740Y023729
X008310Y022930
X008020Y023412
X011790Y003920
X011800Y004690
X011553Y008120
X011055Y002590
X004200Y008500
X004510Y007920
X006211Y009800
X005505Y008282
X007250Y006709
X007347Y009540
X009550Y008675
X008372Y006470
X003570Y008455
X003188Y008534
X003428Y010116
X003188Y010416
X001935Y009585
X009179Y017555
X007282Y016231
X008779Y016231
X010220Y017865
X006020Y019201
X007332Y019201
X007282Y019736
X009046Y018235
X008843Y018814
X002450Y016264
X005064Y016964
X010366Y018235
X004780Y024564
X004429Y022865
X005044Y023200
X004343Y023880
X002787Y022319
X003359Y021980
X002804Y019337
X002247Y019337
X004090Y021109
X004330Y020769
X004779Y020639
X005242Y020848
X005772Y020368
X003000Y023400
X003451Y024804
X002699Y023640
X005480Y021900
X006501Y023170
X006260Y022629
X004170Y022109
X008385Y013305
X012216Y014626
X010140Y014626
X007332Y014892
X009056Y014905
X010468Y015409
X008385Y012985
X008334Y012660
X010326Y012659
X008372Y012360
X008113Y011800
X006501Y011173
X007042Y011173
X007384Y011345
X011553Y011955
X007980Y010850
X006260Y015044
X006802Y014379
T12
X011719Y020654
X009160Y022425
X011719Y022425
X009160Y020654
X003060Y018425
X005619Y018425
X005619Y016654
X005619Y026025
X005619Y024254
X003060Y016654
X001920Y023950
X001920Y023450
X001920Y022950
X003060Y026025
X003060Y024254
X001920Y022450
X001920Y021950
X001920Y021450
X001920Y020950
X001920Y020450
T20
X008360Y003390
X007360Y003390
X007360Y002590
X008360Y002590
T18
X006810Y028140
X007810Y028140
X012410Y024080
X012410Y023080
X012410Y022080
X012410Y021080
X012410Y020080
X012020Y008620
X012020Y007620
X012020Y006620
X012020Y005620
X005910Y007550
X002340Y007110
X002340Y006110
X005910Y006550
X005910Y005550
T19
X010260Y001490
X005460Y001490
T15
X011240Y026840
X003540Y004340
M30
