G04 start of page 10 for group -3984 idx -3984
G04 Title: (unknown), fab *
G04 Creator: pcb 20070208 *
G04 CreationDate: Fri Aug 31 23:19:37 2007 UTC *
G04 For: sean *
G04 Format: Gerber/RS-274X *
G04 PCB-Dimensions: 250000 150000 *
G04 PCB-Coordinate-Origin: lower left *
%MOIN*%
%FSLAX24Y24*%
%LNFAB*%
%ADD11C,0.0100*%
%ADD46R,0.0080X0.0080*%
G54D46*X23840Y1160D02*X24160D01*
X23840D02*Y840D01*
X24160D01*
Y1160D02*Y840D01*
X840Y14160D02*X1160D01*
X840D02*Y13840D01*
X1160D01*
Y14160D02*Y13840D01*
X840Y1160D02*X1160D01*
X840D02*Y840D01*
X1160D01*
Y1160D02*Y840D01*
X23840Y14160D02*X24160D01*
X23840D02*Y13840D01*
X24160D01*
Y14160D02*Y13840D01*
X1340Y16285D02*X1660D01*
X1340D02*Y15965D01*
X1660D01*
Y16285D02*Y15965D01*
G54D11*X13500Y16350D02*Y16275D01*
X13650Y16125D01*
X13800Y16275D01*
Y16350D02*Y16275D01*
X13650Y16125D02*Y15750D01*
X13980Y16050D02*X14205D01*
X13980Y15750D02*X14280D01*
X13980Y16350D02*Y15750D01*
Y16350D02*X14280D01*
X14760D02*X14835Y16275D01*
X14535Y16350D02*X14760D01*
X14460Y16275D02*X14535Y16350D01*
X14460Y16275D02*Y16125D01*
X14535Y16050D01*
X14760D01*
X14835Y15975D01*
Y15825D01*
X14760Y15750D02*X14835Y15825D01*
X14535Y15750D02*X14760D01*
X14460Y15825D02*X14535Y15750D01*
X13500Y15424D02*X15015D01*
X9800Y16050D02*X10100Y16350D01*
X9800Y16050D02*X10175D01*
X10100Y16350D02*Y15750D01*
X9800Y15424D02*X10355D01*
X4500Y15825D02*X4575Y15750D01*
X4500Y16275D02*Y15825D01*
Y16275D02*X4575Y16350D01*
X4725D01*
X4800Y16275D01*
Y15825D01*
X4725Y15750D02*X4800Y15825D01*
X4575Y15750D02*X4725D01*
X4500Y15900D02*X4800Y16200D01*
X4980Y15750D02*X5055D01*
X5310D02*X5460D01*
X5385Y16350D02*Y15750D01*
X5235Y16200D02*X5385Y16350D01*
X5640Y16275D02*X5715Y16350D01*
X5940D01*
X6015Y16275D01*
Y16125D01*
X5640Y15750D02*X6015Y16125D01*
X5640Y15750D02*X6015D01*
X6195Y16350D02*X6495D01*
X6195D02*Y16050D01*
X6270Y16125D01*
X6420D01*
X6495Y16050D01*
Y15825D01*
X6420Y15750D02*X6495Y15825D01*
X6270Y15750D02*X6420D01*
X6195Y15825D02*X6270Y15750D01*
X4500Y15424D02*X6675D01*
X16970Y1650D02*G75*G03X17130Y1650I80J0D01*G01*
G75*G03X16970Y1650I-80J0D01*G01*
X21770D02*G75*G03X21930Y1650I80J0D01*G01*
G75*G03X21770Y1650I-80J0D01*G01*
X1420Y17625D02*G75*G03X1580Y17625I80J0D01*G01*
G75*G03X1420Y17625I-80J0D01*G01*
X14000Y17850D02*Y17250D01*
Y17850D02*Y17775D01*
X14375Y17400D01*
Y17850D02*Y17250D01*
X14555Y17775D02*Y17325D01*
Y17775D02*X14630Y17850D01*
X14780D01*
X14855Y17775D01*
Y17325D01*
X14780Y17250D02*X14855Y17325D01*
X14630Y17250D02*X14780D01*
X14555Y17325D02*X14630Y17250D01*
X14000Y16924D02*X15035D01*
X9800Y17775D02*X9875Y17850D01*
X10100D01*
X10175Y17775D01*
Y17625D01*
X9800Y17250D02*X10175Y17625D01*
X9800Y17250D02*X10175D01*
X9800Y16924D02*X10355D01*
X4500Y17325D02*X4575Y17250D01*
X4500Y17775D02*Y17325D01*
Y17775D02*X4575Y17850D01*
X4725D01*
X4800Y17775D01*
Y17325D01*
X4725Y17250D02*X4800Y17325D01*
X4575Y17250D02*X4725D01*
X4500Y17400D02*X4800Y17700D01*
X4980Y17250D02*X5055D01*
X5235Y17325D02*X5310Y17250D01*
X5235Y17775D02*Y17325D01*
Y17775D02*X5310Y17850D01*
X5460D01*
X5535Y17775D01*
Y17325D01*
X5460Y17250D02*X5535Y17325D01*
X5310Y17250D02*X5460D01*
X5235Y17400D02*X5535Y17700D01*
X5715Y17250D02*X6015Y17550D01*
Y17775D02*Y17550D01*
X5940Y17850D02*X6015Y17775D01*
X5790Y17850D02*X5940D01*
X5715Y17775D02*X5790Y17850D01*
X5715Y17775D02*Y17625D01*
X5790Y17550D01*
X6015D01*
X6195Y17325D02*X6270Y17250D01*
X6195Y17775D02*Y17325D01*
Y17775D02*X6270Y17850D01*
X6420D01*
X6495Y17775D01*
Y17325D01*
X6420Y17250D02*X6495Y17325D01*
X6270Y17250D02*X6420D01*
X6195Y17400D02*X6495Y17700D01*
X4500Y16924D02*X6675D01*
X15880Y6070D02*X16120Y5830D01*
X15880D02*X16120Y6070D01*
X16880D02*X17120Y5830D01*
X16880D02*X17120Y6070D01*
X17880D02*X18120Y5830D01*
X17880D02*X18120Y6070D01*
X18880D02*X19120Y5830D01*
X18880D02*X19120Y6070D01*
X19880D02*X20120Y5830D01*
X19880D02*X20120Y6070D01*
X20880D02*X21120Y5830D01*
X20880D02*X21120Y6070D01*
X11630Y7070D02*X11870Y6830D01*
X11630D02*X11870Y7070D01*
X11630Y6070D02*X11870Y5830D01*
X11630D02*X11870Y6070D01*
X11630Y5070D02*X11870Y4830D01*
X11630D02*X11870Y5070D01*
X11630Y4070D02*X11870Y3830D01*
X11630D02*X11870Y4070D01*
X6930Y12970D02*X7170Y12730D01*
X6930D02*X7170Y12970D01*
X7930D02*X8170Y12730D01*
X7930D02*X8170Y12970D01*
X8930D02*X9170Y12730D01*
X8930D02*X9170Y12970D01*
X9930D02*X10170Y12730D01*
X9930D02*X10170Y12970D01*
X10930D02*X11170Y12730D01*
X10930D02*X11170Y12970D01*
X14230Y1920D02*X14470Y1680D01*
X14230D02*X14470Y1920D01*
X3130Y2020D02*X3370Y1780D01*
X3130D02*X3370Y2020D01*
X20030Y13370D02*X20270Y13130D01*
X20030D02*X20270Y13370D01*
X21030D02*X21270Y13130D01*
X21030D02*X21270Y13370D01*
X20030Y12370D02*X20270Y12130D01*
X20030D02*X20270Y12370D01*
X21030D02*X21270Y12130D01*
X21030D02*X21270Y12370D01*
X20030Y11370D02*X20270Y11130D01*
X20030D02*X20270Y11370D01*
X21030D02*X21270Y11130D01*
X21030D02*X21270Y11370D01*
X20030Y10370D02*X20270Y10130D01*
X20030D02*X20270Y10370D01*
X21030D02*X21270Y10130D01*
X21030D02*X21270Y10370D01*
X20030Y9370D02*X20270Y9130D01*
X20030D02*X20270Y9370D01*
X21030D02*X21270Y9130D01*
X21030D02*X21270Y9370D01*
X20030Y8370D02*X20270Y8130D01*
X20030D02*X20270Y8370D01*
X21030D02*X21270Y8130D01*
X21030D02*X21270Y8370D01*
X20030Y7370D02*X20270Y7130D01*
X20030D02*X20270Y7370D01*
X21030D02*X21270Y7130D01*
X21030D02*X21270Y7370D01*
X1380Y19245D02*X1620Y19005D01*
X1380D02*X1620Y19245D01*
X13500Y19350D02*Y19275D01*
X13650Y19125D01*
X13800Y19275D01*
Y19350D02*Y19275D01*
X13650Y19125D02*Y18750D01*
X13980Y19050D02*X14205D01*
X13980Y18750D02*X14280D01*
X13980Y19350D02*Y18750D01*
Y19350D02*X14280D01*
X14760D02*X14835Y19275D01*
X14535Y19350D02*X14760D01*
X14460Y19275D02*X14535Y19350D01*
X14460Y19275D02*Y19125D01*
X14535Y19050D01*
X14760D01*
X14835Y18975D01*
Y18825D01*
X14760Y18750D02*X14835Y18825D01*
X14535Y18750D02*X14760D01*
X14460Y18825D02*X14535Y18750D01*
X13500Y18424D02*X15015D01*
X9800Y19275D02*X9875Y19350D01*
X10025D01*
X10100Y19275D01*
Y18825D01*
X10025Y18750D02*X10100Y18825D01*
X9875Y18750D02*X10025D01*
X9800Y18825D02*X9875Y18750D01*
Y19050D02*X10100D01*
X10355Y18750D02*X10505D01*
X10430Y19350D02*Y18750D01*
X10280Y19200D02*X10430Y19350D01*
X9800Y18424D02*X10685D01*
X4500Y18825D02*X4575Y18750D01*
X4500Y19275D02*Y18825D01*
Y19275D02*X4575Y19350D01*
X4725D01*
X4800Y19275D01*
Y18825D01*
X4725Y18750D02*X4800Y18825D01*
X4575Y18750D02*X4725D01*
X4500Y18900D02*X4800Y19200D01*
X4980Y18750D02*X5055D01*
X5235Y18825D02*X5310Y18750D01*
X5235Y19275D02*Y18825D01*
Y19275D02*X5310Y19350D01*
X5460D01*
X5535Y19275D01*
Y18825D01*
X5460Y18750D02*X5535Y18825D01*
X5310Y18750D02*X5460D01*
X5235Y18900D02*X5535Y19200D01*
X5715Y19275D02*X5790Y19350D01*
X5940D01*
X6015Y19275D01*
Y18825D01*
X5940Y18750D02*X6015Y18825D01*
X5790Y18750D02*X5940D01*
X5715Y18825D02*X5790Y18750D01*
Y19050D02*X6015D01*
X6195Y18825D02*X6270Y18750D01*
X6195Y18975D02*Y18825D01*
Y18975D02*X6270Y19050D01*
X6420D01*
X6495Y18975D01*
Y18825D01*
X6420Y18750D02*X6495Y18825D01*
X6270Y18750D02*X6420D01*
X6195Y19125D02*X6270Y19050D01*
X6195Y19275D02*Y19125D01*
Y19275D02*X6270Y19350D01*
X6420D01*
X6495Y19275D01*
Y19125D01*
X6420Y19050D02*X6495Y19125D01*
X4500Y18424D02*X6675D01*
X19950Y3710D02*Y3390D01*
X19790Y3550D02*X20110D01*
X18950Y3710D02*Y3390D01*
X18790Y3550D02*X19110D01*
X18950Y2910D02*Y2590D01*
X18790Y2750D02*X19110D01*
X19950Y2910D02*Y2590D01*
X19790Y2750D02*X20110D01*
X9350Y11210D02*Y10890D01*
X9190Y11050D02*X9510D01*
X9350Y9210D02*Y8890D01*
X9190Y9050D02*X9510D01*
X1500Y20785D02*Y20465D01*
X1340Y20625D02*X1660D01*
X13500Y20850D02*Y20775D01*
X13650Y20625D01*
X13800Y20775D01*
Y20850D02*Y20775D01*
X13650Y20625D02*Y20250D01*
X13980Y20550D02*X14205D01*
X13980Y20250D02*X14280D01*
X13980Y20850D02*Y20250D01*
Y20850D02*X14280D01*
X14760D02*X14835Y20775D01*
X14535Y20850D02*X14760D01*
X14460Y20775D02*X14535Y20850D01*
X14460Y20775D02*Y20625D01*
X14535Y20550D01*
X14760D01*
X14835Y20475D01*
Y20325D01*
X14760Y20250D02*X14835Y20325D01*
X14535Y20250D02*X14760D01*
X14460Y20325D02*X14535Y20250D01*
X13500Y19924D02*X15015D01*
X10025Y20850D02*X10100Y20775D01*
X9875Y20850D02*X10025D01*
X9800Y20775D02*X9875Y20850D01*
X9800Y20775D02*Y20325D01*
X9875Y20250D01*
X10025Y20550D02*X10100Y20475D01*
X9800Y20550D02*X10025D01*
X9875Y20250D02*X10025D01*
X10100Y20325D01*
Y20475D02*Y20325D01*
X9800Y19924D02*X10280D01*
X4500Y20325D02*X4575Y20250D01*
X4500Y20775D02*Y20325D01*
Y20775D02*X4575Y20850D01*
X4725D01*
X4800Y20775D01*
Y20325D01*
X4725Y20250D02*X4800Y20325D01*
X4575Y20250D02*X4725D01*
X4500Y20400D02*X4800Y20700D01*
X4980Y20250D02*X5055D01*
X5235Y20325D02*X5310Y20250D01*
X5235Y20775D02*Y20325D01*
Y20775D02*X5310Y20850D01*
X5460D01*
X5535Y20775D01*
Y20325D01*
X5460Y20250D02*X5535Y20325D01*
X5310Y20250D02*X5460D01*
X5235Y20400D02*X5535Y20700D01*
X5715Y20775D02*X5790Y20850D01*
X6015D01*
X6090Y20775D01*
Y20625D01*
X5715Y20250D02*X6090Y20625D01*
X5715Y20250D02*X6090D01*
X6270Y20325D02*X6345Y20250D01*
X6270Y20475D02*Y20325D01*
Y20475D02*X6345Y20550D01*
X6495D01*
X6570Y20475D01*
Y20325D01*
X6495Y20250D02*X6570Y20325D01*
X6345Y20250D02*X6495D01*
X6270Y20625D02*X6345Y20550D01*
X6270Y20775D02*Y20625D01*
Y20775D02*X6345Y20850D01*
X6495D01*
X6570Y20775D01*
Y20625D01*
X6495Y20550D02*X6570Y20625D01*
X4500Y19924D02*X6750D01*
X18650Y9200D02*Y9040D01*
Y9200D02*X18788Y9280D01*
X18650Y9200D02*X18511Y9280D01*
X18650Y9700D02*Y9540D01*
Y9700D02*X18788Y9780D01*
X18650Y9700D02*X18511Y9780D01*
X2350Y6850D02*Y6690D01*
Y6850D02*X2488Y6930D01*
X2350Y6850D02*X2211Y6930D01*
X2350Y6350D02*Y6190D01*
Y6350D02*X2488Y6430D01*
X2350Y6350D02*X2211Y6430D01*
X2350Y5850D02*Y5690D01*
Y5850D02*X2488Y5930D01*
X2350Y5850D02*X2211Y5930D01*
X2350Y5350D02*Y5190D01*
Y5350D02*X2488Y5430D01*
X2350Y5350D02*X2211Y5430D01*
X2350Y4850D02*Y4690D01*
Y4850D02*X2488Y4930D01*
X2350Y4850D02*X2211Y4930D01*
X2350Y4350D02*Y4190D01*
Y4350D02*X2488Y4430D01*
X2350Y4350D02*X2211Y4430D01*
X2350Y3850D02*Y3690D01*
Y3850D02*X2488Y3930D01*
X2350Y3850D02*X2211Y3930D01*
X2350Y3350D02*Y3190D01*
Y3350D02*X2488Y3430D01*
X2350Y3350D02*X2211Y3430D01*
X14380Y4200D02*Y4040D01*
Y4200D02*X14518Y4280D01*
X14380Y4200D02*X14241Y4280D01*
X4680Y2600D02*Y2440D01*
Y2600D02*X4818Y2680D01*
X4680Y2600D02*X4541Y2680D01*
X14150Y10550D02*Y10390D01*
Y10550D02*X14288Y10630D01*
X14150Y10550D02*X14011Y10630D01*
X3740Y4620D02*Y4460D01*
Y4620D02*X3878Y4700D01*
X3740Y4620D02*X3601Y4700D01*
X5035Y4500D02*Y4340D01*
Y4500D02*X5173Y4580D01*
X5035Y4500D02*X4896Y4580D01*
X15140Y13600D02*Y13440D01*
Y13600D02*X15278Y13680D01*
X15140Y13600D02*X15001Y13680D01*
X7759Y6480D02*Y6320D01*
Y6480D02*X7898Y6560D01*
X7759Y6480D02*X7621Y6560D01*
X13240Y7320D02*Y7160D01*
Y7320D02*X13378Y7400D01*
X13240Y7320D02*X13101Y7400D01*
X17428Y4000D02*Y3840D01*
Y4000D02*X17567Y4080D01*
X17428Y4000D02*X17290Y4080D01*
X13345Y3490D02*Y3330D01*
Y3490D02*X13483Y3570D01*
X13345Y3490D02*X13206Y3570D01*
X13345Y5059D02*Y4899D01*
Y5059D02*X13483Y5139D01*
X13345Y5059D02*X13206Y5139D01*
X12940Y2000D02*Y1840D01*
Y2000D02*X13078Y2080D01*
X12940Y2000D02*X12801Y2080D01*
X12550Y3530D02*Y3370D01*
Y3530D02*X12688Y3610D01*
X12550Y3530D02*X12411Y3610D01*
X15840Y2110D02*Y1950D01*
Y2110D02*X15978Y2190D01*
X15840Y2110D02*X15701Y2190D01*
X4160Y8000D02*Y7840D01*
Y8000D02*X4298Y8080D01*
X4160Y8000D02*X4021Y8080D01*
X1830Y8000D02*Y7840D01*
Y8000D02*X1968Y8080D01*
X1830Y8000D02*X1691Y8080D01*
X3610Y7185D02*Y7025D01*
Y7185D02*X3748Y7265D01*
X3610Y7185D02*X3471Y7265D01*
X5030Y13180D02*Y13020D01*
Y13180D02*X5168Y13260D01*
X5030Y13180D02*X4891Y13260D01*
X13817Y12264D02*Y12104D01*
Y12264D02*X13956Y12344D01*
X13817Y12264D02*X13678Y12344D01*
X5055Y10360D02*Y10200D01*
Y10360D02*X5194Y10440D01*
X5055Y10360D02*X4916Y10440D01*
X14525Y5519D02*Y5359D01*
Y5519D02*X14663Y5599D01*
X14525Y5519D02*X14386Y5599D01*
X10202Y9929D02*Y9769D01*
Y9929D02*X10341Y10009D01*
X10202Y9929D02*X10063Y10009D01*
X3250Y6670D02*Y6510D01*
Y6670D02*X3388Y6750D01*
X3250Y6670D02*X3111Y6750D01*
X5760Y4320D02*Y4160D01*
Y4320D02*X5898Y4400D01*
X5760Y4320D02*X5621Y4400D01*
X6490Y8893D02*Y8733D01*
Y8893D02*X6628Y8973D01*
X6490Y8893D02*X6351Y8973D01*
X11010Y8475D02*Y8315D01*
Y8475D02*X11148Y8555D01*
X11010Y8475D02*X10871Y8555D01*
X11010Y5370D02*Y5210D01*
Y5370D02*X11148Y5450D01*
X11010Y5370D02*X10871Y5450D01*
X5900Y2960D02*Y2800D01*
Y2960D02*X6038Y3040D01*
X5900Y2960D02*X5761Y3040D01*
X6710Y6419D02*Y6259D01*
Y6419D02*X6848Y6499D01*
X6710Y6419D02*X6571Y6499D01*
X4320Y6679D02*Y6519D01*
Y6679D02*X4458Y6759D01*
X4320Y6679D02*X4181Y6759D01*
X5180Y7005D02*Y6845D01*
Y7005D02*X5318Y7085D01*
X5180Y7005D02*X5041Y7085D01*
X11605Y11340D02*Y11180D01*
Y11340D02*X11743Y11420D01*
X11605Y11340D02*X11466Y11420D01*
X5886Y11461D02*Y11301D01*
Y11461D02*X6024Y11541D01*
X5886Y11461D02*X5747Y11541D01*
X5650Y7330D02*Y7170D01*
Y7330D02*X5788Y7410D01*
X5650Y7330D02*X5511Y7410D01*
X14180Y9785D02*Y9625D01*
Y9785D02*X14318Y9865D01*
X14180Y9785D02*X14041Y9865D01*
X19326Y10905D02*Y10745D01*
Y10905D02*X19465Y10985D01*
X19326Y10905D02*X19188Y10985D01*
X16465Y12264D02*Y12104D01*
Y12264D02*X16603Y12344D01*
X16465Y12264D02*X16326Y12344D01*
X16705Y11015D02*Y10855D01*
Y11015D02*X16843Y11095D01*
X16705Y11015D02*X16566Y11095D01*
X19410Y9193D02*Y9033D01*
Y9193D02*X19548Y9273D01*
X19410Y9193D02*X19271Y9273D01*
X16705Y11670D02*Y11510D01*
Y11670D02*X16843Y11750D01*
X16705Y11670D02*X16566Y11750D01*
X21957Y12669D02*Y12509D01*
Y12669D02*X22096Y12749D01*
X21957Y12669D02*X21819Y12749D01*
X18097Y10170D02*Y10010D01*
Y10170D02*X18236Y10250D01*
X18097Y10170D02*X17958Y10250D01*
X9680Y10314D02*Y10154D01*
Y10314D02*X9818Y10394D01*
X9680Y10314D02*X9541Y10394D01*
X12565Y6810D02*Y6650D01*
Y6810D02*X12703Y6890D01*
X12565Y6810D02*X12426Y6890D01*
X5269Y8731D02*Y8571D01*
Y8731D02*X5408Y8811D01*
X5269Y8731D02*X5131Y8811D01*
X10550Y7180D02*Y7020D01*
Y7180D02*X10688Y7260D01*
X10550Y7180D02*X10411Y7260D01*
X14100Y4739D02*Y4579D01*
Y4739D02*X14238Y4819D01*
X14100Y4739D02*X13961Y4819D01*
X15250Y4739D02*Y4579D01*
Y4739D02*X15388Y4819D01*
X15250Y4739D02*X15111Y4819D01*
X12245Y8475D02*Y8315D01*
Y8475D02*X12383Y8555D01*
X12245Y8475D02*X12106Y8555D01*
X7160Y9680D02*Y9520D01*
Y9680D02*X7298Y9760D01*
X7160Y9680D02*X7021Y9760D01*
X1500Y22125D02*Y21965D01*
Y22125D02*X1638Y22205D01*
X1500Y22125D02*X1361Y22205D01*
X13500Y22350D02*Y22275D01*
X13650Y22125D01*
X13800Y22275D01*
Y22350D02*Y22275D01*
X13650Y22125D02*Y21750D01*
X13980Y22050D02*X14205D01*
X13980Y21750D02*X14280D01*
X13980Y22350D02*Y21750D01*
Y22350D02*X14280D01*
X14760D02*X14835Y22275D01*
X14535Y22350D02*X14760D01*
X14460Y22275D02*X14535Y22350D01*
X14460Y22275D02*Y22125D01*
X14535Y22050D01*
X14760D01*
X14835Y21975D01*
Y21825D01*
X14760Y21750D02*X14835Y21825D01*
X14535Y21750D02*X14760D01*
X14460Y21825D02*X14535Y21750D01*
X13500Y21424D02*X15015D01*
X10025Y22350D02*X10100Y22275D01*
X9875Y22350D02*X10025D01*
X9800Y22275D02*X9875Y22350D01*
X9800Y22275D02*Y21825D01*
X9875Y21750D01*
X10025Y22050D02*X10100Y21975D01*
X9800Y22050D02*X10025D01*
X9875Y21750D02*X10025D01*
X10100Y21825D01*
Y21975D02*Y21825D01*
X10280D02*X10355Y21750D01*
X10280Y22275D02*Y21825D01*
Y22275D02*X10355Y22350D01*
X10505D01*
X10580Y22275D01*
Y21825D01*
X10505Y21750D02*X10580Y21825D01*
X10355Y21750D02*X10505D01*
X10280Y21900D02*X10580Y22200D01*
X9800Y21424D02*X10760D01*
X4500Y21825D02*X4575Y21750D01*
X4500Y22275D02*Y21825D01*
Y22275D02*X4575Y22350D01*
X4725D01*
X4800Y22275D01*
Y21825D01*
X4725Y21750D02*X4800Y21825D01*
X4575Y21750D02*X4725D01*
X4500Y21900D02*X4800Y22200D01*
X4980Y21750D02*X5055D01*
X5235Y21825D02*X5310Y21750D01*
X5235Y22275D02*Y21825D01*
Y22275D02*X5310Y22350D01*
X5460D01*
X5535Y22275D01*
Y21825D01*
X5460Y21750D02*X5535Y21825D01*
X5310Y21750D02*X5460D01*
X5235Y21900D02*X5535Y22200D01*
X5715Y22275D02*X5790Y22350D01*
X6015D01*
X6090Y22275D01*
Y22125D01*
X5715Y21750D02*X6090Y22125D01*
X5715Y21750D02*X6090D01*
X6270Y21825D02*X6345Y21750D01*
X6270Y22275D02*Y21825D01*
Y22275D02*X6345Y22350D01*
X6495D01*
X6570Y22275D01*
Y21825D01*
X6495Y21750D02*X6570Y21825D01*
X6345Y21750D02*X6495D01*
X6270Y21900D02*X6570Y22200D01*
X4500Y21424D02*X6750D01*
X300Y23850D02*X375Y23775D01*
X75Y23850D02*X300D01*
X0Y23775D02*X75Y23850D01*
X0Y23775D02*Y23625D01*
X75Y23550D01*
X300D01*
X375Y23475D01*
Y23325D01*
X300Y23250D02*X375Y23325D01*
X75Y23250D02*X300D01*
X0Y23325D02*X75Y23250D01*
X555Y23550D02*Y23325D01*
X630Y23250D01*
X855Y23550D02*Y23100D01*
X780Y23025D02*X855Y23100D01*
X630Y23025D02*X780D01*
X555Y23100D02*X630Y23025D01*
Y23250D02*X780D01*
X855Y23325D01*
X1110Y23475D02*Y23250D01*
Y23475D02*X1185Y23550D01*
X1260D01*
X1335Y23475D01*
Y23250D01*
Y23475D02*X1410Y23550D01*
X1485D01*
X1560Y23475D01*
Y23250D01*
X1035Y23550D02*X1110Y23475D01*
X1740Y23850D02*Y23250D01*
Y23325D02*X1815Y23250D01*
X1965D01*
X2040Y23325D01*
Y23475D02*Y23325D01*
X1965Y23550D02*X2040Y23475D01*
X1815Y23550D02*X1965D01*
X1740Y23475D02*X1815Y23550D01*
X2220Y23475D02*Y23325D01*
Y23475D02*X2295Y23550D01*
X2445D01*
X2520Y23475D01*
Y23325D01*
X2445Y23250D02*X2520Y23325D01*
X2295Y23250D02*X2445D01*
X2220Y23325D02*X2295Y23250D01*
X2700Y23850D02*Y23325D01*
X2775Y23250D01*
X4175Y23850D02*Y23250D01*
X4400Y23850D02*X4475Y23775D01*
Y23325D01*
X4400Y23250D02*X4475Y23325D01*
X4100Y23250D02*X4400D01*
X4100Y23850D02*X4400D01*
X4655Y23700D02*Y23625D01*
Y23475D02*Y23250D01*
X5030Y23550D02*X5105Y23475D01*
X4880Y23550D02*X5030D01*
X4805Y23475D02*X4880Y23550D01*
X4805Y23475D02*Y23325D01*
X4880Y23250D01*
X5105Y23550D02*Y23325D01*
X5180Y23250D01*
X4880D02*X5030D01*
X5105Y23325D01*
X5435Y23475D02*Y23250D01*
Y23475D02*X5510Y23550D01*
X5585D01*
X5660Y23475D01*
Y23250D01*
Y23475D02*X5735Y23550D01*
X5810D01*
X5885Y23475D01*
Y23250D01*
X5360Y23550D02*X5435Y23475D01*
X6065Y23250D02*X6140D01*
X6590Y23325D02*X6665Y23250D01*
X6590Y23775D02*X6665Y23850D01*
X6590Y23775D02*Y23325D01*
X6845Y23850D02*X6995D01*
X6920D02*Y23250D01*
X6845D02*X6995D01*
X7251Y23475D02*Y23250D01*
Y23475D02*X7326Y23550D01*
X7401D01*
X7476Y23475D01*
Y23250D01*
X7176Y23550D02*X7251Y23475D01*
X7731Y23550D02*X7956D01*
X7656Y23475D02*X7731Y23550D01*
X7656Y23475D02*Y23325D01*
X7731Y23250D01*
X7956D01*
X8136Y23850D02*Y23250D01*
Y23475D02*X8211Y23550D01*
X8361D01*
X8436Y23475D01*
Y23250D01*
X8616Y23850D02*X8691Y23775D01*
Y23325D01*
X8616Y23250D02*X8691Y23325D01*
X9575Y23250D02*X9800D01*
X9500Y23325D02*X9575Y23250D01*
X9500Y23775D02*Y23325D01*
Y23775D02*X9575Y23850D01*
X9800D01*
X9980Y23475D02*Y23325D01*
Y23475D02*X10055Y23550D01*
X10205D01*
X10280Y23475D01*
Y23325D01*
X10205Y23250D02*X10280Y23325D01*
X10055Y23250D02*X10205D01*
X9980Y23325D02*X10055Y23250D01*
X10460Y23550D02*Y23325D01*
X10535Y23250D01*
X10685D01*
X10760Y23325D01*
Y23550D02*Y23325D01*
X11015Y23475D02*Y23250D01*
Y23475D02*X11090Y23550D01*
X11165D01*
X11240Y23475D01*
Y23250D01*
X10940Y23550D02*X11015Y23475D01*
X11495Y23850D02*Y23325D01*
X11570Y23250D01*
X11420Y23625D02*X11570D01*
X13075Y23850D02*Y23250D01*
X13000Y23850D02*X13300D01*
X13375Y23775D01*
Y23625D01*
X13300Y23550D02*X13375Y23625D01*
X13075Y23550D02*X13300D01*
X13555Y23850D02*Y23325D01*
X13630Y23250D01*
X14005Y23550D02*X14080Y23475D01*
X13855Y23550D02*X14005D01*
X13780Y23475D02*X13855Y23550D01*
X13780Y23475D02*Y23325D01*
X13855Y23250D01*
X14080Y23550D02*Y23325D01*
X14155Y23250D01*
X13855D02*X14005D01*
X14080Y23325D01*
X14410Y23850D02*Y23325D01*
X14485Y23250D01*
X14335Y23625D02*X14485D01*
X14710Y23250D02*X14935D01*
X14635Y23325D02*X14710Y23250D01*
X14635Y23475D02*Y23325D01*
Y23475D02*X14710Y23550D01*
X14860D01*
X14935Y23475D01*
X14635Y23400D02*X14935D01*
Y23475D02*Y23400D01*
X15415Y23850D02*Y23250D01*
X15340D02*X15415Y23325D01*
X15190Y23250D02*X15340D01*
X15115Y23325D02*X15190Y23250D01*
X15115Y23475D02*Y23325D01*
Y23475D02*X15190Y23550D01*
X15340D01*
X15415Y23475D01*
X15745Y23550D02*Y23475D01*
Y23325D02*Y23250D01*
X15595Y23775D02*Y23700D01*
Y23775D02*X15670Y23850D01*
X15820D01*
X15895Y23775D01*
Y23700D01*
X15745Y23550D02*X15895Y23700D01*
X0Y25350D02*X300D01*
X150D02*Y24750D01*
X480Y25350D02*Y24750D01*
Y24975D02*X555Y25050D01*
X705D01*
X780Y24975D01*
Y24750D01*
X1035D02*X1260D01*
X960Y24825D02*X1035Y24750D01*
X960Y24975D02*Y24825D01*
Y24975D02*X1035Y25050D01*
X1185D01*
X1260Y24975D01*
X960Y24900D02*X1260D01*
Y24975D02*Y24900D01*
X1515Y24975D02*Y24750D01*
Y24975D02*X1590Y25050D01*
X1740D01*
X1440D02*X1515Y24975D01*
X1995Y24750D02*X2220D01*
X1920Y24825D02*X1995Y24750D01*
X1920Y24975D02*Y24825D01*
Y24975D02*X1995Y25050D01*
X2145D01*
X2220Y24975D01*
X1920Y24900D02*X2220D01*
Y24975D02*Y24900D01*
X2895Y25050D02*X2970Y24975D01*
X2745Y25050D02*X2895D01*
X2670Y24975D02*X2745Y25050D01*
X2670Y24975D02*Y24825D01*
X2745Y24750D01*
X2970Y25050D02*Y24825D01*
X3045Y24750D01*
X2745D02*X2895D01*
X2970Y24825D01*
X3300Y24975D02*Y24750D01*
Y24975D02*X3375Y25050D01*
X3525D01*
X3225D02*X3300Y24975D01*
X3781Y24750D02*X4006D01*
X3706Y24825D02*X3781Y24750D01*
X3706Y24975D02*Y24825D01*
Y24975D02*X3781Y25050D01*
X3931D01*
X4006Y24975D01*
X3706Y24900D02*X4006D01*
Y24975D02*Y24900D01*
X4456Y25350D02*X4756D01*
X4456D02*Y25050D01*
X4531Y25125D01*
X4681D01*
X4756Y25050D01*
Y24825D01*
X4681Y24750D02*X4756Y24825D01*
X4531Y24750D02*X4681D01*
X4456Y24825D02*X4531Y24750D01*
X5506Y25350D02*Y24750D01*
X5431D02*X5506Y24825D01*
X5281Y24750D02*X5431D01*
X5206Y24825D02*X5281Y24750D01*
X5206Y24975D02*Y24825D01*
Y24975D02*X5281Y25050D01*
X5431D01*
X5506Y24975D01*
X5686Y25200D02*Y25125D01*
Y24975D02*Y24750D01*
X5911Y25275D02*Y24750D01*
Y25275D02*X5986Y25350D01*
X6061D01*
X5836Y25050D02*X5986D01*
X6286Y25275D02*Y24750D01*
Y25275D02*X6361Y25350D01*
X6436D01*
X6211Y25050D02*X6361D01*
X6661Y24750D02*X6886D01*
X6586Y24825D02*X6661Y24750D01*
X6586Y24975D02*Y24825D01*
Y24975D02*X6661Y25050D01*
X6811D01*
X6886Y24975D01*
X6586Y24900D02*X6886D01*
Y24975D02*Y24900D01*
X7142Y24975D02*Y24750D01*
Y24975D02*X7217Y25050D01*
X7367D01*
X7067D02*X7142Y24975D01*
X7622Y24750D02*X7847D01*
X7547Y24825D02*X7622Y24750D01*
X7547Y24975D02*Y24825D01*
Y24975D02*X7622Y25050D01*
X7772D01*
X7847Y24975D01*
X7547Y24900D02*X7847D01*
Y24975D02*Y24900D01*
X8102Y24975D02*Y24750D01*
Y24975D02*X8177Y25050D01*
X8252D01*
X8327Y24975D01*
Y24750D01*
X8027Y25050D02*X8102Y24975D01*
X8582Y25350D02*Y24825D01*
X8657Y24750D01*
X8507Y25125D02*X8657D01*
X9377Y25350D02*Y24750D01*
X9302D02*X9377Y24825D01*
X9152Y24750D02*X9302D01*
X9077Y24825D02*X9152Y24750D01*
X9077Y24975D02*Y24825D01*
Y24975D02*X9152Y25050D01*
X9302D01*
X9377Y24975D01*
X9632D02*Y24750D01*
Y24975D02*X9707Y25050D01*
X9857D01*
X9557D02*X9632Y24975D01*
X10038Y25200D02*Y25125D01*
Y24975D02*Y24750D01*
X10188Y25350D02*Y24825D01*
X10263Y24750D01*
X10413Y25350D02*Y24825D01*
X10488Y24750D01*
X10983D02*X11208D01*
X11283Y24825D01*
X11208Y24900D02*X11283Y24825D01*
X10983Y24900D02*X11208D01*
X10908Y24975D02*X10983Y24900D01*
X10908Y24975D02*X10983Y25050D01*
X11208D01*
X11283Y24975D01*
X10908Y24825D02*X10983Y24750D01*
X11463Y25200D02*Y25125D01*
Y24975D02*Y24750D01*
X11613Y25050D02*X11913D01*
X11613Y24750D02*X11913Y25050D01*
X11613Y24750D02*X11913D01*
X12168D02*X12393D01*
X12093Y24825D02*X12168Y24750D01*
X12093Y24975D02*Y24825D01*
Y24975D02*X12168Y25050D01*
X12318D01*
X12393Y24975D01*
X12093Y24900D02*X12393D01*
Y24975D02*Y24900D01*
X12649Y24750D02*X12874D01*
X12949Y24825D01*
X12874Y24900D02*X12949Y24825D01*
X12649Y24900D02*X12874D01*
X12574Y24975D02*X12649Y24900D01*
X12574Y24975D02*X12649Y25050D01*
X12874D01*
X12949Y24975D01*
X12574Y24825D02*X12649Y24750D01*
X13399Y25050D02*Y24825D01*
X13474Y24750D01*
X13624D01*
X13699Y24825D01*
Y25050D02*Y24825D01*
X13954Y24750D02*X14179D01*
X14254Y24825D01*
X14179Y24900D02*X14254Y24825D01*
X13954Y24900D02*X14179D01*
X13879Y24975D02*X13954Y24900D01*
X13879Y24975D02*X13954Y25050D01*
X14179D01*
X14254Y24975D01*
X13879Y24825D02*X13954Y24750D01*
X14509D02*X14734D01*
X14434Y24825D02*X14509Y24750D01*
X14434Y24975D02*Y24825D01*
Y24975D02*X14509Y25050D01*
X14659D01*
X14734Y24975D01*
X14434Y24900D02*X14734D01*
Y24975D02*Y24900D01*
X15214Y25350D02*Y24750D01*
X15139D02*X15214Y24825D01*
X14989Y24750D02*X15139D01*
X14914Y24825D02*X14989Y24750D01*
X14914Y24975D02*Y24825D01*
Y24975D02*X14989Y25050D01*
X15139D01*
X15214Y24975D01*
X15664Y25200D02*Y25125D01*
Y24975D02*Y24750D01*
X15889Y24975D02*Y24750D01*
Y24975D02*X15964Y25050D01*
X16039D01*
X16114Y24975D01*
Y24750D01*
X15814Y25050D02*X15889Y24975D01*
X16640Y25350D02*Y24825D01*
X16715Y24750D01*
X16565Y25125D02*X16715D01*
X16865Y25350D02*Y24750D01*
Y24975D02*X16940Y25050D01*
X17090D01*
X17165Y24975D01*
Y24750D01*
X17345Y25200D02*Y25125D01*
Y24975D02*Y24750D01*
X17570D02*X17795D01*
X17870Y24825D01*
X17795Y24900D02*X17870Y24825D01*
X17570Y24900D02*X17795D01*
X17495Y24975D02*X17570Y24900D01*
X17495Y24975D02*X17570Y25050D01*
X17795D01*
X17870Y24975D01*
X17495Y24825D02*X17570Y24750D01*
X18320Y25350D02*Y24825D01*
X18395Y24750D01*
X18770Y25050D02*X18845Y24975D01*
X18620Y25050D02*X18770D01*
X18545Y24975D02*X18620Y25050D01*
X18545Y24975D02*Y24825D01*
X18620Y24750D01*
X18845Y25050D02*Y24825D01*
X18920Y24750D01*
X18620D02*X18770D01*
X18845Y24825D01*
X19101Y25050D02*Y24825D01*
X19176Y24750D01*
X19401Y25050D02*Y24600D01*
X19326Y24525D02*X19401Y24600D01*
X19176Y24525D02*X19326D01*
X19101Y24600D02*X19176Y24525D01*
Y24750D02*X19326D01*
X19401Y24825D01*
X19581Y24975D02*Y24825D01*
Y24975D02*X19656Y25050D01*
X19806D01*
X19881Y24975D01*
Y24825D01*
X19806Y24750D02*X19881Y24825D01*
X19656Y24750D02*X19806D01*
X19581Y24825D02*X19656Y24750D01*
X20061Y25050D02*Y24825D01*
X20136Y24750D01*
X20286D01*
X20361Y24825D01*
Y25050D02*Y24825D01*
X20616Y25350D02*Y24825D01*
X20691Y24750D01*
X20541Y25125D02*X20691D01*
X20841Y24600D02*X20991Y24750D01*
X21516D02*X21666D01*
X21591Y25350D02*Y24750D01*
X21441Y25200D02*X21591Y25350D01*
X21846Y24825D02*X21921Y24750D01*
X21846Y25275D02*Y24825D01*
Y25275D02*X21921Y25350D01*
X22071D01*
X22146Y25275D01*
Y24825D01*
X22071Y24750D02*X22146Y24825D01*
X21921Y24750D02*X22071D01*
X21846Y24900D02*X22146Y25200D01*
X22327Y25275D02*X22402Y25350D01*
X22552D01*
X22627Y25275D01*
Y24825D01*
X22552Y24750D02*X22627Y24825D01*
X22402Y24750D02*X22552D01*
X22327Y24825D02*X22402Y24750D01*
Y25050D02*X22627D01*
X23077Y25350D02*Y24750D01*
Y24975D02*X23152Y25050D01*
X23302D01*
X23377Y24975D01*
Y24750D01*
X23557Y24975D02*Y24825D01*
Y24975D02*X23632Y25050D01*
X23782D01*
X23857Y24975D01*
Y24825D01*
X23782Y24750D02*X23857Y24825D01*
X23632Y24750D02*X23782D01*
X23557Y24825D02*X23632Y24750D01*
X24037Y25350D02*Y24825D01*
X24112Y24750D01*
X24337D02*X24562D01*
X24262Y24825D02*X24337Y24750D01*
X24262Y24975D02*Y24825D01*
Y24975D02*X24337Y25050D01*
X24487D01*
X24562Y24975D01*
X24262Y24900D02*X24562D01*
Y24975D02*Y24900D01*
X24817Y24750D02*X25042D01*
X25117Y24825D01*
X25042Y24900D02*X25117Y24825D01*
X24817Y24900D02*X25042D01*
X24742Y24975D02*X24817Y24900D01*
X24742Y24975D02*X24817Y25050D01*
X25042D01*
X25117Y24975D01*
X24742Y24825D02*X24817Y24750D01*
X25642Y25350D02*Y24825D01*
X25717Y24750D01*
X25567Y25125D02*X25717D01*
X25868Y24975D02*Y24825D01*
Y24975D02*X25943Y25050D01*
X26093D01*
X26168Y24975D01*
Y24825D01*
X26093Y24750D02*X26168Y24825D01*
X25943Y24750D02*X26093D01*
X25868Y24825D02*X25943Y24750D01*
X26423Y25350D02*Y24825D01*
X26498Y24750D01*
X26348Y25125D02*X26498D01*
X26873Y25050D02*X26948Y24975D01*
X26723Y25050D02*X26873D01*
X26648Y24975D02*X26723Y25050D01*
X26648Y24975D02*Y24825D01*
X26723Y24750D01*
X26948Y25050D02*Y24825D01*
X27023Y24750D01*
X26723D02*X26873D01*
X26948Y24825D01*
X27203Y25350D02*Y24825D01*
X27278Y24750D01*
X0Y15000D02*X25000D01*
X0D02*Y0D01*
X25000Y15000D02*Y0D01*
X0D02*X25000D01*
X20000Y16350D02*Y15750D01*
Y16350D02*X20225Y16125D01*
X20450Y16350D01*
Y15750D01*
X20855Y16050D02*X20930Y15975D01*
X20705Y16050D02*X20855D01*
X20630Y15975D02*X20705Y16050D01*
X20630Y15975D02*Y15825D01*
X20705Y15750D01*
X20930Y16050D02*Y15825D01*
X21005Y15750D01*
X20705D02*X20855D01*
X20930Y15825D01*
X21185Y16050D02*X21485Y15750D01*
X21185D02*X21485Y16050D01*
X21665Y16200D02*Y16125D01*
Y15975D02*Y15750D01*
X21890Y15975D02*Y15750D01*
Y15975D02*X21965Y16050D01*
X22040D01*
X22115Y15975D01*
Y15750D01*
Y15975D02*X22190Y16050D01*
X22265D01*
X22340Y15975D01*
Y15750D01*
X21815Y16050D02*X21890Y15975D01*
X22520Y16050D02*Y15825D01*
X22595Y15750D01*
X22745D01*
X22820Y15825D01*
Y16050D02*Y15825D01*
X23075Y15975D02*Y15750D01*
Y15975D02*X23150Y16050D01*
X23225D01*
X23300Y15975D01*
Y15750D01*
Y15975D02*X23375Y16050D01*
X23450D01*
X23525Y15975D01*
Y15750D01*
X23000Y16050D02*X23075Y15975D01*
X24051Y16350D02*Y15750D01*
X24276Y16350D02*X24351Y16275D01*
Y15825D01*
X24276Y15750D02*X24351Y15825D01*
X23976Y15750D02*X24276D01*
X23976Y16350D02*X24276D01*
X24531Y16200D02*Y16125D01*
Y15975D02*Y15750D01*
X24756Y15975D02*Y15750D01*
Y15975D02*X24831Y16050D01*
X24906D01*
X24981Y15975D01*
Y15750D01*
Y15975D02*X25056Y16050D01*
X25131D01*
X25206Y15975D01*
Y15750D01*
X24681Y16050D02*X24756Y15975D01*
X25461Y15750D02*X25686D01*
X25386Y15825D02*X25461Y15750D01*
X25386Y15975D02*Y15825D01*
Y15975D02*X25461Y16050D01*
X25611D01*
X25686Y15975D01*
X25386Y15900D02*X25686D01*
Y15975D02*Y15900D01*
X25941Y15975D02*Y15750D01*
Y15975D02*X26016Y16050D01*
X26091D01*
X26166Y15975D01*
Y15750D01*
X25866Y16050D02*X25941Y15975D01*
X26421Y15750D02*X26646D01*
X26721Y15825D01*
X26646Y15900D02*X26721Y15825D01*
X26421Y15900D02*X26646D01*
X26346Y15975D02*X26421Y15900D01*
X26346Y15975D02*X26421Y16050D01*
X26646D01*
X26721Y15975D01*
X26346Y15825D02*X26421Y15750D01*
X26901Y16200D02*Y16125D01*
Y15975D02*Y15750D01*
X27052Y15975D02*Y15825D01*
Y15975D02*X27127Y16050D01*
X27277D01*
X27352Y15975D01*
Y15825D01*
X27277Y15750D02*X27352Y15825D01*
X27127Y15750D02*X27277D01*
X27052Y15825D02*X27127Y15750D01*
X27607Y15975D02*Y15750D01*
Y15975D02*X27682Y16050D01*
X27757D01*
X27832Y15975D01*
Y15750D01*
X27532Y16050D02*X27607Y15975D01*
X28087Y15750D02*X28312D01*
X28387Y15825D01*
X28312Y15900D02*X28387Y15825D01*
X28087Y15900D02*X28312D01*
X28012Y15975D02*X28087Y15900D01*
X28012Y15975D02*X28087Y16050D01*
X28312D01*
X28387Y15975D01*
X28012Y15825D02*X28087Y15750D01*
X28567Y16125D02*X28642D01*
X28567Y15975D02*X28642D01*
X29092Y16275D02*X29167Y16350D01*
X29392D01*
X29467Y16275D01*
Y16125D01*
X29092Y15750D02*X29467Y16125D01*
X29092Y15750D02*X29467D01*
X29647Y16350D02*X29947D01*
X29647D02*Y16050D01*
X29722Y16125D01*
X29872D01*
X29947Y16050D01*
Y15825D01*
X29872Y15750D02*X29947Y15825D01*
X29722Y15750D02*X29872D01*
X29647Y15825D02*X29722Y15750D01*
X30128Y15825D02*X30203Y15750D01*
X30128Y16275D02*Y15825D01*
Y16275D02*X30203Y16350D01*
X30353D01*
X30428Y16275D01*
Y15825D01*
X30353Y15750D02*X30428Y15825D01*
X30203Y15750D02*X30353D01*
X30128Y15900D02*X30428Y16200D01*
X30608Y15825D02*X30683Y15750D01*
X30608Y16275D02*Y15825D01*
Y16275D02*X30683Y16350D01*
X30833D01*
X30908Y16275D01*
Y15825D01*
X30833Y15750D02*X30908Y15825D01*
X30683Y15750D02*X30833D01*
X30608Y15900D02*X30908Y16200D01*
X31433Y15975D02*Y15750D01*
Y15975D02*X31508Y16050D01*
X31583D01*
X31658Y15975D01*
Y15750D01*
Y15975D02*X31733Y16050D01*
X31808D01*
X31883Y15975D01*
Y15750D01*
X31358Y16050D02*X31433Y15975D01*
X32063Y16200D02*Y16125D01*
Y15975D02*Y15750D01*
X32213Y16350D02*Y15825D01*
X32288Y15750D01*
X32513D02*X32738D01*
X32813Y15825D01*
X32738Y15900D02*X32813Y15825D01*
X32513Y15900D02*X32738D01*
X32438Y15975D02*X32513Y15900D01*
X32438Y15975D02*X32513Y16050D01*
X32738D01*
X32813Y15975D01*
X32438Y15825D02*X32513Y15750D01*
X33263Y16050D02*Y15825D01*
X33338Y15750D01*
X33413D01*
X33488Y15825D01*
Y16050D02*Y15825D01*
X33563Y15750D01*
X33638D01*
X33713Y15825D01*
Y16050D02*Y15825D01*
X33894Y16200D02*Y16125D01*
Y15975D02*Y15750D01*
X34344Y16350D02*Y15750D01*
X34269D02*X34344Y15825D01*
X34119Y15750D02*X34269D01*
X34044Y15825D02*X34119Y15750D01*
X34044Y15975D02*Y15825D01*
Y15975D02*X34119Y16050D01*
X34269D01*
X34344Y15975D01*
X34599Y15750D02*X34824D01*
X34524Y15825D02*X34599Y15750D01*
X34524Y15975D02*Y15825D01*
Y15975D02*X34599Y16050D01*
X34749D01*
X34824Y15975D01*
X34524Y15900D02*X34824D01*
Y15975D02*Y15900D01*
X35004Y15600D02*X35154Y15750D01*
X35679D02*X35829D01*
X35754Y16350D02*Y15750D01*
X35604Y16200D02*X35754Y16350D01*
X36009D02*X36309D01*
X36009D02*Y16050D01*
X36084Y16125D01*
X36234D01*
X36309Y16050D01*
Y15825D01*
X36234Y15750D02*X36309Y15825D01*
X36084Y15750D02*X36234D01*
X36009Y15825D02*X36084Y15750D01*
X36489Y15825D02*X36564Y15750D01*
X36489Y16275D02*Y15825D01*
Y16275D02*X36564Y16350D01*
X36714D01*
X36789Y16275D01*
Y15825D01*
X36714Y15750D02*X36789Y15825D01*
X36564Y15750D02*X36714D01*
X36489Y15900D02*X36789Y16200D01*
X36970Y15825D02*X37045Y15750D01*
X36970Y16275D02*Y15825D01*
Y16275D02*X37045Y16350D01*
X37195D01*
X37270Y16275D01*
Y15825D01*
X37195Y15750D02*X37270Y15825D01*
X37045Y15750D02*X37195D01*
X36970Y15900D02*X37270Y16200D01*
X37795Y15975D02*Y15750D01*
Y15975D02*X37870Y16050D01*
X37945D01*
X38020Y15975D01*
Y15750D01*
Y15975D02*X38095Y16050D01*
X38170D01*
X38245Y15975D01*
Y15750D01*
X37720Y16050D02*X37795Y15975D01*
X38425Y16200D02*Y16125D01*
Y15975D02*Y15750D01*
X38575Y16350D02*Y15825D01*
X38650Y15750D01*
X38875D02*X39100D01*
X39175Y15825D01*
X39100Y15900D02*X39175Y15825D01*
X38875Y15900D02*X39100D01*
X38800Y15975D02*X38875Y15900D01*
X38800Y15975D02*X38875Y16050D01*
X39100D01*
X39175Y15975D01*
X38800Y15825D02*X38875Y15750D01*
X39625Y16350D02*Y15750D01*
Y15975D02*X39700Y16050D01*
X39850D01*
X39925Y15975D01*
Y15750D01*
X40106Y16200D02*Y16125D01*
Y15975D02*Y15750D01*
X40481Y16050D02*X40556Y15975D01*
X40331Y16050D02*X40481D01*
X40256Y15975D02*X40331Y16050D01*
X40256Y15975D02*Y15825D01*
X40331Y15750D01*
X40481D01*
X40556Y15825D01*
X40256Y15600D02*X40331Y15525D01*
X40481D01*
X40556Y15600D01*
Y16050D02*Y15600D01*
X40736Y16350D02*Y15750D01*
Y15975D02*X40811Y16050D01*
X40961D01*
X41036Y15975D01*
Y15750D01*
X0Y-950D02*X300D01*
X375Y-875D01*
Y-725D02*Y-875D01*
X300Y-650D02*X375Y-725D01*
X75Y-650D02*X300D01*
X75Y-350D02*Y-950D01*
X0Y-350D02*X300D01*
X375Y-425D01*
Y-575D01*
X300Y-650D02*X375Y-575D01*
X555Y-725D02*Y-875D01*
Y-725D02*X630Y-650D01*
X780D01*
X855Y-725D01*
Y-875D01*
X780Y-950D02*X855Y-875D01*
X630Y-950D02*X780D01*
X555Y-875D02*X630Y-950D01*
X1260Y-650D02*X1335Y-725D01*
X1110Y-650D02*X1260D01*
X1035Y-725D02*X1110Y-650D01*
X1035Y-725D02*Y-875D01*
X1110Y-950D01*
X1335Y-650D02*Y-875D01*
X1410Y-950D01*
X1110D02*X1260D01*
X1335Y-875D01*
X1665Y-725D02*Y-950D01*
Y-725D02*X1740Y-650D01*
X1890D01*
X1590D02*X1665Y-725D01*
X2370Y-350D02*Y-950D01*
X2295D02*X2370Y-875D01*
X2145Y-950D02*X2295D01*
X2070Y-875D02*X2145Y-950D01*
X2070Y-725D02*Y-875D01*
Y-725D02*X2145Y-650D01*
X2295D01*
X2370Y-725D01*
X2820D02*Y-875D01*
Y-725D02*X2895Y-650D01*
X3045D01*
X3120Y-725D01*
Y-875D01*
X3045Y-950D02*X3120Y-875D01*
X2895Y-950D02*X3045D01*
X2820Y-875D02*X2895Y-950D01*
X3300Y-650D02*Y-875D01*
X3375Y-950D01*
X3525D01*
X3600Y-875D01*
Y-650D02*Y-875D01*
X3856Y-350D02*Y-875D01*
X3931Y-950D01*
X3781Y-575D02*X3931D01*
X4081Y-350D02*Y-875D01*
X4156Y-950D01*
X4306Y-500D02*Y-575D01*
Y-725D02*Y-950D01*
X4531Y-725D02*Y-950D01*
Y-725D02*X4606Y-650D01*
X4681D01*
X4756Y-725D01*
Y-950D01*
X4456Y-650D02*X4531Y-725D01*
X5011Y-950D02*X5236D01*
X4936Y-875D02*X5011Y-950D01*
X4936Y-725D02*Y-875D01*
Y-725D02*X5011Y-650D01*
X5161D01*
X5236Y-725D01*
X4936Y-800D02*X5236D01*
Y-725D02*Y-800D01*
X5686Y-500D02*Y-575D01*
Y-725D02*Y-950D01*
X5911D02*X6136D01*
X6211Y-875D01*
X6136Y-800D02*X6211Y-875D01*
X5911Y-800D02*X6136D01*
X5836Y-725D02*X5911Y-800D01*
X5836Y-725D02*X5911Y-650D01*
X6136D01*
X6211Y-725D01*
X5836Y-875D02*X5911Y-950D01*
X6737Y-350D02*Y-875D01*
X6812Y-950D01*
X6662Y-575D02*X6812D01*
X6962Y-350D02*Y-950D01*
Y-725D02*X7037Y-650D01*
X7187D01*
X7262Y-725D01*
Y-950D01*
X7517D02*X7742D01*
X7442Y-875D02*X7517Y-950D01*
X7442Y-725D02*Y-875D01*
Y-725D02*X7517Y-650D01*
X7667D01*
X7742Y-725D01*
X7442Y-800D02*X7742D01*
Y-725D02*Y-800D01*
X8267Y-650D02*X8492D01*
X8192Y-725D02*X8267Y-650D01*
X8192Y-725D02*Y-875D01*
X8267Y-950D01*
X8492D01*
X8747D02*X8972D01*
X8672Y-875D02*X8747Y-950D01*
X8672Y-725D02*Y-875D01*
Y-725D02*X8747Y-650D01*
X8897D01*
X8972Y-725D01*
X8672Y-800D02*X8972D01*
Y-725D02*Y-800D01*
X9227Y-725D02*Y-950D01*
Y-725D02*X9302Y-650D01*
X9377D01*
X9452Y-725D01*
Y-950D01*
X9152Y-650D02*X9227Y-725D01*
X9708Y-350D02*Y-875D01*
X9783Y-950D01*
X9633Y-575D02*X9783D01*
X10008Y-950D02*X10233D01*
X9933Y-875D02*X10008Y-950D01*
X9933Y-725D02*Y-875D01*
Y-725D02*X10008Y-650D01*
X10158D01*
X10233Y-725D01*
X9933Y-800D02*X10233D01*
Y-725D02*Y-800D01*
X10488Y-725D02*Y-950D01*
Y-725D02*X10563Y-650D01*
X10713D01*
X10413D02*X10488Y-725D01*
X10893Y-350D02*Y-875D01*
X10968Y-950D01*
X11118Y-500D02*Y-575D01*
Y-725D02*Y-950D01*
X11343Y-725D02*Y-950D01*
Y-725D02*X11418Y-650D01*
X11493D01*
X11568Y-725D01*
Y-950D01*
X11268Y-650D02*X11343Y-725D01*
X11823Y-950D02*X12048D01*
X11748Y-875D02*X11823Y-950D01*
X11748Y-725D02*Y-875D01*
Y-725D02*X11823Y-650D01*
X11973D01*
X12048Y-725D01*
X11748Y-800D02*X12048D01*
Y-725D02*Y-800D01*
X12499Y-725D02*Y-875D01*
Y-725D02*X12574Y-650D01*
X12724D01*
X12799Y-725D01*
Y-875D01*
X12724Y-950D02*X12799Y-875D01*
X12574Y-950D02*X12724D01*
X12499Y-875D02*X12574Y-950D01*
X13054Y-425D02*Y-950D01*
Y-425D02*X13129Y-350D01*
X13204D01*
X12979Y-650D02*X13129D01*
X13699Y-350D02*Y-875D01*
X13774Y-950D01*
X13624Y-575D02*X13774D01*
X13924Y-350D02*Y-950D01*
Y-725D02*X13999Y-650D01*
X14149D01*
X14224Y-725D01*
Y-950D01*
X14404Y-500D02*Y-575D01*
Y-725D02*Y-950D01*
X14629D02*X14854D01*
X14929Y-875D01*
X14854Y-800D02*X14929Y-875D01*
X14629Y-800D02*X14854D01*
X14554Y-725D02*X14629Y-800D01*
X14554Y-725D02*X14629Y-650D01*
X14854D01*
X14929Y-725D01*
X14554Y-875D02*X14629Y-950D01*
X15454D02*X15604D01*
X15529Y-350D02*Y-950D01*
X15379Y-500D02*X15529Y-350D01*
X15785Y-875D02*X15860Y-950D01*
X15785Y-425D02*Y-875D01*
Y-425D02*X15860Y-350D01*
X16010D01*
X16085Y-425D01*
Y-875D01*
X16010Y-950D02*X16085Y-875D01*
X15860Y-950D02*X16010D01*
X15785Y-800D02*X16085Y-500D01*
X16610Y-725D02*Y-950D01*
Y-725D02*X16685Y-650D01*
X16760D01*
X16835Y-725D01*
Y-950D01*
Y-725D02*X16910Y-650D01*
X16985D01*
X17060Y-725D01*
Y-950D01*
X16535Y-650D02*X16610Y-725D01*
X17240Y-500D02*Y-575D01*
Y-725D02*Y-950D01*
X17390Y-350D02*Y-875D01*
X17465Y-950D01*
X17960Y-725D02*Y-950D01*
Y-725D02*X18035Y-650D01*
X18185D01*
X17885D02*X17960Y-725D01*
X18440Y-950D02*X18665D01*
X18365Y-875D02*X18440Y-950D01*
X18365Y-725D02*Y-875D01*
Y-725D02*X18440Y-650D01*
X18590D01*
X18665Y-725D01*
X18365Y-800D02*X18665D01*
Y-725D02*Y-800D01*
X18921Y-650D02*X19146D01*
X18846Y-725D02*X18921Y-650D01*
X18846Y-725D02*Y-875D01*
X18921Y-950D01*
X19146D01*
X19401Y-350D02*Y-875D01*
X19476Y-950D01*
X19326Y-575D02*X19476D01*
X19851Y-650D02*X19926Y-725D01*
X19701Y-650D02*X19851D01*
X19626Y-725D02*X19701Y-650D01*
X19626Y-725D02*Y-875D01*
X19701Y-950D01*
X19926Y-650D02*Y-875D01*
X20001Y-950D01*
X19701D02*X19851D01*
X19926Y-875D01*
X20256Y-725D02*Y-950D01*
Y-725D02*X20331Y-650D01*
X20406D01*
X20481Y-725D01*
Y-950D01*
X20181Y-650D02*X20256Y-725D01*
X20886Y-650D02*X20961Y-725D01*
X20736Y-650D02*X20886D01*
X20661Y-725D02*X20736Y-650D01*
X20661Y-725D02*Y-875D01*
X20736Y-950D01*
X20886D01*
X20961Y-875D01*
X20661Y-1100D02*X20736Y-1175D01*
X20886D01*
X20961Y-1100D01*
Y-650D02*Y-1100D01*
X21141Y-350D02*Y-875D01*
X21216Y-950D01*
X21441D02*X21666D01*
X21366Y-875D02*X21441Y-950D01*
X21366Y-725D02*Y-875D01*
Y-725D02*X21441Y-650D01*
X21591D01*
X21666Y-725D01*
X21366Y-800D02*X21666D01*
Y-725D02*Y-800D01*
X22117Y-650D02*X22417D01*
X22867Y-875D02*X22942Y-950D01*
X22867Y-425D02*Y-875D01*
Y-425D02*X22942Y-350D01*
X23092D01*
X23167Y-425D01*
Y-875D01*
X23092Y-950D02*X23167Y-875D01*
X22942Y-950D02*X23092D01*
X22867Y-800D02*X23167Y-500D01*
X23347Y-1100D02*X23497Y-950D01*
X23677Y-875D02*X23752Y-950D01*
X23677Y-425D02*Y-875D01*
Y-425D02*X23752Y-350D01*
X23902D01*
X23977Y-425D01*
Y-875D01*
X23902Y-950D02*X23977Y-875D01*
X23752Y-950D02*X23902D01*
X23677Y-800D02*X23977Y-500D01*
X24502Y-350D02*Y-875D01*
X24577Y-950D01*
X24427Y-575D02*X24577D01*
X24727Y-725D02*Y-875D01*
Y-725D02*X24802Y-650D01*
X24952D01*
X25027Y-725D01*
Y-875D01*
X24952Y-950D02*X25027Y-875D01*
X24802Y-950D02*X24952D01*
X24727Y-875D02*X24802Y-950D01*
X25477Y-425D02*X25552Y-350D01*
X25777D01*
X25852Y-425D01*
Y-575D01*
X25477Y-950D02*X25852Y-575D01*
X25477Y-950D02*X25852D01*
X26033Y-350D02*X26333D01*
X26033D02*Y-650D01*
X26108Y-575D01*
X26258D01*
X26333Y-650D01*
Y-875D01*
X26258Y-950D02*X26333Y-875D01*
X26108Y-950D02*X26258D01*
X26033Y-875D02*X26108Y-950D01*
X26513Y-875D02*X26588Y-950D01*
X26513Y-425D02*Y-875D01*
Y-425D02*X26588Y-350D01*
X26738D01*
X26813Y-425D01*
Y-875D01*
X26738Y-950D02*X26813Y-875D01*
X26588Y-950D02*X26738D01*
X26513Y-800D02*X26813Y-500D01*
X26993Y-875D02*X27068Y-950D01*
X26993Y-425D02*Y-875D01*
Y-425D02*X27068Y-350D01*
X27218D01*
X27293Y-425D01*
Y-875D01*
X27218Y-950D02*X27293Y-875D01*
X27068Y-950D02*X27218D01*
X26993Y-800D02*X27293Y-500D01*
X27473Y-1100D02*X27623Y-950D01*
X27878D02*X28028D01*
X27953Y-350D02*Y-950D01*
X27803Y-500D02*X27953Y-350D01*
X28208D02*X28508D01*
X28208D02*Y-650D01*
X28283Y-575D01*
X28433D01*
X28508Y-650D01*
Y-875D01*
X28433Y-950D02*X28508Y-875D01*
X28283Y-950D02*X28433D01*
X28208Y-875D02*X28283Y-950D01*
X28689Y-875D02*X28764Y-950D01*
X28689Y-425D02*Y-875D01*
Y-425D02*X28764Y-350D01*
X28914D01*
X28989Y-425D01*
Y-875D01*
X28914Y-950D02*X28989Y-875D01*
X28764Y-950D02*X28914D01*
X28689Y-800D02*X28989Y-500D01*
X29169Y-875D02*X29244Y-950D01*
X29169Y-425D02*Y-875D01*
Y-425D02*X29244Y-350D01*
X29394D01*
X29469Y-425D01*
Y-875D01*
X29394Y-950D02*X29469Y-875D01*
X29244Y-950D02*X29394D01*
X29169Y-800D02*X29469Y-500D01*
X29994Y-725D02*Y-950D01*
Y-725D02*X30069Y-650D01*
X30144D01*
X30219Y-725D01*
Y-950D01*
Y-725D02*X30294Y-650D01*
X30369D01*
X30444Y-725D01*
Y-950D01*
X29919Y-650D02*X29994Y-725D01*
X30624Y-500D02*Y-575D01*
Y-725D02*Y-950D01*
X30774Y-350D02*Y-875D01*
X30849Y-950D01*
X31074D02*X31299D01*
X31374Y-875D01*
X31299Y-800D02*X31374Y-875D01*
X31074Y-800D02*X31299D01*
X30999Y-725D02*X31074Y-800D01*
X30999Y-725D02*X31074Y-650D01*
X31299D01*
X31374Y-725D01*
X30999Y-875D02*X31074Y-950D01*
X20075Y17850D02*Y17250D01*
X20300Y17850D02*X20375Y17775D01*
Y17325D01*
X20300Y17250D02*X20375Y17325D01*
X20000Y17250D02*X20300D01*
X20000Y17850D02*X20300D01*
X20780Y17550D02*X20855Y17475D01*
X20630Y17550D02*X20780D01*
X20555Y17475D02*X20630Y17550D01*
X20555Y17475D02*Y17325D01*
X20630Y17250D01*
X20855Y17550D02*Y17325D01*
X20930Y17250D01*
X20630D02*X20780D01*
X20855Y17325D01*
X21185Y17850D02*Y17325D01*
X21260Y17250D01*
X21110Y17625D02*X21260D01*
X21485Y17250D02*X21710D01*
X21410Y17325D02*X21485Y17250D01*
X21410Y17475D02*Y17325D01*
Y17475D02*X21485Y17550D01*
X21635D01*
X21710Y17475D01*
X21410Y17400D02*X21710D01*
Y17475D02*Y17400D01*
X21890Y17625D02*X21965D01*
X21890Y17475D02*X21965D01*
X22415Y17850D02*Y17250D01*
Y17850D02*X22715D01*
X22415Y17550D02*X22640D01*
X22970Y17475D02*Y17250D01*
Y17475D02*X23045Y17550D01*
X23195D01*
X22895D02*X22970Y17475D01*
X23376Y17700D02*Y17625D01*
Y17475D02*Y17250D01*
X23796Y17775D02*Y17250D01*
Y17775D02*X23871Y17850D01*
X24096D01*
X24171Y17775D01*
Y17250D01*
X23796Y17550D02*X24171D01*
X24351D02*Y17325D01*
X24426Y17250D01*
X24576D01*
X24651Y17325D01*
Y17550D02*Y17325D01*
X25056Y17550D02*X25131Y17475D01*
X24906Y17550D02*X25056D01*
X24831Y17475D02*X24906Y17550D01*
X24831Y17475D02*Y17325D01*
X24906Y17250D01*
X25056D01*
X25131Y17325D01*
X24831Y17100D02*X24906Y17025D01*
X25056D01*
X25131Y17100D01*
Y17550D02*Y17100D01*
X25581Y17775D02*X25656Y17850D01*
X25806D01*
X25881Y17775D01*
Y17325D01*
X25806Y17250D02*X25881Y17325D01*
X25656Y17250D02*X25806D01*
X25581Y17325D02*X25656Y17250D01*
Y17550D02*X25881D01*
X26136Y17250D02*X26286D01*
X26211Y17850D02*Y17250D01*
X26061Y17700D02*X26211Y17850D01*
X26736Y17775D02*X26811Y17850D01*
X27036D01*
X27111Y17775D01*
Y17625D01*
X26736Y17250D02*X27111Y17625D01*
X26736Y17250D02*X27111D01*
X27292Y17775D02*X27367Y17850D01*
X27517D01*
X27592Y17775D01*
Y17325D01*
X27517Y17250D02*X27592Y17325D01*
X27367Y17250D02*X27517D01*
X27292Y17325D02*X27367Y17250D01*
Y17550D02*X27592D01*
X27772Y17625D02*X27847D01*
X27772Y17475D02*X27847D01*
X28102Y17250D02*X28252D01*
X28177Y17850D02*Y17250D01*
X28027Y17700D02*X28177Y17850D01*
X28432Y17250D02*X28732Y17550D01*
Y17775D02*Y17550D01*
X28657Y17850D02*X28732Y17775D01*
X28507Y17850D02*X28657D01*
X28432Y17775D02*X28507Y17850D01*
X28432Y17775D02*Y17625D01*
X28507Y17550D01*
X28732D01*
X28912Y17625D02*X28987D01*
X28912Y17475D02*X28987D01*
X29167Y17775D02*X29242Y17850D01*
X29392D01*
X29467Y17775D01*
Y17325D01*
X29392Y17250D02*X29467Y17325D01*
X29242Y17250D02*X29392D01*
X29167Y17325D02*X29242Y17250D01*
Y17550D02*X29467D01*
X29648Y17250D02*X30023Y17625D01*
Y17850D02*Y17625D01*
X29648Y17850D02*X30023D01*
X30473Y17775D02*X30548Y17850D01*
X30773D01*
X30848Y17775D01*
Y17625D01*
X30473Y17250D02*X30848Y17625D01*
X30473Y17250D02*X30848D01*
X31028Y17325D02*X31103Y17250D01*
X31028Y17775D02*Y17325D01*
Y17775D02*X31103Y17850D01*
X31253D01*
X31328Y17775D01*
Y17325D01*
X31253Y17250D02*X31328Y17325D01*
X31103Y17250D02*X31253D01*
X31028Y17400D02*X31328Y17700D01*
X31508Y17325D02*X31583Y17250D01*
X31508Y17775D02*Y17325D01*
Y17775D02*X31583Y17850D01*
X31733D01*
X31808Y17775D01*
Y17325D01*
X31733Y17250D02*X31808Y17325D01*
X31583Y17250D02*X31733D01*
X31508Y17400D02*X31808Y17700D01*
X31988Y17250D02*X32363Y17625D01*
Y17850D02*Y17625D01*
X31988Y17850D02*X32363D01*
X32813D02*Y17325D01*
X32888Y17250D01*
X33038D01*
X33113Y17325D01*
Y17850D02*Y17325D01*
X33293Y17850D02*X33593D01*
X33443D02*Y17250D01*
X33849D02*X34074D01*
X33774Y17325D02*X33849Y17250D01*
X33774Y17775D02*Y17325D01*
Y17775D02*X33849Y17850D01*
X34074D01*
X20000Y19275D02*Y18750D01*
Y19275D02*X20075Y19350D01*
X20300D01*
X20375Y19275D01*
Y18750D01*
X20000Y19050D02*X20375D01*
X20555D02*Y18825D01*
X20630Y18750D01*
X20780D01*
X20855Y18825D01*
Y19050D02*Y18825D01*
X21110Y19350D02*Y18825D01*
X21185Y18750D01*
X21035Y19125D02*X21185D01*
X21335Y19350D02*Y18750D01*
Y18975D02*X21410Y19050D01*
X21560D01*
X21635Y18975D01*
Y18750D01*
X21815Y18975D02*Y18825D01*
Y18975D02*X21890Y19050D01*
X22040D01*
X22115Y18975D01*
Y18825D01*
X22040Y18750D02*X22115Y18825D01*
X21890Y18750D02*X22040D01*
X21815Y18825D02*X21890Y18750D01*
X22370Y18975D02*Y18750D01*
Y18975D02*X22445Y19050D01*
X22595D01*
X22295D02*X22370Y18975D01*
X22775Y19125D02*X22850D01*
X22775Y18975D02*X22850D01*
X20000Y20850D02*X20300D01*
X20150D02*Y20250D01*
X20480Y20700D02*Y20625D01*
Y20475D02*Y20250D01*
X20705Y20850D02*Y20325D01*
X20780Y20250D01*
X20630Y20625D02*X20780D01*
X20930Y20850D02*Y20325D01*
X21005Y20250D01*
X21230D02*X21455D01*
X21155Y20325D02*X21230Y20250D01*
X21155Y20475D02*Y20325D01*
Y20475D02*X21230Y20550D01*
X21380D01*
X21455Y20475D01*
X21155Y20400D02*X21455D01*
Y20475D02*Y20400D01*
X21635Y20625D02*X21710D01*
X21635Y20475D02*X21710D01*
X22160Y20325D02*X22235Y20250D01*
X22160Y20775D02*X22235Y20850D01*
X22160Y20775D02*Y20325D01*
X22416Y20550D02*Y20325D01*
X22491Y20250D01*
X22641D01*
X22716Y20325D01*
Y20550D02*Y20325D01*
X22971Y20475D02*Y20250D01*
Y20475D02*X23046Y20550D01*
X23121D01*
X23196Y20475D01*
Y20250D01*
X22896Y20550D02*X22971Y20475D01*
X23376Y20850D02*Y20250D01*
Y20475D02*X23601Y20250D01*
X23376Y20475D02*X23526Y20625D01*
X23856Y20475D02*Y20250D01*
Y20475D02*X23931Y20550D01*
X24006D01*
X24081Y20475D01*
Y20250D01*
X23781Y20550D02*X23856Y20475D01*
X24261D02*Y20325D01*
Y20475D02*X24336Y20550D01*
X24486D01*
X24561Y20475D01*
Y20325D01*
X24486Y20250D02*X24561Y20325D01*
X24336Y20250D02*X24486D01*
X24261Y20325D02*X24336Y20250D01*
X24741Y20550D02*Y20325D01*
X24816Y20250D01*
X24891D01*
X24966Y20325D01*
Y20550D02*Y20325D01*
X25041Y20250D01*
X25116D01*
X25191Y20325D01*
Y20550D02*Y20325D01*
X25446Y20475D02*Y20250D01*
Y20475D02*X25521Y20550D01*
X25596D01*
X25671Y20475D01*
Y20250D01*
X25371Y20550D02*X25446Y20475D01*
X25852Y20850D02*X25927Y20775D01*
Y20325D01*
X25852Y20250D02*X25927Y20325D01*
X26377Y20550D02*X26677D01*
X27127Y20850D02*Y20250D01*
Y20850D02*X27427D01*
X27127Y20550D02*X27352D01*
X27832D02*X27907Y20475D01*
X27682Y20550D02*X27832D01*
X27607Y20475D02*X27682Y20550D01*
X27607Y20475D02*Y20325D01*
X27682Y20250D01*
X27907Y20550D02*Y20325D01*
X27982Y20250D01*
X27682D02*X27832D01*
X27907Y20325D01*
X28162Y20850D02*Y20250D01*
Y20325D02*X28237Y20250D01*
X28387D01*
X28462Y20325D01*
Y20475D02*Y20325D01*
X28387Y20550D02*X28462Y20475D01*
X28237Y20550D02*X28387D01*
X28162Y20475D02*X28237Y20550D01*
X28717Y20475D02*Y20250D01*
Y20475D02*X28792Y20550D01*
X28942D01*
X28642D02*X28717Y20475D01*
X29123Y20700D02*Y20625D01*
Y20475D02*Y20250D01*
X29348Y20550D02*X29573D01*
X29273Y20475D02*X29348Y20550D01*
X29273Y20475D02*Y20325D01*
X29348Y20250D01*
X29573D01*
X29978Y20550D02*X30053Y20475D01*
X29828Y20550D02*X29978D01*
X29753Y20475D02*X29828Y20550D01*
X29753Y20475D02*Y20325D01*
X29828Y20250D01*
X30053Y20550D02*Y20325D01*
X30128Y20250D01*
X29828D02*X29978D01*
X30053Y20325D01*
X30383Y20850D02*Y20325D01*
X30458Y20250D01*
X30308Y20625D02*X30458D01*
X30608Y20700D02*Y20625D01*
Y20475D02*Y20250D01*
X30758Y20475D02*Y20325D01*
Y20475D02*X30833Y20550D01*
X30983D01*
X31058Y20475D01*
Y20325D01*
X30983Y20250D02*X31058Y20325D01*
X30833Y20250D02*X30983D01*
X30758Y20325D02*X30833Y20250D01*
X31313Y20475D02*Y20250D01*
Y20475D02*X31388Y20550D01*
X31463D01*
X31538Y20475D01*
Y20250D01*
X31238Y20550D02*X31313Y20475D01*
X32064Y20850D02*Y20250D01*
X32289Y20850D02*X32364Y20775D01*
Y20325D01*
X32289Y20250D02*X32364Y20325D01*
X31989Y20250D02*X32289D01*
X31989Y20850D02*X32289D01*
X32619Y20475D02*Y20250D01*
Y20475D02*X32694Y20550D01*
X32844D01*
X32544D02*X32619Y20475D01*
X33249Y20550D02*X33324Y20475D01*
X33099Y20550D02*X33249D01*
X33024Y20475D02*X33099Y20550D01*
X33024Y20475D02*Y20325D01*
X33099Y20250D01*
X33324Y20550D02*Y20325D01*
X33399Y20250D01*
X33099D02*X33249D01*
X33324Y20325D01*
X33579Y20550D02*Y20325D01*
X33654Y20250D01*
X33729D01*
X33804Y20325D01*
Y20550D02*Y20325D01*
X33879Y20250D01*
X33954D01*
X34029Y20325D01*
Y20550D02*Y20325D01*
X34209Y20700D02*Y20625D01*
Y20475D02*Y20250D01*
X34434Y20475D02*Y20250D01*
Y20475D02*X34509Y20550D01*
X34584D01*
X34659Y20475D01*
Y20250D01*
X34359Y20550D02*X34434Y20475D01*
X35064Y20550D02*X35139Y20475D01*
X34914Y20550D02*X35064D01*
X34839Y20475D02*X34914Y20550D01*
X34839Y20475D02*Y20325D01*
X34914Y20250D01*
X35064D01*
X35139Y20325D01*
X34839Y20100D02*X34914Y20025D01*
X35064D01*
X35139Y20100D01*
Y20550D02*Y20100D01*
M02*
