G04 start of page 3 for group 1 idx 3
G04 Title: (unknown), component *
G04 Creator: pcb 20070208 *
G04 CreationDate: Fri Aug 31 23:19:37 2007 UTC *
G04 For: sean *
G04 Format: Gerber/RS-274X *
G04 PCB-Dimensions: 250000 150000 *
G04 PCB-Coordinate-Origin: lower left *
%MOIN*%
%FSLAX24Y24*%
%LNFRONT*%
%ADD11C,0.0100*%
%ADD12R,0.0600X0.0600*%
%ADD13C,0.0360*%
%ADD14C,0.0600*%
%ADD15R,0.0360X0.0360*%
%ADD16C,0.1400*%
%ADD17C,0.0400*%
%ADD18C,0.0380*%
%ADD19C,0.0200*%
%ADD20C,0.0280*%
%ADD21C,0.0900*%
%ADD22C,0.1250*%
%ADD23R,0.0240X0.0240*%
%ADD24R,0.0300X0.0300*%
%ADD25R,0.0450X0.0450*%
%ADD26R,0.0160X0.0160*%
%ADD27C,0.0160*%
%ADD28R,0.0216X0.0216*%
%ADD29R,0.0118X0.0118*%
%ADD30C,0.0150*%
%ADD31R,0.0150X0.0150*%
G54D11*X12885Y8345D02*Y4570D01*
X13350Y5059D02*X13345D01*
X13350Y6800D02*Y5059D01*
X11330Y7370D02*Y3950D01*
X11750D01*
X11925Y7370D02*X12180D01*
Y4950D01*
X11750D01*
X11010Y8475D02*Y5370D01*
X12120Y8475D02*X12245D01*
X13240Y7690D02*Y7320D01*
X12120Y9130D02*X11925D01*
X12120Y9450D02*X11490D01*
X11925Y9130D02*Y7370D01*
X11490Y9450D02*Y7370D01*
X10550Y7180D02*Y8900D01*
X12120Y8820D02*Y8475D01*
X11150Y9599D02*Y9000D01*
X13860Y8345D02*X12885D01*
X12565Y8570D02*X12785D01*
X11490Y7370D02*X11330D01*
X12565Y6810D02*Y8570D01*
X13550Y7690D02*X13624D01*
Y6800D01*
X13860Y8150D02*X13850D01*
X12310Y3170D02*Y2696D01*
X12550Y3530D02*Y3100D01*
X11099Y2750D02*X11150D01*
X10880Y3170D02*X12310D01*
X10880Y1619D02*X11750D01*
Y1900D01*
X12030Y1669D02*Y2270D01*
X11150D02*X12030D01*
X11099D02*X11150D01*
X11099D02*Y2750D01*
X11150Y2270D02*Y2000D01*
X13624Y6800D02*X13950D01*
Y4739D01*
X15250D02*Y4100D01*
X14885Y2745D02*X15840D01*
X14390D02*X14885D01*
X13350Y4200D02*Y3490D01*
X14380Y4200D02*X13950D01*
Y4739D02*X14100D01*
X14490Y5519D02*X14525D01*
X17428Y4000D02*X15850D01*
X16000Y5950D02*X15120D01*
Y7690D01*
X14490D02*Y5519D01*
X14885Y2745D02*Y7690D01*
X16000Y5519D02*Y5950D01*
X19519Y2750D02*Y5519D01*
X16000D01*
X15840Y2745D02*Y2990D01*
X14560Y2570D02*Y2523D01*
X15840Y2570D02*X14560D01*
X16230Y2990D02*Y2570D01*
Y2330D02*X16415D01*
Y2275D01*
X15840Y2570D02*Y2110D01*
X16230Y2570D02*X15840D01*
X16415Y2275D02*X19950D01*
Y2750D01*
X19519D01*
X13520Y2220D02*X15210D01*
Y1779D01*
X16230D01*
Y2170D01*
X12885Y4570D02*X13665D01*
Y2940D01*
X13330D01*
Y2280D02*X13520D01*
Y2220D01*
X13350Y3490D02*X13345D01*
X12310Y2696D02*X14390D01*
X14560Y2523D02*X11750D01*
Y2750D01*
X14390Y2745D02*Y2696D01*
X12550Y2120D02*X12940D01*
Y2000D01*
X12030Y1669D02*X13330D01*
Y2120D01*
X10880Y3170D02*Y1619D01*
X9950Y4350D02*X10880D01*
Y3170D01*
X3693Y3105D02*X3420D01*
X5543Y3302D02*X5672D01*
X5035D02*X5088D01*
X3968D02*X5035D01*
X5672D02*Y3284D01*
X5543Y3105D02*Y3100D01*
X5520Y3105D02*X5543Y3100D01*
X5520Y3105D01*
X5900Y2960D02*Y3100D01*
X5543D02*X5900D01*
X5080Y4620D02*X5035D01*
Y4500D02*X5080Y4620D01*
X5035D02*Y4500D01*
X5060Y4950D02*X5080D01*
X5088Y3302D02*Y3499D01*
X5268D01*
X5035Y4500D02*Y3302D01*
X5080Y5000D02*X5060Y5700D01*
X5080Y5000D02*X5060Y4950D01*
X1980Y5860D02*Y2920D01*
X2350Y3850D02*X2850D01*
X2350Y5850D02*Y5860D01*
X1980D02*X2350D01*
Y5850D02*X2660D01*
X3940Y3499D02*X3968Y3500D01*
X3940Y3499D01*
X1980Y2920D02*X3693D01*
X3250Y5850D02*X3700D01*
X3968Y3499D02*Y3500D01*
X4450Y4360D02*Y4300D01*
Y4960D02*Y5000D01*
X5080D01*
X3420Y5510D02*X4541D01*
X3968Y3500D02*X4400D01*
Y4360D01*
X4450Y4300D02*X4400Y4360D01*
X4440Y4960D02*X4450Y5000D01*
X4440Y4960D01*
X3420Y3105D02*Y5510D01*
X3740Y4620D02*Y3696D01*
X10192Y4400D02*X9950D01*
X10192Y6750D02*Y4400D01*
X9350D02*Y3470D01*
X9950D01*
Y3200D01*
X9350Y5450D02*Y4500D01*
X9680Y5950D02*Y5705D01*
Y6750D02*Y6650D01*
X9350Y3100D02*Y1900D01*
Y1439D01*
X12030D01*
Y1669D01*
X9820Y6750D02*X10192D01*
X8900Y6650D02*X9680D01*
X8800Y6730D02*Y6650D01*
X8340Y5450D02*X9350D01*
X8900Y5705D02*Y6050D01*
X8340Y5705D02*X8900D01*
X8800Y6220D02*Y6050D01*
X8340Y6220D02*X8800D01*
X8900Y5705D02*X9680D01*
X8340Y5710D02*Y5705D01*
Y6730D02*X8800D01*
X3800Y6450D02*X3930D01*
X4541Y6220D02*Y5510D01*
Y6220D02*X6000D01*
Y5700D02*X5060D01*
X5919Y6680D02*X4320D01*
Y6679D01*
X2580Y7705D02*X2660D01*
Y5850D02*Y7705D01*
X3620Y7580D02*Y7185D01*
X2850Y3850D02*Y8000D01*
X3200Y7570D02*Y7580D01*
X3250Y6670D02*Y5850D01*
X3620Y7185D02*X3610D01*
X2580Y8900D02*Y7705D01*
Y8900D02*X2850D01*
X2250Y8100D02*Y8900D01*
X1830Y8000D02*X2250D01*
X3400Y7580D02*X3200D01*
Y7570D01*
Y8090D02*X3400D01*
X3200Y7580D02*Y8090D01*
X2850Y8100D02*Y8350D01*
X3400D01*
X3620D02*Y8731D01*
X5290Y8340D02*Y8160D01*
X6000Y6220D02*Y6250D01*
X5919Y6740D02*X6000D01*
X5919D02*Y6680D01*
X5269Y8731D02*X5269D01*
X5385D01*
X5269D02*X5269D01*
X6490Y9062D02*Y8893D01*
Y6990D01*
Y9062D02*Y8893D01*
Y9062D02*X5590D01*
X6200Y5710D02*X6220Y5700D01*
Y5710D02*Y5700D01*
Y5460D02*Y5450D01*
X6000Y6990D02*X5180D01*
Y7005D02*Y6990D01*
X6000Y7250D02*X5650D01*
Y7330D01*
X5760Y4320D02*Y4340D01*
X6270D01*
X5680Y4960D02*X6220D01*
X3620Y7840D02*X4160D01*
Y7835D01*
Y7840D02*Y7835D01*
Y8000D02*Y7840D01*
X3930Y7570D02*Y6450D01*
Y7570D02*X5070D01*
X3620Y8731D02*X5269D01*
X8340Y6480D02*Y6730D01*
X8120Y7320D02*Y7240D01*
Y7320D02*X8190D01*
X8120Y6990D02*X6490D01*
Y6985D01*
Y6990D02*Y6985D01*
X7730Y5960D02*X8120D01*
X7759Y6480D02*X8120D01*
X6000Y6220D02*Y6250D01*
X6650Y5970D02*X6220D01*
Y6480D02*X6710D01*
Y6419D01*
X9350Y1900D02*X3250D01*
X5672Y3284D02*X7960D01*
X9350D01*
X7730Y3499D02*Y5960D01*
X7920Y5710D02*Y5180D01*
Y5710D02*X8120D01*
X7920Y5180D02*X7960D01*
Y3284D02*Y5180D01*
X6270Y4380D02*Y4340D01*
X6220Y4960D02*Y5450D01*
Y5460D02*Y5480D01*
Y5460D02*Y5450D01*
X6000Y5710D02*Y5700D01*
X6220Y5460D02*Y5480D01*
Y5450D02*Y5460D01*
X6650Y3696D02*Y5970D01*
X5543Y3499D02*X7730D01*
Y3499D01*
Y3499D01*
X4680Y2600D02*Y2660D01*
X3693Y2908D02*Y2920D01*
X5280Y2660D02*Y2908D01*
X4680Y2660D02*X5280D01*
X5543Y3696D02*X6650D01*
X7200Y9750D02*Y9950D01*
X6102Y10650D02*X6331D01*
X5590Y10020D02*X6331D01*
X6783Y9705D02*Y9750D01*
X7200D01*
X7250Y10050D02*Y9950D01*
Y10050D02*Y9950D01*
Y10050D02*Y9950D01*
Y10050D02*Y9950D01*
Y10050D02*Y9950D01*
Y10050D02*Y9950D01*
Y10050D02*Y9950D01*
Y10050D02*Y9950D01*
X4008Y10965D02*X6102D01*
X4008Y10680D02*Y10650D01*
X5385Y10680D02*X4008D01*
X5130Y11279D02*X4008D01*
X5055Y10360D02*Y10020D01*
X4008D02*X5055D01*
X6783Y10650D02*X7250D01*
X8190Y10335D02*X6783D01*
X6102Y10965D02*Y10650D01*
X5886Y11461D02*Y11909D01*
X5130Y12770D02*Y11279D01*
X7050Y12850D02*Y10965D01*
X6783D01*
X4710Y12770D02*X5130D01*
X8050Y12850D02*X8190D01*
Y10335D02*Y12850D01*
X5450D02*Y12500D01*
Y12850D02*X7050D01*
X5385Y8731D02*Y10680D01*
X5590Y10020D02*Y9062D01*
X5030Y13275D02*X13560D01*
Y13080D01*
X14510Y13500D02*X4710D01*
X11605Y11340D02*X12120D01*
X12785Y12155D02*Y11650D01*
X12580D01*
X13880Y12620D02*Y12264D01*
X13817D01*
X12120Y10080D02*X11150D01*
X12120Y9760D02*X11150D01*
X12965Y12850D02*X11050D01*
X12580Y11020D02*X12965D01*
Y12850D01*
X11150Y9599D02*X9350D01*
X10550Y10314D02*X9680D01*
X10550D02*Y11000D01*
X8340Y11960D02*X12120D01*
X9050Y12155D02*X12785D01*
X9050Y12850D02*Y12155D01*
X8190Y7320D02*Y10335D01*
X8340Y7240D02*Y11960D01*
X9350Y9599D02*Y11050D01*
X14180Y8150D02*Y9785D01*
X5290Y8160D02*Y8080D01*
Y8160D01*
Y7910D02*Y7830D01*
Y7910D01*
Y7570D02*Y7830D01*
Y7910D02*Y8080D01*
X2730Y10950D02*X3000D01*
X3100Y12400D02*Y10950D01*
X5030Y13275D02*Y13180D01*
X4710Y13500D02*Y12770D01*
X3100Y12400D02*X4850D01*
X3100Y10335D02*Y10350D01*
X2730Y10950D02*Y9705D01*
X2850Y9000D02*Y9705D01*
X3555Y10650D02*Y10335D01*
X3100D02*X3555D01*
X3100Y10950D02*X3555D01*
Y10965D01*
X2850Y9705D02*X3555D01*
X2730D02*X2850D01*
X13050Y10710D02*X12580D01*
X12785Y10390D02*X12580D01*
X13050Y10710D02*Y10219D01*
X11150Y9760D02*Y9599D01*
X10202Y10080D02*Y9929D01*
Y10080D02*X11150D01*
Y11000D01*
X13860Y8150D02*X13850D01*
X13860D02*Y8345D01*
X16070Y7690D02*Y6710D01*
X15750Y7690D02*Y6540D01*
X15440Y7690D02*Y6370D01*
X14810Y7690D02*X14885D01*
X14810Y8150D02*Y8610D01*
X15440Y6370D02*X18000D01*
X16380Y7690D02*X20730D01*
Y5950D02*X21000D01*
X20000Y6710D02*Y5950D01*
X19000Y6540D02*Y5950D01*
X20730Y7690D02*Y5950D01*
X16070Y6710D02*X20000D01*
X15750Y6540D02*X19000D01*
X18000Y6370D02*Y5950D01*
X17510Y11950D02*X17980D01*
X20730Y12250D02*X21150D01*
X18850Y11300D02*Y12100D01*
X18580Y12670D02*X21957D01*
Y12669D01*
X20150Y13250D02*X18250D01*
X20150Y13670D02*Y13250D01*
X20730Y8686D02*Y12250D01*
X19730Y11250D02*X20150D01*
X19326Y10905D02*X18250D01*
X17980Y10560D02*X19410D01*
X18250Y10905D02*Y11200D01*
X18350Y9120D02*Y8873D01*
X19730D01*
Y11250D02*Y8873D01*
X19410Y10560D02*Y9193D01*
X18097Y10380D02*Y10170D01*
X14510Y13080D02*Y13500D01*
X14785Y13080D02*X14820D01*
X14785Y13920D02*Y13080D01*
X18250Y13920D02*Y13250D01*
X14785Y13920D02*X18250D01*
X14810Y8610D02*X16850D01*
Y9850D01*
Y10000D02*Y9900D01*
X17980Y11320D02*Y10560D01*
X18097Y10380D02*X17510D01*
X15140Y12372D02*Y12620D01*
X14820Y12650D02*X14800D01*
X17050Y11640D02*X16705D01*
Y11670D02*Y11640D01*
X17050Y10060D02*Y10000D01*
Y11010D02*X16705D01*
Y11015D02*Y11010D01*
X17510Y11320D02*X17980D01*
X15380Y10219D02*X13050D01*
X14150Y12650D02*Y10550D01*
X14190Y12650D02*X14150D01*
X12785Y8570D02*Y10390D01*
X18650Y9750D02*Y9700D01*
X17510Y9430D02*Y9355D01*
Y9750D02*X18650D01*
X17510Y9355D02*X18650D01*
X17510Y8810D02*Y8686D01*
X20730D01*
X18650Y9355D02*Y9200D01*
X17510Y9120D02*X18350D01*
X15750Y9900D02*X15770D01*
X15750D01*
X16850D02*X15770D01*
X15380D02*X15750D01*
X17050Y10000D02*X16850D01*
X17100Y10060D02*X17050Y10000D01*
X17100Y10060D01*
X15140Y13600D02*Y13080D01*
X15380Y9900D02*Y10219D01*
Y12372D01*
X14104Y9785D02*X14180D01*
X14104D01*
X22288Y13670D02*X20150D01*
Y12200D02*Y12250D01*
X18850Y12200D02*X20150D01*
X18250Y13250D02*Y12200D01*
X17980Y11950D02*Y11819D01*
X18580D01*
Y12670D02*Y11819D01*
X19519Y5519D02*X22288D01*
Y13670D01*
X16390Y12620D02*Y12264D01*
X16465D01*
X15140Y12372D02*X15380D01*
G54D12*X3250Y1900D03*
G54D13*X2350Y6850D03*
Y6350D03*
Y5850D03*
Y5350D03*
Y4850D03*
Y4350D03*
Y3850D03*
Y3350D03*
G54D14*X20150Y11250D03*
X21150D03*
X20150Y10250D03*
X21150D03*
G54D12*X9350Y11050D03*
X20150Y13250D03*
G54D14*X21150D03*
X20150Y12250D03*
X21150D03*
X10050Y12850D03*
X11050D03*
X20150Y9250D03*
X9350Y9050D03*
G54D13*X18650Y9200D03*
G54D15*Y9700D03*
G54D14*X21150Y8250D03*
Y7250D03*
G54D12*X7050Y12850D03*
G54D14*X8050D03*
X9050D03*
X21150Y9250D03*
X20150Y8250D03*
Y7250D03*
G54D12*X14350Y1800D03*
G54D14*X11750Y5950D03*
Y4950D03*
Y3950D03*
G54D12*X19950Y3550D03*
G54D14*Y2750D03*
X18950Y3550D03*
Y2750D03*
G54D12*X11750Y6950D03*
X16000Y5950D03*
G54D14*X17000D03*
X18000D03*
X19000D03*
X20000D03*
X21000D03*
G54D16*X24000Y1000D03*
G54D17*X17428Y4000D03*
X15840Y2110D03*
X13345Y3490D03*
X12550Y3530D03*
G54D16*X1000Y14000D03*
G54D17*X5030Y13180D03*
X3610Y7185D03*
X10550Y7180D03*
X10202Y9929D03*
X9680Y10314D03*
X12245Y8475D03*
X11010D03*
X4160Y8000D03*
X1830D03*
X5055Y10360D03*
X5269Y8731D03*
X6490Y8893D03*
X7160Y9680D03*
X5180Y7005D03*
X5650Y7330D03*
X11605Y11340D03*
X5886Y11461D03*
X12940Y2000D03*
X12565Y6810D03*
G54D16*X1000Y1000D03*
G54D17*X3250Y6670D03*
X4320Y6679D03*
X3740Y4620D03*
X5760Y4320D03*
X5035Y4500D03*
X6710Y6419D03*
X11010Y5370D03*
X7759Y6480D03*
X4680Y2600D03*
X5900Y2960D03*
X13345Y5059D03*
X15140Y13600D03*
X14150Y10550D03*
X14180Y9785D03*
X13817Y12264D03*
X14100Y4739D03*
X14380Y4200D03*
X14525Y5519D03*
X15250Y4739D03*
X13240Y7320D03*
G54D16*X24000Y14000D03*
G54D17*X21957Y12669D03*
X16705Y11015D03*
Y11670D03*
X16465Y12264D03*
X19326Y10905D03*
X19410Y9193D03*
X18097Y10170D03*
G54D23*X12550Y2280D02*Y2120D01*
X13330Y2280D02*Y2120D01*
Y3100D02*Y2940D01*
X12940Y3100D02*Y2940D01*
X12550Y3100D02*Y2940D01*
G54D24*X13350Y4300D02*Y4200D01*
G54D23*X15450Y2330D02*Y2170D01*
X16230Y2330D02*Y2170D01*
Y3150D02*Y2990D01*
X15840Y3150D02*Y2990D01*
X15450Y3150D02*Y2990D01*
G54D24*X15250Y4100D02*Y4000D01*
X15850Y4100D02*Y4000D01*
X13950Y4300D02*Y4200D01*
X11150Y2000D02*Y1900D01*
X11750Y2000D02*Y1900D01*
X11150Y2850D02*Y2750D01*
X11750Y2850D02*Y2750D01*
X9350Y3200D02*Y3100D01*
X9950Y3200D02*Y3100D01*
X9350Y4500D02*Y4400D01*
X9950Y4500D02*Y4400D01*
X10550Y9000D02*Y8900D01*
X11150Y9000D02*Y8900D01*
G54D25*X9680Y6750D02*X9820D01*
X9680Y5950D02*X9820D01*
G54D24*X8800Y6650D02*X8900D01*
X8800Y6050D02*X8900D01*
G54D26*X8120Y5450D02*X8340D01*
X8120Y5710D02*X8340D01*
X8120Y5960D02*X8340D01*
X8120Y6220D02*X8340D01*
X8120Y6480D02*X8340D01*
X8120Y6730D02*X8340D01*
X8120Y6990D02*X8340D01*
X8120Y7240D02*X8340D01*
G54D27*X3400Y8350D02*X3620D01*
G54D28*X5819Y9390D02*X6783D01*
X3555D02*X4520D01*
G54D26*X3400Y8090D02*X3620D01*
G54D28*X3555Y9705D02*X4008D01*
G54D24*X3700Y5850D02*X3800D01*
X3700Y6450D02*X3800D01*
G54D26*X3400Y7840D02*X3620D01*
G54D24*X2250Y8100D02*Y8000D01*
X2850Y8100D02*Y8000D01*
X2250Y9000D02*Y8900D01*
X2850Y9000D02*Y8900D01*
G54D26*X3400Y7580D02*X3620D01*
X5070Y7570D02*X5290D01*
X5070Y7830D02*X5290D01*
X5070Y8080D02*X5290D01*
X5070Y8340D02*X5290D01*
G54D24*X4850Y12500D02*Y12400D01*
X5450Y12500D02*Y12400D01*
G54D28*X3555Y11909D02*X4520D01*
X3555Y10020D02*X4008D01*
X3555Y10335D02*X4008D01*
X3555Y10650D02*X4008D01*
X3555Y10965D02*X4008D01*
X3555Y11279D02*X4008D01*
X5819Y11909D02*X6783D01*
X6331Y10335D02*X6783D01*
X6331Y10650D02*X6783D01*
X6330Y10965D02*X6783D01*
X6331Y11279D02*X6783D01*
X6331Y11594D02*X6783D01*
G54D29*X3693Y3696D02*X3968D01*
X3693Y3499D02*X3968D01*
X3693Y3302D02*X3968D01*
X3693Y3105D02*X3968D01*
X3693Y2908D02*X3968D01*
X5268D02*X5543D01*
X5268Y3105D02*X5543D01*
X5268Y3302D02*X5543D01*
X5268Y3499D02*X5543D01*
X5268Y3696D02*X5543D01*
G54D24*X4350Y4960D02*X4450D01*
X4350Y4360D02*X4450D01*
X5080Y5050D02*Y4950D01*
X5680Y5050D02*Y4950D01*
G54D28*X6331Y9705D02*X6783D01*
G54D27*X6000Y7250D02*X6220D01*
G54D26*X6000Y6990D02*X6220D01*
X6000Y6740D02*X6220D01*
X6000Y6480D02*X6220D01*
X6000Y6220D02*X6220D01*
X6000Y5970D02*X6220D01*
X6000Y5710D02*X6220D01*
X6000Y5460D02*X6220D01*
G54D24*X6270Y4980D02*X6370D01*
X6270Y4380D02*X6370D01*
G54D28*X3555Y11594D02*X4008D01*
G54D24*X3000Y10950D02*X3100D01*
X3000Y10350D02*X3100D01*
G54D28*X6331Y10020D02*X6783D01*
G54D24*X7250Y10650D02*X7350D01*
X7250Y10050D02*X7350D01*
X10550Y11100D02*Y11000D01*
X11150Y11100D02*Y11000D01*
G54D30*X12120Y11960D02*X12580D01*
G54D31*X12120Y11650D02*X12580D01*
X12120Y11340D02*X12580D01*
X12120Y11020D02*X12580D01*
X12120Y10710D02*X12580D01*
X12120Y10390D02*X12580D01*
X12120Y10080D02*X12580D01*
X12120Y9760D02*X12580D01*
X12120Y9450D02*X12580D01*
X12120Y9130D02*X12580D01*
G54D24*X13350Y6900D02*Y6800D01*
X13950Y6900D02*Y6800D01*
G54D31*X12120Y8820D02*X12580D01*
X13240Y8150D02*Y7690D01*
X13550Y8150D02*Y7690D01*
X13860Y8150D02*Y7690D01*
X14180Y8150D02*Y7690D01*
X14490Y8150D02*Y7690D01*
X14810Y8150D02*Y7690D01*
X15120Y8150D02*Y7690D01*
X15440Y8150D02*Y7690D01*
X15750Y8150D02*Y7690D01*
X16070Y8150D02*Y7690D01*
X16380Y8150D02*Y7690D01*
X17050Y8810D02*X17510D01*
X17050Y9120D02*X17510D01*
X17050Y9430D02*X17510D01*
G54D24*X18250Y11300D02*Y11200D01*
Y12200D02*Y12100D01*
X18850Y11300D02*Y11200D01*
Y12200D02*Y12100D01*
G54D31*X17050Y9750D02*X17510D01*
X17050Y10060D02*X17510D01*
X17050Y10380D02*X17510D01*
X17050Y10690D02*X17510D01*
X17050Y11010D02*X17510D01*
X17050Y11320D02*X17510D01*
X17050Y11640D02*X17510D01*
X17050Y11950D02*X17510D01*
X16390Y13080D02*Y12620D01*
X16080Y13080D02*Y12620D01*
X15770Y13080D02*Y12620D01*
X15450Y13080D02*Y12620D01*
X15140Y13080D02*Y12620D01*
X14820Y13080D02*Y12620D01*
X14510Y13080D02*Y12620D01*
X14190Y13080D02*Y12620D01*
X13880Y13080D02*Y12620D01*
X13560Y13080D02*Y12620D01*
X13250Y13080D02*Y12620D01*
G54D18*G54D19*G54D18*G54D20*G54D18*G54D20*G54D19*G54D18*G54D20*G54D21*G54D18*G54D22*G54D19*G54D22*G54D19*G54D22*G54D19*G54D22*G54D19*M02*
