G04 start of page 8 for group -4079 idx -4079
G04 Title: (unknown), topsilk *
G04 Creator: pcb 20070208 *
G04 CreationDate: Fri Aug 31 23:19:37 2007 UTC *
G04 For: sean *
G04 Format: Gerber/RS-274X *
G04 PCB-Dimensions: 250000 150000 *
G04 PCB-Coordinate-Origin: lower left *
%MOIN*%
%FSLAX24Y24*%
%LNFRONTSILK*%
%ADD11C,0.0100*%
%ADD19C,0.0200*%
%ADD44C,0.0060*%
%ADD45C,0.0080*%
G54D11*X8828Y14561D02*X8897Y14491D01*
X8619Y14561D02*X8828D01*
X8550Y14491D02*X8619Y14561D01*
X8550Y14491D02*Y14352D01*
X8619Y14283D01*
X8828D01*
X8897Y14213D01*
Y14074D01*
X8828Y14005D02*X8897Y14074D01*
X8619Y14005D02*X8828D01*
X8550Y14074D02*X8619Y14005D01*
X9133D02*X9342D01*
X9064Y14074D02*X9133Y14005D01*
X9064Y14213D02*Y14074D01*
Y14213D02*X9133Y14283D01*
X9272D01*
X9342Y14213D01*
X9064Y14144D02*X9342D01*
Y14213D02*Y14144D01*
X9717Y14283D02*X9787Y14213D01*
X9578Y14283D02*X9717D01*
X9509Y14213D02*X9578Y14283D01*
X9509Y14213D02*Y14074D01*
X9578Y14005D01*
X9787Y14283D02*Y14074D01*
X9856Y14005D01*
X9578D02*X9717D01*
X9787Y14074D01*
X10093Y14213D02*Y14005D01*
Y14213D02*X10162Y14283D01*
X10232D01*
X10301Y14213D01*
Y14005D01*
X10023Y14283D02*X10093Y14213D01*
X10788Y14561D02*Y14005D01*
X10996Y14561D02*X11066Y14491D01*
Y14074D01*
X10996Y14005D02*X11066Y14074D01*
X10718Y14005D02*X10996D01*
X10718Y14561D02*X10996D01*
X11233Y14422D02*X11372Y14561D01*
X11539Y14283D02*X11747D01*
X11539Y14005D02*X11817D01*
X11539Y14561D02*Y14005D01*
Y14561D02*X11817D01*
X12053Y14213D02*Y13796D01*
X11984Y14283D02*X12053Y14213D01*
X12123Y14283D01*
X12262D01*
X12331Y14213D01*
Y14074D01*
X12262Y14005D02*X12331Y14074D01*
X12123Y14005D02*X12262D01*
X12053Y14074D02*X12123Y14005D01*
X12707Y14283D02*X12776Y14213D01*
X12568Y14283D02*X12707D01*
X12498Y14213D02*X12568Y14283D01*
X12498Y14213D02*Y14074D01*
X12568Y14005D01*
X12776Y14283D02*Y14074D01*
X12846Y14005D01*
X12568D02*X12707D01*
X12776Y14074D01*
X13221Y14283D02*X13291Y14213D01*
X13082Y14283D02*X13221D01*
X13013Y14213D02*X13082Y14283D01*
X13013Y14213D02*Y14074D01*
X13082Y14005D01*
X13221D01*
X13291Y14074D01*
X13013Y13866D02*X13082Y13796D01*
X13221D01*
X13291Y13866D01*
Y14283D02*Y13866D01*
X13527Y14213D02*Y14005D01*
Y14213D02*X13597Y14283D01*
X13666D01*
X13736Y14213D01*
Y14005D01*
X13458Y14283D02*X13527Y14213D01*
X13903Y14422D02*Y14352D01*
Y14213D02*Y14005D01*
X14111D02*X14320D01*
X14042Y14074D02*X14111Y14005D01*
X14042Y14213D02*Y14074D01*
Y14213D02*X14111Y14283D01*
X14250D01*
X14320Y14213D01*
X14042Y14144D02*X14320D01*
Y14213D02*Y14144D01*
X14556Y14213D02*Y14005D01*
Y14213D02*X14626Y14283D01*
X14765D01*
X14487D02*X14556Y14213D01*
X3750Y1400D02*Y2400D01*
X2750Y1400D02*X3750D01*
G54D19*Y2400D02*X2750D01*
X3750Y1400D02*Y2400D01*
X2750Y1400D02*X3750D01*
X2750Y2400D02*Y1400D01*
G54D44*X3575Y2751D02*Y3814D01*
X5661Y2751D02*X3575D01*
X5661Y3814D02*Y2751D01*
X3575Y3814D02*X5661D01*
G54D11*X2650Y7150D02*X2050D01*
X2650Y3050D02*Y7150D01*
X2050Y3050D02*X2650D01*
X2050Y7150D02*Y3050D01*
G54D45*X4050Y5260D02*X4750D01*
X4050D02*Y4060D01*
X4750D01*
Y5260D02*Y4060D01*
X4050Y5160D02*X4750D01*
X3400Y5650D02*X4100D01*
X3400Y6750D02*Y5550D01*
Y6750D02*X4100D01*
Y5550D01*
X3400D02*X4100D01*
X4780Y5350D02*Y4650D01*
X5980D01*
Y5350D01*
X4780D01*
X4880D02*Y4650D01*
X5970Y5280D02*X6670D01*
X5970D02*Y4080D01*
X6670D01*
Y5280D02*Y4080D01*
X5970Y5180D02*X6670D01*
G54D11*X13530Y3300D02*X12350D01*
X13530Y1910D02*Y3300D01*
X12350Y1910D02*X13530D01*
X12350Y3300D02*Y1910D01*
X20650Y12750D02*Y13750D01*
X19650Y12750D02*X20650D01*
G54D19*X21650Y13750D02*X19650D01*
X21650Y6750D02*Y13750D01*
X19650Y6750D02*X21650D01*
X19650Y13750D02*Y6750D01*
G54D45*X18050Y11600D02*Y10900D01*
X19150Y11600D02*X17950D01*
X19150Y10900D02*Y11600D01*
X17950Y10900D02*X19150D01*
X17950Y11600D02*Y10900D01*
X19050Y12500D02*Y11800D01*
X17950D02*X19150D01*
X17950Y12500D02*Y11800D01*
Y12500D02*X19150D01*
Y11800D01*
G54D11*X18650Y10150D02*G75*G03X17950Y9450I0J-700D01*G01*
G75*G03X18650Y8750I700J0D01*G01*
X18649D02*G75*G03X19350Y9450I0J700D01*G01*
G75*G03X18650Y10150I-699J0D01*G01*
X14850Y1300D02*Y2300D01*
X13850Y1300D02*X14850D01*
G54D19*Y2300D02*X13850D01*
X14850Y1300D02*Y2300D01*
X13850Y1300D02*X14850D01*
X13850Y2300D02*Y1300D01*
G54D11*X16430Y3350D02*X15250D01*
X16430Y1960D02*Y3350D01*
X15250Y1960D02*X16430D01*
X15250Y3350D02*Y1960D01*
G54D45*X15050Y4400D02*Y3700D01*
X16150Y4400D02*X14950D01*
X16150Y3700D02*Y4400D01*
X14950Y3700D02*X16150D01*
X14950Y4400D02*Y3700D01*
G54D19*X21850Y5050D02*Y2550D01*
X17050Y5050D02*Y2550D01*
Y5050D02*X21850D01*
X15500Y5450D02*X21500D01*
Y6450D02*Y5450D01*
X15500Y6450D02*X21500D01*
X15500D02*Y5450D01*
G54D11*X16500Y6450D02*Y5450D01*
X15500Y6450D02*X16500D01*
G54D45*X13150Y4600D02*Y3900D01*
X14250Y4600D02*X13050D01*
X14250Y3900D02*Y4600D01*
X13050Y3900D02*X14250D01*
X13050Y4600D02*Y3900D01*
X13150Y7200D02*Y6500D01*
X14250Y7200D02*X13050D01*
X14250Y6500D02*Y7200D01*
X13050Y6500D02*X14250D01*
X13050Y7200D02*Y6500D01*
G54D11*X12850Y12070D02*X13130Y12350D01*
X12850Y8420D02*Y12070D01*
X16780Y8420D02*X12850D01*
X16780Y12350D02*Y8420D01*
X13130Y12350D02*X16780D01*
X13100Y12000D02*G75*G03X13100Y12000I100J0D01*G01*
G54D45*X10350Y9300D02*Y8600D01*
X11450Y9300D02*X10250D01*
X11450Y8600D02*Y9300D01*
X10250Y8600D02*X11450D01*
X10250Y9300D02*Y8600D01*
X10350Y11400D02*Y10700D01*
X11450Y11400D02*X10250D01*
X11450Y10700D02*Y11400D01*
X10250Y10700D02*X11450D01*
X10250Y11400D02*Y10700D01*
X9310Y7020D02*X10190D01*
Y7120D02*Y5580D01*
X9310D02*X10190D01*
X9310Y7120D02*Y5580D01*
Y7120D02*X10190D01*
G54D11*X8850Y11050D02*Y9050D01*
X9850Y11050D02*Y9050D01*
X8850D02*G75*G03X9850Y9050I500J0D01*G01*
Y11050D02*G75*G03X8850Y11050I-500J0D01*G01*
G54D45*X6950Y10850D02*X7650D01*
Y10950D02*Y9750D01*
X6950D02*X7650D01*
X6950Y10950D02*Y9750D01*
Y10950D02*X7650D01*
G54D11*X6550Y13350D02*X7550D01*
Y12350D01*
G54D19*X6550Y13350D02*Y12350D01*
Y13350D02*X11550D01*
Y12350D01*
X6550D02*X11550D01*
G54D45*X10950Y2300D02*Y1600D01*
X12050Y2300D02*X10850D01*
X12050Y1600D02*Y2300D01*
X10850Y1600D02*X12050D01*
X10850Y2300D02*Y1600D01*
X10950Y3150D02*Y2450D01*
X12050Y3150D02*X10850D01*
X12050Y2450D02*Y3150D01*
X10850Y2450D02*X12050D01*
X10850Y3150D02*Y2450D01*
X9150Y3500D02*Y2800D01*
X10250Y3500D02*X9050D01*
X10250Y2800D02*Y3500D01*
X9050Y2800D02*X10250D01*
X9050Y3500D02*Y2800D01*
X9150Y4800D02*Y4100D01*
X10250Y4800D02*X9050D01*
X10250Y4100D02*Y4800D01*
X9050Y4100D02*X10250D01*
X9050Y4800D02*Y4100D01*
G54D11*X12250Y6450D02*Y7450D01*
X11250Y6450D02*X12250D01*
G54D19*Y7450D02*X11250D01*
X12250Y3450D02*Y7450D01*
X11250Y3450D02*X12250D01*
X11250Y7450D02*Y3450D01*
G54D45*X8500Y6850D02*X9200D01*
Y6950D02*Y5750D01*
X8500D02*X9200D01*
X8500Y6950D02*Y5750D01*
Y6950D02*X9200D01*
X4650Y12800D02*Y12100D01*
X5750Y12800D02*X4550D01*
X5750Y12100D02*Y12800D01*
X4550Y12100D02*X5750D01*
X4550Y12800D02*Y12100D01*
X2700Y11150D02*X3400D01*
Y11250D02*Y10050D01*
X2700D02*X3400D01*
X2700Y11250D02*Y10050D01*
Y11250D02*X3400D01*
G54D11*X5920Y5330D02*Y7370D01*
X8420Y5330D02*X5920D01*
X8420Y7370D02*Y5330D01*
X7050Y7370D02*X8420D01*
X5920D02*X7290D01*
X7050D02*G75*G03X7290Y7370I120J0D01*G01*
X3320Y7450D02*Y8470D01*
X5370Y7450D02*X3320D01*
X5370Y8470D02*Y7450D01*
X4220Y8470D02*X5370D01*
X3320D02*X4460D01*
X4220D02*G75*G03X4460Y8470I120J0D01*G01*
G54D45*X2050Y8400D02*Y7700D01*
X3150Y8400D02*X1950D01*
X3150Y7700D02*Y8400D01*
X1950Y7700D02*X3150D01*
X1950Y8400D02*Y7700D01*
X2050Y9300D02*Y8600D01*
X3150Y9300D02*X1950D01*
X3150Y8600D02*Y9300D01*
X1950Y8600D02*X3150D01*
X1950Y9300D02*Y8600D01*
G54D11*X3850Y2400D02*X4050D01*
X3950D02*Y2000D01*
X4170Y2350D02*X4220Y2400D01*
X4370D01*
X4420Y2350D01*
Y2250D01*
X4170Y2000D02*X4420Y2250D01*
X4170Y2000D02*X4420D01*
X4650Y3200D02*Y2850D01*
X4700Y2800D01*
X4800D01*
X4850Y2850D01*
Y3200D02*Y2850D01*
X4970Y3150D02*X5020Y3200D01*
X5120D01*
X5170Y3150D01*
Y2850D01*
X5120Y2800D02*X5170Y2850D01*
X5020Y2800D02*X5120D01*
X4970Y2850D02*X5020Y2800D01*
Y3000D02*X5170D01*
X9700Y1750D02*X9850D01*
X9650Y1800D02*X9700Y1750D01*
X9650Y2100D02*Y1800D01*
Y2100D02*X9700Y2150D01*
X9850D01*
X10020Y1750D02*X10120D01*
X10070Y2150D02*Y1750D01*
X9970Y2050D02*X10070Y2150D01*
X10240Y2100D02*X10290Y2150D01*
X10440D01*
X10490Y2100D01*
Y2000D01*
X10240Y1750D02*X10490Y2000D01*
X10240Y1750D02*X10490D01*
X8660Y6380D02*Y6230D01*
X8710Y6430D02*X8660Y6380D01*
X8710Y6430D02*X9010D01*
X9060Y6380D01*
Y6230D01*
X8660Y6059D02*Y5959D01*
Y6009D02*X9060D01*
X8960Y6109D02*X9060Y6009D01*
X7850Y6350D02*Y6200D01*
X7900Y6400D02*X7850Y6350D01*
X7900Y6400D02*X8200D01*
X8250Y6350D01*
Y6200D01*
X7900Y6079D02*X7850Y6029D01*
X7900Y6079D02*X8000D01*
X8050Y6029D01*
Y5929D01*
X8000Y5879D01*
X7900D02*X8000D01*
X7850Y5929D02*X7900Y5879D01*
X7850Y6029D02*Y5929D01*
X8100Y6079D02*X8050Y6029D01*
X8100Y6079D02*X8200D01*
X8250Y6029D01*
Y5929D01*
X8200Y5879D01*
X8100D02*X8200D01*
X8050Y5929D02*X8100Y5879D01*
X2860Y4980D02*Y4630D01*
X2910Y4580D01*
X3010D01*
X3060Y4630D01*
Y4980D02*Y4630D01*
X3180Y4930D02*X3230Y4980D01*
X3380D01*
X3430Y4930D01*
Y4830D01*
X3180Y4580D02*X3430Y4830D01*
X3180Y4580D02*X3430D01*
X10000Y2600D02*X10150D01*
X9950Y2650D02*X10000Y2600D01*
X9950Y2950D02*Y2650D01*
Y2950D02*X10000Y3000D01*
X10150D01*
X10320Y2600D02*X10420D01*
X10370Y3000D02*Y2600D01*
X10270Y2900D02*X10370Y3000D01*
X10590Y2600D02*X10690D01*
X10640Y3000D02*Y2600D01*
X10540Y2900D02*X10640Y3000D01*
X8150Y3350D02*X8350D01*
X8400Y3300D01*
Y3200D01*
X8350Y3150D02*X8400Y3200D01*
X8200Y3150D02*X8350D01*
X8200Y3350D02*Y2950D01*
Y3150D02*X8400Y2950D01*
X8520Y3300D02*X8570Y3350D01*
X8720D01*
X8770Y3300D01*
Y3200D01*
X8520Y2950D02*X8770Y3200D01*
X8520Y2950D02*X8770D01*
X4750Y6300D02*Y6150D01*
X4700Y6100D02*X4750Y6150D01*
X4400Y6100D02*X4700D01*
X4400D02*X4350Y6150D01*
Y6300D02*Y6150D01*
X4400Y6420D02*X4350Y6470D01*
Y6620D02*Y6470D01*
Y6620D02*X4400Y6670D01*
X4500D01*
X4750Y6420D02*X4500Y6670D01*
X4750D02*Y6420D01*
X6920Y6870D02*X7270D01*
X6920D02*X6870Y6820D01*
Y6720D01*
X6920Y6670D01*
X7270D01*
X6870Y6499D02*Y6399D01*
Y6449D02*X7270D01*
X7170Y6549D02*X7270Y6449D01*
X8350Y4550D02*X8550D01*
X8600Y4500D01*
Y4400D01*
X8550Y4350D02*X8600Y4400D01*
X8400Y4350D02*X8550D01*
X8400Y4550D02*Y4150D01*
Y4350D02*X8600Y4150D01*
X8770D02*X8870D01*
X8820Y4550D02*Y4150D01*
X8720Y4450D02*X8820Y4550D01*
X12650Y2700D02*Y2350D01*
X12700Y2300D01*
X12800D01*
X12850Y2350D01*
Y2700D02*Y2350D01*
X12970Y2300D02*X13170Y2500D01*
Y2650D02*Y2500D01*
X13120Y2700D02*X13170Y2650D01*
X13020Y2700D02*X13120D01*
X12970Y2650D02*X13020Y2700D01*
X12970Y2650D02*Y2550D01*
X13020Y2500D01*
X13170D01*
X20000Y3050D02*X20150D01*
X19950Y3100D02*X20000Y3050D01*
X19950Y3400D02*Y3100D01*
Y3400D02*X20000Y3450D01*
X20150D01*
X20270Y3400D02*Y3100D01*
Y3400D02*X20320Y3450D01*
X20420D01*
X20470Y3400D01*
Y3100D01*
X20420Y3050D02*X20470Y3100D01*
X20320Y3050D02*X20420D01*
X20270Y3100D02*X20320Y3050D01*
X20590Y3450D02*Y3050D01*
Y3450D02*Y3400D01*
X20840Y3150D01*
Y3450D02*Y3050D01*
X20960Y3450D02*Y3050D01*
Y3450D02*Y3400D01*
X21210Y3150D01*
Y3450D02*Y3050D01*
X21330Y3250D02*X21530Y3450D01*
X21330Y3250D02*X21580D01*
X21530Y3450D02*Y3050D01*
X21750Y13750D02*X22150D01*
X21750D02*Y13550D01*
Y13379D02*Y13229D01*
X21800Y13429D02*X21750Y13379D01*
X21800Y13429D02*X22100D01*
X22150Y13379D01*
Y13229D01*
X21750Y13059D02*X22150D01*
Y12909D02*X22100Y12859D01*
X21800D02*X22100D01*
X21750Y12909D02*X21800Y12859D01*
X21750Y13109D02*Y12909D01*
X22150Y13109D02*Y12909D01*
X21750Y12689D02*Y12589D01*
Y12639D02*X22150D01*
X22050Y12739D02*X22150Y12639D01*
X18200Y10250D02*X18350D01*
X18150Y10300D02*X18200Y10250D01*
X18150Y10600D02*Y10300D01*
Y10600D02*X18200Y10650D01*
X18350D01*
X18520Y10250D02*X18620D01*
X18570Y10650D02*Y10250D01*
X18470Y10550D02*X18570Y10650D01*
X18740Y10300D02*X18790Y10250D01*
X18740Y10600D02*Y10300D01*
Y10600D02*X18790Y10650D01*
X18890D01*
X18940Y10600D01*
Y10300D01*
X18890Y10250D02*X18940Y10300D01*
X18790Y10250D02*X18890D01*
X18740Y10350D02*X18940Y10550D01*
X18100Y13250D02*Y12850D01*
X18250Y13250D02*X18300Y13200D01*
Y12900D01*
X18250Y12850D02*X18300Y12900D01*
X18050Y12850D02*X18250D01*
X18050Y13250D02*X18250D01*
X18470Y12850D02*X18570D01*
X18520Y13250D02*Y12850D01*
X18420Y13150D02*X18520Y13250D01*
X18650Y9350D02*Y9000D01*
X18700Y8950D01*
X18800D01*
X18850Y9000D01*
Y9350D02*Y9000D01*
X18970D02*X19020Y8950D01*
X18970Y9100D02*Y9000D01*
Y9100D02*X19020Y9150D01*
X19120D01*
X19170Y9100D01*
Y9000D01*
X19120Y8950D02*X19170Y9000D01*
X19020Y8950D02*X19120D01*
X18970Y9200D02*X19020Y9150D01*
X18970Y9300D02*Y9200D01*
Y9300D02*X19020Y9350D01*
X19120D01*
X19170Y9300D01*
Y9200D01*
X19120Y9150D02*X19170Y9200D01*
X12350Y7400D02*Y7250D01*
X12400Y7450D02*X12350Y7400D01*
X12400Y7450D02*X12700D01*
X12750Y7400D01*
Y7250D01*
X12400Y7129D02*X12700D01*
X12750Y7079D01*
Y6979D01*
X12700Y6929D01*
X12400D02*X12700D01*
X12350Y6979D02*X12400Y6929D01*
X12350Y7079D02*Y6979D01*
X12400Y7129D02*X12350Y7079D01*
Y6809D02*X12750D01*
X12700D02*X12750D01*
X12700D02*X12450Y6559D01*
X12350D02*X12750D01*
X12350Y6439D02*X12750D01*
X12700D02*X12750D01*
X12700D02*X12450Y6189D01*
X12350D02*X12750D01*
X12350Y6019D02*Y5919D01*
Y5969D02*X12750D01*
X12650Y6069D02*X12750Y5969D01*
X15150Y2100D02*X15350D01*
X15250D02*Y1700D01*
X15520D02*X15620D01*
X15570Y2100D02*Y1700D01*
X15470Y2000D02*X15570Y2100D01*
X15750Y2930D02*Y2580D01*
X15800Y2530D01*
X15900D01*
X15950Y2580D01*
Y2930D02*Y2580D01*
X16120Y2530D02*X16220D01*
X16170Y2930D02*Y2530D01*
X16070Y2830D02*X16170Y2930D01*
X16340Y2580D02*X16390Y2530D01*
X16340Y2880D02*Y2580D01*
Y2880D02*X16390Y2930D01*
X16490D01*
X16540Y2880D01*
Y2580D01*
X16490Y2530D02*X16540Y2580D01*
X16390Y2530D02*X16490D01*
X16340Y2630D02*X16540Y2830D01*
X15150Y4850D02*X15350D01*
X15400Y4800D01*
Y4700D01*
X15350Y4650D02*X15400Y4700D01*
X15200Y4650D02*X15350D01*
X15200Y4850D02*Y4450D01*
Y4650D02*X15400Y4450D01*
X15670Y4850D02*X15720Y4800D01*
X15570Y4850D02*X15670D01*
X15520Y4800D02*X15570Y4850D01*
X15520Y4800D02*Y4500D01*
X15570Y4450D01*
X15670Y4650D02*X15720Y4600D01*
X15520Y4650D02*X15670D01*
X15570Y4450D02*X15670D01*
X15720Y4500D01*
Y4600D02*Y4500D01*
X15550Y6550D02*X15700D01*
X15500Y6600D02*X15550Y6550D01*
X15500Y6900D02*Y6600D01*
Y6900D02*X15550Y6950D01*
X15700D01*
X15820Y6900D02*Y6600D01*
Y6900D02*X15870Y6950D01*
X15970D01*
X16020Y6900D01*
Y6600D01*
X15970Y6550D02*X16020Y6600D01*
X15870Y6550D02*X15970D01*
X15820Y6600D02*X15870Y6550D01*
X16140Y6950D02*Y6550D01*
Y6950D02*Y6900D01*
X16390Y6650D01*
Y6950D02*Y6550D01*
X16510Y6950D02*Y6550D01*
Y6950D02*Y6900D01*
X16760Y6650D01*
Y6950D02*Y6550D01*
X16880Y6950D02*X17080D01*
X16880D02*Y6750D01*
X16930Y6800D01*
X17030D01*
X17080Y6750D01*
Y6600D01*
X17030Y6550D02*X17080Y6600D01*
X16930Y6550D02*X17030D01*
X16880Y6600D02*X16930Y6550D01*
X13350Y4950D02*X13550D01*
X13600Y4900D01*
Y4800D01*
X13550Y4750D02*X13600Y4800D01*
X13400Y4750D02*X13550D01*
X13400Y4950D02*Y4550D01*
Y4750D02*X13600Y4550D01*
X13720Y4950D02*X13920D01*
X13720D02*Y4750D01*
X13770Y4800D01*
X13870D01*
X13920Y4750D01*
Y4600D01*
X13870Y4550D02*X13920Y4600D01*
X13770Y4550D02*X13870D01*
X13720Y4600D02*X13770Y4550D01*
X13350Y7750D02*X13550D01*
X13600Y7700D01*
Y7600D01*
X13550Y7550D02*X13600Y7600D01*
X13400Y7550D02*X13550D01*
X13400Y7750D02*Y7350D01*
Y7550D02*X13600Y7350D01*
X13720Y7550D02*X13920Y7750D01*
X13720Y7550D02*X13970D01*
X13920Y7750D02*Y7350D01*
X14250Y10550D02*Y10200D01*
X14300Y10150D01*
X14400D01*
X14450Y10200D01*
Y10550D02*Y10200D01*
X14570Y10350D02*X14770Y10550D01*
X14570Y10350D02*X14820D01*
X14770Y10550D02*Y10150D01*
X10850Y7950D02*X11000D01*
X10800Y8000D02*X10850Y7950D01*
X10800Y8300D02*Y8000D01*
Y8300D02*X10850Y8350D01*
X11000D01*
X11120Y7950D02*X11370Y8200D01*
Y8350D02*Y8200D01*
X11120Y8350D02*X11370D01*
X10850Y10050D02*X11000D01*
X10800Y10100D02*X10850Y10050D01*
X10800Y10400D02*Y10100D01*
Y10400D02*X10850Y10450D01*
X11000D01*
X11270D02*X11320Y10400D01*
X11170Y10450D02*X11270D01*
X11120Y10400D02*X11170Y10450D01*
X11120Y10400D02*Y10100D01*
X11170Y10050D01*
X11270Y10250D02*X11320Y10200D01*
X11120Y10250D02*X11270D01*
X11170Y10050D02*X11270D01*
X11320Y10100D01*
Y10200D02*Y10100D01*
X8200Y11050D02*X8550D01*
X8200D02*X8150Y11000D01*
Y10900D01*
X8200Y10850D01*
X8550D01*
X8150Y10729D02*X8400Y10479D01*
X8550D01*
Y10729D02*Y10479D01*
X5150Y11450D02*X5300D01*
X5100Y11500D02*X5150Y11450D01*
X5100Y11800D02*Y11500D01*
Y11800D02*X5150Y11850D01*
X5300D01*
X5420Y11450D02*X5620Y11650D01*
Y11800D02*Y11650D01*
X5570Y11850D02*X5620Y11800D01*
X5470Y11850D02*X5570D01*
X5420Y11800D02*X5470Y11850D01*
X5420Y11800D02*Y11700D01*
X5470Y11650D01*
X5620D01*
X5150Y10550D02*Y10200D01*
X5200Y10150D01*
X5300D01*
X5350Y10200D01*
Y10550D02*Y10200D01*
X5470Y10550D02*X5670D01*
X5470D02*Y10350D01*
X5520Y10400D01*
X5620D01*
X5670Y10350D01*
Y10200D01*
X5620Y10150D02*X5670Y10200D01*
X5520Y10150D02*X5620D01*
X5470Y10200D02*X5520Y10150D01*
X6300Y10350D02*Y10200D01*
X6350Y10400D02*X6300Y10350D01*
X6350Y10400D02*X6650D01*
X6700Y10350D01*
Y10200D01*
Y10079D02*Y9879D01*
X6500Y10079D02*X6700D01*
X6500D02*X6550Y10029D01*
Y9929D01*
X6500Y9879D01*
X6350D02*X6500D01*
X6300Y9929D02*X6350Y9879D01*
X6300Y10029D02*Y9929D01*
X6350Y10079D02*X6300Y10029D01*
X4090Y7970D02*X4440D01*
X4090D02*X4040Y7920D01*
Y7820D01*
X4090Y7770D01*
X4440D01*
Y7499D02*X4390Y7449D01*
X4440Y7599D02*Y7499D01*
X4390Y7649D02*X4440Y7599D01*
X4090Y7649D02*X4390D01*
X4090D02*X4040Y7599D01*
X4240Y7499D02*X4190Y7449D01*
X4240Y7649D02*Y7499D01*
X4040Y7599D02*Y7499D01*
X4090Y7449D01*
X4190D01*
X2050Y10650D02*Y10500D01*
X2100Y10700D02*X2050Y10650D01*
X2100Y10700D02*X2400D01*
X2450Y10650D01*
Y10500D01*
X2250Y10379D02*X2450Y10179D01*
X2250Y10379D02*Y10129D01*
X2050Y10179D02*X2450D01*
X2140Y9840D02*X2340D01*
X2390Y9790D01*
Y9690D01*
X2340Y9640D02*X2390Y9690D01*
X2190Y9640D02*X2340D01*
X2190Y9840D02*Y9440D01*
Y9640D02*X2390Y9440D01*
X2510Y9790D02*X2560Y9840D01*
X2660D01*
X2710Y9790D01*
Y9490D01*
X2660Y9440D02*X2710Y9490D01*
X2560Y9440D02*X2660D01*
X2510Y9490D02*X2560Y9440D01*
Y9640D02*X2710D01*
X6600Y13450D02*X6750D01*
X6550Y13500D02*X6600Y13450D01*
X6550Y13800D02*Y13500D01*
Y13800D02*X6600Y13850D01*
X6750D01*
X6870Y13800D02*Y13500D01*
Y13800D02*X6920Y13850D01*
X7020D01*
X7070Y13800D01*
Y13500D01*
X7020Y13450D02*X7070Y13500D01*
X6920Y13450D02*X7020D01*
X6870Y13500D02*X6920Y13450D01*
X7190Y13850D02*Y13450D01*
Y13850D02*Y13800D01*
X7440Y13550D01*
Y13850D02*Y13450D01*
X7560Y13850D02*Y13450D01*
Y13850D02*Y13800D01*
X7810Y13550D01*
Y13850D02*Y13450D01*
X7930Y13800D02*X7980Y13850D01*
X8080D01*
X8130Y13800D01*
Y13500D01*
X8080Y13450D02*X8130Y13500D01*
X7980Y13450D02*X8080D01*
X7930Y13500D02*X7980Y13450D01*
Y13650D02*X8130D01*
X2070Y7340D02*X2220D01*
X2020Y7390D02*X2070Y7340D01*
X2020Y7690D02*Y7390D01*
Y7690D02*X2070Y7740D01*
X2220D01*
X2340Y7690D02*X2390Y7740D01*
X2490D01*
X2540Y7690D01*
Y7390D01*
X2490Y7340D02*X2540Y7390D01*
X2390Y7340D02*X2490D01*
X2340Y7390D02*X2390Y7340D01*
Y7540D02*X2540D01*
M02*
