M48
INCH,TZ
T18C0.038
T19C0.020
T20C0.028
T22C0.125
%
T19
X002350Y006850
X002350Y006350
X002350Y005850
X002350Y005350
X002350Y004850
X002350Y004350
X002350Y003850
X002350Y003350
X018650Y009200
X018650Y009700
X017428Y004000
X015840Y002110
X013345Y003490
X012550Y003530
X005030Y013180
X003610Y007185
X010550Y007180
X010202Y009929
X009680Y010314
X012245Y008475
X011010Y008475
X004160Y008000
X001830Y008000
X005055Y010360
X005269Y008731
X006490Y008893
X007160Y009680
X005180Y007005
X005650Y007330
X011605Y011340
X005886Y011461
X012940Y002000
X012565Y006810
X003250Y006670
X004320Y006679
X003740Y004620
X005760Y004320
X005035Y004500
X006710Y006419
X011010Y005370
X007759Y006480
X004680Y002600
X005900Y002960
X013345Y005059
X015140Y013600
X014150Y010550
X014180Y009785
X013817Y012264
X014100Y004739
X014380Y004200
X014525Y005519
X015250Y004739
X013240Y007320
X021957Y012669
X016705Y011015
X016705Y011670
X016465Y012264
X019326Y010905
X019410Y009193
X018097Y010170
T20
X009350Y011050
X009350Y009050
X019950Y003550
X019950Y002750
X018950Y003550
X018950Y002750
T18
X003250Y001900
X020150Y011250
X021150Y011250
X020150Y010250
X021150Y010250
X020150Y013250
X021150Y013250
X020150Y012250
X021150Y012250
X010050Y012850
X011050Y012850
X020150Y009250
X021150Y008250
X021150Y007250
X007050Y012850
X008050Y012850
X009050Y012850
X021150Y009250
X020150Y008250
X020150Y007250
X014350Y001800
X011750Y005950
X011750Y004950
X011750Y003950
X011750Y006950
X016000Y005950
X017000Y005950
X018000Y005950
X019000Y005950
X020000Y005950
X021000Y005950
T22
X024000Y001000
X001000Y014000
X001000Y001000
X024000Y014000
M30
