G04 start of page 9 for group -3984 idx -3984
G04 Title: (unknown), fab *
G04 Creator: pcb 20070208 *
G04 CreationDate: Fri Sep 21 18:13:03 2007 UTC *
G04 For: sean *
G04 Format: Gerber/RS-274X *
G04 PCB-Dimensions: 266220 195850 *
G04 PCB-Coordinate-Origin: lower left *
%MOIN*%
%FSLAX24Y24*%
%LNFAB*%
%ADD11C,0.0100*%
%ADD46R,0.0080X0.0080*%
G54D46*X21493Y2028D02*X21813D01*
X21493D02*Y1708D01*
X21813D01*
Y2028D02*Y1708D01*
X21493Y17776D02*X21813D01*
X21493D02*Y17456D01*
X21813D01*
Y17776D02*Y17456D01*
X1808Y17776D02*X2128D01*
X1808D02*Y17456D01*
X2128D01*
Y17776D02*Y17456D01*
X1808Y2028D02*X2128D01*
X1808D02*Y1708D01*
X2128D01*
Y2028D02*Y1708D01*
X1340Y20870D02*X1660D01*
X1340D02*Y20550D01*
X1660D01*
Y20870D02*Y20550D01*
G54D11*X13500Y20935D02*Y20860D01*
X13650Y20710D01*
X13800Y20860D01*
Y20935D02*Y20860D01*
X13650Y20710D02*Y20335D01*
X13980Y20635D02*X14205D01*
X13980Y20335D02*X14280D01*
X13980Y20935D02*Y20335D01*
Y20935D02*X14280D01*
X14760D02*X14835Y20860D01*
X14535Y20935D02*X14760D01*
X14460Y20860D02*X14535Y20935D01*
X14460Y20860D02*Y20710D01*
X14535Y20635D01*
X14760D01*
X14835Y20560D01*
Y20410D01*
X14760Y20335D02*X14835Y20410D01*
X14535Y20335D02*X14760D01*
X14460Y20410D02*X14535Y20335D01*
X13500Y20009D02*X15015D01*
X9800Y20635D02*X10100Y20935D01*
X9800Y20635D02*X10175D01*
X10100Y20935D02*Y20335D01*
X9800Y20009D02*X10355D01*
X4500Y20410D02*X4575Y20335D01*
X4500Y20860D02*Y20410D01*
Y20860D02*X4575Y20935D01*
X4725D01*
X4800Y20860D01*
Y20410D01*
X4725Y20335D02*X4800Y20410D01*
X4575Y20335D02*X4725D01*
X4500Y20485D02*X4800Y20785D01*
X4980Y20335D02*X5055D01*
X5310D02*X5460D01*
X5385Y20935D02*Y20335D01*
X5235Y20785D02*X5385Y20935D01*
X5640Y20860D02*X5715Y20935D01*
X5940D01*
X6015Y20860D01*
Y20710D01*
X5640Y20335D02*X6015Y20710D01*
X5640Y20335D02*X6015D01*
X6195Y20935D02*X6495D01*
X6195D02*Y20635D01*
X6270Y20710D01*
X6420D01*
X6495Y20635D01*
Y20410D01*
X6420Y20335D02*X6495Y20410D01*
X6270Y20335D02*X6420D01*
X6195Y20410D02*X6270Y20335D01*
X4500Y20009D02*X6675D01*
X19020Y1235D02*G75*G03X19180Y1235I80J0D01*G01*
G75*G03X19020Y1235I-80J0D01*G01*
X14220D02*G75*G03X14380Y1235I80J0D01*G01*
G75*G03X14220Y1235I-80J0D01*G01*
X1420Y22210D02*G75*G03X1580Y22210I80J0D01*G01*
G75*G03X1420Y22210I-80J0D01*G01*
X13500Y22435D02*Y22360D01*
X13650Y22210D01*
X13800Y22360D01*
Y22435D02*Y22360D01*
X13650Y22210D02*Y21835D01*
X13980Y22135D02*X14205D01*
X13980Y21835D02*X14280D01*
X13980Y22435D02*Y21835D01*
Y22435D02*X14280D01*
X14760D02*X14835Y22360D01*
X14535Y22435D02*X14760D01*
X14460Y22360D02*X14535Y22435D01*
X14460Y22360D02*Y22210D01*
X14535Y22135D01*
X14760D01*
X14835Y22060D01*
Y21910D01*
X14760Y21835D02*X14835Y21910D01*
X14535Y21835D02*X14760D01*
X14460Y21910D02*X14535Y21835D01*
X13500Y21509D02*X15015D01*
X9800Y22360D02*X9875Y22435D01*
X10100D01*
X10175Y22360D01*
Y22210D01*
X9800Y21835D02*X10175Y22210D01*
X9800Y21835D02*X10175D01*
X9800Y21509D02*X10355D01*
X4500Y21910D02*X4575Y21835D01*
X4500Y22360D02*Y21910D01*
Y22360D02*X4575Y22435D01*
X4725D01*
X4800Y22360D01*
Y21910D01*
X4725Y21835D02*X4800Y21910D01*
X4575Y21835D02*X4725D01*
X4500Y21985D02*X4800Y22285D01*
X4980Y21835D02*X5055D01*
X5235Y21910D02*X5310Y21835D01*
X5235Y22360D02*Y21910D01*
Y22360D02*X5310Y22435D01*
X5460D01*
X5535Y22360D01*
Y21910D01*
X5460Y21835D02*X5535Y21910D01*
X5310Y21835D02*X5460D01*
X5235Y21985D02*X5535Y22285D01*
X5715Y21835D02*X6015Y22135D01*
Y22360D02*Y22135D01*
X5940Y22435D02*X6015Y22360D01*
X5790Y22435D02*X5940D01*
X5715Y22360D02*X5790Y22435D01*
X5715Y22360D02*Y22210D01*
X5790Y22135D01*
X6015D01*
X6195Y21910D02*X6270Y21835D01*
X6195Y22360D02*Y21910D01*
Y22360D02*X6270Y22435D01*
X6420D01*
X6495Y22360D01*
Y21910D01*
X6420Y21835D02*X6495Y21910D01*
X6270Y21835D02*X6420D01*
X6195Y21985D02*X6495Y22285D01*
X4500Y21509D02*X6675D01*
X9080Y18005D02*X9320Y17765D01*
X9080D02*X9320Y18005D01*
X10080D02*X10320Y17765D01*
X10080D02*X10320Y18005D01*
X11080D02*X11320Y17765D01*
X11080D02*X11320Y18005D01*
X12080D02*X12320Y17765D01*
X12080D02*X12320Y18005D01*
X13080D02*X13320Y17765D01*
X13080D02*X13320Y18005D01*
X24580Y13505D02*X24820Y13265D01*
X24580D02*X24820Y13505D01*
X25580D02*X25820Y13265D01*
X25580D02*X25820Y13505D01*
X24580Y12505D02*X24820Y12265D01*
X24580D02*X24820Y12505D01*
X25580D02*X25820Y12265D01*
X25580D02*X25820Y12505D01*
X24580Y11505D02*X24820Y11265D01*
X24580D02*X24820Y11505D01*
X25580D02*X25820Y11265D01*
X25580D02*X25820Y11505D01*
X24580Y10505D02*X24820Y10265D01*
X24580D02*X24820Y10505D01*
X25580D02*X25820Y10265D01*
X25580D02*X25820Y10505D01*
X24580Y9505D02*X24820Y9265D01*
X24580D02*X24820Y9505D01*
X25580D02*X25820Y9265D01*
X25580D02*X25820Y9505D01*
X24580Y8505D02*X24820Y8265D01*
X24580D02*X24820Y8505D01*
X25580D02*X25820Y8265D01*
X25580D02*X25820Y8505D01*
X24580Y7505D02*X24820Y7265D01*
X24580D02*X24820Y7505D01*
X25580D02*X25820Y7265D01*
X25580D02*X25820Y7505D01*
X24580Y6505D02*X24820Y6265D01*
X24580D02*X24820Y6505D01*
X25580D02*X25820Y6265D01*
X25580D02*X25820Y6505D01*
X730Y16005D02*X970Y15765D01*
X730D02*X970Y16005D01*
X780Y3505D02*X1020Y3265D01*
X780D02*X1020Y3505D01*
X11480Y4905D02*X11720Y4665D01*
X11480D02*X11720Y4905D01*
X11480Y3905D02*X11720Y3665D01*
X11480D02*X11720Y3905D01*
X11480Y2905D02*X11720Y2665D01*
X11480D02*X11720Y2905D01*
X11480Y1905D02*X11720Y1665D01*
X11480D02*X11720Y1905D01*
X6280Y18005D02*X6520Y17765D01*
X6280D02*X6520Y18005D01*
X5280D02*X5520Y17765D01*
X5280D02*X5520Y18005D01*
X4880Y2205D02*X5120Y1965D01*
X4880D02*X5120Y2205D01*
X4880Y3205D02*X5120Y2965D01*
X4880D02*X5120Y3205D01*
X5880Y2205D02*X6120Y1965D01*
X5880D02*X6120Y2205D01*
X5880Y3205D02*X6120Y2965D01*
X5880D02*X6120Y3205D01*
X6880Y2205D02*X7120Y1965D01*
X6880D02*X7120Y2205D01*
X6880Y3205D02*X7120Y2965D01*
X6880D02*X7120Y3205D01*
X7880Y2205D02*X8120Y1965D01*
X7880D02*X8120Y2205D01*
X7880Y3205D02*X8120Y2965D01*
X7880D02*X8120Y3205D01*
X8880Y2205D02*X9120Y1965D01*
X8880D02*X9120Y2205D01*
X8880Y3205D02*X9120Y2965D01*
X8880D02*X9120Y3205D01*
X1380Y23830D02*X1620Y23590D01*
X1380D02*X1620Y23830D01*
X13500Y23935D02*Y23860D01*
X13650Y23710D01*
X13800Y23860D01*
Y23935D02*Y23860D01*
X13650Y23710D02*Y23335D01*
X13980Y23635D02*X14205D01*
X13980Y23335D02*X14280D01*
X13980Y23935D02*Y23335D01*
Y23935D02*X14280D01*
X14760D02*X14835Y23860D01*
X14535Y23935D02*X14760D01*
X14460Y23860D02*X14535Y23935D01*
X14460Y23860D02*Y23710D01*
X14535Y23635D01*
X14760D01*
X14835Y23560D01*
Y23410D01*
X14760Y23335D02*X14835Y23410D01*
X14535Y23335D02*X14760D01*
X14460Y23410D02*X14535Y23335D01*
X13500Y23009D02*X15015D01*
X9800Y23860D02*X9875Y23935D01*
X10025D01*
X10100Y23860D01*
Y23410D01*
X10025Y23335D02*X10100Y23410D01*
X9875Y23335D02*X10025D01*
X9800Y23410D02*X9875Y23335D01*
Y23635D02*X10100D01*
X10280Y23335D02*X10580Y23635D01*
Y23860D02*Y23635D01*
X10505Y23935D02*X10580Y23860D01*
X10355Y23935D02*X10505D01*
X10280Y23860D02*X10355Y23935D01*
X10280Y23860D02*Y23710D01*
X10355Y23635D01*
X10580D01*
X9800Y23009D02*X10760D01*
X4500Y23410D02*X4575Y23335D01*
X4500Y23860D02*Y23410D01*
Y23860D02*X4575Y23935D01*
X4725D01*
X4800Y23860D01*
Y23410D01*
X4725Y23335D02*X4800Y23410D01*
X4575Y23335D02*X4725D01*
X4500Y23485D02*X4800Y23785D01*
X4980Y23335D02*X5055D01*
X5235Y23410D02*X5310Y23335D01*
X5235Y23860D02*Y23410D01*
Y23860D02*X5310Y23935D01*
X5460D01*
X5535Y23860D01*
Y23410D01*
X5460Y23335D02*X5535Y23410D01*
X5310Y23335D02*X5460D01*
X5235Y23485D02*X5535Y23785D01*
X5715Y23860D02*X5790Y23935D01*
X5940D01*
X6015Y23860D01*
Y23410D01*
X5940Y23335D02*X6015Y23410D01*
X5790Y23335D02*X5940D01*
X5715Y23410D02*X5790Y23335D01*
Y23635D02*X6015D01*
X6195Y23410D02*X6270Y23335D01*
X6195Y23560D02*Y23410D01*
Y23560D02*X6270Y23635D01*
X6420D01*
X6495Y23560D01*
Y23410D01*
X6420Y23335D02*X6495Y23410D01*
X6270Y23335D02*X6420D01*
X6195Y23710D02*X6270Y23635D01*
X6195Y23860D02*Y23710D01*
Y23860D02*X6270Y23935D01*
X6420D01*
X6495Y23860D01*
Y23710D01*
X6420Y23635D02*X6495Y23710D01*
X4500Y23009D02*X6675D01*
X11463Y13118D02*Y12798D01*
X11303Y12958D02*X11623D01*
X13463Y13118D02*Y12798D01*
X13303Y12958D02*X13623D01*
X17200Y3295D02*Y2975D01*
X17040Y3135D02*X17360D01*
X16200Y3295D02*Y2975D01*
X16040Y3135D02*X16360D01*
X16200Y2495D02*Y2175D01*
X16040Y2335D02*X16360D01*
X17200Y2495D02*Y2175D01*
X17040Y2335D02*X17360D01*
X1500Y25370D02*Y25050D01*
X1340Y25210D02*X1660D01*
X13500Y25435D02*Y25360D01*
X13650Y25210D01*
X13800Y25360D01*
Y25435D02*Y25360D01*
X13650Y25210D02*Y24835D01*
X13980Y25135D02*X14205D01*
X13980Y24835D02*X14280D01*
X13980Y25435D02*Y24835D01*
Y25435D02*X14280D01*
X14760D02*X14835Y25360D01*
X14535Y25435D02*X14760D01*
X14460Y25360D02*X14535Y25435D01*
X14460Y25360D02*Y25210D01*
X14535Y25135D01*
X14760D01*
X14835Y25060D01*
Y24910D01*
X14760Y24835D02*X14835Y24910D01*
X14535Y24835D02*X14760D01*
X14460Y24910D02*X14535Y24835D01*
X13500Y24509D02*X15015D01*
X10025Y25435D02*X10100Y25360D01*
X9875Y25435D02*X10025D01*
X9800Y25360D02*X9875Y25435D01*
X9800Y25360D02*Y24910D01*
X9875Y24835D01*
X10025Y25135D02*X10100Y25060D01*
X9800Y25135D02*X10025D01*
X9875Y24835D02*X10025D01*
X10100Y24910D01*
Y25060D02*Y24910D01*
X9800Y24509D02*X10280D01*
X4500Y24910D02*X4575Y24835D01*
X4500Y25360D02*Y24910D01*
Y25360D02*X4575Y25435D01*
X4725D01*
X4800Y25360D01*
Y24910D01*
X4725Y24835D02*X4800Y24910D01*
X4575Y24835D02*X4725D01*
X4500Y24985D02*X4800Y25285D01*
X4980Y24835D02*X5055D01*
X5235Y24910D02*X5310Y24835D01*
X5235Y25360D02*Y24910D01*
Y25360D02*X5310Y25435D01*
X5460D01*
X5535Y25360D01*
Y24910D01*
X5460Y24835D02*X5535Y24910D01*
X5310Y24835D02*X5460D01*
X5235Y24985D02*X5535Y25285D01*
X5715Y25360D02*X5790Y25435D01*
X6015D01*
X6090Y25360D01*
Y25210D01*
X5715Y24835D02*X6090Y25210D01*
X5715Y24835D02*X6090D01*
X6270Y24910D02*X6345Y24835D01*
X6270Y25060D02*Y24910D01*
Y25060D02*X6345Y25135D01*
X6495D01*
X6570Y25060D01*
Y24910D01*
X6495Y24835D02*X6570Y24910D01*
X6345Y24835D02*X6495D01*
X6270Y25210D02*X6345Y25135D01*
X6270Y25360D02*Y25210D01*
Y25360D02*X6345Y25435D01*
X6495D01*
X6570Y25360D01*
Y25210D01*
X6495Y25135D02*X6570Y25210D01*
X4500Y24509D02*X6750D01*
X21600Y12335D02*Y12175D01*
Y12335D02*X21738Y12415D01*
X21600Y12335D02*X21461Y12415D01*
X21600Y12835D02*Y12675D01*
Y12835D02*X21738Y12915D01*
X21600Y12835D02*X21461Y12915D01*
X850Y10435D02*Y10275D01*
Y10435D02*X988Y10515D01*
X850Y10435D02*X711Y10515D01*
X850Y9935D02*Y9775D01*
Y9935D02*X988Y10015D01*
X850Y9935D02*X711Y10015D01*
X850Y9435D02*Y9275D01*
Y9435D02*X988Y9515D01*
X850Y9435D02*X711Y9515D01*
X850Y8935D02*Y8775D01*
Y8935D02*X988Y9015D01*
X850Y8935D02*X711Y9015D01*
X850Y8435D02*Y8275D01*
Y8435D02*X988Y8515D01*
X850Y8435D02*X711Y8515D01*
X850Y7935D02*Y7775D01*
Y7935D02*X988Y8015D01*
X850Y7935D02*X711Y8015D01*
X850Y7435D02*Y7275D01*
Y7435D02*X988Y7515D01*
X850Y7435D02*X711Y7515D01*
X850Y6935D02*Y6775D01*
Y6935D02*X988Y7015D01*
X850Y6935D02*X711Y7015D01*
X15675Y5054D02*Y4894D01*
Y5054D02*X15813Y5134D01*
X15675Y5054D02*X15536Y5134D01*
X15200Y6955D02*Y6795D01*
Y6955D02*X15338Y7035D01*
X15200Y6955D02*X15061Y7035D01*
X18587Y16942D02*Y16782D01*
Y16942D02*X18726Y17022D01*
X18587Y16942D02*X18448Y17022D01*
X25747Y14900D02*Y14740D01*
Y14900D02*X25886Y14980D01*
X25747Y14900D02*X25609Y14980D01*
X15450Y3885D02*Y3725D01*
Y3885D02*X15588Y3965D01*
X15450Y3885D02*X15311Y3965D01*
X16900Y6510D02*Y6350D01*
Y6510D02*X17038Y6590D01*
X16900Y6510D02*X16761Y6590D01*
X17032Y16440D02*Y16280D01*
Y16440D02*X17171Y16520D01*
X17032Y16440D02*X16893Y16520D01*
X17032Y13745D02*Y13585D01*
Y13745D02*X17171Y13825D01*
X17032Y13745D02*X16893Y13825D01*
X5016Y16929D02*Y16769D01*
Y16929D02*X5154Y17009D01*
X5016Y16929D02*X4877Y17009D01*
X9450Y3835D02*Y3675D01*
Y3835D02*X9588Y3915D01*
X9450Y3835D02*X9311Y3915D01*
X7814Y8661D02*Y8501D01*
Y8661D02*X7952Y8741D01*
X7814Y8661D02*X7675Y8741D01*
X5400Y15231D02*Y15071D01*
Y15231D02*X5538Y15311D01*
X5400Y15231D02*X5261Y15311D01*
X2827Y8661D02*Y8501D01*
Y8661D02*X2965Y8741D01*
X2827Y8661D02*X2688Y8741D01*
X20150Y8060D02*Y7900D01*
Y8060D02*X20288Y8140D01*
X20150Y8060D02*X20011Y8140D01*
X16387Y5335D02*Y5175D01*
Y5335D02*X16526Y5415D01*
X16387Y5335D02*X16249Y5415D01*
X15250Y7655D02*Y7495D01*
Y7655D02*X15388Y7735D01*
X15250Y7655D02*X15111Y7735D01*
X19161Y9505D02*Y9345D01*
Y9505D02*X19299Y9585D01*
X19161Y9505D02*X19022Y9585D01*
X4263Y8101D02*Y7941D01*
Y8101D02*X4402Y8181D01*
X4263Y8101D02*X4125Y8181D01*
X5064Y12571D02*Y12411D01*
Y12571D02*X5202Y12651D01*
X5064Y12571D02*X4925Y12651D01*
X7514Y16320D02*Y16160D01*
Y16320D02*X7652Y16400D01*
X7514Y16320D02*X7375Y16400D01*
X17340Y15345D02*Y15185D01*
Y15345D02*X17478Y15425D01*
X17340Y15345D02*X17201Y15425D01*
X5432Y14286D02*Y14126D01*
Y14286D02*X5570Y14366D01*
X5432Y14286D02*X5293Y14366D01*
X14784Y8905D02*Y8745D01*
Y8905D02*X14922Y8985D01*
X14784Y8905D02*X14645Y8985D01*
X17340Y9205D02*Y9045D01*
Y9205D02*X17478Y9285D01*
X17340Y9205D02*X17201Y9285D01*
X13579Y14890D02*Y14730D01*
Y14890D02*X13718Y14970D01*
X13579Y14890D02*X13441Y14970D01*
X14263Y12795D02*Y12635D01*
Y12795D02*X14402Y12875D01*
X14263Y12795D02*X14125Y12875D01*
X13600Y9204D02*Y9044D01*
Y9204D02*X13738Y9284D01*
X13600Y9204D02*X13461Y9284D01*
X12869Y6784D02*Y6624D01*
Y6784D02*X13008Y6864D01*
X12869Y6784D02*X12731Y6864D01*
X15089Y4585D02*Y4425D01*
Y4585D02*X15228Y4665D01*
X15089Y4585D02*X14951Y4665D01*
X15285Y10402D02*Y10242D01*
Y10402D02*X15423Y10482D01*
X15285Y10402D02*X15146Y10482D01*
X18600Y10402D02*Y10242D01*
Y10402D02*X18738Y10482D01*
X18600Y10402D02*X18461Y10482D01*
X18290Y7715D02*Y7555D01*
Y7715D02*X18428Y7795D01*
X18290Y7715D02*X18151Y7795D01*
X3803Y7935D02*Y7775D01*
Y7935D02*X3942Y8015D01*
X3803Y7935D02*X3665Y8015D01*
X14594Y14987D02*Y14827D01*
Y14987D02*X14733Y15067D01*
X14594Y14987D02*X14456Y15067D01*
X6694Y13525D02*Y13365D01*
Y13525D02*X6832Y13605D01*
X6694Y13525D02*X6555Y13605D01*
X8433Y9451D02*Y9291D01*
Y9451D02*X8572Y9531D01*
X8433Y9451D02*X8295Y9531D01*
X14194Y14685D02*Y14525D01*
Y14685D02*X14333Y14765D01*
X14194Y14685D02*X14056Y14765D01*
X11575Y13999D02*Y13839D01*
Y13999D02*X11713Y14079D01*
X11575Y13999D02*X11436Y14079D01*
X4619Y11300D02*Y11140D01*
Y11300D02*X4757Y11380D01*
X4619Y11300D02*X4480Y11380D01*
X7883Y8228D02*Y8068D01*
Y8228D02*X8022Y8308D01*
X7883Y8228D02*X7745Y8308D01*
X6013Y10335D02*Y10175D01*
Y10335D02*X6152Y10415D01*
X6013Y10335D02*X5875Y10415D01*
X6294Y8941D02*Y8781D01*
Y8941D02*X6432Y9021D01*
X6294Y8941D02*X6155Y9021D01*
X7914Y13986D02*Y13826D01*
Y13986D02*X8052Y14066D01*
X7914Y13986D02*X7775Y14066D01*
X7914Y15911D02*Y15751D01*
Y15911D02*X8052Y15991D01*
X7914Y15911D02*X7775Y15991D01*
X14594Y14375D02*Y14215D01*
Y14375D02*X14733Y14455D01*
X14594Y14375D02*X14456Y14455D01*
X11250Y14338D02*Y14178D01*
Y14338D02*X11388Y14418D01*
X11250Y14338D02*X11111Y14418D01*
X17030Y10105D02*Y9945D01*
Y10105D02*X17168Y10185D01*
X17030Y10105D02*X16891Y10185D01*
X19866Y10105D02*Y9945D01*
Y10105D02*X20004Y10185D01*
X19866Y10105D02*X19727Y10185D01*
X24250Y14280D02*Y14120D01*
Y14280D02*X24388Y14360D01*
X24250Y14280D02*X24111Y14360D01*
X24987Y14600D02*Y14440D01*
Y14600D02*X25126Y14680D01*
X24987Y14600D02*X24848Y14680D01*
X18900Y9785D02*Y9625D01*
Y9785D02*X19038Y9865D01*
X18900Y9785D02*X18761Y9865D01*
X23950Y8385D02*Y8225D01*
Y8385D02*X24088Y8465D01*
X23950Y8385D02*X23811Y8465D01*
X18394Y13905D02*Y13745D01*
Y13905D02*X18533Y13985D01*
X18394Y13905D02*X18256Y13985D01*
X19575Y13905D02*Y13745D01*
Y13905D02*X19713Y13985D01*
X19575Y13905D02*X19436Y13985D01*
X16718Y6010D02*Y5850D01*
Y6010D02*X16857Y6090D01*
X16718Y6010D02*X16580Y6090D01*
X8214Y7592D02*Y7432D01*
Y7592D02*X8352Y7672D01*
X8214Y7592D02*X8075Y7672D01*
X14180Y6384D02*Y6224D01*
Y6384D02*X14319Y6464D01*
X14180Y6384D02*X14042Y6464D01*
X11600Y8905D02*Y8745D01*
Y8905D02*X11738Y8985D01*
X11600Y8905D02*X11461Y8985D01*
X15565Y8905D02*Y8745D01*
Y8905D02*X15703Y8985D01*
X15565Y8905D02*X15426Y8985D01*
X17775Y4985D02*Y4825D01*
Y4985D02*X17913Y5065D01*
X17775Y4985D02*X17636Y5065D01*
X16642Y8355D02*Y8195D01*
Y8355D02*X16781Y8435D01*
X16642Y8355D02*X16503Y8435D01*
X15200Y8090D02*Y7930D01*
Y8090D02*X15338Y8170D01*
X15200Y8090D02*X15061Y8170D01*
X3223Y8301D02*Y8141D01*
Y8301D02*X3362Y8381D01*
X3223Y8301D02*X3085Y8381D01*
X5733D02*Y8221D01*
Y8381D02*X5872Y8461D01*
X5733Y8381D02*X5595Y8461D01*
X5453Y8967D02*Y8807D01*
Y8967D02*X5592Y9047D01*
X5453Y8967D02*X5315Y9047D01*
X4163Y9604D02*Y9444D01*
Y9604D02*X4302Y9684D01*
X4163Y9604D02*X4025Y9684D01*
X24057Y14930D02*Y14770D01*
Y14930D02*X24196Y15010D01*
X24057Y14930D02*X23919Y15010D01*
X7174Y8181D02*Y8021D01*
Y8181D02*X7312Y8261D01*
X7174Y8181D02*X7035Y8261D01*
X1500Y26710D02*Y26550D01*
Y26710D02*X1638Y26790D01*
X1500Y26710D02*X1361Y26790D01*
X13500Y26935D02*Y26860D01*
X13650Y26710D01*
X13800Y26860D01*
Y26935D02*Y26860D01*
X13650Y26710D02*Y26335D01*
X13980Y26635D02*X14205D01*
X13980Y26335D02*X14280D01*
X13980Y26935D02*Y26335D01*
Y26935D02*X14280D01*
X14760D02*X14835Y26860D01*
X14535Y26935D02*X14760D01*
X14460Y26860D02*X14535Y26935D01*
X14460Y26860D02*Y26710D01*
X14535Y26635D01*
X14760D01*
X14835Y26560D01*
Y26410D01*
X14760Y26335D02*X14835Y26410D01*
X14535Y26335D02*X14760D01*
X14460Y26410D02*X14535Y26335D01*
X13500Y26009D02*X15015D01*
X9800Y26335D02*X10175Y26710D01*
Y26935D02*Y26710D01*
X9800Y26935D02*X10175D01*
X10355Y26410D02*X10430Y26335D01*
X10355Y26560D02*Y26410D01*
Y26560D02*X10430Y26635D01*
X10580D01*
X10655Y26560D01*
Y26410D01*
X10580Y26335D02*X10655Y26410D01*
X10430Y26335D02*X10580D01*
X10355Y26710D02*X10430Y26635D01*
X10355Y26860D02*Y26710D01*
Y26860D02*X10430Y26935D01*
X10580D01*
X10655Y26860D01*
Y26710D01*
X10580Y26635D02*X10655Y26710D01*
X9800Y26009D02*X10835D01*
X4500Y26410D02*X4575Y26335D01*
X4500Y26860D02*Y26410D01*
Y26860D02*X4575Y26935D01*
X4725D01*
X4800Y26860D01*
Y26410D01*
X4725Y26335D02*X4800Y26410D01*
X4575Y26335D02*X4725D01*
X4500Y26485D02*X4800Y26785D01*
X4980Y26335D02*X5055D01*
X5235Y26410D02*X5310Y26335D01*
X5235Y26860D02*Y26410D01*
Y26860D02*X5310Y26935D01*
X5460D01*
X5535Y26860D01*
Y26410D01*
X5460Y26335D02*X5535Y26410D01*
X5310Y26335D02*X5460D01*
X5235Y26485D02*X5535Y26785D01*
X5715Y26860D02*X5790Y26935D01*
X6015D01*
X6090Y26860D01*
Y26710D01*
X5715Y26335D02*X6090Y26710D01*
X5715Y26335D02*X6090D01*
X6270Y26410D02*X6345Y26335D01*
X6270Y26860D02*Y26410D01*
Y26860D02*X6345Y26935D01*
X6495D01*
X6570Y26860D01*
Y26410D01*
X6495Y26335D02*X6570Y26410D01*
X6345Y26335D02*X6495D01*
X6270Y26485D02*X6570Y26785D01*
X4500Y26009D02*X6750D01*
X300Y28435D02*X375Y28360D01*
X75Y28435D02*X300D01*
X0Y28360D02*X75Y28435D01*
X0Y28360D02*Y28210D01*
X75Y28135D01*
X300D01*
X375Y28060D01*
Y27910D01*
X300Y27835D02*X375Y27910D01*
X75Y27835D02*X300D01*
X0Y27910D02*X75Y27835D01*
X555Y28135D02*Y27910D01*
X630Y27835D01*
X855Y28135D02*Y27685D01*
X780Y27610D02*X855Y27685D01*
X630Y27610D02*X780D01*
X555Y27685D02*X630Y27610D01*
Y27835D02*X780D01*
X855Y27910D01*
X1110Y28060D02*Y27835D01*
Y28060D02*X1185Y28135D01*
X1260D01*
X1335Y28060D01*
Y27835D01*
Y28060D02*X1410Y28135D01*
X1485D01*
X1560Y28060D01*
Y27835D01*
X1035Y28135D02*X1110Y28060D01*
X1740Y28435D02*Y27835D01*
Y27910D02*X1815Y27835D01*
X1965D01*
X2040Y27910D01*
Y28060D02*Y27910D01*
X1965Y28135D02*X2040Y28060D01*
X1815Y28135D02*X1965D01*
X1740Y28060D02*X1815Y28135D01*
X2220Y28060D02*Y27910D01*
Y28060D02*X2295Y28135D01*
X2445D01*
X2520Y28060D01*
Y27910D01*
X2445Y27835D02*X2520Y27910D01*
X2295Y27835D02*X2445D01*
X2220Y27910D02*X2295Y27835D01*
X2700Y28435D02*Y27910D01*
X2775Y27835D01*
X4175Y28435D02*Y27835D01*
X4400Y28435D02*X4475Y28360D01*
Y27910D01*
X4400Y27835D02*X4475Y27910D01*
X4100Y27835D02*X4400D01*
X4100Y28435D02*X4400D01*
X4655Y28285D02*Y28210D01*
Y28060D02*Y27835D01*
X5030Y28135D02*X5105Y28060D01*
X4880Y28135D02*X5030D01*
X4805Y28060D02*X4880Y28135D01*
X4805Y28060D02*Y27910D01*
X4880Y27835D01*
X5105Y28135D02*Y27910D01*
X5180Y27835D01*
X4880D02*X5030D01*
X5105Y27910D01*
X5435Y28060D02*Y27835D01*
Y28060D02*X5510Y28135D01*
X5585D01*
X5660Y28060D01*
Y27835D01*
Y28060D02*X5735Y28135D01*
X5810D01*
X5885Y28060D01*
Y27835D01*
X5360Y28135D02*X5435Y28060D01*
X6065Y27835D02*X6140D01*
X6590Y27910D02*X6665Y27835D01*
X6590Y28360D02*X6665Y28435D01*
X6590Y28360D02*Y27910D01*
X6845Y28435D02*X6995D01*
X6920D02*Y27835D01*
X6845D02*X6995D01*
X7251Y28060D02*Y27835D01*
Y28060D02*X7326Y28135D01*
X7401D01*
X7476Y28060D01*
Y27835D01*
X7176Y28135D02*X7251Y28060D01*
X7731Y28135D02*X7956D01*
X7656Y28060D02*X7731Y28135D01*
X7656Y28060D02*Y27910D01*
X7731Y27835D01*
X7956D01*
X8136Y28435D02*Y27835D01*
Y28060D02*X8211Y28135D01*
X8361D01*
X8436Y28060D01*
Y27835D01*
X8616Y28435D02*X8691Y28360D01*
Y27910D01*
X8616Y27835D02*X8691Y27910D01*
X9575Y27835D02*X9800D01*
X9500Y27910D02*X9575Y27835D01*
X9500Y28360D02*Y27910D01*
Y28360D02*X9575Y28435D01*
X9800D01*
X9980Y28060D02*Y27910D01*
Y28060D02*X10055Y28135D01*
X10205D01*
X10280Y28060D01*
Y27910D01*
X10205Y27835D02*X10280Y27910D01*
X10055Y27835D02*X10205D01*
X9980Y27910D02*X10055Y27835D01*
X10460Y28135D02*Y27910D01*
X10535Y27835D01*
X10685D01*
X10760Y27910D01*
Y28135D02*Y27910D01*
X11015Y28060D02*Y27835D01*
Y28060D02*X11090Y28135D01*
X11165D01*
X11240Y28060D01*
Y27835D01*
X10940Y28135D02*X11015Y28060D01*
X11495Y28435D02*Y27910D01*
X11570Y27835D01*
X11420Y28210D02*X11570D01*
X13075Y28435D02*Y27835D01*
X13000Y28435D02*X13300D01*
X13375Y28360D01*
Y28210D01*
X13300Y28135D02*X13375Y28210D01*
X13075Y28135D02*X13300D01*
X13555Y28435D02*Y27910D01*
X13630Y27835D01*
X14005Y28135D02*X14080Y28060D01*
X13855Y28135D02*X14005D01*
X13780Y28060D02*X13855Y28135D01*
X13780Y28060D02*Y27910D01*
X13855Y27835D01*
X14080Y28135D02*Y27910D01*
X14155Y27835D01*
X13855D02*X14005D01*
X14080Y27910D01*
X14410Y28435D02*Y27910D01*
X14485Y27835D01*
X14335Y28210D02*X14485D01*
X14710Y27835D02*X14935D01*
X14635Y27910D02*X14710Y27835D01*
X14635Y28060D02*Y27910D01*
Y28060D02*X14710Y28135D01*
X14860D01*
X14935Y28060D01*
X14635Y27985D02*X14935D01*
Y28060D02*Y27985D01*
X15415Y28435D02*Y27835D01*
X15340D02*X15415Y27910D01*
X15190Y27835D02*X15340D01*
X15115Y27910D02*X15190Y27835D01*
X15115Y28060D02*Y27910D01*
Y28060D02*X15190Y28135D01*
X15340D01*
X15415Y28060D01*
X15745Y28135D02*Y28060D01*
Y27910D02*Y27835D01*
X15595Y28360D02*Y28285D01*
Y28360D02*X15670Y28435D01*
X15820D01*
X15895Y28360D01*
Y28285D01*
X15745Y28135D02*X15895Y28285D01*
X0Y29935D02*X300D01*
X150D02*Y29335D01*
X480Y29935D02*Y29335D01*
Y29560D02*X555Y29635D01*
X705D01*
X780Y29560D01*
Y29335D01*
X1035D02*X1260D01*
X960Y29410D02*X1035Y29335D01*
X960Y29560D02*Y29410D01*
Y29560D02*X1035Y29635D01*
X1185D01*
X1260Y29560D01*
X960Y29485D02*X1260D01*
Y29560D02*Y29485D01*
X1515Y29560D02*Y29335D01*
Y29560D02*X1590Y29635D01*
X1740D01*
X1440D02*X1515Y29560D01*
X1995Y29335D02*X2220D01*
X1920Y29410D02*X1995Y29335D01*
X1920Y29560D02*Y29410D01*
Y29560D02*X1995Y29635D01*
X2145D01*
X2220Y29560D01*
X1920Y29485D02*X2220D01*
Y29560D02*Y29485D01*
X2895Y29635D02*X2970Y29560D01*
X2745Y29635D02*X2895D01*
X2670Y29560D02*X2745Y29635D01*
X2670Y29560D02*Y29410D01*
X2745Y29335D01*
X2970Y29635D02*Y29410D01*
X3045Y29335D01*
X2745D02*X2895D01*
X2970Y29410D01*
X3300Y29560D02*Y29335D01*
Y29560D02*X3375Y29635D01*
X3525D01*
X3225D02*X3300Y29560D01*
X3781Y29335D02*X4006D01*
X3706Y29410D02*X3781Y29335D01*
X3706Y29560D02*Y29410D01*
Y29560D02*X3781Y29635D01*
X3931D01*
X4006Y29560D01*
X3706Y29485D02*X4006D01*
Y29560D02*Y29485D01*
X4456Y29935D02*X4756D01*
X4456D02*Y29635D01*
X4531Y29710D01*
X4681D01*
X4756Y29635D01*
Y29410D01*
X4681Y29335D02*X4756Y29410D01*
X4531Y29335D02*X4681D01*
X4456Y29410D02*X4531Y29335D01*
X5506Y29935D02*Y29335D01*
X5431D02*X5506Y29410D01*
X5281Y29335D02*X5431D01*
X5206Y29410D02*X5281Y29335D01*
X5206Y29560D02*Y29410D01*
Y29560D02*X5281Y29635D01*
X5431D01*
X5506Y29560D01*
X5686Y29785D02*Y29710D01*
Y29560D02*Y29335D01*
X5911Y29860D02*Y29335D01*
Y29860D02*X5986Y29935D01*
X6061D01*
X5836Y29635D02*X5986D01*
X6286Y29860D02*Y29335D01*
Y29860D02*X6361Y29935D01*
X6436D01*
X6211Y29635D02*X6361D01*
X6661Y29335D02*X6886D01*
X6586Y29410D02*X6661Y29335D01*
X6586Y29560D02*Y29410D01*
Y29560D02*X6661Y29635D01*
X6811D01*
X6886Y29560D01*
X6586Y29485D02*X6886D01*
Y29560D02*Y29485D01*
X7142Y29560D02*Y29335D01*
Y29560D02*X7217Y29635D01*
X7367D01*
X7067D02*X7142Y29560D01*
X7622Y29335D02*X7847D01*
X7547Y29410D02*X7622Y29335D01*
X7547Y29560D02*Y29410D01*
Y29560D02*X7622Y29635D01*
X7772D01*
X7847Y29560D01*
X7547Y29485D02*X7847D01*
Y29560D02*Y29485D01*
X8102Y29560D02*Y29335D01*
Y29560D02*X8177Y29635D01*
X8252D01*
X8327Y29560D01*
Y29335D01*
X8027Y29635D02*X8102Y29560D01*
X8582Y29935D02*Y29410D01*
X8657Y29335D01*
X8507Y29710D02*X8657D01*
X9377Y29935D02*Y29335D01*
X9302D02*X9377Y29410D01*
X9152Y29335D02*X9302D01*
X9077Y29410D02*X9152Y29335D01*
X9077Y29560D02*Y29410D01*
Y29560D02*X9152Y29635D01*
X9302D01*
X9377Y29560D01*
X9632D02*Y29335D01*
Y29560D02*X9707Y29635D01*
X9857D01*
X9557D02*X9632Y29560D01*
X10038Y29785D02*Y29710D01*
Y29560D02*Y29335D01*
X10188Y29935D02*Y29410D01*
X10263Y29335D01*
X10413Y29935D02*Y29410D01*
X10488Y29335D01*
X10983D02*X11208D01*
X11283Y29410D01*
X11208Y29485D02*X11283Y29410D01*
X10983Y29485D02*X11208D01*
X10908Y29560D02*X10983Y29485D01*
X10908Y29560D02*X10983Y29635D01*
X11208D01*
X11283Y29560D01*
X10908Y29410D02*X10983Y29335D01*
X11463Y29785D02*Y29710D01*
Y29560D02*Y29335D01*
X11613Y29635D02*X11913D01*
X11613Y29335D02*X11913Y29635D01*
X11613Y29335D02*X11913D01*
X12168D02*X12393D01*
X12093Y29410D02*X12168Y29335D01*
X12093Y29560D02*Y29410D01*
Y29560D02*X12168Y29635D01*
X12318D01*
X12393Y29560D01*
X12093Y29485D02*X12393D01*
Y29560D02*Y29485D01*
X12649Y29335D02*X12874D01*
X12949Y29410D01*
X12874Y29485D02*X12949Y29410D01*
X12649Y29485D02*X12874D01*
X12574Y29560D02*X12649Y29485D01*
X12574Y29560D02*X12649Y29635D01*
X12874D01*
X12949Y29560D01*
X12574Y29410D02*X12649Y29335D01*
X13399Y29635D02*Y29410D01*
X13474Y29335D01*
X13624D01*
X13699Y29410D01*
Y29635D02*Y29410D01*
X13954Y29335D02*X14179D01*
X14254Y29410D01*
X14179Y29485D02*X14254Y29410D01*
X13954Y29485D02*X14179D01*
X13879Y29560D02*X13954Y29485D01*
X13879Y29560D02*X13954Y29635D01*
X14179D01*
X14254Y29560D01*
X13879Y29410D02*X13954Y29335D01*
X14509D02*X14734D01*
X14434Y29410D02*X14509Y29335D01*
X14434Y29560D02*Y29410D01*
Y29560D02*X14509Y29635D01*
X14659D01*
X14734Y29560D01*
X14434Y29485D02*X14734D01*
Y29560D02*Y29485D01*
X15214Y29935D02*Y29335D01*
X15139D02*X15214Y29410D01*
X14989Y29335D02*X15139D01*
X14914Y29410D02*X14989Y29335D01*
X14914Y29560D02*Y29410D01*
Y29560D02*X14989Y29635D01*
X15139D01*
X15214Y29560D01*
X15664Y29785D02*Y29710D01*
Y29560D02*Y29335D01*
X15889Y29560D02*Y29335D01*
Y29560D02*X15964Y29635D01*
X16039D01*
X16114Y29560D01*
Y29335D01*
X15814Y29635D02*X15889Y29560D01*
X16640Y29935D02*Y29410D01*
X16715Y29335D01*
X16565Y29710D02*X16715D01*
X16865Y29935D02*Y29335D01*
Y29560D02*X16940Y29635D01*
X17090D01*
X17165Y29560D01*
Y29335D01*
X17345Y29785D02*Y29710D01*
Y29560D02*Y29335D01*
X17570D02*X17795D01*
X17870Y29410D01*
X17795Y29485D02*X17870Y29410D01*
X17570Y29485D02*X17795D01*
X17495Y29560D02*X17570Y29485D01*
X17495Y29560D02*X17570Y29635D01*
X17795D01*
X17870Y29560D01*
X17495Y29410D02*X17570Y29335D01*
X18320Y29935D02*Y29410D01*
X18395Y29335D01*
X18770Y29635D02*X18845Y29560D01*
X18620Y29635D02*X18770D01*
X18545Y29560D02*X18620Y29635D01*
X18545Y29560D02*Y29410D01*
X18620Y29335D01*
X18845Y29635D02*Y29410D01*
X18920Y29335D01*
X18620D02*X18770D01*
X18845Y29410D01*
X19101Y29635D02*Y29410D01*
X19176Y29335D01*
X19401Y29635D02*Y29185D01*
X19326Y29110D02*X19401Y29185D01*
X19176Y29110D02*X19326D01*
X19101Y29185D02*X19176Y29110D01*
Y29335D02*X19326D01*
X19401Y29410D01*
X19581Y29560D02*Y29410D01*
Y29560D02*X19656Y29635D01*
X19806D01*
X19881Y29560D01*
Y29410D01*
X19806Y29335D02*X19881Y29410D01*
X19656Y29335D02*X19806D01*
X19581Y29410D02*X19656Y29335D01*
X20061Y29635D02*Y29410D01*
X20136Y29335D01*
X20286D01*
X20361Y29410D01*
Y29635D02*Y29410D01*
X20616Y29935D02*Y29410D01*
X20691Y29335D01*
X20541Y29710D02*X20691D01*
X20841Y29185D02*X20991Y29335D01*
X21516D02*X21666D01*
X21591Y29935D02*Y29335D01*
X21441Y29785D02*X21591Y29935D01*
X21846Y29860D02*X21921Y29935D01*
X22146D01*
X22221Y29860D01*
Y29710D01*
X21846Y29335D02*X22221Y29710D01*
X21846Y29335D02*X22221D01*
X22402D02*X22702Y29635D01*
Y29860D02*Y29635D01*
X22627Y29935D02*X22702Y29860D01*
X22477Y29935D02*X22627D01*
X22402Y29860D02*X22477Y29935D01*
X22402Y29860D02*Y29710D01*
X22477Y29635D01*
X22702D01*
X23152Y29935D02*Y29335D01*
Y29560D02*X23227Y29635D01*
X23377D01*
X23452Y29560D01*
Y29335D01*
X23632Y29560D02*Y29410D01*
Y29560D02*X23707Y29635D01*
X23857D01*
X23932Y29560D01*
Y29410D01*
X23857Y29335D02*X23932Y29410D01*
X23707Y29335D02*X23857D01*
X23632Y29410D02*X23707Y29335D01*
X24112Y29935D02*Y29410D01*
X24187Y29335D01*
X24412D02*X24637D01*
X24337Y29410D02*X24412Y29335D01*
X24337Y29560D02*Y29410D01*
Y29560D02*X24412Y29635D01*
X24562D01*
X24637Y29560D01*
X24337Y29485D02*X24637D01*
Y29560D02*Y29485D01*
X24892Y29335D02*X25117D01*
X25192Y29410D01*
X25117Y29485D02*X25192Y29410D01*
X24892Y29485D02*X25117D01*
X24817Y29560D02*X24892Y29485D01*
X24817Y29560D02*X24892Y29635D01*
X25117D01*
X25192Y29560D01*
X24817Y29410D02*X24892Y29335D01*
X25717Y29935D02*Y29410D01*
X25792Y29335D01*
X25642Y29710D02*X25792D01*
X25943Y29560D02*Y29410D01*
Y29560D02*X26018Y29635D01*
X26168D01*
X26243Y29560D01*
Y29410D01*
X26168Y29335D02*X26243Y29410D01*
X26018Y29335D02*X26168D01*
X25943Y29410D02*X26018Y29335D01*
X26498Y29935D02*Y29410D01*
X26573Y29335D01*
X26423Y29710D02*X26573D01*
X26948Y29635D02*X27023Y29560D01*
X26798Y29635D02*X26948D01*
X26723Y29560D02*X26798Y29635D01*
X26723Y29560D02*Y29410D01*
X26798Y29335D01*
X27023Y29635D02*Y29410D01*
X27098Y29335D01*
X26798D02*X26948D01*
X27023Y29410D01*
X27278Y29935D02*Y29410D01*
X27353Y29335D01*
X0Y19585D02*X26622D01*
X0D02*Y0D01*
X26622Y19585D02*Y0D01*
X0D02*X26622D01*
X20000Y20935D02*Y20335D01*
Y20935D02*X20225Y20710D01*
X20450Y20935D01*
Y20335D01*
X20855Y20635D02*X20930Y20560D01*
X20705Y20635D02*X20855D01*
X20630Y20560D02*X20705Y20635D01*
X20630Y20560D02*Y20410D01*
X20705Y20335D01*
X20930Y20635D02*Y20410D01*
X21005Y20335D01*
X20705D02*X20855D01*
X20930Y20410D01*
X21185Y20635D02*X21485Y20335D01*
X21185D02*X21485Y20635D01*
X21665Y20785D02*Y20710D01*
Y20560D02*Y20335D01*
X21890Y20560D02*Y20335D01*
Y20560D02*X21965Y20635D01*
X22040D01*
X22115Y20560D01*
Y20335D01*
Y20560D02*X22190Y20635D01*
X22265D01*
X22340Y20560D01*
Y20335D01*
X21815Y20635D02*X21890Y20560D01*
X22520Y20635D02*Y20410D01*
X22595Y20335D01*
X22745D01*
X22820Y20410D01*
Y20635D02*Y20410D01*
X23075Y20560D02*Y20335D01*
Y20560D02*X23150Y20635D01*
X23225D01*
X23300Y20560D01*
Y20335D01*
Y20560D02*X23375Y20635D01*
X23450D01*
X23525Y20560D01*
Y20335D01*
X23000Y20635D02*X23075Y20560D01*
X24051Y20935D02*Y20335D01*
X24276Y20935D02*X24351Y20860D01*
Y20410D01*
X24276Y20335D02*X24351Y20410D01*
X23976Y20335D02*X24276D01*
X23976Y20935D02*X24276D01*
X24531Y20785D02*Y20710D01*
Y20560D02*Y20335D01*
X24756Y20560D02*Y20335D01*
Y20560D02*X24831Y20635D01*
X24906D01*
X24981Y20560D01*
Y20335D01*
Y20560D02*X25056Y20635D01*
X25131D01*
X25206Y20560D01*
Y20335D01*
X24681Y20635D02*X24756Y20560D01*
X25461Y20335D02*X25686D01*
X25386Y20410D02*X25461Y20335D01*
X25386Y20560D02*Y20410D01*
Y20560D02*X25461Y20635D01*
X25611D01*
X25686Y20560D01*
X25386Y20485D02*X25686D01*
Y20560D02*Y20485D01*
X25941Y20560D02*Y20335D01*
Y20560D02*X26016Y20635D01*
X26091D01*
X26166Y20560D01*
Y20335D01*
X25866Y20635D02*X25941Y20560D01*
X26421Y20335D02*X26646D01*
X26721Y20410D01*
X26646Y20485D02*X26721Y20410D01*
X26421Y20485D02*X26646D01*
X26346Y20560D02*X26421Y20485D01*
X26346Y20560D02*X26421Y20635D01*
X26646D01*
X26721Y20560D01*
X26346Y20410D02*X26421Y20335D01*
X26901Y20785D02*Y20710D01*
Y20560D02*Y20335D01*
X27052Y20560D02*Y20410D01*
Y20560D02*X27127Y20635D01*
X27277D01*
X27352Y20560D01*
Y20410D01*
X27277Y20335D02*X27352Y20410D01*
X27127Y20335D02*X27277D01*
X27052Y20410D02*X27127Y20335D01*
X27607Y20560D02*Y20335D01*
Y20560D02*X27682Y20635D01*
X27757D01*
X27832Y20560D01*
Y20335D01*
X27532Y20635D02*X27607Y20560D01*
X28087Y20335D02*X28312D01*
X28387Y20410D01*
X28312Y20485D02*X28387Y20410D01*
X28087Y20485D02*X28312D01*
X28012Y20560D02*X28087Y20485D01*
X28012Y20560D02*X28087Y20635D01*
X28312D01*
X28387Y20560D01*
X28012Y20410D02*X28087Y20335D01*
X28567Y20710D02*X28642D01*
X28567Y20560D02*X28642D01*
X29092Y20860D02*X29167Y20935D01*
X29392D01*
X29467Y20860D01*
Y20710D01*
X29092Y20335D02*X29467Y20710D01*
X29092Y20335D02*X29467D01*
X29872Y20935D02*X29947Y20860D01*
X29722Y20935D02*X29872D01*
X29647Y20860D02*X29722Y20935D01*
X29647Y20860D02*Y20410D01*
X29722Y20335D01*
X29872Y20635D02*X29947Y20560D01*
X29647Y20635D02*X29872D01*
X29722Y20335D02*X29872D01*
X29947Y20410D01*
Y20560D02*Y20410D01*
X30353Y20935D02*X30428Y20860D01*
X30203Y20935D02*X30353D01*
X30128Y20860D02*X30203Y20935D01*
X30128Y20860D02*Y20410D01*
X30203Y20335D01*
X30353Y20635D02*X30428Y20560D01*
X30128Y20635D02*X30353D01*
X30203Y20335D02*X30353D01*
X30428Y20410D01*
Y20560D02*Y20410D01*
X30608Y20860D02*X30683Y20935D01*
X30908D01*
X30983Y20860D01*
Y20710D01*
X30608Y20335D02*X30983Y20710D01*
X30608Y20335D02*X30983D01*
X31508Y20560D02*Y20335D01*
Y20560D02*X31583Y20635D01*
X31658D01*
X31733Y20560D01*
Y20335D01*
Y20560D02*X31808Y20635D01*
X31883D01*
X31958Y20560D01*
Y20335D01*
X31433Y20635D02*X31508Y20560D01*
X32138Y20785D02*Y20710D01*
Y20560D02*Y20335D01*
X32288Y20935D02*Y20410D01*
X32363Y20335D01*
X32588D02*X32813D01*
X32888Y20410D01*
X32813Y20485D02*X32888Y20410D01*
X32588Y20485D02*X32813D01*
X32513Y20560D02*X32588Y20485D01*
X32513Y20560D02*X32588Y20635D01*
X32813D01*
X32888Y20560D01*
X32513Y20410D02*X32588Y20335D01*
X33338Y20635D02*Y20410D01*
X33413Y20335D01*
X33488D01*
X33563Y20410D01*
Y20635D02*Y20410D01*
X33638Y20335D01*
X33713D01*
X33788Y20410D01*
Y20635D02*Y20410D01*
X33969Y20785D02*Y20710D01*
Y20560D02*Y20335D01*
X34419Y20935D02*Y20335D01*
X34344D02*X34419Y20410D01*
X34194Y20335D02*X34344D01*
X34119Y20410D02*X34194Y20335D01*
X34119Y20560D02*Y20410D01*
Y20560D02*X34194Y20635D01*
X34344D01*
X34419Y20560D01*
X34674Y20335D02*X34899D01*
X34599Y20410D02*X34674Y20335D01*
X34599Y20560D02*Y20410D01*
Y20560D02*X34674Y20635D01*
X34824D01*
X34899Y20560D01*
X34599Y20485D02*X34899D01*
Y20560D02*Y20485D01*
X35079Y20185D02*X35229Y20335D01*
X35754D02*X35904D01*
X35829Y20935D02*Y20335D01*
X35679Y20785D02*X35829Y20935D01*
X36084Y20335D02*X36384Y20635D01*
Y20860D02*Y20635D01*
X36309Y20935D02*X36384Y20860D01*
X36159Y20935D02*X36309D01*
X36084Y20860D02*X36159Y20935D01*
X36084Y20860D02*Y20710D01*
X36159Y20635D01*
X36384D01*
X36564Y20935D02*X36864D01*
X36564D02*Y20635D01*
X36639Y20710D01*
X36789D01*
X36864Y20635D01*
Y20410D01*
X36789Y20335D02*X36864Y20410D01*
X36639Y20335D02*X36789D01*
X36564Y20410D02*X36639Y20335D01*
X37045Y20410D02*X37120Y20335D01*
X37045Y20560D02*Y20410D01*
Y20560D02*X37120Y20635D01*
X37270D01*
X37345Y20560D01*
Y20410D01*
X37270Y20335D02*X37345Y20410D01*
X37120Y20335D02*X37270D01*
X37045Y20710D02*X37120Y20635D01*
X37045Y20860D02*Y20710D01*
Y20860D02*X37120Y20935D01*
X37270D01*
X37345Y20860D01*
Y20710D01*
X37270Y20635D02*X37345Y20710D01*
X37870Y20560D02*Y20335D01*
Y20560D02*X37945Y20635D01*
X38020D01*
X38095Y20560D01*
Y20335D01*
Y20560D02*X38170Y20635D01*
X38245D01*
X38320Y20560D01*
Y20335D01*
X37795Y20635D02*X37870Y20560D01*
X38500Y20785D02*Y20710D01*
Y20560D02*Y20335D01*
X38650Y20935D02*Y20410D01*
X38725Y20335D01*
X38950D02*X39175D01*
X39250Y20410D01*
X39175Y20485D02*X39250Y20410D01*
X38950Y20485D02*X39175D01*
X38875Y20560D02*X38950Y20485D01*
X38875Y20560D02*X38950Y20635D01*
X39175D01*
X39250Y20560D01*
X38875Y20410D02*X38950Y20335D01*
X39700Y20935D02*Y20335D01*
Y20560D02*X39775Y20635D01*
X39925D01*
X40000Y20560D01*
Y20335D01*
X40181Y20785D02*Y20710D01*
Y20560D02*Y20335D01*
X40556Y20635D02*X40631Y20560D01*
X40406Y20635D02*X40556D01*
X40331Y20560D02*X40406Y20635D01*
X40331Y20560D02*Y20410D01*
X40406Y20335D01*
X40556D01*
X40631Y20410D01*
X40331Y20185D02*X40406Y20110D01*
X40556D01*
X40631Y20185D01*
Y20635D02*Y20185D01*
X40811Y20935D02*Y20335D01*
Y20560D02*X40886Y20635D01*
X41036D01*
X41111Y20560D01*
Y20335D01*
X0Y-950D02*X300D01*
X375Y-875D01*
Y-725D02*Y-875D01*
X300Y-650D02*X375Y-725D01*
X75Y-650D02*X300D01*
X75Y-350D02*Y-950D01*
X0Y-350D02*X300D01*
X375Y-425D01*
Y-575D01*
X300Y-650D02*X375Y-575D01*
X555Y-725D02*Y-875D01*
Y-725D02*X630Y-650D01*
X780D01*
X855Y-725D01*
Y-875D01*
X780Y-950D02*X855Y-875D01*
X630Y-950D02*X780D01*
X555Y-875D02*X630Y-950D01*
X1260Y-650D02*X1335Y-725D01*
X1110Y-650D02*X1260D01*
X1035Y-725D02*X1110Y-650D01*
X1035Y-725D02*Y-875D01*
X1110Y-950D01*
X1335Y-650D02*Y-875D01*
X1410Y-950D01*
X1110D02*X1260D01*
X1335Y-875D01*
X1665Y-725D02*Y-950D01*
Y-725D02*X1740Y-650D01*
X1890D01*
X1590D02*X1665Y-725D01*
X2370Y-350D02*Y-950D01*
X2295D02*X2370Y-875D01*
X2145Y-950D02*X2295D01*
X2070Y-875D02*X2145Y-950D01*
X2070Y-725D02*Y-875D01*
Y-725D02*X2145Y-650D01*
X2295D01*
X2370Y-725D01*
X2820D02*Y-875D01*
Y-725D02*X2895Y-650D01*
X3045D01*
X3120Y-725D01*
Y-875D01*
X3045Y-950D02*X3120Y-875D01*
X2895Y-950D02*X3045D01*
X2820Y-875D02*X2895Y-950D01*
X3300Y-650D02*Y-875D01*
X3375Y-950D01*
X3525D01*
X3600Y-875D01*
Y-650D02*Y-875D01*
X3856Y-350D02*Y-875D01*
X3931Y-950D01*
X3781Y-575D02*X3931D01*
X4081Y-350D02*Y-875D01*
X4156Y-950D01*
X4306Y-500D02*Y-575D01*
Y-725D02*Y-950D01*
X4531Y-725D02*Y-950D01*
Y-725D02*X4606Y-650D01*
X4681D01*
X4756Y-725D01*
Y-950D01*
X4456Y-650D02*X4531Y-725D01*
X5011Y-950D02*X5236D01*
X4936Y-875D02*X5011Y-950D01*
X4936Y-725D02*Y-875D01*
Y-725D02*X5011Y-650D01*
X5161D01*
X5236Y-725D01*
X4936Y-800D02*X5236D01*
Y-725D02*Y-800D01*
X5686Y-500D02*Y-575D01*
Y-725D02*Y-950D01*
X5911D02*X6136D01*
X6211Y-875D01*
X6136Y-800D02*X6211Y-875D01*
X5911Y-800D02*X6136D01*
X5836Y-725D02*X5911Y-800D01*
X5836Y-725D02*X5911Y-650D01*
X6136D01*
X6211Y-725D01*
X5836Y-875D02*X5911Y-950D01*
X6737Y-350D02*Y-875D01*
X6812Y-950D01*
X6662Y-575D02*X6812D01*
X6962Y-350D02*Y-950D01*
Y-725D02*X7037Y-650D01*
X7187D01*
X7262Y-725D01*
Y-950D01*
X7517D02*X7742D01*
X7442Y-875D02*X7517Y-950D01*
X7442Y-725D02*Y-875D01*
Y-725D02*X7517Y-650D01*
X7667D01*
X7742Y-725D01*
X7442Y-800D02*X7742D01*
Y-725D02*Y-800D01*
X8267Y-650D02*X8492D01*
X8192Y-725D02*X8267Y-650D01*
X8192Y-725D02*Y-875D01*
X8267Y-950D01*
X8492D01*
X8747D02*X8972D01*
X8672Y-875D02*X8747Y-950D01*
X8672Y-725D02*Y-875D01*
Y-725D02*X8747Y-650D01*
X8897D01*
X8972Y-725D01*
X8672Y-800D02*X8972D01*
Y-725D02*Y-800D01*
X9227Y-725D02*Y-950D01*
Y-725D02*X9302Y-650D01*
X9377D01*
X9452Y-725D01*
Y-950D01*
X9152Y-650D02*X9227Y-725D01*
X9708Y-350D02*Y-875D01*
X9783Y-950D01*
X9633Y-575D02*X9783D01*
X10008Y-950D02*X10233D01*
X9933Y-875D02*X10008Y-950D01*
X9933Y-725D02*Y-875D01*
Y-725D02*X10008Y-650D01*
X10158D01*
X10233Y-725D01*
X9933Y-800D02*X10233D01*
Y-725D02*Y-800D01*
X10488Y-725D02*Y-950D01*
Y-725D02*X10563Y-650D01*
X10713D01*
X10413D02*X10488Y-725D01*
X10893Y-350D02*Y-875D01*
X10968Y-950D01*
X11118Y-500D02*Y-575D01*
Y-725D02*Y-950D01*
X11343Y-725D02*Y-950D01*
Y-725D02*X11418Y-650D01*
X11493D01*
X11568Y-725D01*
Y-950D01*
X11268Y-650D02*X11343Y-725D01*
X11823Y-950D02*X12048D01*
X11748Y-875D02*X11823Y-950D01*
X11748Y-725D02*Y-875D01*
Y-725D02*X11823Y-650D01*
X11973D01*
X12048Y-725D01*
X11748Y-800D02*X12048D01*
Y-725D02*Y-800D01*
X12499Y-725D02*Y-875D01*
Y-725D02*X12574Y-650D01*
X12724D01*
X12799Y-725D01*
Y-875D01*
X12724Y-950D02*X12799Y-875D01*
X12574Y-950D02*X12724D01*
X12499Y-875D02*X12574Y-950D01*
X13054Y-425D02*Y-950D01*
Y-425D02*X13129Y-350D01*
X13204D01*
X12979Y-650D02*X13129D01*
X13699Y-350D02*Y-875D01*
X13774Y-950D01*
X13624Y-575D02*X13774D01*
X13924Y-350D02*Y-950D01*
Y-725D02*X13999Y-650D01*
X14149D01*
X14224Y-725D01*
Y-950D01*
X14404Y-500D02*Y-575D01*
Y-725D02*Y-950D01*
X14629D02*X14854D01*
X14929Y-875D01*
X14854Y-800D02*X14929Y-875D01*
X14629Y-800D02*X14854D01*
X14554Y-725D02*X14629Y-800D01*
X14554Y-725D02*X14629Y-650D01*
X14854D01*
X14929Y-725D01*
X14554Y-875D02*X14629Y-950D01*
X15454D02*X15604D01*
X15529Y-350D02*Y-950D01*
X15379Y-500D02*X15529Y-350D01*
X15785Y-875D02*X15860Y-950D01*
X15785Y-425D02*Y-875D01*
Y-425D02*X15860Y-350D01*
X16010D01*
X16085Y-425D01*
Y-875D01*
X16010Y-950D02*X16085Y-875D01*
X15860Y-950D02*X16010D01*
X15785Y-800D02*X16085Y-500D01*
X16610Y-725D02*Y-950D01*
Y-725D02*X16685Y-650D01*
X16760D01*
X16835Y-725D01*
Y-950D01*
Y-725D02*X16910Y-650D01*
X16985D01*
X17060Y-725D01*
Y-950D01*
X16535Y-650D02*X16610Y-725D01*
X17240Y-500D02*Y-575D01*
Y-725D02*Y-950D01*
X17390Y-350D02*Y-875D01*
X17465Y-950D01*
X17960Y-725D02*Y-950D01*
Y-725D02*X18035Y-650D01*
X18185D01*
X17885D02*X17960Y-725D01*
X18440Y-950D02*X18665D01*
X18365Y-875D02*X18440Y-950D01*
X18365Y-725D02*Y-875D01*
Y-725D02*X18440Y-650D01*
X18590D01*
X18665Y-725D01*
X18365Y-800D02*X18665D01*
Y-725D02*Y-800D01*
X18921Y-650D02*X19146D01*
X18846Y-725D02*X18921Y-650D01*
X18846Y-725D02*Y-875D01*
X18921Y-950D01*
X19146D01*
X19401Y-350D02*Y-875D01*
X19476Y-950D01*
X19326Y-575D02*X19476D01*
X19851Y-650D02*X19926Y-725D01*
X19701Y-650D02*X19851D01*
X19626Y-725D02*X19701Y-650D01*
X19626Y-725D02*Y-875D01*
X19701Y-950D01*
X19926Y-650D02*Y-875D01*
X20001Y-950D01*
X19701D02*X19851D01*
X19926Y-875D01*
X20256Y-725D02*Y-950D01*
Y-725D02*X20331Y-650D01*
X20406D01*
X20481Y-725D01*
Y-950D01*
X20181Y-650D02*X20256Y-725D01*
X20886Y-650D02*X20961Y-725D01*
X20736Y-650D02*X20886D01*
X20661Y-725D02*X20736Y-650D01*
X20661Y-725D02*Y-875D01*
X20736Y-950D01*
X20886D01*
X20961Y-875D01*
X20661Y-1100D02*X20736Y-1175D01*
X20886D01*
X20961Y-1100D01*
Y-650D02*Y-1100D01*
X21141Y-350D02*Y-875D01*
X21216Y-950D01*
X21441D02*X21666D01*
X21366Y-875D02*X21441Y-950D01*
X21366Y-725D02*Y-875D01*
Y-725D02*X21441Y-650D01*
X21591D01*
X21666Y-725D01*
X21366Y-800D02*X21666D01*
Y-725D02*Y-800D01*
X22117Y-650D02*X22417D01*
X22867Y-875D02*X22942Y-950D01*
X22867Y-425D02*Y-875D01*
Y-425D02*X22942Y-350D01*
X23092D01*
X23167Y-425D01*
Y-875D01*
X23092Y-950D02*X23167Y-875D01*
X22942Y-950D02*X23092D01*
X22867Y-800D02*X23167Y-500D01*
X23347Y-1100D02*X23497Y-950D01*
X23677Y-875D02*X23752Y-950D01*
X23677Y-425D02*Y-875D01*
Y-425D02*X23752Y-350D01*
X23902D01*
X23977Y-425D01*
Y-875D01*
X23902Y-950D02*X23977Y-875D01*
X23752Y-950D02*X23902D01*
X23677Y-800D02*X23977Y-500D01*
X24502Y-350D02*Y-875D01*
X24577Y-950D01*
X24427Y-575D02*X24577D01*
X24727Y-725D02*Y-875D01*
Y-725D02*X24802Y-650D01*
X24952D01*
X25027Y-725D01*
Y-875D01*
X24952Y-950D02*X25027Y-875D01*
X24802Y-950D02*X24952D01*
X24727Y-875D02*X24802Y-950D01*
X25477Y-425D02*X25552Y-350D01*
X25777D01*
X25852Y-425D01*
Y-575D01*
X25477Y-950D02*X25852Y-575D01*
X25477Y-950D02*X25852D01*
X26258Y-350D02*X26333Y-425D01*
X26108Y-350D02*X26258D01*
X26033Y-425D02*X26108Y-350D01*
X26033Y-425D02*Y-875D01*
X26108Y-950D01*
X26258Y-650D02*X26333Y-725D01*
X26033Y-650D02*X26258D01*
X26108Y-950D02*X26258D01*
X26333Y-875D01*
Y-725D02*Y-875D01*
X26738Y-350D02*X26813Y-425D01*
X26588Y-350D02*X26738D01*
X26513Y-425D02*X26588Y-350D01*
X26513Y-425D02*Y-875D01*
X26588Y-950D01*
X26738Y-650D02*X26813Y-725D01*
X26513Y-650D02*X26738D01*
X26588Y-950D02*X26738D01*
X26813Y-875D01*
Y-725D02*Y-875D01*
X26993Y-425D02*X27068Y-350D01*
X27293D01*
X27368Y-425D01*
Y-575D01*
X26993Y-950D02*X27368Y-575D01*
X26993Y-950D02*X27368D01*
X27548Y-1100D02*X27698Y-950D01*
X27953D02*X28103D01*
X28028Y-350D02*Y-950D01*
X27878Y-500D02*X28028Y-350D01*
X28283Y-950D02*X28583Y-650D01*
Y-425D02*Y-650D01*
X28508Y-350D02*X28583Y-425D01*
X28358Y-350D02*X28508D01*
X28283Y-425D02*X28358Y-350D01*
X28283Y-425D02*Y-575D01*
X28358Y-650D01*
X28583D01*
X28764Y-350D02*X29064D01*
X28764D02*Y-650D01*
X28839Y-575D01*
X28989D01*
X29064Y-650D01*
Y-875D01*
X28989Y-950D02*X29064Y-875D01*
X28839Y-950D02*X28989D01*
X28764Y-875D02*X28839Y-950D01*
X29244Y-875D02*X29319Y-950D01*
X29244Y-725D02*Y-875D01*
Y-725D02*X29319Y-650D01*
X29469D01*
X29544Y-725D01*
Y-875D01*
X29469Y-950D02*X29544Y-875D01*
X29319Y-950D02*X29469D01*
X29244Y-575D02*X29319Y-650D01*
X29244Y-425D02*Y-575D01*
Y-425D02*X29319Y-350D01*
X29469D01*
X29544Y-425D01*
Y-575D01*
X29469Y-650D02*X29544Y-575D01*
X30069Y-725D02*Y-950D01*
Y-725D02*X30144Y-650D01*
X30219D01*
X30294Y-725D01*
Y-950D01*
Y-725D02*X30369Y-650D01*
X30444D01*
X30519Y-725D01*
Y-950D01*
X29994Y-650D02*X30069Y-725D01*
X30699Y-500D02*Y-575D01*
Y-725D02*Y-950D01*
X30849Y-350D02*Y-875D01*
X30924Y-950D01*
X31149D02*X31374D01*
X31449Y-875D01*
X31374Y-800D02*X31449Y-875D01*
X31149Y-800D02*X31374D01*
X31074Y-725D02*X31149Y-800D01*
X31074Y-725D02*X31149Y-650D01*
X31374D01*
X31449Y-725D01*
X31074Y-875D02*X31149Y-950D01*
X20075Y22435D02*Y21835D01*
X20300Y22435D02*X20375Y22360D01*
Y21910D01*
X20300Y21835D02*X20375Y21910D01*
X20000Y21835D02*X20300D01*
X20000Y22435D02*X20300D01*
X20780Y22135D02*X20855Y22060D01*
X20630Y22135D02*X20780D01*
X20555Y22060D02*X20630Y22135D01*
X20555Y22060D02*Y21910D01*
X20630Y21835D01*
X20855Y22135D02*Y21910D01*
X20930Y21835D01*
X20630D02*X20780D01*
X20855Y21910D01*
X21185Y22435D02*Y21910D01*
X21260Y21835D01*
X21110Y22210D02*X21260D01*
X21485Y21835D02*X21710D01*
X21410Y21910D02*X21485Y21835D01*
X21410Y22060D02*Y21910D01*
Y22060D02*X21485Y22135D01*
X21635D01*
X21710Y22060D01*
X21410Y21985D02*X21710D01*
Y22060D02*Y21985D01*
X21890Y22210D02*X21965D01*
X21890Y22060D02*X21965D01*
X22415Y22435D02*Y21835D01*
Y22435D02*X22715D01*
X22415Y22135D02*X22640D01*
X22970Y22060D02*Y21835D01*
Y22060D02*X23045Y22135D01*
X23195D01*
X22895D02*X22970Y22060D01*
X23376Y22285D02*Y22210D01*
Y22060D02*Y21835D01*
X24096Y22435D02*X24171Y22360D01*
X23871Y22435D02*X24096D01*
X23796Y22360D02*X23871Y22435D01*
X23796Y22360D02*Y22210D01*
X23871Y22135D01*
X24096D01*
X24171Y22060D01*
Y21910D01*
X24096Y21835D02*X24171Y21910D01*
X23871Y21835D02*X24096D01*
X23796Y21910D02*X23871Y21835D01*
X24426D02*X24651D01*
X24351Y21910D02*X24426Y21835D01*
X24351Y22060D02*Y21910D01*
Y22060D02*X24426Y22135D01*
X24576D01*
X24651Y22060D01*
X24351Y21985D02*X24651D01*
Y22060D02*Y21985D01*
X24906Y22060D02*Y21610D01*
X24831Y22135D02*X24906Y22060D01*
X24981Y22135D01*
X25131D01*
X25206Y22060D01*
Y21910D01*
X25131Y21835D02*X25206Y21910D01*
X24981Y21835D02*X25131D01*
X24906Y21910D02*X24981Y21835D01*
X25656Y22360D02*X25731Y22435D01*
X25956D01*
X26031Y22360D01*
Y22210D01*
X25656Y21835D02*X26031Y22210D01*
X25656Y21835D02*X26031D01*
X26286D02*X26436D01*
X26361Y22435D02*Y21835D01*
X26211Y22285D02*X26361Y22435D01*
X26961Y21835D02*X27111D01*
X27036Y22435D02*Y21835D01*
X26886Y22285D02*X27036Y22435D01*
X27292Y21910D02*X27367Y21835D01*
X27292Y22060D02*Y21910D01*
Y22060D02*X27367Y22135D01*
X27517D01*
X27592Y22060D01*
Y21910D01*
X27517Y21835D02*X27592Y21910D01*
X27367Y21835D02*X27517D01*
X27292Y22210D02*X27367Y22135D01*
X27292Y22360D02*Y22210D01*
Y22360D02*X27367Y22435D01*
X27517D01*
X27592Y22360D01*
Y22210D01*
X27517Y22135D02*X27592Y22210D01*
X27772D02*X27847D01*
X27772Y22060D02*X27847D01*
X28102Y21835D02*X28252D01*
X28177Y22435D02*Y21835D01*
X28027Y22285D02*X28177Y22435D01*
X28432Y22360D02*X28507Y22435D01*
X28657D01*
X28732Y22360D01*
Y21910D01*
X28657Y21835D02*X28732Y21910D01*
X28507Y21835D02*X28657D01*
X28432Y21910D02*X28507Y21835D01*
Y22135D02*X28732D01*
X28912Y22210D02*X28987D01*
X28912Y22060D02*X28987D01*
X29167Y21910D02*X29242Y21835D01*
X29167Y22360D02*Y21910D01*
Y22360D02*X29242Y22435D01*
X29392D01*
X29467Y22360D01*
Y21910D01*
X29392Y21835D02*X29467Y21910D01*
X29242Y21835D02*X29392D01*
X29167Y21985D02*X29467Y22285D01*
X29648Y22360D02*X29723Y22435D01*
X29873D01*
X29948Y22360D01*
Y21910D01*
X29873Y21835D02*X29948Y21910D01*
X29723Y21835D02*X29873D01*
X29648Y21910D02*X29723Y21835D01*
Y22135D02*X29948D01*
X30398Y22360D02*X30473Y22435D01*
X30698D01*
X30773Y22360D01*
Y22210D01*
X30398Y21835D02*X30773Y22210D01*
X30398Y21835D02*X30773D01*
X30953Y21910D02*X31028Y21835D01*
X30953Y22360D02*Y21910D01*
Y22360D02*X31028Y22435D01*
X31178D01*
X31253Y22360D01*
Y21910D01*
X31178Y21835D02*X31253Y21910D01*
X31028Y21835D02*X31178D01*
X30953Y21985D02*X31253Y22285D01*
X31433Y21910D02*X31508Y21835D01*
X31433Y22360D02*Y21910D01*
Y22360D02*X31508Y22435D01*
X31658D01*
X31733Y22360D01*
Y21910D01*
X31658Y21835D02*X31733Y21910D01*
X31508Y21835D02*X31658D01*
X31433Y21985D02*X31733Y22285D01*
X31913Y21835D02*X32288Y22210D01*
Y22435D02*Y22210D01*
X31913Y22435D02*X32288D01*
X32738D02*Y21910D01*
X32813Y21835D01*
X32963D01*
X33038Y21910D01*
Y22435D02*Y21910D01*
X33218Y22435D02*X33518D01*
X33368D02*Y21835D01*
X33774D02*X33999D01*
X33699Y21910D02*X33774Y21835D01*
X33699Y22360D02*Y21910D01*
Y22360D02*X33774Y22435D01*
X33999D01*
X20000Y23860D02*Y23335D01*
Y23860D02*X20075Y23935D01*
X20300D01*
X20375Y23860D01*
Y23335D01*
X20000Y23635D02*X20375D01*
X20555D02*Y23410D01*
X20630Y23335D01*
X20780D01*
X20855Y23410D01*
Y23635D02*Y23410D01*
X21110Y23935D02*Y23410D01*
X21185Y23335D01*
X21035Y23710D02*X21185D01*
X21335Y23935D02*Y23335D01*
Y23560D02*X21410Y23635D01*
X21560D01*
X21635Y23560D01*
Y23335D01*
X21815Y23560D02*Y23410D01*
Y23560D02*X21890Y23635D01*
X22040D01*
X22115Y23560D01*
Y23410D01*
X22040Y23335D02*X22115Y23410D01*
X21890Y23335D02*X22040D01*
X21815Y23410D02*X21890Y23335D01*
X22370Y23560D02*Y23335D01*
Y23560D02*X22445Y23635D01*
X22595D01*
X22295D02*X22370Y23560D01*
X22775Y23710D02*X22850D01*
X22775Y23560D02*X22850D01*
X20000Y25435D02*X20300D01*
X20150D02*Y24835D01*
X20480Y25285D02*Y25210D01*
Y25060D02*Y24835D01*
X20705Y25435D02*Y24910D01*
X20780Y24835D01*
X20630Y25210D02*X20780D01*
X20930Y25435D02*Y24910D01*
X21005Y24835D01*
X21230D02*X21455D01*
X21155Y24910D02*X21230Y24835D01*
X21155Y25060D02*Y24910D01*
Y25060D02*X21230Y25135D01*
X21380D01*
X21455Y25060D01*
X21155Y24985D02*X21455D01*
Y25060D02*Y24985D01*
X21635Y25210D02*X21710D01*
X21635Y25060D02*X21710D01*
X22160Y24910D02*X22235Y24835D01*
X22160Y25360D02*X22235Y25435D01*
X22160Y25360D02*Y24910D01*
X22416Y25135D02*Y24910D01*
X22491Y24835D01*
X22641D01*
X22716Y24910D01*
Y25135D02*Y24910D01*
X22971Y25060D02*Y24835D01*
Y25060D02*X23046Y25135D01*
X23121D01*
X23196Y25060D01*
Y24835D01*
X22896Y25135D02*X22971Y25060D01*
X23376Y25435D02*Y24835D01*
Y25060D02*X23601Y24835D01*
X23376Y25060D02*X23526Y25210D01*
X23856Y25060D02*Y24835D01*
Y25060D02*X23931Y25135D01*
X24006D01*
X24081Y25060D01*
Y24835D01*
X23781Y25135D02*X23856Y25060D01*
X24261D02*Y24910D01*
Y25060D02*X24336Y25135D01*
X24486D01*
X24561Y25060D01*
Y24910D01*
X24486Y24835D02*X24561Y24910D01*
X24336Y24835D02*X24486D01*
X24261Y24910D02*X24336Y24835D01*
X24741Y25135D02*Y24910D01*
X24816Y24835D01*
X24891D01*
X24966Y24910D01*
Y25135D02*Y24910D01*
X25041Y24835D01*
X25116D01*
X25191Y24910D01*
Y25135D02*Y24910D01*
X25446Y25060D02*Y24835D01*
Y25060D02*X25521Y25135D01*
X25596D01*
X25671Y25060D01*
Y24835D01*
X25371Y25135D02*X25446Y25060D01*
X25852Y25435D02*X25927Y25360D01*
Y24910D01*
X25852Y24835D02*X25927Y24910D01*
X26377Y25135D02*X26677D01*
X27127Y25435D02*Y24835D01*
Y25435D02*X27427D01*
X27127Y25135D02*X27352D01*
X27832D02*X27907Y25060D01*
X27682Y25135D02*X27832D01*
X27607Y25060D02*X27682Y25135D01*
X27607Y25060D02*Y24910D01*
X27682Y24835D01*
X27907Y25135D02*Y24910D01*
X27982Y24835D01*
X27682D02*X27832D01*
X27907Y24910D01*
X28162Y25435D02*Y24835D01*
Y24910D02*X28237Y24835D01*
X28387D01*
X28462Y24910D01*
Y25060D02*Y24910D01*
X28387Y25135D02*X28462Y25060D01*
X28237Y25135D02*X28387D01*
X28162Y25060D02*X28237Y25135D01*
X28717Y25060D02*Y24835D01*
Y25060D02*X28792Y25135D01*
X28942D01*
X28642D02*X28717Y25060D01*
X29123Y25285D02*Y25210D01*
Y25060D02*Y24835D01*
X29348Y25135D02*X29573D01*
X29273Y25060D02*X29348Y25135D01*
X29273Y25060D02*Y24910D01*
X29348Y24835D01*
X29573D01*
X29978Y25135D02*X30053Y25060D01*
X29828Y25135D02*X29978D01*
X29753Y25060D02*X29828Y25135D01*
X29753Y25060D02*Y24910D01*
X29828Y24835D01*
X30053Y25135D02*Y24910D01*
X30128Y24835D01*
X29828D02*X29978D01*
X30053Y24910D01*
X30383Y25435D02*Y24910D01*
X30458Y24835D01*
X30308Y25210D02*X30458D01*
X30608Y25285D02*Y25210D01*
Y25060D02*Y24835D01*
X30758Y25060D02*Y24910D01*
Y25060D02*X30833Y25135D01*
X30983D01*
X31058Y25060D01*
Y24910D01*
X30983Y24835D02*X31058Y24910D01*
X30833Y24835D02*X30983D01*
X30758Y24910D02*X30833Y24835D01*
X31313Y25060D02*Y24835D01*
Y25060D02*X31388Y25135D01*
X31463D01*
X31538Y25060D01*
Y24835D01*
X31238Y25135D02*X31313Y25060D01*
X32064Y25435D02*Y24835D01*
X32289Y25435D02*X32364Y25360D01*
Y24910D01*
X32289Y24835D02*X32364Y24910D01*
X31989Y24835D02*X32289D01*
X31989Y25435D02*X32289D01*
X32619Y25060D02*Y24835D01*
Y25060D02*X32694Y25135D01*
X32844D01*
X32544D02*X32619Y25060D01*
X33249Y25135D02*X33324Y25060D01*
X33099Y25135D02*X33249D01*
X33024Y25060D02*X33099Y25135D01*
X33024Y25060D02*Y24910D01*
X33099Y24835D01*
X33324Y25135D02*Y24910D01*
X33399Y24835D01*
X33099D02*X33249D01*
X33324Y24910D01*
X33579Y25135D02*Y24910D01*
X33654Y24835D01*
X33729D01*
X33804Y24910D01*
Y25135D02*Y24910D01*
X33879Y24835D01*
X33954D01*
X34029Y24910D01*
Y25135D02*Y24910D01*
X34209Y25285D02*Y25210D01*
Y25060D02*Y24835D01*
X34434Y25060D02*Y24835D01*
Y25060D02*X34509Y25135D01*
X34584D01*
X34659Y25060D01*
Y24835D01*
X34359Y25135D02*X34434Y25060D01*
X35064Y25135D02*X35139Y25060D01*
X34914Y25135D02*X35064D01*
X34839Y25060D02*X34914Y25135D01*
X34839Y25060D02*Y24910D01*
X34914Y24835D01*
X35064D01*
X35139Y24910D01*
X34839Y24685D02*X34914Y24610D01*
X35064D01*
X35139Y24685D01*
Y25135D02*Y24685D01*
M02*
