M48
INCH,TZ
T19C0.028
T20C0.090
T21C0.020
T22C0.038
T23C0.125
%
T21
X000850Y008935
X000850Y008435
X000850Y007935
X000850Y007435
X000850Y010435
X000850Y009935
X000850Y009435
X000850Y006935
X021600Y012335
X021600Y012835
X018587Y016942
X018394Y013905
X019575Y013905
X024250Y014280
X024987Y014600
X025747Y014900
X024057Y014930
X017032Y016440
X017032Y013745
X017340Y015345
X011250Y014338
X011575Y013999
X013579Y014890
X014594Y014987
X014194Y014685
X014594Y014375
X014263Y012795
X023950Y008385
X016900Y006510
X016718Y006010
X017775Y004985
X016387Y005335
X015675Y005054
X015200Y006955
X015250Y007655
X014784Y008905
X014180Y006384
X015200Y008090
X015450Y003885
X015089Y004585
X013600Y009204
X011600Y008905
X015565Y008905
X012869Y006784
X020150Y008060
X016642Y008355
X018290Y007715
X019161Y009505
X019866Y010105
X017030Y010105
X017340Y009205
X018900Y009785
X015285Y010402
X018600Y010402
X004619Y011300
X005064Y012571
X006013Y010335
X007914Y015911
X007514Y016320
X005432Y014286
X007914Y013986
X006694Y013525
X005400Y015231
X005016Y016929
X009450Y003835
X008214Y007592
X007814Y008661
X008433Y009451
X007883Y008228
X003803Y007935
X004163Y009604
X004263Y008101
X006294Y008941
X005733Y008381
X005453Y008967
X007174Y008181
X002827Y008661
X003223Y008301
T19
X017200Y003135
X016200Y003135
X016200Y002335
X017200Y002335
X011463Y012958
X013463Y012958
T22
X000850Y015885
X000900Y003385
X024700Y013385
X025700Y013385
X024700Y012385
X025700Y012385
X024700Y011385
X025700Y011385
X024700Y010385
X025700Y010385
X006400Y017885
X005400Y017885
X009200Y017885
X010200Y017885
X011200Y017885
X012200Y017885
X013200Y017885
X005000Y002085
X006000Y002085
X007000Y002085
X008000Y002085
X011600Y004785
X011600Y003785
X011600Y002785
X011600Y001785
X005000Y003085
X006000Y003085
X007000Y003085
X008000Y003085
X009000Y002085
X009000Y003085
X025700Y009385
X025700Y008385
X025700Y007385
X025700Y006385
X024700Y009385
X024700Y008385
X024700Y007385
X024700Y006385
T20
X019100Y001235
X014300Y001235
T23
X021653Y017616
X021653Y001868
X001968Y017616
X001968Y001868
M30
