G04 start of page 4 for group -4063 idx -4063
G04 Title: (unknown), componentmask *
G04 Creator: pcb 20070208 *
G04 CreationDate: Fri Sep 21 18:13:03 2007 UTC *
G04 For: sean *
G04 Format: Gerber/RS-274X *
G04 PCB-Dimensions: 266220 195850 *
G04 PCB-Coordinate-Origin: lower left *
%MOIN*%
%FSLAX24Y24*%
%LNFRONTMASK*%
%ADD16R,0.0360X0.0360*%
%ADD32R,0.0660X0.0660*%
%ADD33C,0.0660*%
%ADD34C,0.1260*%
%ADD35C,0.0420*%
%ADD36R,0.0420X0.0420*%
%ADD37R,0.0540X0.0540*%
%ADD38R,0.0220X0.0220*%
%ADD39R,0.0416X0.0416*%
%ADD40C,0.0220*%
%ADD41R,0.0318X0.0318*%
%ADD42C,0.0210*%
%ADD43R,0.0210X0.0210*%
G54D32*X17200Y3135D03*
G54D33*X16200D03*
Y2335D03*
X17200D03*
G54D34*X19100Y1235D03*
X14300D03*
G54D35*X850Y8935D03*
Y8435D03*
Y7935D03*
Y7435D03*
Y10435D03*
Y9935D03*
Y9435D03*
G54D32*Y15885D03*
G54D35*Y6935D03*
G54D32*X900Y3385D03*
X24700Y13385D03*
G54D33*X25700D03*
X24700Y12385D03*
X25700D03*
X24700Y11385D03*
X25700D03*
X24700Y10385D03*
X25700D03*
G54D35*X21600Y12335D03*
G54D36*Y12835D03*
G54D32*X6400Y17885D03*
G54D33*X5400D03*
G54D32*X9200D03*
G54D33*X10200D03*
X11200D03*
X12200D03*
X13200D03*
G54D32*X11463Y12958D03*
G54D33*X13463D03*
G54D32*X5000Y2085D03*
G54D33*X6000D03*
X7000D03*
X8000D03*
G54D32*X11600Y4785D03*
G54D33*Y3785D03*
Y2785D03*
Y1785D03*
X5000Y3085D03*
X6000D03*
X7000D03*
X8000D03*
X9000Y2085D03*
Y3085D03*
X25700Y9385D03*
Y8385D03*
Y7385D03*
Y6385D03*
X24700Y9385D03*
Y8385D03*
Y7385D03*
Y6385D03*
G54D16*X5500Y10735D02*X5600D01*
X5500Y11335D02*X5600D01*
X12500Y11835D02*Y11735D01*
X13100Y11835D02*Y11735D01*
X20000Y7635D02*Y7535D01*
X20600Y7635D02*Y7535D01*
X20000Y6635D02*Y6535D01*
X20600Y6635D02*Y6535D01*
X13150Y5535D02*Y5435D01*
X13750Y5535D02*Y5435D01*
G54D37*X14000Y7935D02*Y7775D01*
Y7115D02*Y6955D01*
X14390Y7935D02*Y7775D01*
X14780Y7935D02*Y7775D01*
Y7115D02*Y6955D01*
G54D16*X9274Y7281D02*Y7181D01*
X9874Y7281D02*Y7181D01*
X9900Y6535D02*Y6435D01*
X9300Y6535D02*Y6435D01*
X18200Y5585D02*Y5485D01*
X17600Y5585D02*Y5485D01*
X15900Y5585D02*Y5485D01*
X16100Y6985D02*X16200D01*
X15300Y5585D02*Y5485D01*
X16100Y7585D02*X16200D01*
G54D37*X16900Y7935D02*Y7775D01*
X17290Y7935D02*Y7775D01*
X17680Y7935D02*Y7775D01*
Y7115D02*Y6955D01*
X16900Y7115D02*Y6955D01*
G54D16*X9324Y8531D02*X9424D01*
X9324Y7931D02*X9424D01*
G54D38*X8744Y7631D02*X8964D01*
X8744Y7891D02*X8964D01*
X8744Y8141D02*X8964D01*
X8744Y8401D02*X8964D01*
X8744Y8661D02*X8964D01*
X8744Y8911D02*X8964D01*
X8744Y9171D02*X8964D01*
X8744Y9421D02*X8964D01*
G54D16*X3424Y14931D02*X3524D01*
G54D39*X3879Y14916D02*X4332D01*
X3879Y14601D02*X4332D01*
X3879Y14286D02*X4332D01*
X3879Y13971D02*X4844D01*
G54D16*X3424Y15531D02*X3524D01*
G54D39*X3879Y16491D02*X4844D01*
X3879Y16176D02*X4332D01*
X3879Y15861D02*X4332D01*
X3879Y15546D02*X4332D01*
X3879Y15231D02*X4332D01*
G54D16*X2174Y12281D02*Y12181D01*
X2774Y12281D02*Y12181D01*
X2274Y13081D02*Y12981D01*
X2874Y13081D02*Y12981D01*
G54D40*X3724Y12831D02*X3944D01*
G54D38*X3724Y12571D02*X3944D01*
X3724Y12321D02*X3944D01*
X3724Y12061D02*X3944D01*
X5394Y12051D02*X5614D01*
X5394Y12311D02*X5614D01*
X5394Y12561D02*X5614D01*
X5394Y12821D02*X5614D01*
G54D39*X6143Y13971D02*X7107D01*
X6655Y14286D02*X7107D01*
X6655Y15861D02*X7107D01*
X6655Y16176D02*X7107D01*
X6143Y16491D02*X7107D01*
X6655Y14601D02*X7107D01*
X6655Y14916D02*X7107D01*
X6655Y15231D02*X7107D01*
X6654Y15546D02*X7107D01*
G54D16*X7524Y14931D02*X7624D01*
X7524Y15531D02*X7624D01*
G54D41*X2791Y9678D02*Y9403D01*
X2397Y9678D02*Y9403D01*
X2004Y8103D02*Y7828D01*
X2200Y8103D02*Y7828D01*
X2397Y8103D02*Y7828D01*
X2594Y8103D02*Y7828D01*
X2791Y8103D02*Y7828D01*
X2594Y9678D02*Y9403D01*
X2200Y9678D02*Y9403D01*
X2004Y9678D02*Y9403D01*
G54D40*X6624Y9431D02*X6844D01*
G54D38*X6624Y9171D02*X6844D01*
X6624Y8921D02*X6844D01*
X6624Y8661D02*X6844D01*
X6624Y8401D02*X6844D01*
X6624Y8151D02*X6844D01*
X6624Y7891D02*X6844D01*
X6624Y7641D02*X6844D01*
G54D16*X17650Y8635D02*Y8535D01*
X17050Y8635D02*Y8535D01*
G54D42*X14970Y14995D02*X15430D01*
G54D43*X14970Y14685D02*X15430D01*
X14970Y14375D02*X15430D01*
X14970Y14055D02*X15430D01*
X14970Y13745D02*X15430D01*
X14970Y13425D02*X15430D01*
G54D16*X12959Y14189D02*Y14089D01*
X12359Y14189D02*Y14089D01*
G54D43*X14970Y13115D02*X15430D01*
X14970Y12795D02*X15430D01*
X14970Y12485D02*X15430D01*
X14970Y12165D02*X15430D01*
X14970Y11855D02*X15430D01*
X16090Y11185D02*Y10725D01*
X16400Y11185D02*Y10725D01*
X16710Y11185D02*Y10725D01*
X17030Y11185D02*Y10725D01*
X17340Y11185D02*Y10725D01*
X17660Y11185D02*Y10725D01*
X17970Y11185D02*Y10725D01*
X18290Y11185D02*Y10725D01*
X18600Y11185D02*Y10725D01*
X18920Y11185D02*Y10725D01*
X19230Y11185D02*Y10725D01*
X19900Y11845D02*X20360D01*
X19900Y12155D02*X20360D01*
X19900Y12465D02*X20360D01*
X19900Y12785D02*X20360D01*
X19900Y13095D02*X20360D01*
X19900Y13415D02*X20360D01*
X19900Y13725D02*X20360D01*
X19900Y14045D02*X20360D01*
X19900Y14355D02*X20360D01*
X19900Y14675D02*X20360D01*
X19900Y14985D02*X20360D01*
X19240Y16115D02*Y15655D01*
X18930Y16115D02*Y15655D01*
X18620Y16115D02*Y15655D01*
X18300Y16115D02*Y15655D01*
X17990Y16115D02*Y15655D01*
X17670Y16115D02*Y15655D01*
X17360Y16115D02*Y15655D01*
X17040Y16115D02*Y15655D01*
X16730Y16115D02*Y15655D01*
X16410Y16115D02*Y15655D01*
X16100Y16115D02*Y15655D01*
M02*
