M48
INCH,TZ
T12C0.020
T14C0.060
T18C0.028
T19C0.090
T20C0.038
T21C0.018
%
T21
X014800Y005100
X015200Y005100
X016020Y004820
X015780Y004199
X022518Y001470
X021524Y002830
X021824Y002706
X022173Y005482
X017420Y004603
X019021Y004603
X019321Y004860
X021509Y004309
X014081Y004509
X016260Y005740
X011095Y005299
X011385Y007475
X012140Y004620
X007800Y004658
X009480Y009131
X009520Y003060
X009480Y005080
X009280Y002060
X010100Y009131
X010600Y010731
X008834Y009729
X010000Y004789
X012422Y009430
X012106Y009717
X012431Y009073
X021973Y010573
X023976Y010608
X017430Y009535
X018405Y010175
X021673Y010281
X023686Y010281
X020083Y010855
X017376Y008692
X016090Y008720
X015512Y008720
X013575Y009840
X015255Y007575
X017345Y007395
X017350Y006325
X016389Y007395
X017963Y007847
X018085Y006404
X018645Y007527
X018290Y007591
X018405Y008100
X010009Y016845
X006710Y024699
X008890Y017240
X009190Y017000
X011314Y019187
X013000Y024350
X005815Y031300
X004219Y027780
X005635Y028170
X007195Y030817
X005833Y005550
X004683Y004538
X006279Y003510
X007480Y003560
X007100Y003820
X005940Y003878
X006308Y002611
X007620Y001039
X005510Y002420
X007720Y004358
X003129Y013374
X007690Y010400
X011253Y018754
X012177Y017664
X011854Y017664
X011854Y018514
X008950Y016311
X007707Y013619
X010833Y016311
X011603Y013864
X010900Y011277
X010004Y011277
X011874Y012110
X010890Y012029
X010890Y013619
X011363Y011580
X016031Y011469
X014675Y011260
X018451Y016180
X020083Y011175
X018172Y013965
X018710Y014505
X016807Y016180
X016792Y014900
X019220Y017018
X020050Y017018
X018976Y018261
X018710Y019787
X018155Y019021
X018075Y014265
X017097Y012620
X016552Y012317
X016292Y011915
X017190Y011150
X014736Y018194
X014736Y018754
X016825Y018754
X015248Y019248
X014306Y017774
X012747Y019488
X012747Y019788
X013554Y017534
X011554Y018461
X014675Y017533
X014010Y015540
X015248Y014820
X011915Y016759
X011630Y016441
X011920Y013374
X012587Y013135
X012505Y012520
X013554Y012210
X012237Y013135
X012205Y012370
T12
X007310Y001640
X006810Y001640
X006310Y001640
X005810Y001640
X005310Y001640
X004810Y001640
X004310Y001640
X003810Y001640
T18
X010080Y036960
X009080Y036960
X009080Y036160
X010080Y036160
X021400Y030100
X020400Y030100
X020400Y029300
X021400Y029300
T20
X025400Y004900
X025400Y003900
X025400Y002900
X025400Y001900
X018000Y002400
X017000Y002400
X016000Y002400
X015000Y002400
X014000Y002400
X002300Y014600
X002300Y013600
X008350Y028800
X008350Y029800
X009200Y032750
X009206Y031647
X011500Y024600
X010000Y023500
X011000Y023500
X012000Y023500
X012500Y024600
X013000Y023500
X013500Y024600
X014000Y023500
X015000Y023500
X016000Y023500
X017000Y023500
X014500Y024600
X015500Y024600
T14
X016400Y036700
X018300Y036700
X020200Y036700
T19
X011980Y038060
X007180Y038060
X023300Y028200
X018500Y028200
M30
