G04 start of page 3 for group 1 idx 3
G04 Title: (unknown), component *
G04 Creator: pcb 20080202 *
G04 CreationDate: Sun 22 Jun 2008 10:51:19 AM GMT UTC *
G04 For: sean *
G04 Format: Gerber/RS-274X *
G04 PCB-Dimensions: 280000 410000 *
G04 PCB-Coordinate-Origin: lower left *
%MOIN*%
%FSLAX24Y24*%
%LNFRONT*%
%ADD11C,0.0100*%
%ADD12C,0.0200*%
%ADD13C,0.0800*%
%ADD14C,0.0600*%
%ADD15C,0.1200*%
%ADD16C,0.0360*%
%ADD17C,0.0220*%
%ADD18C,0.0280*%
%ADD19C,0.0900*%
%ADD20C,0.0380*%
%ADD21C,0.0180*%
%ADD22R,0.0450X0.0450*%
%ADD23R,0.0300X0.0300*%
%ADD24C,0.0160*%
%ADD25R,0.0160X0.0160*%
%ADD26R,0.0079X0.0079*%
%ADD27R,0.0197X0.0197*%
%ADD28R,0.0240X0.0240*%
%ADD29R,0.0200X0.0200*%
%ADD30R,0.0110X0.0110*%
%ADD31R,0.0945X0.0945*%
%ADD32R,0.0150X0.0150*%
%ADD33C,0.0150*%
%ADD34R,0.0216X0.0216*%
G54D11*X27000Y38000D02*Y40000D01*
X18020Y36700D02*X18300D01*
X26500Y36260D02*X27000D01*
Y38000D02*X26500D01*
X1000D02*X1500D01*
Y36260D02*X1000D01*
Y40000D02*X27000D01*
X1000Y38000D02*Y40000D01*
X4700Y36960D02*X9080D01*
X23976Y26860D02*X6330D01*
X7920Y29300D02*X9636D01*
Y36160D01*
X9080D01*
X8350Y28800D02*X18020D01*
X23686Y25030D02*X6710D01*
X12177Y17774D02*X13795D01*
X13992Y17954D02*X11433D01*
X12417Y17344D02*Y17304D01*
Y17344D02*X12444D01*
Y17534D01*
X13554D01*
X13795Y17774D02*Y17304D01*
X13992Y17533D02*Y17954D01*
X14582Y17068D02*X14591D01*
X13997Y17954D02*X13992D01*
X13997D01*
X16157Y17068D02*X16354D01*
X15960Y17304D02*Y17474D01*
X16354Y17068D03*
X15248Y19248D02*Y19188D01*
X11314D02*X15248D01*
X13992Y17304D02*Y17533D01*
X2889Y17280D02*X5419D01*
X13992Y17533D02*X14675D01*
X10842Y22990D02*X15500D01*
Y24600D01*
X10570Y23970D02*X13500D01*
Y24600D01*
X13000Y24350D02*Y24150D01*
X7150Y24600D02*X11500D01*
X10570Y17600D02*Y23970D01*
X11314Y19188D02*Y19187D01*
X13000Y24150D02*X10000D01*
X27000Y580D02*X1000D01*
X11600Y1329D03*
X4810Y1039D02*X7620D01*
X20880Y1029D02*X25400D01*
X22518Y1470D02*X21509D01*
X21350D02*X21509D01*
X21350D01*
X22518D03*
X20880Y1410D02*Y1029D01*
X20750Y1410D02*X20880D01*
X20599Y1310D02*X20750D01*
X20599Y1385D02*Y1310D01*
Y1410D02*Y1385D01*
Y1410D02*X20750D01*
X25400Y1029D02*Y1900D01*
X20599Y1385D02*X18000D01*
X10490Y3300D03*
X11000Y3190D02*X10490D01*
Y4070D02*X10910D01*
Y4020D01*
X11000Y2600D02*Y3190D01*
X15000Y2400D02*X15570D01*
X16000D02*X16570D01*
X20880Y1955D02*Y1410D01*
X20851Y1955D02*X20880Y1410D01*
X18000Y1385D02*Y2400D01*
X20880Y1955D02*X20851D01*
X15570Y2400D02*Y4199D01*
X13784Y5050D02*Y2830D01*
X15000D01*
Y2400D01*
X16570D02*Y4351D01*
X14081Y4509D02*X16325D01*
X15570Y4199D02*X15780D01*
X21509Y4309D02*Y4731D01*
X16570Y4351D02*X17717D01*
X10617Y5050D02*X13784D01*
X5498Y3933D02*Y4118D01*
X8150D01*
X9280Y4070D02*X10270D01*
X8580Y4590D02*Y1950D01*
X9280Y2060D02*Y4070D01*
X8580Y1950D02*X6810D01*
Y1640D01*
X8150Y4118D02*Y4070D01*
Y4330D02*X7720D01*
Y4358D02*Y4330D01*
X8370Y4590D02*X8580D01*
X8370Y5100D02*X9480D01*
Y5080D01*
X10490Y5090D02*X10617D01*
Y5050D01*
X10270Y4840D02*X10000D01*
Y4789D01*
X9720Y4840D02*Y12895D01*
X9400Y9131D02*Y8750D01*
X9480Y9131D02*X9400D01*
X8350Y8650D02*Y9520D01*
X8140D01*
X8350Y8650D02*X9400D01*
X8140Y9780D02*X8834D01*
X9074Y10160D02*X8180D01*
Y10930D02*X8470D01*
Y10420D01*
X8180D01*
X8834Y9780D02*Y9729D01*
X9074Y9770D02*X9300D01*
X9074Y10160D02*Y9770D01*
X9300Y11320D02*Y9770D01*
X8370Y4840D02*X9720D01*
X4862Y1950D02*Y3004D01*
X6310Y1950D02*Y1640D01*
X11600Y2500D02*Y1329D01*
X6310D01*
X11880Y4620D02*Y2500D01*
X11600D01*
X11095Y7800D02*Y5299D01*
X10455Y8650D02*Y7800D01*
X11095D01*
X11385Y7575D02*Y7475D01*
X11750Y8120D03*
Y8700D02*Y8120D01*
X1500Y8260D02*X1000D01*
X4221Y10940D02*X6290D01*
X1000Y8260D02*Y580D01*
X6310Y1640D02*Y1329D01*
Y1950D02*X4862D01*
X4221Y10940D02*Y1640D01*
X4401Y8900D02*Y2739D01*
X6510Y10940D02*Y10760D01*
Y10170D02*Y10430D01*
Y10510D02*Y10680D01*
X5650Y9530D02*X6250D01*
X5650D02*Y9500D01*
X2889Y11320D02*X9300D01*
X7960Y10670D02*X7350D01*
X7960Y10420D02*X7690D01*
Y10400D01*
X6470Y9020D02*Y9280D01*
Y9405D02*Y9280D01*
Y9530D02*Y9405D01*
Y9790D02*Y9530D01*
Y9405D02*Y9280D01*
Y9405D02*Y9530D01*
X7350Y10670D02*Y8700D01*
X11750Y9300D02*Y10000D01*
X11874Y12110D02*Y12029D01*
X10890D01*
X7350Y8650D02*X8350D01*
X7530Y9010D02*X7920D01*
X7710Y9780D02*X7920D01*
X7710D02*Y9270D01*
X7920D01*
X7960Y10160D02*X7530D01*
Y9010D02*Y10160D01*
X11370Y8700D02*X11650D01*
X11370Y10280D02*Y8700D01*
X15770Y9040D02*X19280D01*
Y9360D02*Y9270D01*
X17190D02*X19280D01*
X18405Y10175D02*X17430D01*
X17376Y8730D02*X19280D01*
X17430Y10175D02*Y9535D01*
X17350Y6325D02*Y6670D01*
X16325Y5740D02*Y4509D01*
X16259Y5740D02*X16325D01*
X16259D02*X16260D01*
X16389Y7395D02*Y8410D01*
X17717Y4351D02*Y6670D01*
X17660D02*X17717D01*
X17980D02*Y6404D01*
X18085D01*
X19280Y7847D02*Y7790D01*
X17963Y7847D02*X19280D01*
X18610Y7527D02*Y7130D01*
Y7527D02*X18645D01*
X18290Y7591D02*Y7130D01*
X18405Y8100D02*X19280D01*
Y8410D02*Y8382D01*
X16389Y8410D02*X19280D01*
X13230Y11580D02*X15770D01*
Y9040D01*
X13230Y11340D02*Y11270D01*
X14675Y11340D02*X13230D01*
X14675D02*Y11260D01*
X15512Y9840D02*X13575D01*
X17376Y8730D02*Y8692D01*
X17190Y11150D02*Y9270D01*
X12110Y11270D02*Y10280D01*
X12770Y11270D02*X12110D01*
X15512Y9840D02*Y8720D01*
X22636Y9990D02*Y11204D01*
X20903Y9196D02*X22636D01*
X20903D02*Y7350D01*
X19740Y9670D02*X20746D01*
Y9196D01*
X20000Y9360D02*Y6969D01*
X19740Y9360D02*X20000D01*
X20250Y5750D02*Y5183D01*
X23396Y7350D02*Y13000D01*
X21510D01*
X20000Y6969D02*X21510D01*
Y7250D01*
X15140Y6300D02*X15350D01*
X15140Y6670D02*Y6300D01*
X11385Y7575D02*X15255D01*
X14830Y6670D02*Y6300D01*
X15350Y5700D02*Y5600D01*
Y5700D02*Y5600D01*
X13230Y8120D02*X15530D01*
X15770Y9040D02*Y7130D01*
X15530Y8120D02*Y7130D01*
X15460D02*X15530D01*
X11750Y8120D02*X12770D01*
X16090Y7130D02*Y8720D01*
X26500Y8260D02*X27000D01*
Y580D01*
X25400Y4900D03*
X14800Y5100D02*X14700Y5700D01*
X15200Y5100D02*X15300Y5600D01*
X20880Y5183D02*Y5750D01*
X15350Y5700D02*Y5600D01*
X14750D02*X14700Y5700D01*
X14750D02*Y5600D01*
X17345Y7395D02*X17030D01*
X17420Y5980D02*Y4603D01*
X17030Y7130D02*Y7395D01*
X14200Y6670D02*Y5980D01*
X17420D01*
X13890Y6670D02*X13964D01*
Y4820D01*
X16020D01*
X20880Y5750D02*X20600D01*
X20880Y4412D02*Y4731D01*
X21509Y2408D02*X21194D01*
X21509Y1470D02*Y1955D01*
X21194Y4412D02*Y2408D01*
Y4412D02*X20880D01*
X20564Y2408D02*X20722D01*
Y2408D02*Y2408D01*
Y2408D02*X20880D01*
X20564Y4730D02*Y2408D01*
X19021Y4603D02*Y1717D01*
X19321Y4860D02*Y3158D01*
X19021Y1717D02*X19935D01*
Y1955D01*
X19321Y3158D02*X20250D01*
X22518Y1470D02*Y4900D01*
X21524Y3989D02*Y2830D01*
X21824Y2706D02*Y2408D01*
X25400Y4900D02*X22518D01*
X20000Y6969D02*Y5850D01*
Y5750D02*X20250D01*
X20903Y7350D02*X20910D01*
X20250Y5183D02*X20564D01*
X20250Y3158D02*Y2408D01*
X21524Y3989D02*X21824D01*
Y4731D01*
X22173Y5482D02*X21194D01*
Y5183D02*Y5482D01*
X21510Y7350D02*X23396D01*
X10490Y4580D02*Y4330D01*
Y4620D02*Y4580D01*
X7800Y4658D02*Y4598D01*
X10490Y3560D02*Y3810D01*
X9520Y3560D02*Y3060D01*
Y3560D02*X10270D01*
X10490Y3300D02*Y3190D01*
Y4620D02*X10910D01*
X12140D02*X11880D01*
X11010D01*
X5301Y4598D02*X6073D01*
X6308Y2666D02*Y2611D01*
X6033Y3201D02*X8370D01*
Y3310D01*
X7480Y3560D02*X8150D01*
X7100Y3820D02*X8150D01*
X4810Y1640D02*Y1039D01*
X4581Y3201D02*X4766D01*
X4581D02*Y4538D01*
X4683D01*
X4766Y4118D02*X4924D01*
X4766D02*Y3595D01*
X5301Y4598D02*Y3933D01*
X10490Y3560D02*X10645D01*
Y3570D02*Y3560D01*
Y3570D02*X11600D01*
Y3290D01*
X4221Y1640D02*X4310D01*
X4810D02*X4625D01*
Y2739D01*
X4401D01*
X6033Y3398D02*X6279D01*
Y3510D02*Y3398D01*
X5695Y2666D02*X6308D01*
X5940Y3878D02*X5695D01*
X5498Y2666D02*Y2420D01*
X5510D01*
X5104Y3933D02*Y5550D01*
X4924Y5790D02*Y4118D01*
X5104Y5550D02*X5833D01*
X4924Y5790D02*X6073D01*
Y4598D02*Y5790D01*
Y4598D02*X7800D01*
X6510Y10760D02*Y10680D01*
Y10510D02*Y10430D01*
X4401Y8900D02*X5550D01*
X12117Y9300D02*X11750D01*
X12770Y9060D02*X12431D01*
Y9073D02*Y9060D01*
X10455Y10125D02*Y8650D01*
X10100Y9131D02*Y9630D01*
X10455Y8650D02*X10000D01*
X11363Y11580D02*X12770D01*
X11095Y7800D02*X12770D01*
X12117Y8750D02*Y9300D01*
Y8750D02*X12770D01*
Y9380D02*X12422D01*
Y9430D02*Y9380D01*
X12106Y9690D02*X12770D01*
X12106D02*Y9717D01*
X11363Y10971D02*X10360D01*
D03*
Y10125D01*
X10455D01*
X11370Y10280D02*X12110D01*
X1000Y36260D02*Y10000D01*
X1500D01*
X2889Y13600D02*Y11320D01*
Y17280D02*Y13600D01*
X6330Y27420D02*Y26860D01*
Y27420D02*X7440D01*
X5395Y27915D02*Y28670D01*
X6560D01*
Y27720D02*Y27670D01*
X5160Y28670D02*Y28170D01*
X7440Y27915D02*Y27420D01*
Y27915D02*X5395D01*
X7210Y28170D02*X7920D01*
Y29300D01*
X5635Y28170D02*X6560D01*
X8350Y27170D02*Y28800D01*
X7210Y27170D02*X8350D01*
X5419Y27670D02*X5160D01*
X4219Y27780D02*Y27170D01*
X5160Y27670D02*Y28170D01*
X3670Y27300D02*Y27170D01*
X4219D01*
X4510D01*
X5815Y31300D02*Y31277D01*
X7195Y32455D02*Y30817D01*
Y32455D02*X5875D01*
Y31655D01*
X6725D01*
Y30944D01*
X3670Y28170D02*X4510D01*
X3670D02*Y28100D01*
X6905Y29800D02*X8350D01*
X6905D02*Y32100D01*
X6370D01*
X5655Y33030D02*X9200D01*
Y32750D01*
X5815Y31277D02*X5495D01*
X5815Y31300D02*X6230D01*
X4465Y29800D02*Y33030D01*
Y29800D02*X6905D01*
X4715Y30944D02*X6725D01*
X4715D02*Y31277D01*
X5495Y31846D02*Y32097D01*
X4715Y31846D02*X5495D01*
X4715Y32097D02*Y31846D01*
X5500Y33030D02*X5655D01*
X5500D02*X5655D01*
X4700Y33170D02*Y36960D01*
Y33030D02*X5105D01*
X5655Y32257D02*Y33030D01*
X5105D02*Y32257D01*
X4465Y33030D02*X4700D01*
X5495Y32257D02*X5655D01*
X7500Y16605D02*Y17280D01*
X4465Y29800D02*Y28670D01*
X5419Y27720D02*Y27670D01*
Y27720D02*X6560D01*
X27000Y36260D02*Y10020D01*
Y10000D02*X26500D01*
X23976Y26860D02*Y10608D01*
X23686Y25030D02*Y10281D01*
X18976Y18261D02*Y18261D01*
X18020Y28800D02*Y36700D01*
X18710Y19788D02*Y19787D01*
X18155Y19021D02*Y19021D01*
Y19021D02*Y19021D01*
X17250Y15240D02*Y14959D01*
X20050D01*
Y15240D01*
X19740Y11250D02*X20083D01*
Y11175D01*
X19740Y10930D02*X20083D01*
D03*
Y10855D01*
X20903Y13000D02*Y11204D01*
Y13000D02*X20910D01*
X22636Y11204D02*X20903D01*
X19740Y9990D02*X22636D01*
Y9988D01*
Y9990D01*
X19740Y10300D02*X21673D01*
Y10281D01*
X18405Y10175D02*Y10175D01*
Y10175D02*Y10175D01*
X19460Y17474D02*Y15840D01*
X19670Y18514D02*Y15520D01*
X20510Y19488D02*Y12974D01*
X18970Y16660D02*Y15240D01*
X19250D01*
X19670Y15520D02*X20330D01*
Y13180D01*
X17050Y13640D02*Y13965D01*
X18172D01*
X18710Y14505D02*X16740D01*
Y13640D01*
X16420Y14900D02*Y13640D01*
X20330Y13180D02*X18620D01*
X20510Y12974D02*X18000D01*
Y13180D01*
X18075Y14265D02*X18413D01*
Y13180D01*
X18310D01*
X19280Y12510D02*X17097D01*
Y12620D02*Y12510D01*
X19280Y12190D02*X16552D01*
Y12317D01*
X16354Y17068D02*Y17018D01*
X19220D01*
X20050Y17018D02*Y15840D01*
X18451Y16180D02*Y15840D01*
X18250D01*
X16550Y15290D02*X17150D01*
Y15240D01*
X16807Y16180D02*X16870D01*
Y15520D01*
X16792Y14900D02*X16420D01*
X16550Y15290D02*Y15240D01*
X16792D02*Y14900D01*
Y15240D02*X16550D01*
X9720Y12895D02*X17370D01*
X12827Y13180D02*X13900D01*
X12614Y13135D02*X12587D01*
X12505Y12520D02*X12770D01*
X12220Y13135D02*X12237D01*
X16420Y13180D02*X15790D01*
X17370Y12895D02*Y13180D01*
X19740Y10620D02*Y10573D01*
X21973D01*
X13554Y12210D02*X13230D01*
X12205Y12370D02*Y11900D01*
X12770D01*
X19280Y11880D02*X16292D01*
Y11915D02*Y11880D01*
X19280Y11560D02*X16031D01*
Y11469D01*
X18155Y19021D02*Y19008D01*
X14736Y18754D02*X16825D01*
X15960Y17474D02*X19460D01*
X15566Y18261D02*X18976D01*
X15370Y18194D02*X14736D01*
X14976Y17774D02*X14306D01*
X11854Y18514D02*X19670D01*
X12747Y19488D02*X20510D01*
X12747Y19788D02*X18710D01*
X11554Y19008D02*X18155D01*
X10842Y18754D02*X11253D01*
X10842Y17304D02*Y18754D01*
X11055Y17068D02*X11039D01*
X7950Y17600D02*X10570D01*
D03*
X12177Y17774D02*Y17664D01*
X15763Y17068D02*Y16660D01*
X15566Y18261D02*Y17304D01*
X15370D02*Y18194D01*
X14976Y17304D02*Y17774D01*
X5419Y17280D02*X7500D01*
X6510Y10680D02*Y10760D01*
Y10430D02*Y10510D01*
X7150Y13864D02*Y17000D01*
X2889Y13600D02*X2300D01*
X11920Y13374D02*X3129D01*
X11363Y11580D02*Y10971D01*
X10004Y11277D02*X10900D01*
X11650Y10731D02*Y10600D01*
X10600Y10731D02*X11650D01*
X11603Y13864D02*X7150D01*
X11055Y16605D02*X7500D01*
X7707Y13619D02*X10890D01*
X11826Y17304D02*Y17664D01*
X11854D01*
X11630Y17068D02*Y16441D01*
X8950Y16311D02*X10833D01*
X11433Y17304D02*X11236D01*
Y17068D02*X11055D01*
X8890Y17304D02*X10645D01*
X8890D02*Y17240D01*
X11554Y18461D02*Y19008D01*
X10000Y24150D02*Y23500D01*
X10842Y18754D02*Y22990D01*
X11433Y17954D02*Y17304D01*
X9190Y17000D02*X7950D01*
X7150Y17600D02*Y24600D01*
X6710Y25030D02*Y24699D01*
X5419Y17280D02*Y27670D01*
X10842Y17068D02*Y16845D01*
X10009D01*
X11055Y17018D02*Y16605D01*
Y17018D02*Y17068D01*
X11039D02*X11055Y17018D01*
Y17068D02*Y17018D01*
X12023Y17068D02*Y16759D01*
X11915D01*
X13007Y17068D02*X13016D01*
X12811D02*Y16949D01*
X12827D01*
X15763Y16660D02*X18970D01*
X16870Y15520D02*X18250D01*
Y15240D01*
X17250Y16480D02*Y15840D01*
X15850Y16300D02*Y15840D01*
X16450Y15240D02*X15850D01*
X15173Y17068D02*Y16480D01*
X14779Y17068D02*Y16300D01*
X14591Y17068D02*Y16120D01*
X13598Y14385D02*X15160D01*
X14385Y17068D02*Y15840D01*
X13598Y17068D02*Y14385D01*
X13401Y17068D02*Y14205D01*
X13204Y17068D02*Y13974D01*
X13016Y17068D02*Y13794D01*
X12827Y16949D02*Y13180D01*
X12614Y17068D02*Y13135D01*
X12220Y17068D02*Y13135D01*
X13401Y14205D02*X14850D01*
X13515Y14025D02*X14530D01*
X13204Y13974D02*X13515D01*
Y14025D02*Y13974D01*
X13016Y13794D02*X13695D01*
Y13845D02*Y13794D01*
Y13845D02*X14220D01*
X15173Y16480D02*X17250D01*
X16550Y15540D02*Y15840D01*
X15480Y13640D02*Y14820D01*
X15248D01*
X15160Y14385D02*Y13640D01*
X14850Y14205D02*Y13640D01*
X14530Y14025D02*Y13640D01*
X14220Y13845D02*Y13640D01*
X14010Y15540D02*X16550D01*
X14779Y16300D02*X15850D01*
X14591Y16120D02*X15150D01*
Y15840D01*
X15050Y15240D02*X14450D01*
X15750D02*X15150D01*
X1500Y10000D02*G75*G02X2370Y9130I0J-870D01*G01*
G75*G02X1500Y8260I-870J0D01*G01*
X26500Y10000D02*G75*G03X25630Y9130I0J-870D01*G01*
G75*G03X26500Y8260I870J0D01*G01*
X1500Y38000D02*G75*G02X2370Y37130I0J-870D01*G01*
G75*G02X1500Y36260I-870J0D01*G01*
X25630Y37130D02*G75*G03X26500Y36260I870J0D01*G01*
Y38000D02*G75*G03X25630Y37130I0J-870D01*G01*
G54D12*G36*
X16000Y37100D02*Y36300D01*
X16800D01*
Y37100D01*
X16000D01*
G37*
G54D13*X18300Y36700D03*
X20200D03*
G54D14*X10080Y36960D03*
G54D15*X11980Y38060D03*
G54D14*X9080Y36960D03*
G54D15*X7180Y38060D03*
G54D12*G36*
X25100Y5200D02*Y4600D01*
X25700D01*
Y5200D01*
X25100D01*
G37*
G54D14*X25400Y3900D03*
Y2900D03*
Y1900D03*
G54D16*X7310Y1640D03*
X6810D03*
X6310D03*
X5810D03*
X5310D03*
X4810D03*
X4310D03*
X3810D03*
G54D12*G36*
X17700Y2700D02*Y2100D01*
X18300D01*
Y2700D01*
X17700D01*
G37*
G54D14*X17000Y2400D03*
X16000D03*
X15000D03*
X14000D03*
G54D12*G36*
X2000Y14900D02*Y14300D01*
X2600D01*
Y14900D01*
X2000D01*
G37*
G54D14*X2300Y13600D03*
G54D12*G36*
X8050Y29100D02*Y28500D01*
X8650D01*
Y29100D01*
X8050D01*
G37*
G54D14*X8350Y29800D03*
G54D12*G36*
X8780Y36460D02*Y35860D01*
X9380D01*
Y36460D01*
X8780D01*
G37*
G54D14*X10080Y36160D03*
G54D12*G36*
X8900Y33050D02*Y32450D01*
X9500D01*
Y33050D01*
X8900D01*
G37*
G36*
X8906Y31947D02*Y31347D01*
X9506D01*
Y31947D01*
X8906D01*
G37*
G36*
X11200Y24900D02*Y24300D01*
X11800D01*
Y24900D01*
X11200D01*
G37*
G36*
X9700Y23800D02*Y23200D01*
X10300D01*
Y23800D01*
X9700D01*
G37*
G54D14*X11000Y23500D03*
X12000D03*
X12500Y24600D03*
X13000Y23500D03*
X13500Y24600D03*
X14000Y23500D03*
X15000D03*
X16000D03*
X17000D03*
X14500Y24600D03*
X15500D03*
G54D12*G36*
X21100Y30400D02*Y29800D01*
X21700D01*
Y30400D01*
X21100D01*
G37*
G54D14*X20400Y30100D03*
Y29300D03*
X21400D03*
G54D15*X23300Y28200D03*
X18500D03*
G54D17*X14800Y5100D03*
X15200D03*
X16020Y4820D03*
X15780Y4199D03*
X22518Y1470D03*
X21524Y2830D03*
X21824Y2706D03*
X22173Y5482D03*
X17420Y4603D03*
X19021Y4603D03*
X19321Y4860D03*
X21509Y4309D03*
X14081Y4509D03*
X16260Y5740D03*
X11095Y5299D03*
X11385Y7475D03*
X12140Y4620D03*
X7800Y4658D03*
X9480Y9131D03*
X9520Y3060D03*
X9480Y5080D03*
X9280Y2060D03*
X10100Y9131D03*
X10600Y10731D03*
X8834Y9729D03*
X10000Y4789D03*
X12422Y9430D03*
X12106Y9717D03*
X12431Y9073D03*
X21973Y10573D03*
X23976Y10608D03*
X17430Y9535D03*
X18405Y10175D03*
X21673Y10281D03*
X23686D03*
X20083Y10855D03*
X17376Y8692D03*
X16090Y8720D03*
X15512D03*
X13575Y9840D03*
X15255Y7575D03*
X17345Y7395D03*
X17350Y6325D03*
X16389Y7395D03*
X17963Y7847D03*
X18085Y6404D03*
X18645Y7527D03*
X18290Y7591D03*
X18405Y8100D03*
X10009Y16845D03*
X6710Y24699D03*
X8890Y17240D03*
X9190Y17000D03*
X11314Y19187D03*
X13000Y24350D03*
X5815Y31300D03*
X4219Y27780D03*
X5635Y28170D03*
X7195Y30817D03*
X5833Y5550D03*
X4683Y4538D03*
X6279Y3510D03*
X7480Y3560D03*
X7100Y3820D03*
X5940Y3878D03*
X6308Y2611D03*
X7620Y1039D03*
X5510Y2420D03*
X7720Y4358D03*
X3129Y13374D03*
X7690Y10400D03*
X11253Y18754D03*
X12177Y17664D03*
X11854D03*
X11854Y18514D03*
X8950Y16311D03*
X7707Y13619D03*
X10833Y16311D03*
X11603Y13864D03*
X10900Y11277D03*
X10004D03*
X11874Y12110D03*
X10890Y12029D03*
Y13619D03*
X11363Y11580D03*
X16031Y11469D03*
X14675Y11260D03*
X18451Y16180D03*
X20083Y11175D03*
X18172Y13965D03*
X18710Y14505D03*
X16807Y16180D03*
X16792Y14900D03*
X19220Y17018D03*
X20050Y17018D03*
X18976Y18261D03*
X18710Y19787D03*
X18155Y19021D03*
X18075Y14265D03*
X17097Y12620D03*
X16552Y12317D03*
X16292Y11915D03*
X17190Y11150D03*
X14736Y18194D03*
X14736Y18754D03*
X16825D03*
X15248Y19248D03*
X14306Y17774D03*
X12747Y19488D03*
Y19788D03*
X13554Y17534D03*
X11554Y18461D03*
X14675Y17533D03*
X14010Y15540D03*
X15248Y14820D03*
X11915Y16759D03*
X11630Y16441D03*
X11920Y13374D03*
X12587Y13135D03*
X12505Y12520D03*
X13554Y12210D03*
X12237Y13135D03*
X12205Y12370D03*
G54D22*X10100Y9770D02*Y9630D01*
X9300Y9770D02*Y9630D01*
G54D23*X10000Y8750D02*Y8650D01*
X9400Y8750D02*Y8650D01*
G54D24*X7920Y9010D02*X8140D01*
G54D25*X7920Y9270D02*X8140D01*
X7920Y9520D02*X8140D01*
X7920Y9780D02*X8140D01*
G54D24*X7960Y10160D02*X8180D01*
G54D23*X5550Y8900D02*X5650D01*
X5550Y9500D02*X5650D01*
G54D25*X6250Y9790D02*X6470D01*
X6250Y9530D02*X6470D01*
X6250Y9280D02*X6470D01*
X6250Y9020D02*X6470D01*
X7960Y10420D02*X8180D01*
X7960Y10670D02*X8180D01*
X7960Y10930D02*X8180D01*
X6290Y10940D02*X6510D01*
X6290Y10680D02*X6510D01*
X6290Y10430D02*X6510D01*
X6290Y10170D02*X6510D01*
G54D23*X7850Y17000D02*X7950D01*
X7050D02*X7150D01*
X7850Y17600D02*X7950D01*
X7050D02*X7150D01*
X11650Y8700D02*X11750D01*
X11650Y9300D02*X11750D01*
X11650Y10000D02*X11750D01*
X11650Y10600D02*X11750D01*
G54D26*X12023Y17304D02*Y17068D01*
X11826Y17304D02*Y17068D01*
X11630Y17304D02*Y17068D01*
X11433Y17304D02*Y17068D01*
X11236Y17304D02*Y17068D01*
X11039Y17304D02*Y17068D01*
X10842Y17304D02*Y17068D01*
X10645Y17304D02*Y17068D01*
G54D27*X9720Y18033D02*Y17836D01*
G54D28*X4715Y32257D02*Y32097D01*
X5105Y32257D02*Y32097D01*
X5495Y32257D02*Y32097D01*
X4715Y31437D02*Y31277D01*
X5495Y31437D02*Y31277D01*
G54D22*X6230Y32100D02*X6370D01*
X6230Y31300D02*X6370D01*
X4700Y33170D02*Y33030D01*
X5500Y33170D02*Y33030D01*
G54D29*X4510Y28670D02*X5160D01*
X4510Y28170D02*X5160D01*
X4510Y27670D02*X5160D01*
X4510Y27170D02*X5160D01*
X6560D02*X7210D01*
X6560Y27670D02*X7210D01*
X6560Y28170D02*X7210D01*
X6560Y28670D02*X7210D01*
G54D22*X3530Y27300D02*X3670D01*
X3530Y28100D02*X3670D01*
G54D24*X8150Y5100D02*X8370D01*
G54D25*X8150Y4840D02*X8370D01*
X8150Y4590D02*X8370D01*
X8150Y4330D02*X8370D01*
X8150Y4070D02*X8370D01*
X8150Y3820D02*X8370D01*
X8150Y3560D02*X8370D01*
X8150Y3310D02*X8370D01*
G54D30*X5868Y3004D02*X6033D01*
X5868Y3201D02*X6033D01*
X5868Y3398D02*X6033D01*
X5868Y3595D02*X6033D01*
X5695Y3933D02*Y3768D01*
X5498Y3933D02*Y3768D01*
X5301Y3933D02*Y3768D01*
X5104Y3933D02*Y3768D01*
X4766Y3595D02*X4931D01*
X4766Y3398D02*X4931D01*
X4766Y3201D02*X4931D01*
X5498Y2831D02*Y2666D01*
X5695Y2831D02*Y2666D01*
X4766Y3004D02*X4931D01*
X5104Y2831D02*Y2666D01*
X5301Y2831D02*Y2666D01*
G54D12*G36*
X5104Y3595D02*Y3004D01*
X5695D01*
Y3595D01*
X5104D01*
G37*
G54D25*X10270Y3300D02*X10490D01*
G54D23*X11000Y3290D02*Y3190D01*
X11600Y3290D02*Y3190D01*
G54D25*X10270Y3560D02*X10490D01*
X10270Y3810D02*X10490D01*
X10270Y4070D02*X10490D01*
X10270Y4330D02*X10490D01*
X10270Y4580D02*X10490D01*
X10270Y4840D02*X10490D01*
X10270Y5090D02*X10490D01*
G54D23*X10910Y4620D02*X11010D01*
X10910Y4020D02*X11010D01*
X11000Y2600D02*Y2500D01*
X11600Y2600D02*Y2500D01*
X18150Y15240D02*X18250D01*
X17150D02*X17250D01*
X18150Y15840D02*X18250D01*
X17150D02*X17250D01*
X15750D02*X15850D01*
X16450Y15240D02*X16550D01*
X15050D02*X15150D01*
X15750D02*X15850D01*
X19250D02*X19350D01*
X19950D02*X20050D01*
X19250Y15840D02*X19350D01*
X19950D02*X20050D01*
X14350Y15240D02*X14450D01*
X14350Y15840D02*X14450D01*
X15050D02*X15150D01*
G54D31*X22636Y11204D02*X22793D01*
X20746D02*X20903D01*
X22636Y9196D02*X22793D01*
X20746D02*X20903D01*
G54D32*X19280Y8730D02*X19740D01*
X19280Y9040D02*X19740D01*
X19280Y9360D02*X19740D01*
X19280Y9670D02*X19740D01*
X19280Y9990D02*X19740D01*
X19280Y10300D02*X19740D01*
X19280Y10620D02*X19740D01*
X19280Y10930D02*X19740D01*
X19280Y11250D02*X19740D01*
X19280Y11560D02*X19740D01*
X19280Y11880D02*X19740D01*
X19280Y12190D02*X19740D01*
X19280Y12510D02*X19740D01*
X18620Y13640D02*Y13180D01*
X18310Y13640D02*Y13180D01*
X18000Y13640D02*Y13180D01*
G54D23*X21510Y13100D02*Y13000D01*
X20910Y13100D02*Y13000D01*
X16450Y15840D02*X16550D01*
G54D27*X17279Y18033D02*Y17836D01*
G54D26*X16354Y17304D02*Y17068D01*
X16157Y17304D02*Y17068D01*
X15960Y17304D02*Y17068D01*
X15763Y17304D02*Y17068D01*
X15566Y17304D02*Y17068D01*
X15370Y17304D02*Y17068D01*
X15173Y17304D02*Y17068D01*
X14976Y17304D02*Y17068D01*
X14779Y17304D02*Y17068D01*
X14582Y17304D02*Y17068D01*
X14385Y17304D02*Y17068D01*
X14189Y17304D02*Y17068D01*
X13992Y17304D02*Y17068D01*
X13795Y17304D02*Y17068D01*
X13598Y17304D02*Y17068D01*
X13401Y17304D02*Y17068D01*
X13204Y17304D02*Y17068D01*
X13007Y17304D02*Y17068D01*
X12811Y17304D02*Y17068D01*
X12614Y17304D02*Y17068D01*
X12417Y17304D02*Y17068D01*
X12220Y17304D02*Y17068D01*
G54D23*X14650Y5700D02*X14750D01*
X15350D02*X15450D01*
G54D33*X13890Y7130D02*Y6670D01*
G54D32*X14200Y7130D02*Y6670D01*
X14510Y7130D02*Y6670D01*
G54D23*X14650Y6300D02*X14750D01*
X15350D02*X15450D01*
G54D32*X14830Y7130D02*Y6670D01*
X15140Y7130D02*Y6670D01*
X15460Y7130D02*Y6670D01*
X15770Y7130D02*Y6670D01*
X16090Y7130D02*Y6670D01*
X16400Y7130D02*Y6670D01*
X17680Y13640D02*Y13180D01*
X17370Y13640D02*Y13180D01*
X17050Y13640D02*Y13180D01*
X16740Y13640D02*Y13180D01*
X16420Y13640D02*Y13180D01*
X16110Y13640D02*Y13180D01*
X15790Y13640D02*Y13180D01*
X15480Y13640D02*Y13180D01*
X15160Y13640D02*Y13180D01*
X14850Y13640D02*Y13180D01*
X14530Y13640D02*Y13180D01*
X14220Y13640D02*Y13180D01*
X13900Y13640D02*Y13180D01*
X12770Y12520D02*X13230D01*
X12770Y12210D02*X13230D01*
X12770Y11900D02*X13230D01*
X12770Y11580D02*X13230D01*
X12770Y11270D02*X13230D01*
X12770Y10950D02*X13230D01*
X12770Y10640D02*X13230D01*
X12770Y10320D02*X13230D01*
X12770Y10010D02*X13230D01*
X12770Y9690D02*X13230D01*
X12770Y9380D02*X13230D01*
X12770Y9060D02*X13230D01*
X12770Y8750D02*X13230D01*
X12770Y8430D02*X13230D01*
X12770Y8120D02*X13230D01*
X12770Y7800D02*X13230D01*
X16720Y7130D02*Y6670D01*
X17030Y7130D02*Y6670D01*
X17350Y7130D02*Y6670D01*
X17660Y7130D02*Y6670D01*
X17980Y7130D02*Y6670D01*
X18290Y7130D02*Y6670D01*
X18610Y7130D02*Y6670D01*
X19280Y7790D02*X19740D01*
X19280Y8100D02*X19740D01*
X19280Y8410D02*X19740D01*
G54D23*X21510Y7350D02*Y7250D01*
X20910Y7350D02*Y7250D01*
G54D34*X19620Y2920D02*Y1955D01*
X19935Y2408D02*Y1955D01*
X20250Y2408D02*Y1955D01*
X20564Y2408D02*Y1955D01*
X20880Y2408D02*Y1955D01*
X21194Y2408D02*Y1955D01*
X21509Y2408D02*Y1955D01*
X21824Y2408D02*Y1955D01*
G54D23*X21350Y1410D02*Y1310D01*
X20750Y1410D02*Y1310D01*
G54D34*X22139Y2920D02*Y1955D01*
Y5183D02*Y4219D01*
X21824Y5183D02*Y4731D01*
X21509Y5183D02*Y4731D01*
X21194Y5183D02*Y4731D01*
X20880Y5183D02*Y4731D01*
X20564Y5183D02*Y4730D01*
X20250Y5183D02*Y4731D01*
X19935Y5183D02*Y4731D01*
X19620Y5183D02*Y4219D01*
G54D23*X20600Y5850D02*Y5750D01*
X20000Y5850D02*Y5750D01*
G54D14*G54D18*G54D19*G54D18*G54D19*G54D20*G54D12*G54D20*G54D18*G54D20*G54D18*G54D19*G54D21*M02*
