G04 start of page 5 for group -4062 idx -4062
G04 Title: (unknown), soldermask *
G04 Creator: pcb 20080202 *
G04 CreationDate: Sun 22 Jun 2008 10:51:19 AM GMT UTC *
G04 For: sean *
G04 Format: Gerber/RS-274X *
G04 PCB-Dimensions: 280000 410000 *
G04 PCB-Coordinate-Origin: lower left *
%MOIN*%
%FSLAX24Y24*%
%LNBACKMASK*%
%ADD12C,0.0200*%
%ADD35C,0.0860*%
%ADD36C,0.0660*%
%ADD37C,0.1260*%
%ADD38C,0.0420*%
G54D12*G36*
X15970Y37130D02*Y36270D01*
X16830D01*
Y37130D01*
X15970D01*
G37*
G54D35*X18300Y36700D03*
X20200D03*
G54D36*X10080Y36960D03*
G54D37*X11980Y38060D03*
G54D36*X9080Y36960D03*
G54D37*X7180Y38060D03*
G54D12*G36*
X25070Y5230D02*Y4570D01*
X25730D01*
Y5230D01*
X25070D01*
G37*
G54D36*X25400Y3900D03*
Y2900D03*
Y1900D03*
G54D38*X7310Y1640D03*
X6810D03*
X6310D03*
X5810D03*
X5310D03*
X4810D03*
X4310D03*
X3810D03*
G54D12*G36*
X17670Y2730D02*Y2070D01*
X18330D01*
Y2730D01*
X17670D01*
G37*
G54D36*X17000Y2400D03*
X16000D03*
X15000D03*
X14000D03*
G54D12*G36*
X1970Y14930D02*Y14270D01*
X2630D01*
Y14930D01*
X1970D01*
G37*
G54D36*X2300Y13600D03*
G54D12*G36*
X8020Y29130D02*Y28470D01*
X8680D01*
Y29130D01*
X8020D01*
G37*
G54D36*X8350Y29800D03*
G54D12*G36*
X8750Y36490D02*Y35830D01*
X9410D01*
Y36490D01*
X8750D01*
G37*
G54D36*X10080Y36160D03*
G54D12*G36*
X8870Y33080D02*Y32420D01*
X9530D01*
Y33080D01*
X8870D01*
G37*
G36*
X8876Y31977D02*Y31317D01*
X9536D01*
Y31977D01*
X8876D01*
G37*
G36*
X11170Y24930D02*Y24270D01*
X11830D01*
Y24930D01*
X11170D01*
G37*
G36*
X9670Y23830D02*Y23170D01*
X10330D01*
Y23830D01*
X9670D01*
G37*
G54D36*X11000Y23500D03*
X12000D03*
X12500Y24600D03*
X13000Y23500D03*
X13500Y24600D03*
X14000Y23500D03*
X15000D03*
X16000D03*
X17000D03*
X14500Y24600D03*
X15500D03*
G54D12*G36*
X21070Y30430D02*Y29770D01*
X21730D01*
Y30430D01*
X21070D01*
G37*
G54D36*X20400Y30100D03*
Y29300D03*
X21400D03*
G54D37*X23300Y28200D03*
X18500D03*
M02*
