G04 start of page 3 for group 1 idx 3
G04 Title: (unknown), component *
G04 Creator: pcb 20080202 *
G04 CreationDate: Mon 07 Jul 2008 02:37:13 PM GMT UTC *
G04 For: sean *
G04 Format: Gerber/RS-274X *
G04 PCB-Dimensions: 130000 290000 *
G04 PCB-Coordinate-Origin: lower left *
%MOIN*%
%FSLAX24Y24*%
%LNFRONT*%
%ADD11C,0.0100*%
%ADD12C,0.0600*%
%ADD13C,0.0200*%
%ADD14C,0.0360*%
%ADD15C,0.0460*%
%ADD16C,0.1200*%
%ADD17C,0.1400*%
%ADD18C,0.0240*%
%ADD19C,0.0380*%
%ADD20C,0.0300*%
%ADD21C,0.0280*%
%ADD22C,0.0900*%
%ADD23C,0.0180*%
%ADD24R,0.0300X0.0300*%
%ADD25R,0.0945X0.0945*%
%ADD26R,0.0240X0.0240*%
%ADD27R,0.0450X0.0450*%
%ADD28R,0.0150X0.0150*%
%ADD29R,0.0110X0.0110*%
%ADD30R,0.0130X0.0130*%
%ADD31C,0.0150*%
%ADD32R,0.0216X0.0216*%
%ADD33R,0.0160X0.0160*%
%ADD34C,0.0160*%
G54D11*X300Y21580D02*X1310Y18080D01*
X700Y28840D02*X300Y26760D01*
Y21580D01*
X3650Y8930D02*X3660D01*
X3960Y8910D02*X3950D01*
X4280Y8475D02*Y8830D01*
X1310Y18080D02*Y4700D01*
X2597Y9960D02*Y13740D01*
X2595Y15135D02*Y14707D01*
X2515Y15135D02*X2595D01*
X2515Y16212D02*Y15135D01*
X2335Y13430D02*Y10280D01*
X2050D01*
X2597Y13740D02*X2050D01*
X3072Y14492D02*Y14377D01*
X2335Y14492D02*X3072D01*
X2515Y16212D02*X3151D01*
X2335Y13430D02*X2050D01*
X2335Y14492D02*Y23744D01*
X2901D01*
X3151Y16212D02*Y24254D01*
X2710D01*
X12690Y28100D02*Y7840D01*
X12053Y17238D02*X12478D01*
Y15260D01*
X12053Y17041D02*X12267D01*
Y16509D01*
X12246Y12635D02*Y8019D01*
X12257Y17958D02*Y18760D01*
X11518Y17829D02*Y17773D01*
Y17829D02*X11530D01*
Y17958D01*
X12257D01*
Y18760D02*X9326D01*
X9146Y19010D02*X11940D01*
X9570Y20362D02*X10370D01*
X11369Y20652D02*X8580D01*
X9326Y18760D02*Y17797D01*
X9521D01*
X9146Y17542D02*Y19010D01*
X8999Y16774D02*Y16709D01*
X9521Y17030D02*X8678D01*
Y15971D01*
X8254Y23190D02*Y24165D01*
X8780Y22113D02*X8810D01*
X9959Y22373D02*Y22293D01*
X11369D01*
Y22423D02*Y22293D01*
X10010Y22423D02*X8810D01*
X8780Y22113D02*Y21082D01*
X8220Y9710D02*Y9595D01*
X7895Y9710D02*X8220D01*
X7895Y10260D02*Y9710D01*
Y10260D02*X8100D01*
X7895Y11520D02*Y11284D01*
Y11520D02*X8100D01*
X9530Y26740D02*Y27230D01*
Y24740D02*Y25230D01*
X8888D01*
Y25870D01*
X9530Y25740D02*X9148D01*
Y26120D01*
X9530Y27230D02*X8888D01*
Y27632D02*Y27230D01*
X8254Y27632D02*X8888D01*
X8254D02*Y27393D01*
X8810Y22423D02*Y22113D01*
X9530Y27740D02*X10010D01*
Y22423D01*
X8560Y12460D02*X8715D01*
Y12385D01*
X10526D01*
Y12385D01*
X9800Y7825D02*X8720D01*
Y7750D01*
X9800Y8750D02*Y9450D01*
X9460Y6870D02*X9800D01*
Y8650D01*
X8481Y6482D02*X9460D01*
X8410Y6420D02*Y6820D01*
X8350D02*X8410D01*
X9460Y6482D02*Y6870D01*
X8150Y28840D02*X12690Y28100D01*
X7310Y25869D02*Y26941D01*
X7663Y25870D02*X8888D01*
X7663D02*Y26832D01*
X7624D02*X7663D01*
X7624Y26941D02*Y26832D01*
X7939Y26120D02*Y26941D01*
X9148Y26120D02*X7939D01*
X6994Y26120D02*Y26940D01*
X8150Y28840D02*X700D01*
X7310Y27502D02*Y27393D01*
Y27502D02*X7370D01*
Y27900D01*
X6619Y28000D02*X6770D01*
X6619Y28010D02*Y28000D01*
Y28010D02*X4650D01*
X6886Y27393D02*X6994D01*
X6886Y27393D02*Y27393D01*
X6680Y27502D02*Y27393D01*
Y27502D02*X6770D01*
Y27900D01*
X6886Y27393D02*X6680D01*
X7624Y24165D02*Y23977D01*
X7733D02*Y23650D01*
X7483Y25919D02*Y24856D01*
X7624D01*
X8154Y21733D02*X7790D01*
Y22580D02*Y22195D01*
Y21940D01*
Y21733D01*
X7360Y20210D02*Y23190D01*
X8254D01*
X7624Y24618D02*X7939D01*
X7624Y23977D02*X7733D01*
Y23650D02*X7770D01*
X7624Y24856D02*Y24618D01*
X8030Y20652D02*X8580D01*
X4589Y21180D02*Y25585D01*
X5992D01*
Y25869D02*Y25585D01*
X4839Y23859D02*X6365D01*
X5819Y22620D02*Y22590D01*
Y22620D02*X5230D01*
X5579Y26025D02*X2710D01*
X5900Y21240D02*X5480D01*
Y21189D01*
X5819Y22590D02*X5900D01*
X7170D02*X6120D01*
Y21240D02*X7170D01*
X7100Y23800D02*X7170D01*
X7100D02*Y24165D01*
X6994D02*X7100D01*
X6680Y25438D02*Y24618D01*
X5219Y21180D02*Y21820D01*
X5472Y22037D02*Y21820D01*
Y22037D02*X5900D01*
Y22080D02*Y22037D01*
X7170Y21240D02*Y23550D01*
X5070Y21180D02*X5219D01*
X5472Y21820D02*X5219D01*
X5900D02*X5740D01*
Y21520D01*
X6120Y22330D02*X6410D01*
Y21820D01*
X6120D01*
X6459Y20520D02*X7110D01*
Y20520D01*
X6120Y20980D02*X6410D01*
Y20470D02*X6120D01*
X6410Y20980D02*Y20470D01*
X7359Y25919D02*X7483D01*
X5992Y25869D02*X7310D01*
X6242Y25438D02*X6680D01*
X5579Y26120D02*Y26025D01*
Y26120D02*X6994D01*
X6365Y23859D02*Y24165D01*
X7149Y24111D02*X7310D01*
Y24165D02*Y24111D01*
X7170Y23800D02*Y23650D01*
X6590Y17260D02*X6165D01*
X7133Y17286D02*X7198D01*
X7133D02*Y17260D01*
X6690D01*
X7658Y17542D02*Y17286D01*
X6165Y17330D02*Y17260D01*
X8838Y17542D02*X7658D01*
X9521D02*X9146D01*
Y17542D01*
X9521Y17286D02*X8428D01*
X7198Y16774D02*X6860D01*
X7658Y17030D02*X7856D01*
Y16470D02*X6492D01*
X7725Y16005D02*X6190D01*
Y15800D01*
X6860Y16800D02*Y16774D01*
X9320Y16190D02*X9570D01*
X9320Y16270D02*Y16190D01*
X9570Y16320D02*X10256D01*
X9570D02*Y15650D01*
X8428Y17286D02*Y16226D01*
X9000Y16232D02*Y15650D01*
X9070D01*
X7725Y15971D02*X8678D01*
X7725Y16005D02*Y15971D01*
X10786Y16844D02*X10256D01*
Y16320D01*
X9521Y16774D02*X8999D01*
X7856Y17030D02*Y16470D01*
X12478Y15260D02*X11570D01*
Y15650D01*
X11070Y15960D02*Y15650D01*
X11715Y16506D02*Y15960D01*
X11716D01*
X11070D01*
X11979Y16509D02*X12267D01*
X4470Y21180D02*Y21030D01*
X7790Y21230D02*Y21050D01*
X5070Y21180D02*Y21030D01*
X4470Y21180D02*X4589D01*
X4470Y20250D02*Y20930D01*
X5950Y20250D02*Y20120D01*
X4470Y20250D02*X5950D01*
X5900Y20730D02*X5070D01*
Y20725D01*
Y20930D01*
X6470Y20210D02*X7360D01*
X5990Y20120D02*X6150D01*
Y19770D01*
X7710Y20300D02*X7790D01*
X7710D02*Y19780D01*
X7790Y20300D02*Y20540D01*
Y20800D01*
Y21050D01*
X6120Y18307D02*Y18880D01*
X6720Y19130D02*Y18980D01*
Y19130D02*X6750D01*
Y19670D01*
X6720Y18565D02*Y18880D01*
X5270Y18423D02*X4910D01*
X6470Y20210D02*Y19325D01*
X7428Y19365D02*Y19250D01*
X8030Y19365D02*Y20652D01*
X4300Y15340D02*Y15185D01*
X4930Y15340D02*X5240D01*
X4295Y15185D02*X4300D01*
X4295D02*Y15005D01*
X4905Y14707D02*X2595D01*
X5840Y15875D02*X5870D01*
X4335Y16075D02*X4910D01*
Y15800D02*X4930D01*
X5240Y15340D02*Y11319D01*
X7395D01*
Y11284D01*
X7895D01*
X7198Y18309D02*X6120D01*
Y18307D01*
X7198Y18565D02*X6720D01*
X5840Y19325D02*X6470D01*
X8072Y16202D02*X6112D01*
Y16255D02*Y16202D01*
X5870Y15875D02*Y15800D01*
X5840Y15875D02*Y19325D01*
X4910Y18423D02*Y15800D01*
X7658Y18053D02*Y18309D01*
X7428Y19365D02*X8030D01*
X7133Y17797D02*X7198D01*
X7133Y17858D02*Y17797D01*
Y17858D02*X6690D01*
Y17860D02*Y17858D01*
X12439Y19680D02*X8310D01*
X12473Y19260D02*X8670D01*
Y18053D01*
X7658D01*
X8412Y17797D02*X7658D01*
X10070Y15650D02*X10260D01*
Y16140D01*
X11518D01*
Y16506D01*
X8162Y19035D02*Y18053D01*
X8072Y16546D02*X8143D01*
X8072D02*Y16202D01*
X11979Y18565D02*Y18430D01*
X11124Y17773D02*Y18309D01*
X11395Y18208D02*Y18138D01*
X11321D02*X11395D01*
X11321D02*Y17773D01*
X11715D02*X12473D01*
X11979Y18565D02*X9981D01*
X11124Y18309D02*X9981D01*
X10786Y17041D02*X10256D01*
Y18053D01*
X9981D01*
X10531Y17435D02*X10786D01*
X12473Y17773D02*Y17699D01*
Y19260D02*Y17699D01*
X2470Y2920D02*X5270Y130D01*
X10220D02*X5270D01*
X7510Y2590D02*X7010D01*
X4520Y2710D02*X6580D01*
X1310Y4700D02*X2470Y2920D01*
X4420Y3310D02*X4010D01*
Y5770D01*
X3620D01*
X4590Y5360D02*Y5980D01*
X3910D01*
X4590Y4760D02*X7510D01*
Y2590D01*
X6580Y2710D02*Y3390D01*
X7010D01*
X12690Y7840D02*X11890Y3990D01*
X10160Y8510D02*Y6070D01*
X9716Y9830D02*X9780D01*
X9200D02*X9780D01*
X9200D02*Y9550D01*
Y9100D02*Y8750D01*
X10220Y130D02*X11890Y3990D01*
X11730Y8510D02*Y9380D01*
X8740Y6000D02*Y5670D01*
X9094Y6070D02*X9320D01*
X9094D02*Y6000D01*
X8740D01*
X10160Y6070D02*X9460D01*
X8740Y6980D02*Y7230D01*
X12246Y8019D02*X11730D01*
Y8080D02*Y8019D01*
X3620Y5770D02*X3660Y8930D01*
X3910Y5980D02*X3950Y8910D01*
X4590Y7050D02*Y8830D01*
X4910D02*Y7550D01*
X5560D01*
X8740Y5670D02*X6070D01*
Y7050D01*
X7565Y6000D02*X7960D01*
X4590Y7050D02*X6070D01*
X7960Y6820D02*Y6620D01*
X7870D02*X7960D01*
X7870D02*Y6500D01*
X8740Y7230D02*X7960D01*
X7909Y7165D02*X7960D01*
X7909D02*Y7610D01*
X7920D01*
X7960Y7230D02*Y6980D01*
X7565Y8105D02*Y6000D01*
X9450Y8105D02*X7565D01*
X4590Y9365D02*Y9290D01*
X4585Y9365D02*X4590D01*
X4585D02*Y9960D01*
X2050D01*
X3020Y9365D02*Y9290D01*
Y9365D02*X3072D01*
Y9637D02*Y9365D01*
X2710D02*Y9290D01*
Y9365D02*X2720D01*
Y9637D02*Y9365D01*
X6135Y9290D02*X6170D01*
X7430Y9365D02*Y9290D01*
X7110Y9365D02*Y9290D01*
Y9365D02*X7126D01*
X7430D02*X7446D01*
Y9924D01*
X7126Y9619D02*Y9365D01*
X6800D02*Y9290D01*
X6768Y9365D02*X6800D01*
X6768Y9619D02*Y9365D01*
X11730Y10933D02*Y9380D01*
Y8510D02*X10160D01*
X8560Y13410D02*X9113D01*
X8100Y13090D02*X7825D01*
Y13015D01*
X7575Y11830D02*Y14840D01*
X7895D01*
Y14875D02*Y14840D01*
X9113Y13410D02*Y12635D01*
X12246D01*
X11506Y13733D02*X9773D01*
X7895Y14875D02*X11506D01*
Y13733D01*
X10056Y10933D02*X11730D01*
X9773Y11725D02*X11506D01*
X9450Y11109D02*X8560D01*
Y11200D01*
Y10890D02*X8892D01*
Y10837D01*
X9450Y11109D02*Y11053D01*
X9716Y9830D02*Y12075D01*
X8715D02*X9716D01*
X8560Y12150D02*X8715D01*
Y12075D01*
X8560Y11830D02*X8993D01*
Y11755D01*
X8100Y11830D02*X7575D01*
X6112Y10711D02*Y10641D01*
X5850D02*X6112D01*
X5850D02*Y9290D01*
X6135Y10461D02*Y9290D01*
X6480Y10174D02*Y9290D01*
X4905Y14707D02*Y9619D01*
X6742Y10531D02*Y10461D01*
X6135D01*
X5740Y11069D02*X7895D01*
Y10570D01*
X8100D01*
G54D12*X11730Y8080D03*
Y6080D03*
G54D13*G36*
X11430Y9380D02*Y8780D01*
X12030D01*
Y9380D01*
X11430D01*
G37*
G54D14*X8570Y15650D03*
X9070D03*
X9570D03*
X10070D03*
X10570D03*
X11070D03*
X11570D03*
X12070D03*
G54D15*X2711Y18423D03*
X5270D03*
Y16652D03*
X2711D03*
X2710Y26025D03*
Y24254D03*
G54D12*X11730Y7080D03*
G54D13*G36*
X1690Y7410D02*Y6810D01*
X2290D01*
Y7410D01*
X1690D01*
G37*
G36*
X5260Y7850D02*Y7250D01*
X5860D01*
Y7850D01*
X5260D01*
G37*
G54D12*X1990Y6110D03*
X5560Y6550D03*
Y5550D03*
G54D13*G36*
X7710Y3690D02*Y3090D01*
X8310D01*
Y3690D01*
X7710D01*
G37*
G54D12*X7010Y3390D03*
Y2590D03*
X8010D03*
G54D16*X9910Y1490D03*
X5110D03*
G54D13*G36*
X3350Y28310D02*Y27710D01*
X3950D01*
Y28310D01*
X3350D01*
G37*
G54D12*X4650Y28010D03*
G54D13*G36*
X9230Y28040D02*Y27440D01*
X9830D01*
Y28040D01*
X9230D01*
G37*
G54D12*X9530Y26740D03*
Y25740D03*
G54D15*X5269Y26025D03*
Y24254D03*
G54D12*X9530Y24740D03*
Y23740D03*
G54D15*X8810Y22423D03*
X11369D03*
Y20652D03*
X8810D03*
G54D17*X3190Y4340D03*
G54D18*X3072Y9637D03*
X2720D03*
X2335Y10865D03*
G54D17*X10890Y26850D03*
G54D18*X6242Y25438D03*
X12439Y19680D03*
X11979Y16509D03*
Y18430D03*
X11940Y19010D03*
X11395Y18208D03*
X5990Y20120D03*
X8154Y21733D03*
X8162Y19035D03*
X7428Y19250D03*
X7110Y20520D03*
X9570Y20362D03*
X10370D03*
X2901Y23744D03*
X4839Y23859D03*
X5740Y21520D03*
X5480Y21189D03*
X8780Y21082D03*
X6165Y17330D03*
X6860Y16800D03*
X9320Y16270D03*
X10531Y17435D03*
X9000Y16232D03*
X8999Y16709D03*
X4295Y15005D03*
X3072Y14377D03*
X7825Y13015D03*
X10526Y12385D03*
X8838Y17542D03*
X8428Y16226D03*
X8143Y16546D03*
X8412Y17797D03*
X6112Y16255D03*
X6492Y16470D03*
X4335Y16075D03*
X9450Y11053D03*
X8993Y11755D03*
X10056Y10933D03*
X9200Y9100D03*
X8892Y10837D03*
X9450Y8105D03*
X7870Y6500D03*
X8410Y6420D03*
X6112Y10711D03*
X6742Y10531D03*
X6480Y10174D03*
X7446Y9924D03*
X7126Y9619D03*
X5740Y11069D03*
X6768Y9619D03*
X4905D03*
X8220Y9595D03*
X4280Y8475D03*
G54D24*X9800Y9550D02*Y9450D01*
X9200Y9550D02*Y9450D01*
X9800Y8750D02*Y8650D01*
X9200Y8750D02*Y8650D01*
G54D25*X9716Y11725D02*X9773D01*
X11506D02*X11563D01*
X9716Y13733D02*X9773D01*
X11506D02*X11563D01*
G54D26*X7960Y6980D02*Y6820D01*
X8350Y6980D02*Y6820D01*
X8740Y6980D02*Y6820D01*
Y6160D02*Y6000D01*
G54D27*X9320Y6070D02*X9460D01*
G54D26*X7960Y6160D02*Y6000D01*
G54D27*X8720Y7750D02*Y7610D01*
X7920Y7750D02*Y7610D01*
X9320Y6870D02*X9460D01*
G54D28*X8100Y9950D02*X8560D01*
X8100Y10260D02*X8560D01*
X8100Y10570D02*X8560D01*
X8100Y10890D02*X8560D01*
X8100Y11200D02*X8560D01*
X8100Y11520D02*X8560D01*
X8100Y11830D02*X8560D01*
X8100Y12150D02*X8560D01*
X8100Y12460D02*X8560D01*
X8100Y12780D02*X8560D01*
X8100Y13090D02*X8560D01*
X8100Y13410D02*X8560D01*
X8100Y13720D02*X8560D01*
X8100Y14040D02*X8560D01*
X8100Y14350D02*X8560D01*
X8100Y14670D02*X8560D01*
G54D29*X10786Y17435D02*X10951D01*
X10786Y17238D02*X10951D01*
X10786Y17041D02*X10951D01*
X10786Y16844D02*X10951D01*
X11124Y16671D02*Y16506D01*
Y17773D02*Y17608D01*
X11321Y16671D02*Y16506D01*
X11518Y16671D02*Y16506D01*
X11715Y16671D02*Y16506D01*
Y17773D02*Y17608D01*
X11518Y17773D02*Y17608D01*
X11321Y17773D02*Y17608D01*
G54D13*G36*
X11124Y17435D02*Y16844D01*
X11715D01*
Y17435D01*
X11124D01*
G37*
G54D29*X11888Y16844D02*X12053D01*
X11888Y17041D02*X12053D01*
X11888Y17238D02*X12053D01*
X11888Y17435D02*X12053D01*
G54D24*X6590Y17260D02*X6690D01*
X6590Y17860D02*X6690D01*
G54D28*X7440Y15800D02*Y15340D01*
X7130Y15800D02*Y15340D01*
X6820Y15800D02*Y15340D01*
X6500Y15800D02*Y15340D01*
X6190Y15800D02*Y15340D01*
G54D30*X7198Y18309D02*X7658D01*
X7198Y18053D02*X7658D01*
X7198Y17797D02*X7658D01*
X7198Y17542D02*X7658D01*
X7198Y17286D02*X7658D01*
X7198Y17030D02*X7658D01*
X7198Y16774D02*X7658D01*
G54D28*X5870Y15800D02*Y15340D01*
X5560Y15800D02*Y15340D01*
X5240Y15800D02*Y15340D01*
X4930Y15800D02*Y15340D01*
X4610Y15800D02*Y15340D01*
X4300Y15800D02*Y15340D01*
X3980Y15800D02*Y15340D01*
X3670Y15800D02*Y15340D01*
X3350Y15800D02*Y15340D01*
X3040Y15800D02*Y15340D01*
X2720Y15800D02*Y15340D01*
G54D30*X9521Y16774D02*X9981D01*
X9521Y17030D02*X9981D01*
X9521Y17286D02*X9981D01*
X9521Y17542D02*X9981D01*
X9521Y17797D02*X9981D01*
X9521Y18053D02*X9981D01*
X9521Y18309D02*X9981D01*
X9521Y18565D02*X9981D01*
G54D24*X4420Y2710D02*X4520D01*
X4420Y3310D02*X4520D01*
X4490Y4760D02*X4590D01*
X4490Y5360D02*X4590D01*
G54D31*X2710Y9290D02*Y8830D01*
G54D28*X3020Y9290D02*Y8830D01*
X3330Y9290D02*Y8830D01*
X3650Y9290D02*Y8830D01*
X3960Y9290D02*Y8830D01*
X4280Y9290D02*Y8830D01*
X4590Y9290D02*Y8830D01*
X4910Y9290D02*Y8830D01*
X5220Y9290D02*Y8830D01*
X5540Y9290D02*Y8830D01*
X5850Y9290D02*Y8830D01*
X6170Y9290D02*Y8830D01*
X6480Y9290D02*Y8830D01*
X6800Y9290D02*Y8830D01*
X7110Y9290D02*Y8830D01*
X7430Y9290D02*Y8830D01*
X1590Y14680D02*X2050D01*
X1590Y14370D02*X2050D01*
X1590Y14060D02*X2050D01*
X1590Y13740D02*X2050D01*
X1590Y13430D02*X2050D01*
X1590Y13110D02*X2050D01*
X1590Y12800D02*X2050D01*
X1590Y12480D02*X2050D01*
X1590Y12170D02*X2050D01*
X1590Y11850D02*X2050D01*
X1590Y11540D02*X2050D01*
X1590Y11220D02*X2050D01*
X1590Y10910D02*X2050D01*
X1590Y10590D02*X2050D01*
X1590Y10280D02*X2050D01*
X1590Y9960D02*X2050D01*
G54D24*X7370Y28000D02*Y27900D01*
X6770Y28000D02*Y27900D01*
G54D32*X8579Y27393D02*Y26429D01*
X8264Y27393D02*Y26941D01*
X7949Y27393D02*Y26941D01*
X7634Y27393D02*Y26941D01*
X7320Y27393D02*Y26941D01*
X7004Y27393D02*Y26940D01*
X6690Y27393D02*Y26941D01*
X6375Y27393D02*Y26941D01*
X6060Y27393D02*Y26429D01*
G54D24*X8310Y19780D02*Y19680D01*
X7710Y19780D02*Y19680D01*
G54D33*X7570Y20460D02*X7790D01*
X7570Y20720D02*X7790D01*
X7570Y20970D02*X7790D01*
X7570Y21230D02*X7790D01*
G54D24*X6720Y18980D02*Y18880D01*
X6750Y19770D02*Y19670D01*
G54D30*X7198Y18565D02*X7658D01*
G54D24*X6120Y18980D02*Y18880D01*
X6150Y19770D02*Y19670D01*
G54D34*X5900Y21240D02*X6120D01*
G54D33*X5900Y20980D02*X6120D01*
X5900Y20730D02*X6120D01*
X5900Y20470D02*X6120D01*
G54D27*X5090Y21820D02*X5230D01*
X5090Y22620D02*X5230D01*
G54D24*X4470Y21030D02*Y20930D01*
X5070Y21030D02*Y20930D01*
G54D34*X5900Y22590D02*X6120D01*
G54D33*X5900Y22330D02*X6120D01*
X5900Y22080D02*X6120D01*
X5900Y21820D02*X6120D01*
X7570Y21810D02*X7790D01*
X7570Y22070D02*X7790D01*
X7570Y22320D02*X7790D01*
X7570Y22580D02*X7790D01*
G54D24*X7770Y23650D02*Y23550D01*
X7170Y23650D02*Y23550D01*
G54D32*X6060Y25130D02*Y24165D01*
X6375Y24618D02*Y24165D01*
X6690Y24618D02*Y24165D01*
X7004Y24618D02*Y24165D01*
X7320Y24618D02*Y24165D01*
X7634Y24618D02*Y24165D01*
X7949Y24618D02*Y24165D01*
X8264Y24618D02*Y24165D01*
X8579Y25130D02*Y24165D01*
G54D19*G54D13*G54D20*G54D19*G54D21*G54D22*G54D19*G54D20*G54D19*G54D20*G54D16*G54D23*G54D16*G54D23*M02*
