G04 start of page 2 for group 0 idx 0
G04 Title: (unknown), solder *
G04 Creator: pcb 20080202 *
G04 CreationDate: Mon 07 Jul 2008 02:37:13 PM GMT UTC *
G04 For: sean *
G04 Format: Gerber/RS-274X *
G04 PCB-Dimensions: 130000 290000 *
G04 PCB-Coordinate-Origin: lower left *
%MOIN*%
%FSLAX24Y24*%
%LNBACK*%
%ADD11C,0.0100*%
%ADD12C,0.0600*%
%ADD13C,0.0200*%
%ADD14C,0.0360*%
%ADD15C,0.0460*%
%ADD16C,0.1200*%
%ADD17C,0.1400*%
%ADD18C,0.0240*%
%ADD19C,0.0380*%
%ADD20C,0.0300*%
%ADD21C,0.0280*%
%ADD22C,0.0900*%
%ADD23C,0.0180*%
G54D11*X700Y28840D02*X300Y26760D01*
X2901Y23859D02*X4839D01*
X2710Y24254D02*X5269D01*
X2170Y23714D02*X2170D01*
X2170Y28440D02*Y23714D01*
X5030Y28010D02*Y27740D01*
X9320Y17542D02*Y16270D01*
Y17542D02*X8838D01*
X10531Y18159D02*Y17435D01*
X9929Y18208D02*X11395D01*
X2720Y15485D02*X2170D01*
Y23714D02*Y15485D01*
X6492Y25740D02*Y16470D01*
X5480Y23814D02*Y18423D01*
Y23814D02*X5709D01*
X5270Y16652D02*X2711D01*
X4335Y16075D02*X4600D01*
X2711Y18423D02*X5480D01*
X6742Y16800D02*X6860D01*
Y24740D01*
X7110Y20520D02*X7678D01*
X8780Y21082D02*Y21012D01*
X8412D02*X8780D01*
X8412D02*Y17797D01*
X10060Y21733D02*X8154D01*
X7858Y21983D02*X9530D01*
X300Y26760D02*Y21580D01*
X2350Y23894D02*X2350D01*
X2350Y28010D02*Y23894D01*
X2901Y23859D02*Y23744D01*
X5030Y27740D02*X9530D01*
X5709Y23814D02*Y26025D01*
X5269D01*
X12690Y28100D02*X8150Y28840D01*
X9530Y21983D02*Y23740D01*
X10370Y25940D02*X10010D01*
Y26740D02*Y25940D01*
Y26740D02*X9530D01*
X6242Y26385D02*Y25438D01*
X6860Y24740D02*X9530D01*
X6492Y25740D02*X9530D01*
X8150Y28840D02*X700D01*
X2350Y28010D02*X3650D01*
X2170Y28440D02*X4220D01*
Y26385D01*
X6242D01*
X4650Y28010D02*X5030D01*
X10220Y130D02*X5270D01*
X2470Y2920D01*
X8390Y2590D02*X7709D01*
X2470Y2920D02*X1310Y4700D01*
X5560Y7550D02*X5940D01*
Y7250D01*
X5130Y7110D02*Y5550D01*
X5560D01*
Y6550D02*Y6500D01*
X1990Y7110D02*X5130D01*
X1990Y6110D02*X4950D01*
X4600Y7540D02*X1560D01*
Y6110D01*
X1990D01*
X4950D02*Y3820D01*
X7580D01*
Y2590D01*
X8428Y16232D02*Y16226D01*
X7858Y14920D02*X8440D01*
X7858D02*Y21983D01*
X8143Y16546D02*Y15968D01*
X9000Y16232D02*Y16232D01*
X8993Y11755D02*X9200D01*
Y9100D01*
X8892Y11425D02*Y10837D01*
X8440Y11425D02*X8892D01*
X8440Y14920D02*Y11425D01*
X8999Y16709D02*Y16546D01*
X8143D02*X8999D01*
X7678Y13265D02*X8220D01*
X7825Y13015D02*X7930D01*
Y7430D01*
X8220Y13265D02*Y9595D01*
X1310Y4700D02*Y18070D01*
X4295Y15745D02*Y15005D01*
Y15745D02*X2350D01*
X3072Y14377D02*Y9637D01*
X2335Y10865D02*Y7540D01*
X300Y21580D02*X1310Y18080D01*
X6165Y20120D02*Y17330D01*
Y20120D02*X5989D01*
X5990D01*
X2350Y15745D02*Y23894D01*
X6112Y16255D02*Y10711D01*
X4280Y8475D02*X4600D01*
Y16075D02*Y7540D01*
X11880Y3970D02*X12690Y7840D01*
X11730Y7430D02*Y7080D01*
X11106Y6420D02*Y6080D01*
X7870Y6500D02*X5560D01*
X5940Y7250D02*X8150D01*
Y3390D01*
X7930Y7430D02*X11730D01*
X8410Y6420D02*X11106D01*
X10988Y6080D02*X11730D01*
X10220Y130D02*X11880Y3970D01*
X8010Y3390D02*X8150D01*
X7580Y2590D02*X7709D01*
X8390Y2810D02*Y2590D01*
Y2810D02*X10988D01*
Y6080D02*Y2810D01*
X12690Y7840D02*Y28100D01*
X11666Y20072D02*X10060D01*
Y21733D02*Y20072D01*
X8162Y21332D02*Y19035D01*
Y21332D02*X9880D01*
X9569Y20362D02*X9615D01*
X9569D02*X9570D01*
X11666Y15830D02*Y20072D01*
X12439Y15260D02*Y19680D01*
X11979Y18430D02*Y16509D01*
X11940Y19010D02*X12237D01*
Y15650D01*
X12070D02*X12237D01*
X10370Y25940D02*Y20362D01*
X9450Y11053D02*X10056D01*
Y10933D01*
X9450Y15390D02*Y11053D01*
X9880Y21332D02*Y15650D01*
X11570Y15830D02*Y15650D01*
Y15830D02*X11666D01*
X11070Y15650D02*Y15260D01*
X12439D01*
X9570Y15650D02*Y15390D01*
X9450D02*X9570D01*
X9880Y15650D02*X10070D01*
X2720Y9637D02*Y15485D01*
X10306Y12385D02*X10526D01*
X7723Y12685D02*Y9619D01*
X7428Y12685D02*X7723D01*
X5270Y9924D02*X7446D01*
X7126Y9619D02*X7723D01*
X6742Y16800D02*Y10531D01*
X6480Y16470D02*X6492D01*
X6480D02*Y10174D01*
X5270Y9924D02*Y16652D01*
X4905Y9619D02*X6768D01*
X8428Y16232D02*X9000D01*
X8143Y15968D02*X9615D01*
X5740Y11069D02*X5740D01*
X10306Y12385D02*Y8105D01*
X9450D01*
X9615Y15968D02*Y20362D01*
X7428Y12685D02*Y19250D01*
X5740Y21520D02*Y11069D01*
X7678Y20520D02*Y13265D01*
G54D12*X11730Y8080D03*
Y6080D03*
G54D13*G36*
X11430Y9380D02*Y8780D01*
X12030D01*
Y9380D01*
X11430D01*
G37*
G54D14*X8570Y15650D03*
X9070D03*
X9570D03*
X10070D03*
X10570D03*
X11070D03*
X11570D03*
X12070D03*
G54D15*X2711Y18423D03*
X5270D03*
Y16652D03*
X2711D03*
X2710Y26025D03*
Y24254D03*
G54D12*X11730Y7080D03*
G54D13*G36*
X1690Y7410D02*Y6810D01*
X2290D01*
Y7410D01*
X1690D01*
G37*
G36*
X5260Y7850D02*Y7250D01*
X5860D01*
Y7850D01*
X5260D01*
G37*
G54D12*X1990Y6110D03*
X5560Y6550D03*
Y5550D03*
G54D13*G36*
X7710Y3690D02*Y3090D01*
X8310D01*
Y3690D01*
X7710D01*
G37*
G54D12*X7010Y3390D03*
Y2590D03*
X8010D03*
G54D16*X9910Y1490D03*
X5110D03*
G54D13*G36*
X3350Y28310D02*Y27710D01*
X3950D01*
Y28310D01*
X3350D01*
G37*
G54D12*X4650Y28010D03*
G54D13*G36*
X9230Y28040D02*Y27440D01*
X9830D01*
Y28040D01*
X9230D01*
G37*
G54D12*X9530Y26740D03*
Y25740D03*
G54D15*X5269Y26025D03*
Y24254D03*
G54D12*X9530Y24740D03*
Y23740D03*
G54D15*X8810Y22423D03*
X11369D03*
Y20652D03*
X8810D03*
G54D17*X3190Y4340D03*
G54D18*X3072Y9637D03*
X2720D03*
X2335Y10865D03*
G54D17*X10890Y26850D03*
G54D18*X6242Y25438D03*
X12439Y19680D03*
X11979Y16509D03*
Y18430D03*
X11940Y19010D03*
X11395Y18208D03*
X5990Y20120D03*
X8154Y21733D03*
X8162Y19035D03*
X7428Y19250D03*
X7110Y20520D03*
X9570Y20362D03*
X10370D03*
X2901Y23744D03*
X4839Y23859D03*
X5740Y21520D03*
X5480Y21189D03*
X8780Y21082D03*
X6165Y17330D03*
X6860Y16800D03*
X9320Y16270D03*
X10531Y17435D03*
X9000Y16232D03*
X8999Y16709D03*
X4295Y15005D03*
X3072Y14377D03*
X7825Y13015D03*
X10526Y12385D03*
X8838Y17542D03*
X8428Y16226D03*
X8143Y16546D03*
X8412Y17797D03*
X6112Y16255D03*
X6492Y16470D03*
X4335Y16075D03*
X9450Y11053D03*
X8993Y11755D03*
X10056Y10933D03*
X9200Y9100D03*
X8892Y10837D03*
X9450Y8105D03*
X7870Y6500D03*
X8410Y6420D03*
X6112Y10711D03*
X6742Y10531D03*
X6480Y10174D03*
X7446Y9924D03*
X7126Y9619D03*
X5740Y11069D03*
X6768Y9619D03*
X4905D03*
X8220Y9595D03*
X4280Y8475D03*
G54D19*G54D13*G54D20*G54D19*G54D21*G54D22*G54D19*G54D20*G54D19*G54D20*G54D16*G54D23*G54D16*G54D23*M02*
