G04 start of page 9 for group -3984 idx -3984
G04 Title: (unknown), fab *
G04 Creator: pcb 20080202 *
G04 CreationDate: Mon 07 Jul 2008 02:37:13 PM GMT UTC *
G04 For: sean *
G04 Format: Gerber/RS-274X *
G04 PCB-Dimensions: 130000 290000 *
G04 PCB-Coordinate-Origin: lower left *
%MOIN*%
%FSLAX24Y24*%
%LNFAB*%
%ADD11C,0.0100*%
%ADD52R,0.0080X0.0080*%
%ADD53C,0.0060*%
G54D52*X3190Y4660D02*Y4020D01*
X2870Y4340D02*X3510D01*
X3030Y4500D02*X3350D01*
X3030D02*Y4180D01*
X3350D01*
Y4500D02*Y4180D01*
X10890Y27170D02*Y26530D01*
X10570Y26850D02*X11210D01*
X10730Y27010D02*X11050D01*
X10730D02*Y26690D01*
X11050D01*
Y27010D02*Y26690D01*
X1500Y30445D02*Y29805D01*
X1180Y30125D02*X1820D01*
X1340Y30285D02*X1660D01*
X1340D02*Y29965D01*
X1660D01*
Y30285D02*Y29965D01*
G54D53*X13500Y30350D02*Y30275D01*
X13650Y30125D01*
X13800Y30275D01*
Y30350D02*Y30275D01*
X13650Y30125D02*Y29750D01*
X13980Y30050D02*X14205D01*
X13980Y29750D02*X14280D01*
X13980Y30350D02*Y29750D01*
Y30350D02*X14280D01*
X14760D02*X14835Y30275D01*
X14535Y30350D02*X14760D01*
X14460Y30275D02*X14535Y30350D01*
X14460Y30275D02*Y30125D01*
X14535Y30050D01*
X14760D01*
X14835Y29975D01*
Y29825D01*
X14760Y29750D02*X14835Y29825D01*
X14535Y29750D02*X14760D01*
X14460Y29825D02*X14535Y29750D01*
X13500Y29424D02*X15015D01*
X9800Y30275D02*X9875Y30350D01*
X10100D01*
X10175Y30275D01*
Y30125D01*
X9800Y29750D02*X10175Y30125D01*
X9800Y29750D02*X10175D01*
X9800Y29424D02*X10355D01*
X4500Y29825D02*X4575Y29750D01*
X4500Y30275D02*Y29825D01*
Y30275D02*X4575Y30350D01*
X4725D01*
X4800Y30275D01*
Y29825D01*
X4725Y29750D02*X4800Y29825D01*
X4575Y29750D02*X4725D01*
X4500Y29900D02*X4800Y30200D01*
X4980Y29750D02*X5055D01*
X5310D02*X5460D01*
X5385Y30350D02*Y29750D01*
X5235Y30200D02*X5385Y30350D01*
X5640Y30275D02*X5715Y30350D01*
X5940D01*
X6015Y30275D01*
Y30125D01*
X5640Y29750D02*X6015Y30125D01*
X5640Y29750D02*X6015D01*
X6195Y29825D02*X6270Y29750D01*
X6195Y30275D02*Y29825D01*
Y30275D02*X6270Y30350D01*
X6420D01*
X6495Y30275D01*
Y29825D01*
X6420Y29750D02*X6495Y29825D01*
X6270Y29750D02*X6420D01*
X6195Y29900D02*X6495Y30200D01*
X4500Y29424D02*X6675D01*
X9910Y1490D02*Y1170D01*
Y1490D02*X10187Y1650D01*
X9910Y1490D02*X9632Y1650D01*
X9750Y1490D02*G75*G03X10070Y1490I160J0D01*G01*
G75*G03X9750Y1490I-160J0D01*G01*
X5110D02*Y1170D01*
Y1490D02*X5387Y1650D01*
X5110Y1490D02*X4832Y1650D01*
X4950Y1490D02*G75*G03X5270Y1490I160J0D01*G01*
G75*G03X4950Y1490I-160J0D01*G01*
X1500Y31625D02*Y31305D01*
Y31625D02*X1777Y31785D01*
X1500Y31625D02*X1222Y31785D01*
X1340Y31625D02*G75*G03X1660Y31625I160J0D01*G01*
G75*G03X1340Y31625I-160J0D01*G01*
X13500Y31850D02*Y31775D01*
X13650Y31625D01*
X13800Y31775D01*
Y31850D02*Y31775D01*
X13650Y31625D02*Y31250D01*
X13980Y31550D02*X14205D01*
X13980Y31250D02*X14280D01*
X13980Y31850D02*Y31250D01*
Y31850D02*X14280D01*
X14760D02*X14835Y31775D01*
X14535Y31850D02*X14760D01*
X14460Y31775D02*X14535Y31850D01*
X14460Y31775D02*Y31625D01*
X14535Y31550D01*
X14760D01*
X14835Y31475D01*
Y31325D01*
X14760Y31250D02*X14835Y31325D01*
X14535Y31250D02*X14760D01*
X14460Y31325D02*X14535Y31250D01*
X13500Y30924D02*X15015D01*
X9800Y31775D02*X9875Y31850D01*
X10100D01*
X10175Y31775D01*
Y31625D01*
X9800Y31250D02*X10175Y31625D01*
X9800Y31250D02*X10175D01*
X9800Y30924D02*X10355D01*
X4500Y31325D02*X4575Y31250D01*
X4500Y31775D02*Y31325D01*
Y31775D02*X4575Y31850D01*
X4725D01*
X4800Y31775D01*
Y31325D01*
X4725Y31250D02*X4800Y31325D01*
X4575Y31250D02*X4725D01*
X4500Y31400D02*X4800Y31700D01*
X4980Y31250D02*X5055D01*
X5235Y31325D02*X5310Y31250D01*
X5235Y31775D02*Y31325D01*
Y31775D02*X5310Y31850D01*
X5460D01*
X5535Y31775D01*
Y31325D01*
X5460Y31250D02*X5535Y31325D01*
X5310Y31250D02*X5460D01*
X5235Y31400D02*X5535Y31700D01*
X5715Y31250D02*X6015Y31550D01*
Y31775D02*Y31550D01*
X5940Y31850D02*X6015Y31775D01*
X5790Y31850D02*X5940D01*
X5715Y31775D02*X5790Y31850D01*
X5715Y31775D02*Y31625D01*
X5790Y31550D01*
X6015D01*
X6195Y31325D02*X6270Y31250D01*
X6195Y31775D02*Y31325D01*
Y31775D02*X6270Y31850D01*
X6420D01*
X6495Y31775D01*
Y31325D01*
X6420Y31250D02*X6495Y31325D01*
X6270Y31250D02*X6420D01*
X6195Y31400D02*X6495Y31700D01*
X4500Y30924D02*X6675D01*
X5400Y7710D02*X5720D01*
X5400D02*Y7390D01*
X5720D01*
Y7710D02*Y7390D01*
X5400Y6710D02*X5720D01*
X5400D02*Y6390D01*
X5720D01*
Y6710D02*Y6390D01*
X5400Y5710D02*X5720D01*
X5400D02*Y5390D01*
X5720D01*
Y5710D02*Y5390D01*
X1830Y7270D02*X2150D01*
X1830D02*Y6950D01*
X2150D01*
Y7270D02*Y6950D01*
X1830Y6270D02*X2150D01*
X1830D02*Y5950D01*
X2150D01*
Y6270D02*Y5950D01*
X9370Y27900D02*X9690D01*
X9370D02*Y27580D01*
X9690D01*
Y27900D02*Y27580D01*
X9370Y26900D02*X9690D01*
X9370D02*Y26580D01*
X9690D01*
Y26900D02*Y26580D01*
X9370Y25900D02*X9690D01*
X9370D02*Y25580D01*
X9690D01*
Y25900D02*Y25580D01*
X9370Y24900D02*X9690D01*
X9370D02*Y24580D01*
X9690D01*
Y24900D02*Y24580D01*
X9370Y23900D02*X9690D01*
X9370D02*Y23580D01*
X9690D01*
Y23900D02*Y23580D01*
X11570Y9240D02*X11890D01*
X11570D02*Y8920D01*
X11890D01*
Y9240D02*Y8920D01*
X11570Y8240D02*X11890D01*
X11570D02*Y7920D01*
X11890D01*
Y8240D02*Y7920D01*
X11570Y7240D02*X11890D01*
X11570D02*Y6920D01*
X11890D01*
Y7240D02*Y6920D01*
X11570Y6240D02*X11890D01*
X11570D02*Y5920D01*
X11890D01*
Y6240D02*Y5920D01*
X3490Y28170D02*X3810D01*
X3490D02*Y27850D01*
X3810D01*
Y28170D02*Y27850D01*
X4490Y28170D02*X4810D01*
X4490D02*Y27850D01*
X4810D01*
Y28170D02*Y27850D01*
X1340Y33285D02*X1660D01*
X1340D02*Y32965D01*
X1660D01*
Y33285D02*Y32965D01*
X13500Y33350D02*Y33275D01*
X13650Y33125D01*
X13800Y33275D01*
Y33350D02*Y33275D01*
X13650Y33125D02*Y32750D01*
X13980Y33050D02*X14205D01*
X13980Y32750D02*X14280D01*
X13980Y33350D02*Y32750D01*
Y33350D02*X14280D01*
X14760D02*X14835Y33275D01*
X14535Y33350D02*X14760D01*
X14460Y33275D02*X14535Y33350D01*
X14460Y33275D02*Y33125D01*
X14535Y33050D01*
X14760D01*
X14835Y32975D01*
Y32825D01*
X14760Y32750D02*X14835Y32825D01*
X14535Y32750D02*X14760D01*
X14460Y32825D02*X14535Y32750D01*
X13500Y32424D02*X15015D01*
X9875Y32750D02*X10025D01*
X9950Y33350D02*Y32750D01*
X9800Y33200D02*X9950Y33350D01*
X10430D02*X10505Y33275D01*
X10280Y33350D02*X10430D01*
X10205Y33275D02*X10280Y33350D01*
X10205Y33275D02*Y32825D01*
X10280Y32750D01*
X10430Y33050D02*X10505Y32975D01*
X10205Y33050D02*X10430D01*
X10280Y32750D02*X10430D01*
X10505Y32825D01*
Y32975D02*Y32825D01*
X9800Y32424D02*X10685D01*
X4500Y32825D02*X4575Y32750D01*
X4500Y33275D02*Y32825D01*
Y33275D02*X4575Y33350D01*
X4725D01*
X4800Y33275D01*
Y32825D01*
X4725Y32750D02*X4800Y32825D01*
X4575Y32750D02*X4725D01*
X4500Y32900D02*X4800Y33200D01*
X4980Y32750D02*X5055D01*
X5235Y32825D02*X5310Y32750D01*
X5235Y33275D02*Y32825D01*
Y33275D02*X5310Y33350D01*
X5460D01*
X5535Y33275D01*
Y32825D01*
X5460Y32750D02*X5535Y32825D01*
X5310Y32750D02*X5460D01*
X5235Y32900D02*X5535Y33200D01*
X5715Y33275D02*X5790Y33350D01*
X5940D01*
X6015Y33275D01*
Y32825D01*
X5940Y32750D02*X6015Y32825D01*
X5790Y32750D02*X5940D01*
X5715Y32825D02*X5790Y32750D01*
Y33050D02*X6015D01*
X6195Y32825D02*X6270Y32750D01*
X6195Y32975D02*Y32825D01*
Y32975D02*X6270Y33050D01*
X6420D01*
X6495Y32975D01*
Y32825D01*
X6420Y32750D02*X6495Y32825D01*
X6270Y32750D02*X6420D01*
X6195Y33125D02*X6270Y33050D01*
X6195Y33275D02*Y33125D01*
Y33275D02*X6270Y33350D01*
X6420D01*
X6495Y33275D01*
Y33125D01*
X6420Y33050D02*X6495Y33125D01*
X4500Y32424D02*X6675D01*
X8730Y22423D02*G75*G03X8890Y22423I80J0D01*G01*
G75*G03X8730Y22423I-80J0D01*G01*
X11289D02*G75*G03X11449Y22423I80J0D01*G01*
G75*G03X11289Y22423I-80J0D01*G01*
Y20652D02*G75*G03X11449Y20652I80J0D01*G01*
G75*G03X11289Y20652I-80J0D01*G01*
X8730D02*G75*G03X8890Y20652I80J0D01*G01*
G75*G03X8730Y20652I-80J0D01*G01*
X2630Y26025D02*G75*G03X2790Y26025I80J0D01*G01*
G75*G03X2630Y26025I-80J0D01*G01*
X5189D02*G75*G03X5349Y26025I80J0D01*G01*
G75*G03X5189Y26025I-80J0D01*G01*
Y24254D02*G75*G03X5349Y24254I80J0D01*G01*
G75*G03X5189Y24254I-80J0D01*G01*
X2630D02*G75*G03X2790Y24254I80J0D01*G01*
G75*G03X2630Y24254I-80J0D01*G01*
X2631Y18423D02*G75*G03X2791Y18423I80J0D01*G01*
G75*G03X2631Y18423I-80J0D01*G01*
X5190D02*G75*G03X5350Y18423I80J0D01*G01*
G75*G03X5190Y18423I-80J0D01*G01*
Y16652D02*G75*G03X5350Y16652I80J0D01*G01*
G75*G03X5190Y16652I-80J0D01*G01*
X2631D02*G75*G03X2791Y16652I80J0D01*G01*
G75*G03X2631Y16652I-80J0D01*G01*
X1420Y34625D02*G75*G03X1580Y34625I80J0D01*G01*
G75*G03X1420Y34625I-80J0D01*G01*
X13500Y34850D02*Y34775D01*
X13650Y34625D01*
X13800Y34775D01*
Y34850D02*Y34775D01*
X13650Y34625D02*Y34250D01*
X13980Y34550D02*X14205D01*
X13980Y34250D02*X14280D01*
X13980Y34850D02*Y34250D01*
Y34850D02*X14280D01*
X14760D02*X14835Y34775D01*
X14535Y34850D02*X14760D01*
X14460Y34775D02*X14535Y34850D01*
X14460Y34775D02*Y34625D01*
X14535Y34550D01*
X14760D01*
X14835Y34475D01*
Y34325D01*
X14760Y34250D02*X14835Y34325D01*
X14535Y34250D02*X14760D01*
X14460Y34325D02*X14535Y34250D01*
X13500Y33924D02*X15015D01*
X9875Y34250D02*X10025D01*
X9950Y34850D02*Y34250D01*
X9800Y34700D02*X9950Y34850D01*
X10205Y34775D02*X10280Y34850D01*
X10505D01*
X10580Y34775D01*
Y34625D01*
X10205Y34250D02*X10580Y34625D01*
X10205Y34250D02*X10580D01*
X9800Y33924D02*X10760D01*
X4500Y34325D02*X4575Y34250D01*
X4500Y34775D02*Y34325D01*
Y34775D02*X4575Y34850D01*
X4725D01*
X4800Y34775D01*
Y34325D01*
X4725Y34250D02*X4800Y34325D01*
X4575Y34250D02*X4725D01*
X4500Y34400D02*X4800Y34700D01*
X4980Y34250D02*X5055D01*
X5235Y34325D02*X5310Y34250D01*
X5235Y34775D02*Y34325D01*
Y34775D02*X5310Y34850D01*
X5460D01*
X5535Y34775D01*
Y34325D01*
X5460Y34250D02*X5535Y34325D01*
X5310Y34250D02*X5460D01*
X5235Y34400D02*X5535Y34700D01*
X5715Y34775D02*X5790Y34850D01*
X5940D01*
X6015Y34775D01*
Y34325D01*
X5940Y34250D02*X6015Y34325D01*
X5790Y34250D02*X5940D01*
X5715Y34325D02*X5790Y34250D01*
Y34550D02*X6015D01*
X6195Y34325D02*X6270Y34250D01*
X6195Y34775D02*Y34325D01*
Y34775D02*X6270Y34850D01*
X6420D01*
X6495Y34775D01*
Y34325D01*
X6420Y34250D02*X6495Y34325D01*
X6270Y34250D02*X6420D01*
X6195Y34400D02*X6495Y34700D01*
X4500Y33924D02*X6675D01*
X7890Y3510D02*X8130Y3270D01*
X7890D02*X8130Y3510D01*
X6890D02*X7130Y3270D01*
X6890D02*X7130Y3510D01*
X6890Y2710D02*X7130Y2470D01*
X6890D02*X7130Y2710D01*
X7890D02*X8130Y2470D01*
X7890D02*X8130Y2710D01*
X1380Y36245D02*X1620Y36005D01*
X1380D02*X1620Y36245D01*
X13500Y36350D02*Y36275D01*
X13650Y36125D01*
X13800Y36275D01*
Y36350D02*Y36275D01*
X13650Y36125D02*Y35750D01*
X13980Y36050D02*X14205D01*
X13980Y35750D02*X14280D01*
X13980Y36350D02*Y35750D01*
Y36350D02*X14280D01*
X14760D02*X14835Y36275D01*
X14535Y36350D02*X14760D01*
X14460Y36275D02*X14535Y36350D01*
X14460Y36275D02*Y36125D01*
X14535Y36050D01*
X14760D01*
X14835Y35975D01*
Y35825D01*
X14760Y35750D02*X14835Y35825D01*
X14535Y35750D02*X14760D01*
X14460Y35825D02*X14535Y35750D01*
X13500Y35424D02*X15015D01*
X9800Y36050D02*X10100Y36350D01*
X9800Y36050D02*X10175D01*
X10100Y36350D02*Y35750D01*
X9800Y35424D02*X10355D01*
X4500Y35825D02*X4575Y35750D01*
X4500Y36275D02*Y35825D01*
Y36275D02*X4575Y36350D01*
X4725D01*
X4800Y36275D01*
Y35825D01*
X4725Y35750D02*X4800Y35825D01*
X4575Y35750D02*X4725D01*
X4500Y35900D02*X4800Y36200D01*
X4980Y35750D02*X5055D01*
X5235Y35825D02*X5310Y35750D01*
X5235Y36275D02*Y35825D01*
Y36275D02*X5310Y36350D01*
X5460D01*
X5535Y36275D01*
Y35825D01*
X5460Y35750D02*X5535Y35825D01*
X5310Y35750D02*X5460D01*
X5235Y35900D02*X5535Y36200D01*
X5715Y36275D02*X5790Y36350D01*
X6015D01*
X6090Y36275D01*
Y36125D01*
X5715Y35750D02*X6090Y36125D01*
X5715Y35750D02*X6090D01*
X6270Y35825D02*X6345Y35750D01*
X6270Y35975D02*Y35825D01*
Y35975D02*X6345Y36050D01*
X6495D01*
X6570Y35975D01*
Y35825D01*
X6495Y35750D02*X6570Y35825D01*
X6345Y35750D02*X6495D01*
X6270Y36125D02*X6345Y36050D01*
X6270Y36275D02*Y36125D01*
Y36275D02*X6345Y36350D01*
X6495D01*
X6570Y36275D01*
Y36125D01*
X6495Y36050D02*X6570Y36125D01*
X4500Y35424D02*X6750D01*
X8570Y15810D02*Y15490D01*
X8410Y15650D02*X8730D01*
X9070Y15810D02*Y15490D01*
X8910Y15650D02*X9230D01*
X9570Y15810D02*Y15490D01*
X9410Y15650D02*X9730D01*
X10070Y15810D02*Y15490D01*
X9910Y15650D02*X10230D01*
X10570Y15810D02*Y15490D01*
X10410Y15650D02*X10730D01*
X11070Y15810D02*Y15490D01*
X10910Y15650D02*X11230D01*
X11570Y15810D02*Y15490D01*
X11410Y15650D02*X11730D01*
X12070Y15810D02*Y15490D01*
X11910Y15650D02*X12230D01*
X1500Y37785D02*Y37465D01*
X1340Y37625D02*X1660D01*
X13500Y37850D02*Y37775D01*
X13650Y37625D01*
X13800Y37775D01*
Y37850D02*Y37775D01*
X13650Y37625D02*Y37250D01*
X13980Y37550D02*X14205D01*
X13980Y37250D02*X14280D01*
X13980Y37850D02*Y37250D01*
Y37850D02*X14280D01*
X14760D02*X14835Y37775D01*
X14535Y37850D02*X14760D01*
X14460Y37775D02*X14535Y37850D01*
X14460Y37775D02*Y37625D01*
X14535Y37550D01*
X14760D01*
X14835Y37475D01*
Y37325D01*
X14760Y37250D02*X14835Y37325D01*
X14535Y37250D02*X14760D01*
X14460Y37325D02*X14535Y37250D01*
X13500Y36924D02*X15015D01*
X9800Y37325D02*X9875Y37250D01*
X9800Y37475D02*Y37325D01*
Y37475D02*X9875Y37550D01*
X10025D01*
X10100Y37475D01*
Y37325D01*
X10025Y37250D02*X10100Y37325D01*
X9875Y37250D02*X10025D01*
X9800Y37625D02*X9875Y37550D01*
X9800Y37775D02*Y37625D01*
Y37775D02*X9875Y37850D01*
X10025D01*
X10100Y37775D01*
Y37625D01*
X10025Y37550D02*X10100Y37625D01*
X9800Y36924D02*X10280D01*
X4500Y37325D02*X4575Y37250D01*
X4500Y37775D02*Y37325D01*
Y37775D02*X4575Y37850D01*
X4725D01*
X4800Y37775D01*
Y37325D01*
X4725Y37250D02*X4800Y37325D01*
X4575Y37250D02*X4725D01*
X4500Y37400D02*X4800Y37700D01*
X4980Y37250D02*X5055D01*
X5235Y37325D02*X5310Y37250D01*
X5235Y37775D02*Y37325D01*
Y37775D02*X5310Y37850D01*
X5460D01*
X5535Y37775D01*
Y37325D01*
X5460Y37250D02*X5535Y37325D01*
X5310Y37250D02*X5460D01*
X5235Y37400D02*X5535Y37700D01*
X5715Y37775D02*X5790Y37850D01*
X6015D01*
X6090Y37775D01*
Y37625D01*
X5715Y37250D02*X6090Y37625D01*
X5715Y37250D02*X6090D01*
X6270Y37325D02*X6345Y37250D01*
X6270Y37775D02*Y37325D01*
Y37775D02*X6345Y37850D01*
X6495D01*
X6570Y37775D01*
Y37325D01*
X6495Y37250D02*X6570Y37325D01*
X6345Y37250D02*X6495D01*
X6270Y37400D02*X6570Y37700D01*
X4500Y36924D02*X6750D01*
X6165Y17330D02*Y17170D01*
Y17330D02*X6303Y17410D01*
X6165Y17330D02*X6026Y17410D01*
X5990Y20120D02*Y19960D01*
Y20120D02*X6128Y20200D01*
X5990Y20120D02*X5851Y20200D01*
X9320Y16270D02*Y16110D01*
Y16270D02*X9458Y16350D01*
X9320Y16270D02*X9181Y16350D01*
X8838Y17542D02*Y17382D01*
Y17542D02*X8977Y17622D01*
X8838Y17542D02*X8700Y17622D01*
X10056Y10933D02*Y10773D01*
Y10933D02*X10195Y11013D01*
X10056Y10933D02*X9917Y11013D01*
X9450Y11053D02*Y10893D01*
Y11053D02*X9588Y11133D01*
X9450Y11053D02*X9311Y11133D01*
X8154Y21733D02*Y21573D01*
Y21733D02*X8293Y21813D01*
X8154Y21733D02*X8016Y21813D01*
X12439Y19680D02*Y19520D01*
Y19680D02*X12578Y19760D01*
X12439Y19680D02*X12300Y19760D01*
X11979Y16509D02*Y16349D01*
Y16509D02*X12117Y16589D01*
X11979Y16509D02*X11840Y16589D01*
X11979Y18430D02*Y18270D01*
Y18430D02*X12117Y18510D01*
X11979Y18430D02*X11840Y18510D01*
X10531Y17435D02*Y17275D01*
Y17435D02*X10669Y17515D01*
X10531Y17435D02*X10392Y17515D01*
X11395Y18208D02*Y18048D01*
Y18208D02*X11534Y18288D01*
X11395Y18208D02*X11257Y18288D01*
X8162Y19035D02*Y18875D01*
Y19035D02*X8301Y19115D01*
X8162Y19035D02*X8024Y19115D01*
X11940Y19010D02*Y18850D01*
Y19010D02*X12078Y19090D01*
X11940Y19010D02*X11801Y19090D01*
X8428Y16226D02*Y16066D01*
Y16226D02*X8566Y16306D01*
X8428Y16226D02*X8289Y16306D01*
X9000Y16232D02*Y16072D01*
Y16232D02*X9138Y16312D01*
X9000Y16232D02*X8861Y16312D01*
X7870Y6500D02*Y6340D01*
Y6500D02*X8008Y6580D01*
X7870Y6500D02*X7731Y6580D01*
X4295Y15005D02*Y14845D01*
Y15005D02*X4433Y15085D01*
X4295Y15005D02*X4156Y15085D01*
X7825Y13015D02*Y12855D01*
Y13015D02*X7963Y13095D01*
X7825Y13015D02*X7686Y13095D01*
X8993Y11755D02*Y11595D01*
Y11755D02*X9132Y11835D01*
X8993Y11755D02*X8855Y11835D01*
X9200Y9100D02*Y8940D01*
Y9100D02*X9338Y9180D01*
X9200Y9100D02*X9061Y9180D01*
X8892Y10837D02*Y10677D01*
Y10837D02*X9031Y10917D01*
X8892Y10837D02*X8753Y10917D01*
X9570Y20362D02*Y20202D01*
Y20362D02*X9708Y20442D01*
X9570Y20362D02*X9431Y20442D01*
X10370Y20362D02*Y20202D01*
Y20362D02*X10508Y20442D01*
X10370Y20362D02*X10231Y20442D01*
X8999Y16709D02*Y16549D01*
Y16709D02*X9137Y16789D01*
X8999Y16709D02*X8860Y16789D01*
X8143Y16546D02*Y16386D01*
Y16546D02*X8282Y16626D01*
X8143Y16546D02*X8005Y16626D01*
X6112Y16255D02*Y16095D01*
Y16255D02*X6251Y16335D01*
X6112Y16255D02*X5973Y16335D01*
X6112Y10711D02*Y10551D01*
Y10711D02*X6251Y10791D01*
X6112Y10711D02*X5973Y10791D01*
X3072Y9637D02*Y9477D01*
Y9637D02*X3211Y9717D01*
X3072Y9637D02*X2934Y9717D01*
X3072Y14377D02*Y14217D01*
Y14377D02*X3211Y14457D01*
X3072Y14377D02*X2934Y14457D01*
X2901Y23744D02*Y23584D01*
Y23744D02*X3039Y23824D01*
X2901Y23744D02*X2762Y23824D01*
X4839Y23859D02*Y23699D01*
Y23859D02*X4978Y23939D01*
X4839Y23859D02*X4701Y23939D01*
X2720Y9637D02*Y9477D01*
Y9637D02*X2858Y9717D01*
X2720Y9637D02*X2581Y9717D01*
X6242Y25438D02*Y25278D01*
Y25438D02*X6381Y25518D01*
X6242Y25438D02*X6103Y25518D01*
X10526Y12385D02*Y12225D01*
Y12385D02*X10665Y12465D01*
X10526Y12385D02*X10387Y12465D01*
X9450Y8105D02*Y7945D01*
Y8105D02*X9588Y8185D01*
X9450Y8105D02*X9311Y8185D01*
X6742Y10531D02*Y10371D01*
Y10531D02*X6881Y10611D01*
X6742Y10531D02*X6603Y10611D01*
X6860Y16800D02*Y16640D01*
Y16800D02*X6998Y16880D01*
X6860Y16800D02*X6721Y16880D01*
X6480Y10174D02*Y10014D01*
Y10174D02*X6618Y10254D01*
X6480Y10174D02*X6341Y10254D01*
X6492Y16470D02*Y16310D01*
Y16470D02*X6631Y16550D01*
X6492Y16470D02*X6353Y16550D01*
X7446Y9924D02*Y9764D01*
Y9924D02*X7585Y10004D01*
X7446Y9924D02*X7307Y10004D01*
X7126Y9619D02*Y9459D01*
Y9619D02*X7265Y9699D01*
X7126Y9619D02*X6987Y9699D01*
X7428Y19250D02*Y19090D01*
Y19250D02*X7567Y19330D01*
X7428Y19250D02*X7290Y19330D01*
X6768Y9619D02*Y9459D01*
Y9619D02*X6906Y9699D01*
X6768Y9619D02*X6629Y9699D01*
X4905Y9619D02*Y9459D01*
Y9619D02*X5043Y9699D01*
X4905Y9619D02*X4766Y9699D01*
X5740Y21520D02*Y21360D01*
Y21520D02*X5878Y21600D01*
X5740Y21520D02*X5601Y21600D01*
X5740Y11069D02*Y10909D01*
Y11069D02*X5878Y11149D01*
X5740Y11069D02*X5601Y11149D01*
X7110Y20520D02*Y20360D01*
Y20520D02*X7248Y20600D01*
X7110Y20520D02*X6971Y20600D01*
X8220Y9595D02*Y9435D01*
Y9595D02*X8359Y9675D01*
X8220Y9595D02*X8082Y9675D01*
X2335Y10865D02*Y10705D01*
Y10865D02*X2473Y10945D01*
X2335Y10865D02*X2196Y10945D01*
X8780Y21082D02*Y20922D01*
Y21082D02*X8919Y21162D01*
X8780Y21082D02*X8641Y21162D01*
X8412Y17797D02*Y17637D01*
Y17797D02*X8551Y17877D01*
X8412Y17797D02*X8274Y17877D01*
X8410Y6420D02*Y6260D01*
Y6420D02*X8548Y6500D01*
X8410Y6420D02*X8271Y6500D01*
X4280Y8475D02*Y8315D01*
Y8475D02*X4418Y8555D01*
X4280Y8475D02*X4141Y8555D01*
X4335Y16075D02*Y15915D01*
Y16075D02*X4473Y16155D01*
X4335Y16075D02*X4196Y16155D01*
X5480Y21189D02*Y21029D01*
Y21189D02*X5618Y21269D01*
X5480Y21189D02*X5341Y21269D01*
X1500Y39125D02*Y38965D01*
Y39125D02*X1638Y39205D01*
X1500Y39125D02*X1361Y39205D01*
X13500Y39350D02*Y39275D01*
X13650Y39125D01*
X13800Y39275D01*
Y39350D02*Y39275D01*
X13650Y39125D02*Y38750D01*
X13980Y39050D02*X14205D01*
X13980Y38750D02*X14280D01*
X13980Y39350D02*Y38750D01*
Y39350D02*X14280D01*
X14760D02*X14835Y39275D01*
X14535Y39350D02*X14760D01*
X14460Y39275D02*X14535Y39350D01*
X14460Y39275D02*Y39125D01*
X14535Y39050D01*
X14760D01*
X14835Y38975D01*
Y38825D01*
X14760Y38750D02*X14835Y38825D01*
X14535Y38750D02*X14760D01*
X14460Y38825D02*X14535Y38750D01*
X13500Y38424D02*X15015D01*
X9800Y39350D02*X10100D01*
X9800D02*Y39050D01*
X9875Y39125D01*
X10025D01*
X10100Y39050D01*
Y38825D01*
X10025Y38750D02*X10100Y38825D01*
X9875Y38750D02*X10025D01*
X9800Y38825D02*X9875Y38750D01*
X10505Y39350D02*X10580Y39275D01*
X10355Y39350D02*X10505D01*
X10280Y39275D02*X10355Y39350D01*
X10280Y39275D02*Y38825D01*
X10355Y38750D01*
X10505Y39050D02*X10580Y38975D01*
X10280Y39050D02*X10505D01*
X10355Y38750D02*X10505D01*
X10580Y38825D01*
Y38975D02*Y38825D01*
X9800Y38424D02*X10760D01*
X4500Y38825D02*X4575Y38750D01*
X4500Y39275D02*Y38825D01*
Y39275D02*X4575Y39350D01*
X4725D01*
X4800Y39275D01*
Y38825D01*
X4725Y38750D02*X4800Y38825D01*
X4575Y38750D02*X4725D01*
X4500Y38900D02*X4800Y39200D01*
X4980Y38750D02*X5055D01*
X5235Y38825D02*X5310Y38750D01*
X5235Y39275D02*Y38825D01*
Y39275D02*X5310Y39350D01*
X5460D01*
X5535Y39275D01*
Y38825D01*
X5460Y38750D02*X5535Y38825D01*
X5310Y38750D02*X5460D01*
X5235Y38900D02*X5535Y39200D01*
X5790Y38750D02*X5940D01*
X5865Y39350D02*Y38750D01*
X5715Y39200D02*X5865Y39350D01*
X6120Y38825D02*X6195Y38750D01*
X6120Y38975D02*Y38825D01*
Y38975D02*X6195Y39050D01*
X6345D01*
X6420Y38975D01*
Y38825D01*
X6345Y38750D02*X6420Y38825D01*
X6195Y38750D02*X6345D01*
X6120Y39125D02*X6195Y39050D01*
X6120Y39275D02*Y39125D01*
Y39275D02*X6195Y39350D01*
X6345D01*
X6420Y39275D01*
Y39125D01*
X6345Y39050D02*X6420Y39125D01*
X4500Y38424D02*X6600D01*
X300Y40850D02*X375Y40775D01*
X75Y40850D02*X300D01*
X0Y40775D02*X75Y40850D01*
X0Y40775D02*Y40625D01*
X75Y40550D01*
X300D01*
X375Y40475D01*
Y40325D01*
X300Y40250D02*X375Y40325D01*
X75Y40250D02*X300D01*
X0Y40325D02*X75Y40250D01*
X555Y40550D02*Y40325D01*
X630Y40250D01*
X855Y40550D02*Y40100D01*
X780Y40025D02*X855Y40100D01*
X630Y40025D02*X780D01*
X555Y40100D02*X630Y40025D01*
Y40250D02*X780D01*
X855Y40325D01*
X1110Y40475D02*Y40250D01*
Y40475D02*X1185Y40550D01*
X1260D01*
X1335Y40475D01*
Y40250D01*
Y40475D02*X1410Y40550D01*
X1485D01*
X1560Y40475D01*
Y40250D01*
X1035Y40550D02*X1110Y40475D01*
X1740Y40850D02*Y40250D01*
Y40325D02*X1815Y40250D01*
X1965D01*
X2040Y40325D01*
Y40475D02*Y40325D01*
X1965Y40550D02*X2040Y40475D01*
X1815Y40550D02*X1965D01*
X1740Y40475D02*X1815Y40550D01*
X2220Y40475D02*Y40325D01*
Y40475D02*X2295Y40550D01*
X2445D01*
X2520Y40475D01*
Y40325D01*
X2445Y40250D02*X2520Y40325D01*
X2295Y40250D02*X2445D01*
X2220Y40325D02*X2295Y40250D01*
X2700Y40850D02*Y40325D01*
X2775Y40250D01*
X4175Y40850D02*Y40250D01*
X4400Y40850D02*X4475Y40775D01*
Y40325D01*
X4400Y40250D02*X4475Y40325D01*
X4100Y40250D02*X4400D01*
X4100Y40850D02*X4400D01*
X4655Y40700D02*Y40625D01*
Y40475D02*Y40250D01*
X5030Y40550D02*X5105Y40475D01*
X4880Y40550D02*X5030D01*
X4805Y40475D02*X4880Y40550D01*
X4805Y40475D02*Y40325D01*
X4880Y40250D01*
X5105Y40550D02*Y40325D01*
X5180Y40250D01*
X4880D02*X5030D01*
X5105Y40325D01*
X5435Y40475D02*Y40250D01*
Y40475D02*X5510Y40550D01*
X5585D01*
X5660Y40475D01*
Y40250D01*
Y40475D02*X5735Y40550D01*
X5810D01*
X5885Y40475D01*
Y40250D01*
X5360Y40550D02*X5435Y40475D01*
X6065Y40250D02*X6140D01*
X6590Y40325D02*X6665Y40250D01*
X6590Y40775D02*X6665Y40850D01*
X6590Y40775D02*Y40325D01*
X6845Y40850D02*X6995D01*
X6920D02*Y40250D01*
X6845D02*X6995D01*
X7251Y40475D02*Y40250D01*
Y40475D02*X7326Y40550D01*
X7401D01*
X7476Y40475D01*
Y40250D01*
X7176Y40550D02*X7251Y40475D01*
X7731Y40550D02*X7956D01*
X7656Y40475D02*X7731Y40550D01*
X7656Y40475D02*Y40325D01*
X7731Y40250D01*
X7956D01*
X8136Y40850D02*Y40250D01*
Y40475D02*X8211Y40550D01*
X8361D01*
X8436Y40475D01*
Y40250D01*
X8616Y40850D02*X8691Y40775D01*
Y40325D01*
X8616Y40250D02*X8691Y40325D01*
X9575Y40250D02*X9800D01*
X9500Y40325D02*X9575Y40250D01*
X9500Y40775D02*Y40325D01*
Y40775D02*X9575Y40850D01*
X9800D01*
X9980Y40475D02*Y40325D01*
Y40475D02*X10055Y40550D01*
X10205D01*
X10280Y40475D01*
Y40325D01*
X10205Y40250D02*X10280Y40325D01*
X10055Y40250D02*X10205D01*
X9980Y40325D02*X10055Y40250D01*
X10460Y40550D02*Y40325D01*
X10535Y40250D01*
X10685D01*
X10760Y40325D01*
Y40550D02*Y40325D01*
X11015Y40475D02*Y40250D01*
Y40475D02*X11090Y40550D01*
X11165D01*
X11240Y40475D01*
Y40250D01*
X10940Y40550D02*X11015Y40475D01*
X11495Y40850D02*Y40325D01*
X11570Y40250D01*
X11420Y40625D02*X11570D01*
X13075Y40850D02*Y40250D01*
X13000Y40850D02*X13300D01*
X13375Y40775D01*
Y40625D01*
X13300Y40550D02*X13375Y40625D01*
X13075Y40550D02*X13300D01*
X13555Y40850D02*Y40325D01*
X13630Y40250D01*
X14005Y40550D02*X14080Y40475D01*
X13855Y40550D02*X14005D01*
X13780Y40475D02*X13855Y40550D01*
X13780Y40475D02*Y40325D01*
X13855Y40250D01*
X14080Y40550D02*Y40325D01*
X14155Y40250D01*
X13855D02*X14005D01*
X14080Y40325D01*
X14410Y40850D02*Y40325D01*
X14485Y40250D01*
X14335Y40625D02*X14485D01*
X14710Y40250D02*X14935D01*
X14635Y40325D02*X14710Y40250D01*
X14635Y40475D02*Y40325D01*
Y40475D02*X14710Y40550D01*
X14860D01*
X14935Y40475D01*
X14635Y40400D02*X14935D01*
Y40475D02*Y40400D01*
X15415Y40850D02*Y40250D01*
X15340D02*X15415Y40325D01*
X15190Y40250D02*X15340D01*
X15115Y40325D02*X15190Y40250D01*
X15115Y40475D02*Y40325D01*
Y40475D02*X15190Y40550D01*
X15340D01*
X15415Y40475D01*
X15745Y40550D02*Y40475D01*
Y40325D02*Y40250D01*
X15595Y40775D02*Y40700D01*
Y40775D02*X15670Y40850D01*
X15820D01*
X15895Y40775D01*
Y40700D01*
X15745Y40550D02*X15895Y40700D01*
X0Y42350D02*X300D01*
X150D02*Y41750D01*
X480Y42350D02*Y41750D01*
Y41975D02*X555Y42050D01*
X705D01*
X780Y41975D01*
Y41750D01*
X1035D02*X1260D01*
X960Y41825D02*X1035Y41750D01*
X960Y41975D02*Y41825D01*
Y41975D02*X1035Y42050D01*
X1185D01*
X1260Y41975D01*
X960Y41900D02*X1260D01*
Y41975D02*Y41900D01*
X1515Y41975D02*Y41750D01*
Y41975D02*X1590Y42050D01*
X1740D01*
X1440D02*X1515Y41975D01*
X1995Y41750D02*X2220D01*
X1920Y41825D02*X1995Y41750D01*
X1920Y41975D02*Y41825D01*
Y41975D02*X1995Y42050D01*
X2145D01*
X2220Y41975D01*
X1920Y41900D02*X2220D01*
Y41975D02*Y41900D01*
X2895Y42050D02*X2970Y41975D01*
X2745Y42050D02*X2895D01*
X2670Y41975D02*X2745Y42050D01*
X2670Y41975D02*Y41825D01*
X2745Y41750D01*
X2970Y42050D02*Y41825D01*
X3045Y41750D01*
X2745D02*X2895D01*
X2970Y41825D01*
X3300Y41975D02*Y41750D01*
Y41975D02*X3375Y42050D01*
X3525D01*
X3225D02*X3300Y41975D01*
X3781Y41750D02*X4006D01*
X3706Y41825D02*X3781Y41750D01*
X3706Y41975D02*Y41825D01*
Y41975D02*X3781Y42050D01*
X3931D01*
X4006Y41975D01*
X3706Y41900D02*X4006D01*
Y41975D02*Y41900D01*
X4456Y41750D02*X4831Y42125D01*
Y42350D02*Y42125D01*
X4456Y42350D02*X4831D01*
X5581D02*Y41750D01*
X5506D02*X5581Y41825D01*
X5356Y41750D02*X5506D01*
X5281Y41825D02*X5356Y41750D01*
X5281Y41975D02*Y41825D01*
Y41975D02*X5356Y42050D01*
X5506D01*
X5581Y41975D01*
X5761Y42200D02*Y42125D01*
Y41975D02*Y41750D01*
X5986Y42275D02*Y41750D01*
Y42275D02*X6061Y42350D01*
X6136D01*
X5911Y42050D02*X6061D01*
X6361Y42275D02*Y41750D01*
Y42275D02*X6436Y42350D01*
X6511D01*
X6286Y42050D02*X6436D01*
X6736Y41750D02*X6961D01*
X6661Y41825D02*X6736Y41750D01*
X6661Y41975D02*Y41825D01*
Y41975D02*X6736Y42050D01*
X6886D01*
X6961Y41975D01*
X6661Y41900D02*X6961D01*
Y41975D02*Y41900D01*
X7217Y41975D02*Y41750D01*
Y41975D02*X7292Y42050D01*
X7442D01*
X7142D02*X7217Y41975D01*
X7697Y41750D02*X7922D01*
X7622Y41825D02*X7697Y41750D01*
X7622Y41975D02*Y41825D01*
Y41975D02*X7697Y42050D01*
X7847D01*
X7922Y41975D01*
X7622Y41900D02*X7922D01*
Y41975D02*Y41900D01*
X8177Y41975D02*Y41750D01*
Y41975D02*X8252Y42050D01*
X8327D01*
X8402Y41975D01*
Y41750D01*
X8102Y42050D02*X8177Y41975D01*
X8657Y42350D02*Y41825D01*
X8732Y41750D01*
X8582Y42125D02*X8732D01*
X9452Y42350D02*Y41750D01*
X9377D02*X9452Y41825D01*
X9227Y41750D02*X9377D01*
X9152Y41825D02*X9227Y41750D01*
X9152Y41975D02*Y41825D01*
Y41975D02*X9227Y42050D01*
X9377D01*
X9452Y41975D01*
X9707D02*Y41750D01*
Y41975D02*X9782Y42050D01*
X9932D01*
X9632D02*X9707Y41975D01*
X10113Y42200D02*Y42125D01*
Y41975D02*Y41750D01*
X10263Y42350D02*Y41825D01*
X10338Y41750D01*
X10488Y42350D02*Y41825D01*
X10563Y41750D01*
X11058D02*X11283D01*
X11358Y41825D01*
X11283Y41900D02*X11358Y41825D01*
X11058Y41900D02*X11283D01*
X10983Y41975D02*X11058Y41900D01*
X10983Y41975D02*X11058Y42050D01*
X11283D01*
X11358Y41975D01*
X10983Y41825D02*X11058Y41750D01*
X11538Y42200D02*Y42125D01*
Y41975D02*Y41750D01*
X11688Y42050D02*X11988D01*
X11688Y41750D02*X11988Y42050D01*
X11688Y41750D02*X11988D01*
X12243D02*X12468D01*
X12168Y41825D02*X12243Y41750D01*
X12168Y41975D02*Y41825D01*
Y41975D02*X12243Y42050D01*
X12393D01*
X12468Y41975D01*
X12168Y41900D02*X12468D01*
Y41975D02*Y41900D01*
X12724Y41750D02*X12949D01*
X13024Y41825D01*
X12949Y41900D02*X13024Y41825D01*
X12724Y41900D02*X12949D01*
X12649Y41975D02*X12724Y41900D01*
X12649Y41975D02*X12724Y42050D01*
X12949D01*
X13024Y41975D01*
X12649Y41825D02*X12724Y41750D01*
X13474Y42050D02*Y41825D01*
X13549Y41750D01*
X13699D01*
X13774Y41825D01*
Y42050D02*Y41825D01*
X14029Y41750D02*X14254D01*
X14329Y41825D01*
X14254Y41900D02*X14329Y41825D01*
X14029Y41900D02*X14254D01*
X13954Y41975D02*X14029Y41900D01*
X13954Y41975D02*X14029Y42050D01*
X14254D01*
X14329Y41975D01*
X13954Y41825D02*X14029Y41750D01*
X14584D02*X14809D01*
X14509Y41825D02*X14584Y41750D01*
X14509Y41975D02*Y41825D01*
Y41975D02*X14584Y42050D01*
X14734D01*
X14809Y41975D01*
X14509Y41900D02*X14809D01*
Y41975D02*Y41900D01*
X15289Y42350D02*Y41750D01*
X15214D02*X15289Y41825D01*
X15064Y41750D02*X15214D01*
X14989Y41825D02*X15064Y41750D01*
X14989Y41975D02*Y41825D01*
Y41975D02*X15064Y42050D01*
X15214D01*
X15289Y41975D01*
X15739Y42200D02*Y42125D01*
Y41975D02*Y41750D01*
X15964Y41975D02*Y41750D01*
Y41975D02*X16039Y42050D01*
X16114D01*
X16189Y41975D01*
Y41750D01*
X15889Y42050D02*X15964Y41975D01*
X16715Y42350D02*Y41825D01*
X16790Y41750D01*
X16640Y42125D02*X16790D01*
X16940Y42350D02*Y41750D01*
Y41975D02*X17015Y42050D01*
X17165D01*
X17240Y41975D01*
Y41750D01*
X17420Y42200D02*Y42125D01*
Y41975D02*Y41750D01*
X17645D02*X17870D01*
X17945Y41825D01*
X17870Y41900D02*X17945Y41825D01*
X17645Y41900D02*X17870D01*
X17570Y41975D02*X17645Y41900D01*
X17570Y41975D02*X17645Y42050D01*
X17870D01*
X17945Y41975D01*
X17570Y41825D02*X17645Y41750D01*
X18395Y42350D02*Y41825D01*
X18470Y41750D01*
X18845Y42050D02*X18920Y41975D01*
X18695Y42050D02*X18845D01*
X18620Y41975D02*X18695Y42050D01*
X18620Y41975D02*Y41825D01*
X18695Y41750D01*
X18920Y42050D02*Y41825D01*
X18995Y41750D01*
X18695D02*X18845D01*
X18920Y41825D01*
X19176Y42050D02*Y41825D01*
X19251Y41750D01*
X19476Y42050D02*Y41600D01*
X19401Y41525D02*X19476Y41600D01*
X19251Y41525D02*X19401D01*
X19176Y41600D02*X19251Y41525D01*
Y41750D02*X19401D01*
X19476Y41825D01*
X19656Y41975D02*Y41825D01*
Y41975D02*X19731Y42050D01*
X19881D01*
X19956Y41975D01*
Y41825D01*
X19881Y41750D02*X19956Y41825D01*
X19731Y41750D02*X19881D01*
X19656Y41825D02*X19731Y41750D01*
X20136Y42050D02*Y41825D01*
X20211Y41750D01*
X20361D01*
X20436Y41825D01*
Y42050D02*Y41825D01*
X20691Y42350D02*Y41825D01*
X20766Y41750D01*
X20616Y42125D02*X20766D01*
X20916Y41600D02*X21066Y41750D01*
X21591D02*X21741D01*
X21666Y42350D02*Y41750D01*
X21516Y42200D02*X21666Y42350D01*
X21921Y41825D02*X21996Y41750D01*
X21921Y42275D02*Y41825D01*
Y42275D02*X21996Y42350D01*
X22146D01*
X22221Y42275D01*
Y41825D01*
X22146Y41750D02*X22221Y41825D01*
X21996Y41750D02*X22146D01*
X21921Y41900D02*X22221Y42200D01*
X22402Y41825D02*X22477Y41750D01*
X22402Y42275D02*Y41825D01*
Y42275D02*X22477Y42350D01*
X22627D01*
X22702Y42275D01*
Y41825D01*
X22627Y41750D02*X22702Y41825D01*
X22477Y41750D02*X22627D01*
X22402Y41900D02*X22702Y42200D01*
X23152Y42350D02*Y41750D01*
Y41975D02*X23227Y42050D01*
X23377D01*
X23452Y41975D01*
Y41750D01*
X23632Y41975D02*Y41825D01*
Y41975D02*X23707Y42050D01*
X23857D01*
X23932Y41975D01*
Y41825D01*
X23857Y41750D02*X23932Y41825D01*
X23707Y41750D02*X23857D01*
X23632Y41825D02*X23707Y41750D01*
X24112Y42350D02*Y41825D01*
X24187Y41750D01*
X24412D02*X24637D01*
X24337Y41825D02*X24412Y41750D01*
X24337Y41975D02*Y41825D01*
Y41975D02*X24412Y42050D01*
X24562D01*
X24637Y41975D01*
X24337Y41900D02*X24637D01*
Y41975D02*Y41900D01*
X24892Y41750D02*X25117D01*
X25192Y41825D01*
X25117Y41900D02*X25192Y41825D01*
X24892Y41900D02*X25117D01*
X24817Y41975D02*X24892Y41900D01*
X24817Y41975D02*X24892Y42050D01*
X25117D01*
X25192Y41975D01*
X24817Y41825D02*X24892Y41750D01*
X25717Y42350D02*Y41825D01*
X25792Y41750D01*
X25642Y42125D02*X25792D01*
X25943Y41975D02*Y41825D01*
Y41975D02*X26018Y42050D01*
X26168D01*
X26243Y41975D01*
Y41825D01*
X26168Y41750D02*X26243Y41825D01*
X26018Y41750D02*X26168D01*
X25943Y41825D02*X26018Y41750D01*
X26498Y42350D02*Y41825D01*
X26573Y41750D01*
X26423Y42125D02*X26573D01*
X26948Y42050D02*X27023Y41975D01*
X26798Y42050D02*X26948D01*
X26723Y41975D02*X26798Y42050D01*
X26723Y41975D02*Y41825D01*
X26798Y41750D01*
X27023Y42050D02*Y41825D01*
X27098Y41750D01*
X26798D02*X26948D01*
X27023Y41825D01*
X27278Y42350D02*Y41825D01*
X27353Y41750D01*
G54D11*X0Y29000D02*X13000D01*
X0D02*Y0D01*
X13000Y29000D02*Y0D01*
X0D02*X13000D01*
G54D53*X20000Y30350D02*Y29750D01*
Y30350D02*X20225Y30125D01*
X20450Y30350D01*
Y29750D01*
X20855Y30050D02*X20930Y29975D01*
X20705Y30050D02*X20855D01*
X20630Y29975D02*X20705Y30050D01*
X20630Y29975D02*Y29825D01*
X20705Y29750D01*
X20930Y30050D02*Y29825D01*
X21005Y29750D01*
X20705D02*X20855D01*
X20930Y29825D01*
X21185Y30050D02*X21485Y29750D01*
X21185D02*X21485Y30050D01*
X21665Y30200D02*Y30125D01*
Y29975D02*Y29750D01*
X21890Y29975D02*Y29750D01*
Y29975D02*X21965Y30050D01*
X22040D01*
X22115Y29975D01*
Y29750D01*
Y29975D02*X22190Y30050D01*
X22265D01*
X22340Y29975D01*
Y29750D01*
X21815Y30050D02*X21890Y29975D01*
X22520Y30050D02*Y29825D01*
X22595Y29750D01*
X22745D01*
X22820Y29825D01*
Y30050D02*Y29825D01*
X23075Y29975D02*Y29750D01*
Y29975D02*X23150Y30050D01*
X23225D01*
X23300Y29975D01*
Y29750D01*
Y29975D02*X23375Y30050D01*
X23450D01*
X23525Y29975D01*
Y29750D01*
X23000Y30050D02*X23075Y29975D01*
X24051Y30350D02*Y29750D01*
X24276Y30350D02*X24351Y30275D01*
Y29825D01*
X24276Y29750D02*X24351Y29825D01*
X23976Y29750D02*X24276D01*
X23976Y30350D02*X24276D01*
X24531Y30200D02*Y30125D01*
Y29975D02*Y29750D01*
X24756Y29975D02*Y29750D01*
Y29975D02*X24831Y30050D01*
X24906D01*
X24981Y29975D01*
Y29750D01*
Y29975D02*X25056Y30050D01*
X25131D01*
X25206Y29975D01*
Y29750D01*
X24681Y30050D02*X24756Y29975D01*
X25461Y29750D02*X25686D01*
X25386Y29825D02*X25461Y29750D01*
X25386Y29975D02*Y29825D01*
Y29975D02*X25461Y30050D01*
X25611D01*
X25686Y29975D01*
X25386Y29900D02*X25686D01*
Y29975D02*Y29900D01*
X25941Y29975D02*Y29750D01*
Y29975D02*X26016Y30050D01*
X26091D01*
X26166Y29975D01*
Y29750D01*
X25866Y30050D02*X25941Y29975D01*
X26421Y29750D02*X26646D01*
X26721Y29825D01*
X26646Y29900D02*X26721Y29825D01*
X26421Y29900D02*X26646D01*
X26346Y29975D02*X26421Y29900D01*
X26346Y29975D02*X26421Y30050D01*
X26646D01*
X26721Y29975D01*
X26346Y29825D02*X26421Y29750D01*
X26901Y30200D02*Y30125D01*
Y29975D02*Y29750D01*
X27052Y29975D02*Y29825D01*
Y29975D02*X27127Y30050D01*
X27277D01*
X27352Y29975D01*
Y29825D01*
X27277Y29750D02*X27352Y29825D01*
X27127Y29750D02*X27277D01*
X27052Y29825D02*X27127Y29750D01*
X27607Y29975D02*Y29750D01*
Y29975D02*X27682Y30050D01*
X27757D01*
X27832Y29975D01*
Y29750D01*
X27532Y30050D02*X27607Y29975D01*
X28087Y29750D02*X28312D01*
X28387Y29825D01*
X28312Y29900D02*X28387Y29825D01*
X28087Y29900D02*X28312D01*
X28012Y29975D02*X28087Y29900D01*
X28012Y29975D02*X28087Y30050D01*
X28312D01*
X28387Y29975D01*
X28012Y29825D02*X28087Y29750D01*
X28567Y30125D02*X28642D01*
X28567Y29975D02*X28642D01*
X29167Y29750D02*X29317D01*
X29242Y30350D02*Y29750D01*
X29092Y30200D02*X29242Y30350D01*
X29497Y30275D02*X29572Y30350D01*
X29722D01*
X29797Y30275D01*
Y29825D01*
X29722Y29750D02*X29797Y29825D01*
X29572Y29750D02*X29722D01*
X29497Y29825D02*X29572Y29750D01*
Y30050D02*X29797D01*
X29978Y29825D02*X30053Y29750D01*
X29978Y30275D02*Y29825D01*
Y30275D02*X30053Y30350D01*
X30203D01*
X30278Y30275D01*
Y29825D01*
X30203Y29750D02*X30278Y29825D01*
X30053Y29750D02*X30203D01*
X29978Y29900D02*X30278Y30200D01*
X30458Y29825D02*X30533Y29750D01*
X30458Y30275D02*Y29825D01*
Y30275D02*X30533Y30350D01*
X30683D01*
X30758Y30275D01*
Y29825D01*
X30683Y29750D02*X30758Y29825D01*
X30533Y29750D02*X30683D01*
X30458Y29900D02*X30758Y30200D01*
X31283Y29975D02*Y29750D01*
Y29975D02*X31358Y30050D01*
X31433D01*
X31508Y29975D01*
Y29750D01*
Y29975D02*X31583Y30050D01*
X31658D01*
X31733Y29975D01*
Y29750D01*
X31208Y30050D02*X31283Y29975D01*
X31913Y30200D02*Y30125D01*
Y29975D02*Y29750D01*
X32063Y30350D02*Y29825D01*
X32138Y29750D01*
X32363D02*X32588D01*
X32663Y29825D01*
X32588Y29900D02*X32663Y29825D01*
X32363Y29900D02*X32588D01*
X32288Y29975D02*X32363Y29900D01*
X32288Y29975D02*X32363Y30050D01*
X32588D01*
X32663Y29975D01*
X32288Y29825D02*X32363Y29750D01*
X33113Y30050D02*Y29825D01*
X33188Y29750D01*
X33263D01*
X33338Y29825D01*
Y30050D02*Y29825D01*
X33413Y29750D01*
X33488D01*
X33563Y29825D01*
Y30050D02*Y29825D01*
X33744Y30200D02*Y30125D01*
Y29975D02*Y29750D01*
X34194Y30350D02*Y29750D01*
X34119D02*X34194Y29825D01*
X33969Y29750D02*X34119D01*
X33894Y29825D02*X33969Y29750D01*
X33894Y29975D02*Y29825D01*
Y29975D02*X33969Y30050D01*
X34119D01*
X34194Y29975D01*
X34449Y29750D02*X34674D01*
X34374Y29825D02*X34449Y29750D01*
X34374Y29975D02*Y29825D01*
Y29975D02*X34449Y30050D01*
X34599D01*
X34674Y29975D01*
X34374Y29900D02*X34674D01*
Y29975D02*Y29900D01*
X34854Y29600D02*X35004Y29750D01*
X35454Y30275D02*X35529Y30350D01*
X35754D01*
X35829Y30275D01*
Y30125D01*
X35454Y29750D02*X35829Y30125D01*
X35454Y29750D02*X35829D01*
X36009D02*X36309Y30050D01*
Y30275D02*Y30050D01*
X36234Y30350D02*X36309Y30275D01*
X36084Y30350D02*X36234D01*
X36009Y30275D02*X36084Y30350D01*
X36009Y30275D02*Y30125D01*
X36084Y30050D01*
X36309D01*
X36489Y29825D02*X36564Y29750D01*
X36489Y30275D02*Y29825D01*
Y30275D02*X36564Y30350D01*
X36714D01*
X36789Y30275D01*
Y29825D01*
X36714Y29750D02*X36789Y29825D01*
X36564Y29750D02*X36714D01*
X36489Y29900D02*X36789Y30200D01*
X36970Y29825D02*X37045Y29750D01*
X36970Y30275D02*Y29825D01*
Y30275D02*X37045Y30350D01*
X37195D01*
X37270Y30275D01*
Y29825D01*
X37195Y29750D02*X37270Y29825D01*
X37045Y29750D02*X37195D01*
X36970Y29900D02*X37270Y30200D01*
X37795Y29975D02*Y29750D01*
Y29975D02*X37870Y30050D01*
X37945D01*
X38020Y29975D01*
Y29750D01*
Y29975D02*X38095Y30050D01*
X38170D01*
X38245Y29975D01*
Y29750D01*
X37720Y30050D02*X37795Y29975D01*
X38425Y30200D02*Y30125D01*
Y29975D02*Y29750D01*
X38575Y30350D02*Y29825D01*
X38650Y29750D01*
X38875D02*X39100D01*
X39175Y29825D01*
X39100Y29900D02*X39175Y29825D01*
X38875Y29900D02*X39100D01*
X38800Y29975D02*X38875Y29900D01*
X38800Y29975D02*X38875Y30050D01*
X39100D01*
X39175Y29975D01*
X38800Y29825D02*X38875Y29750D01*
X39625Y30350D02*Y29750D01*
Y29975D02*X39700Y30050D01*
X39850D01*
X39925Y29975D01*
Y29750D01*
X40106Y30200D02*Y30125D01*
Y29975D02*Y29750D01*
X40481Y30050D02*X40556Y29975D01*
X40331Y30050D02*X40481D01*
X40256Y29975D02*X40331Y30050D01*
X40256Y29975D02*Y29825D01*
X40331Y29750D01*
X40481D01*
X40556Y29825D01*
X40256Y29600D02*X40331Y29525D01*
X40481D01*
X40556Y29600D01*
Y30050D02*Y29600D01*
X40736Y30350D02*Y29750D01*
Y29975D02*X40811Y30050D01*
X40961D01*
X41036Y29975D01*
Y29750D01*
X0Y-950D02*X300D01*
X375Y-875D01*
Y-725D02*Y-875D01*
X300Y-650D02*X375Y-725D01*
X75Y-650D02*X300D01*
X75Y-350D02*Y-950D01*
X0Y-350D02*X300D01*
X375Y-425D01*
Y-575D01*
X300Y-650D02*X375Y-575D01*
X555Y-725D02*Y-875D01*
Y-725D02*X630Y-650D01*
X780D01*
X855Y-725D01*
Y-875D01*
X780Y-950D02*X855Y-875D01*
X630Y-950D02*X780D01*
X555Y-875D02*X630Y-950D01*
X1260Y-650D02*X1335Y-725D01*
X1110Y-650D02*X1260D01*
X1035Y-725D02*X1110Y-650D01*
X1035Y-725D02*Y-875D01*
X1110Y-950D01*
X1335Y-650D02*Y-875D01*
X1410Y-950D01*
X1110D02*X1260D01*
X1335Y-875D01*
X1665Y-725D02*Y-950D01*
Y-725D02*X1740Y-650D01*
X1890D01*
X1590D02*X1665Y-725D01*
X2370Y-350D02*Y-950D01*
X2295D02*X2370Y-875D01*
X2145Y-950D02*X2295D01*
X2070Y-875D02*X2145Y-950D01*
X2070Y-725D02*Y-875D01*
Y-725D02*X2145Y-650D01*
X2295D01*
X2370Y-725D01*
X2820D02*Y-875D01*
Y-725D02*X2895Y-650D01*
X3045D01*
X3120Y-725D01*
Y-875D01*
X3045Y-950D02*X3120Y-875D01*
X2895Y-950D02*X3045D01*
X2820Y-875D02*X2895Y-950D01*
X3300Y-650D02*Y-875D01*
X3375Y-950D01*
X3525D01*
X3600Y-875D01*
Y-650D02*Y-875D01*
X3856Y-350D02*Y-875D01*
X3931Y-950D01*
X3781Y-575D02*X3931D01*
X4081Y-350D02*Y-875D01*
X4156Y-950D01*
X4306Y-500D02*Y-575D01*
Y-725D02*Y-950D01*
X4531Y-725D02*Y-950D01*
Y-725D02*X4606Y-650D01*
X4681D01*
X4756Y-725D01*
Y-950D01*
X4456Y-650D02*X4531Y-725D01*
X5011Y-950D02*X5236D01*
X4936Y-875D02*X5011Y-950D01*
X4936Y-725D02*Y-875D01*
Y-725D02*X5011Y-650D01*
X5161D01*
X5236Y-725D01*
X4936Y-800D02*X5236D01*
Y-725D02*Y-800D01*
X5686Y-500D02*Y-575D01*
Y-725D02*Y-950D01*
X5911D02*X6136D01*
X6211Y-875D01*
X6136Y-800D02*X6211Y-875D01*
X5911Y-800D02*X6136D01*
X5836Y-725D02*X5911Y-800D01*
X5836Y-725D02*X5911Y-650D01*
X6136D01*
X6211Y-725D01*
X5836Y-875D02*X5911Y-950D01*
X6737Y-350D02*Y-875D01*
X6812Y-950D01*
X6662Y-575D02*X6812D01*
X6962Y-350D02*Y-950D01*
Y-725D02*X7037Y-650D01*
X7187D01*
X7262Y-725D01*
Y-950D01*
X7517D02*X7742D01*
X7442Y-875D02*X7517Y-950D01*
X7442Y-725D02*Y-875D01*
Y-725D02*X7517Y-650D01*
X7667D01*
X7742Y-725D01*
X7442Y-800D02*X7742D01*
Y-725D02*Y-800D01*
X8267Y-650D02*X8492D01*
X8192Y-725D02*X8267Y-650D01*
X8192Y-725D02*Y-875D01*
X8267Y-950D01*
X8492D01*
X8747D02*X8972D01*
X8672Y-875D02*X8747Y-950D01*
X8672Y-725D02*Y-875D01*
Y-725D02*X8747Y-650D01*
X8897D01*
X8972Y-725D01*
X8672Y-800D02*X8972D01*
Y-725D02*Y-800D01*
X9227Y-725D02*Y-950D01*
Y-725D02*X9302Y-650D01*
X9377D01*
X9452Y-725D01*
Y-950D01*
X9152Y-650D02*X9227Y-725D01*
X9708Y-350D02*Y-875D01*
X9783Y-950D01*
X9633Y-575D02*X9783D01*
X10008Y-950D02*X10233D01*
X9933Y-875D02*X10008Y-950D01*
X9933Y-725D02*Y-875D01*
Y-725D02*X10008Y-650D01*
X10158D01*
X10233Y-725D01*
X9933Y-800D02*X10233D01*
Y-725D02*Y-800D01*
X10488Y-725D02*Y-950D01*
Y-725D02*X10563Y-650D01*
X10713D01*
X10413D02*X10488Y-725D01*
X10893Y-350D02*Y-875D01*
X10968Y-950D01*
X11118Y-500D02*Y-575D01*
Y-725D02*Y-950D01*
X11343Y-725D02*Y-950D01*
Y-725D02*X11418Y-650D01*
X11493D01*
X11568Y-725D01*
Y-950D01*
X11268Y-650D02*X11343Y-725D01*
X11823Y-950D02*X12048D01*
X11748Y-875D02*X11823Y-950D01*
X11748Y-725D02*Y-875D01*
Y-725D02*X11823Y-650D01*
X11973D01*
X12048Y-725D01*
X11748Y-800D02*X12048D01*
Y-725D02*Y-800D01*
X12499Y-725D02*Y-875D01*
Y-725D02*X12574Y-650D01*
X12724D01*
X12799Y-725D01*
Y-875D01*
X12724Y-950D02*X12799Y-875D01*
X12574Y-950D02*X12724D01*
X12499Y-875D02*X12574Y-950D01*
X13054Y-425D02*Y-950D01*
Y-425D02*X13129Y-350D01*
X13204D01*
X12979Y-650D02*X13129D01*
X13699Y-350D02*Y-875D01*
X13774Y-950D01*
X13624Y-575D02*X13774D01*
X13924Y-350D02*Y-950D01*
Y-725D02*X13999Y-650D01*
X14149D01*
X14224Y-725D01*
Y-950D01*
X14404Y-500D02*Y-575D01*
Y-725D02*Y-950D01*
X14629D02*X14854D01*
X14929Y-875D01*
X14854Y-800D02*X14929Y-875D01*
X14629Y-800D02*X14854D01*
X14554Y-725D02*X14629Y-800D01*
X14554Y-725D02*X14629Y-650D01*
X14854D01*
X14929Y-725D01*
X14554Y-875D02*X14629Y-950D01*
X15454D02*X15604D01*
X15529Y-350D02*Y-950D01*
X15379Y-500D02*X15529Y-350D01*
X15785Y-875D02*X15860Y-950D01*
X15785Y-425D02*Y-875D01*
Y-425D02*X15860Y-350D01*
X16010D01*
X16085Y-425D01*
Y-875D01*
X16010Y-950D02*X16085Y-875D01*
X15860Y-950D02*X16010D01*
X15785Y-800D02*X16085Y-500D01*
X16610Y-725D02*Y-950D01*
Y-725D02*X16685Y-650D01*
X16760D01*
X16835Y-725D01*
Y-950D01*
Y-725D02*X16910Y-650D01*
X16985D01*
X17060Y-725D01*
Y-950D01*
X16535Y-650D02*X16610Y-725D01*
X17240Y-500D02*Y-575D01*
Y-725D02*Y-950D01*
X17390Y-350D02*Y-875D01*
X17465Y-950D01*
X17960Y-725D02*Y-950D01*
Y-725D02*X18035Y-650D01*
X18185D01*
X17885D02*X17960Y-725D01*
X18440Y-950D02*X18665D01*
X18365Y-875D02*X18440Y-950D01*
X18365Y-725D02*Y-875D01*
Y-725D02*X18440Y-650D01*
X18590D01*
X18665Y-725D01*
X18365Y-800D02*X18665D01*
Y-725D02*Y-800D01*
X18921Y-650D02*X19146D01*
X18846Y-725D02*X18921Y-650D01*
X18846Y-725D02*Y-875D01*
X18921Y-950D01*
X19146D01*
X19401Y-350D02*Y-875D01*
X19476Y-950D01*
X19326Y-575D02*X19476D01*
X19851Y-650D02*X19926Y-725D01*
X19701Y-650D02*X19851D01*
X19626Y-725D02*X19701Y-650D01*
X19626Y-725D02*Y-875D01*
X19701Y-950D01*
X19926Y-650D02*Y-875D01*
X20001Y-950D01*
X19701D02*X19851D01*
X19926Y-875D01*
X20256Y-725D02*Y-950D01*
Y-725D02*X20331Y-650D01*
X20406D01*
X20481Y-725D01*
Y-950D01*
X20181Y-650D02*X20256Y-725D01*
X20886Y-650D02*X20961Y-725D01*
X20736Y-650D02*X20886D01*
X20661Y-725D02*X20736Y-650D01*
X20661Y-725D02*Y-875D01*
X20736Y-950D01*
X20886D01*
X20961Y-875D01*
X20661Y-1100D02*X20736Y-1175D01*
X20886D01*
X20961Y-1100D01*
Y-650D02*Y-1100D01*
X21141Y-350D02*Y-875D01*
X21216Y-950D01*
X21441D02*X21666D01*
X21366Y-875D02*X21441Y-950D01*
X21366Y-725D02*Y-875D01*
Y-725D02*X21441Y-650D01*
X21591D01*
X21666Y-725D01*
X21366Y-800D02*X21666D01*
Y-725D02*Y-800D01*
X22117Y-650D02*X22417D01*
X22867Y-875D02*X22942Y-950D01*
X22867Y-425D02*Y-875D01*
Y-425D02*X22942Y-350D01*
X23092D01*
X23167Y-425D01*
Y-875D01*
X23092Y-950D02*X23167Y-875D01*
X22942Y-950D02*X23092D01*
X22867Y-800D02*X23167Y-500D01*
X23347Y-1100D02*X23497Y-950D01*
X23677Y-875D02*X23752Y-950D01*
X23677Y-425D02*Y-875D01*
Y-425D02*X23752Y-350D01*
X23902D01*
X23977Y-425D01*
Y-875D01*
X23902Y-950D02*X23977Y-875D01*
X23752Y-950D02*X23902D01*
X23677Y-800D02*X23977Y-500D01*
X24502Y-350D02*Y-875D01*
X24577Y-950D01*
X24427Y-575D02*X24577D01*
X24727Y-725D02*Y-875D01*
Y-725D02*X24802Y-650D01*
X24952D01*
X25027Y-725D01*
Y-875D01*
X24952Y-950D02*X25027Y-875D01*
X24802Y-950D02*X24952D01*
X24727Y-875D02*X24802Y-950D01*
X25552D02*X25702D01*
X25627Y-350D02*Y-950D01*
X25477Y-500D02*X25627Y-350D01*
X25883Y-425D02*X25958Y-350D01*
X26108D01*
X26183Y-425D01*
Y-875D01*
X26108Y-950D02*X26183Y-875D01*
X25958Y-950D02*X26108D01*
X25883Y-875D02*X25958Y-950D01*
Y-650D02*X26183D01*
X26363Y-875D02*X26438Y-950D01*
X26363Y-425D02*Y-875D01*
Y-425D02*X26438Y-350D01*
X26588D01*
X26663Y-425D01*
Y-875D01*
X26588Y-950D02*X26663Y-875D01*
X26438Y-950D02*X26588D01*
X26363Y-800D02*X26663Y-500D01*
X26843Y-875D02*X26918Y-950D01*
X26843Y-425D02*Y-875D01*
Y-425D02*X26918Y-350D01*
X27068D01*
X27143Y-425D01*
Y-875D01*
X27068Y-950D02*X27143Y-875D01*
X26918Y-950D02*X27068D01*
X26843Y-800D02*X27143Y-500D01*
X27323Y-1100D02*X27473Y-950D01*
X27653Y-425D02*X27728Y-350D01*
X27953D01*
X28028Y-425D01*
Y-575D01*
X27653Y-950D02*X28028Y-575D01*
X27653Y-950D02*X28028D01*
X28208D02*X28508Y-650D01*
Y-425D02*Y-650D01*
X28433Y-350D02*X28508Y-425D01*
X28283Y-350D02*X28433D01*
X28208Y-425D02*X28283Y-350D01*
X28208Y-425D02*Y-575D01*
X28283Y-650D01*
X28508D01*
X28689Y-875D02*X28764Y-950D01*
X28689Y-425D02*Y-875D01*
Y-425D02*X28764Y-350D01*
X28914D01*
X28989Y-425D01*
Y-875D01*
X28914Y-950D02*X28989Y-875D01*
X28764Y-950D02*X28914D01*
X28689Y-800D02*X28989Y-500D01*
X29169Y-875D02*X29244Y-950D01*
X29169Y-425D02*Y-875D01*
Y-425D02*X29244Y-350D01*
X29394D01*
X29469Y-425D01*
Y-875D01*
X29394Y-950D02*X29469Y-875D01*
X29244Y-950D02*X29394D01*
X29169Y-800D02*X29469Y-500D01*
X29994Y-725D02*Y-950D01*
Y-725D02*X30069Y-650D01*
X30144D01*
X30219Y-725D01*
Y-950D01*
Y-725D02*X30294Y-650D01*
X30369D01*
X30444Y-725D01*
Y-950D01*
X29919Y-650D02*X29994Y-725D01*
X30624Y-500D02*Y-575D01*
Y-725D02*Y-950D01*
X30774Y-350D02*Y-875D01*
X30849Y-950D01*
X31074D02*X31299D01*
X31374Y-875D01*
X31299Y-800D02*X31374Y-875D01*
X31074Y-800D02*X31299D01*
X30999Y-725D02*X31074Y-800D01*
X30999Y-725D02*X31074Y-650D01*
X31299D01*
X31374Y-725D01*
X30999Y-875D02*X31074Y-950D01*
X20075Y31850D02*Y31250D01*
X20300Y31850D02*X20375Y31775D01*
Y31325D01*
X20300Y31250D02*X20375Y31325D01*
X20000Y31250D02*X20300D01*
X20000Y31850D02*X20300D01*
X20780Y31550D02*X20855Y31475D01*
X20630Y31550D02*X20780D01*
X20555Y31475D02*X20630Y31550D01*
X20555Y31475D02*Y31325D01*
X20630Y31250D01*
X20855Y31550D02*Y31325D01*
X20930Y31250D01*
X20630D02*X20780D01*
X20855Y31325D01*
X21185Y31850D02*Y31325D01*
X21260Y31250D01*
X21110Y31625D02*X21260D01*
X21485Y31250D02*X21710D01*
X21410Y31325D02*X21485Y31250D01*
X21410Y31475D02*Y31325D01*
Y31475D02*X21485Y31550D01*
X21635D01*
X21710Y31475D01*
X21410Y31400D02*X21710D01*
Y31475D02*Y31400D01*
X21890Y31625D02*X21965D01*
X21890Y31475D02*X21965D01*
X22415Y31850D02*Y31250D01*
Y31850D02*X22640Y31625D01*
X22865Y31850D01*
Y31250D01*
X23045Y31475D02*Y31325D01*
Y31475D02*X23120Y31550D01*
X23270D01*
X23345Y31475D01*
Y31325D01*
X23270Y31250D02*X23345Y31325D01*
X23120Y31250D02*X23270D01*
X23045Y31325D02*X23120Y31250D01*
X23601Y31475D02*Y31250D01*
Y31475D02*X23676Y31550D01*
X23751D01*
X23826Y31475D01*
Y31250D01*
X23526Y31550D02*X23601Y31475D01*
X24276Y31325D02*X24351Y31250D01*
X24276Y31775D02*Y31325D01*
Y31775D02*X24351Y31850D01*
X24501D01*
X24576Y31775D01*
Y31325D01*
X24501Y31250D02*X24576Y31325D01*
X24351Y31250D02*X24501D01*
X24276Y31400D02*X24576Y31700D01*
X24756Y31250D02*X25131Y31625D01*
Y31850D02*Y31625D01*
X24756Y31850D02*X25131D01*
X25581D02*X25806D01*
Y31325D01*
X25731Y31250D02*X25806Y31325D01*
X25656Y31250D02*X25731D01*
X25581Y31325D02*X25656Y31250D01*
X25986Y31550D02*Y31325D01*
X26061Y31250D01*
X26211D01*
X26286Y31325D01*
Y31550D02*Y31325D01*
X26466Y31850D02*Y31325D01*
X26541Y31250D01*
X26961Y31775D02*X27036Y31850D01*
X27261D01*
X27336Y31775D01*
Y31625D01*
X26961Y31250D02*X27336Y31625D01*
X26961Y31250D02*X27336D01*
X27517Y31325D02*X27592Y31250D01*
X27517Y31775D02*Y31325D01*
Y31775D02*X27592Y31850D01*
X27742D01*
X27817Y31775D01*
Y31325D01*
X27742Y31250D02*X27817Y31325D01*
X27592Y31250D02*X27742D01*
X27517Y31400D02*X27817Y31700D01*
X27997Y31325D02*X28072Y31250D01*
X27997Y31775D02*Y31325D01*
Y31775D02*X28072Y31850D01*
X28222D01*
X28297Y31775D01*
Y31325D01*
X28222Y31250D02*X28297Y31325D01*
X28072Y31250D02*X28222D01*
X27997Y31400D02*X28297Y31700D01*
X28477Y31325D02*X28552Y31250D01*
X28477Y31475D02*Y31325D01*
Y31475D02*X28552Y31550D01*
X28702D01*
X28777Y31475D01*
Y31325D01*
X28702Y31250D02*X28777Y31325D01*
X28552Y31250D02*X28702D01*
X28477Y31625D02*X28552Y31550D01*
X28477Y31775D02*Y31625D01*
Y31775D02*X28552Y31850D01*
X28702D01*
X28777Y31775D01*
Y31625D01*
X28702Y31550D02*X28777Y31625D01*
X29227Y31325D02*X29302Y31250D01*
X29227Y31775D02*Y31325D01*
Y31775D02*X29302Y31850D01*
X29452D01*
X29527Y31775D01*
Y31325D01*
X29452Y31250D02*X29527Y31325D01*
X29302Y31250D02*X29452D01*
X29227Y31400D02*X29527Y31700D01*
X29707Y31775D02*X29782Y31850D01*
X30007D01*
X30082Y31775D01*
Y31625D01*
X29707Y31250D02*X30082Y31625D01*
X29707Y31250D02*X30082D01*
X30262Y31625D02*X30337D01*
X30262Y31475D02*X30337D01*
X30518Y31775D02*X30593Y31850D01*
X30743D01*
X30818Y31775D01*
Y31325D01*
X30743Y31250D02*X30818Y31325D01*
X30593Y31250D02*X30743D01*
X30518Y31325D02*X30593Y31250D01*
Y31550D02*X30818D01*
X30998Y31250D02*X31373Y31625D01*
Y31850D02*Y31625D01*
X30998Y31850D02*X31373D01*
X31553Y31625D02*X31628D01*
X31553Y31475D02*X31628D01*
X31883Y31250D02*X32033D01*
X31958Y31850D02*Y31250D01*
X31808Y31700D02*X31958Y31850D01*
X32213Y31775D02*X32288Y31850D01*
X32438D01*
X32513Y31775D01*
Y31325D01*
X32438Y31250D02*X32513Y31325D01*
X32288Y31250D02*X32438D01*
X32213Y31325D02*X32288Y31250D01*
Y31550D02*X32513D01*
X33038Y31850D02*Y31250D01*
X32963Y31850D02*X33263D01*
X33338Y31775D01*
Y31625D01*
X33263Y31550D02*X33338Y31625D01*
X33038Y31550D02*X33263D01*
X33518Y31850D02*Y31250D01*
Y31850D02*X33743Y31625D01*
X33968Y31850D01*
Y31250D01*
X34719Y31850D02*X34794Y31775D01*
X34494Y31850D02*X34719D01*
X34419Y31775D02*X34494Y31850D01*
X34419Y31775D02*Y31325D01*
X34494Y31250D01*
X34719D01*
X34794Y31325D01*
Y31475D02*Y31325D01*
X34719Y31550D02*X34794Y31475D01*
X34569Y31550D02*X34719D01*
X34974Y31850D02*Y31250D01*
Y31850D02*X35199Y31625D01*
X35424Y31850D01*
Y31250D01*
X35604Y31850D02*X35904D01*
X35754D02*Y31250D01*
X36354Y31850D02*Y31325D01*
X36429Y31250D01*
X36579D01*
X36654Y31325D01*
Y31850D02*Y31325D01*
X36834Y31850D02*X37134D01*
X36984D02*Y31250D01*
X37389D02*X37614D01*
X37314Y31325D02*X37389Y31250D01*
X37314Y31775D02*Y31325D01*
Y31775D02*X37389Y31850D01*
X37614D01*
X20000Y33275D02*Y32750D01*
Y33275D02*X20075Y33350D01*
X20300D01*
X20375Y33275D01*
Y32750D01*
X20000Y33050D02*X20375D01*
X20555D02*Y32825D01*
X20630Y32750D01*
X20780D01*
X20855Y32825D01*
Y33050D02*Y32825D01*
X21110Y33350D02*Y32825D01*
X21185Y32750D01*
X21035Y33125D02*X21185D01*
X21335Y33350D02*Y32750D01*
Y32975D02*X21410Y33050D01*
X21560D01*
X21635Y32975D01*
Y32750D01*
X21815Y32975D02*Y32825D01*
Y32975D02*X21890Y33050D01*
X22040D01*
X22115Y32975D01*
Y32825D01*
X22040Y32750D02*X22115Y32825D01*
X21890Y32750D02*X22040D01*
X21815Y32825D02*X21890Y32750D01*
X22370Y32975D02*Y32750D01*
Y32975D02*X22445Y33050D01*
X22595D01*
X22295D02*X22370Y32975D01*
X22775Y33125D02*X22850D01*
X22775Y32975D02*X22850D01*
X23376Y32750D02*X23601D01*
X23676Y32825D01*
X23601Y32900D02*X23676Y32825D01*
X23376Y32900D02*X23601D01*
X23301Y32975D02*X23376Y32900D01*
X23301Y32975D02*X23376Y33050D01*
X23601D01*
X23676Y32975D01*
X23301Y32825D02*X23376Y32750D01*
X23931D02*X24156D01*
X23856Y32825D02*X23931Y32750D01*
X23856Y32975D02*Y32825D01*
Y32975D02*X23931Y33050D01*
X24081D01*
X24156Y32975D01*
X23856Y32900D02*X24156D01*
Y32975D02*Y32900D01*
X24561Y33050D02*X24636Y32975D01*
X24411Y33050D02*X24561D01*
X24336Y32975D02*X24411Y33050D01*
X24336Y32975D02*Y32825D01*
X24411Y32750D01*
X24636Y33050D02*Y32825D01*
X24711Y32750D01*
X24411D02*X24561D01*
X24636Y32825D01*
X24966Y32975D02*Y32750D01*
Y32975D02*X25041Y33050D01*
X25116D01*
X25191Y32975D01*
Y32750D01*
X24891Y33050D02*X24966Y32975D01*
X20000Y34850D02*X20300D01*
X20150D02*Y34250D01*
X20480Y34700D02*Y34625D01*
Y34475D02*Y34250D01*
X20705Y34850D02*Y34325D01*
X20780Y34250D01*
X20630Y34625D02*X20780D01*
X20930Y34850D02*Y34325D01*
X21005Y34250D01*
X21230D02*X21455D01*
X21155Y34325D02*X21230Y34250D01*
X21155Y34475D02*Y34325D01*
Y34475D02*X21230Y34550D01*
X21380D01*
X21455Y34475D01*
X21155Y34400D02*X21455D01*
Y34475D02*Y34400D01*
X21635Y34625D02*X21710D01*
X21635Y34475D02*X21710D01*
X22160Y34325D02*X22235Y34250D01*
X22160Y34775D02*X22235Y34850D01*
X22160Y34775D02*Y34325D01*
X22416Y34550D02*Y34325D01*
X22491Y34250D01*
X22641D01*
X22716Y34325D01*
Y34550D02*Y34325D01*
X22971Y34475D02*Y34250D01*
Y34475D02*X23046Y34550D01*
X23121D01*
X23196Y34475D01*
Y34250D01*
X22896Y34550D02*X22971Y34475D01*
X23376Y34850D02*Y34250D01*
Y34475D02*X23601Y34250D01*
X23376Y34475D02*X23526Y34625D01*
X23856Y34475D02*Y34250D01*
Y34475D02*X23931Y34550D01*
X24006D01*
X24081Y34475D01*
Y34250D01*
X23781Y34550D02*X23856Y34475D01*
X24261D02*Y34325D01*
Y34475D02*X24336Y34550D01*
X24486D01*
X24561Y34475D01*
Y34325D01*
X24486Y34250D02*X24561Y34325D01*
X24336Y34250D02*X24486D01*
X24261Y34325D02*X24336Y34250D01*
X24741Y34550D02*Y34325D01*
X24816Y34250D01*
X24891D01*
X24966Y34325D01*
Y34550D02*Y34325D01*
X25041Y34250D01*
X25116D01*
X25191Y34325D01*
Y34550D02*Y34325D01*
X25446Y34475D02*Y34250D01*
Y34475D02*X25521Y34550D01*
X25596D01*
X25671Y34475D01*
Y34250D01*
X25371Y34550D02*X25446Y34475D01*
X25852Y34850D02*X25927Y34775D01*
Y34325D01*
X25852Y34250D02*X25927Y34325D01*
X26377Y34550D02*X26677D01*
X27127Y34850D02*Y34250D01*
Y34850D02*X27427D01*
X27127Y34550D02*X27352D01*
X27832D02*X27907Y34475D01*
X27682Y34550D02*X27832D01*
X27607Y34475D02*X27682Y34550D01*
X27607Y34475D02*Y34325D01*
X27682Y34250D01*
X27907Y34550D02*Y34325D01*
X27982Y34250D01*
X27682D02*X27832D01*
X27907Y34325D01*
X28162Y34850D02*Y34250D01*
Y34325D02*X28237Y34250D01*
X28387D01*
X28462Y34325D01*
Y34475D02*Y34325D01*
X28387Y34550D02*X28462Y34475D01*
X28237Y34550D02*X28387D01*
X28162Y34475D02*X28237Y34550D01*
X28717Y34475D02*Y34250D01*
Y34475D02*X28792Y34550D01*
X28942D01*
X28642D02*X28717Y34475D01*
X29123Y34700D02*Y34625D01*
Y34475D02*Y34250D01*
X29348Y34550D02*X29573D01*
X29273Y34475D02*X29348Y34550D01*
X29273Y34475D02*Y34325D01*
X29348Y34250D01*
X29573D01*
X29978Y34550D02*X30053Y34475D01*
X29828Y34550D02*X29978D01*
X29753Y34475D02*X29828Y34550D01*
X29753Y34475D02*Y34325D01*
X29828Y34250D01*
X30053Y34550D02*Y34325D01*
X30128Y34250D01*
X29828D02*X29978D01*
X30053Y34325D01*
X30383Y34850D02*Y34325D01*
X30458Y34250D01*
X30308Y34625D02*X30458D01*
X30608Y34700D02*Y34625D01*
Y34475D02*Y34250D01*
X30758Y34475D02*Y34325D01*
Y34475D02*X30833Y34550D01*
X30983D01*
X31058Y34475D01*
Y34325D01*
X30983Y34250D02*X31058Y34325D01*
X30833Y34250D02*X30983D01*
X30758Y34325D02*X30833Y34250D01*
X31313Y34475D02*Y34250D01*
Y34475D02*X31388Y34550D01*
X31463D01*
X31538Y34475D01*
Y34250D01*
X31238Y34550D02*X31313Y34475D01*
X32064Y34850D02*Y34250D01*
X32289Y34850D02*X32364Y34775D01*
Y34325D01*
X32289Y34250D02*X32364Y34325D01*
X31989Y34250D02*X32289D01*
X31989Y34850D02*X32289D01*
X32619Y34475D02*Y34250D01*
Y34475D02*X32694Y34550D01*
X32844D01*
X32544D02*X32619Y34475D01*
X33249Y34550D02*X33324Y34475D01*
X33099Y34550D02*X33249D01*
X33024Y34475D02*X33099Y34550D01*
X33024Y34475D02*Y34325D01*
X33099Y34250D01*
X33324Y34550D02*Y34325D01*
X33399Y34250D01*
X33099D02*X33249D01*
X33324Y34325D01*
X33579Y34550D02*Y34325D01*
X33654Y34250D01*
X33729D01*
X33804Y34325D01*
Y34550D02*Y34325D01*
X33879Y34250D01*
X33954D01*
X34029Y34325D01*
Y34550D02*Y34325D01*
X34209Y34700D02*Y34625D01*
Y34475D02*Y34250D01*
X34434Y34475D02*Y34250D01*
Y34475D02*X34509Y34550D01*
X34584D01*
X34659Y34475D01*
Y34250D01*
X34359Y34550D02*X34434Y34475D01*
X35064Y34550D02*X35139Y34475D01*
X34914Y34550D02*X35064D01*
X34839Y34475D02*X34914Y34550D01*
X34839Y34475D02*Y34325D01*
X34914Y34250D01*
X35064D01*
X35139Y34325D01*
X34839Y34100D02*X34914Y34025D01*
X35064D01*
X35139Y34100D01*
Y34550D02*Y34100D01*
M02*
