G04 start of page 5 for group -4062 idx -4062
G04 Title: (unknown), soldermask *
G04 Creator: pcb 20080202 *
G04 CreationDate: Mon 07 Jul 2008 02:37:13 PM GMT UTC *
G04 For: sean *
G04 Format: Gerber/RS-274X *
G04 PCB-Dimensions: 130000 290000 *
G04 PCB-Coordinate-Origin: lower left *
%MOIN*%
%FSLAX24Y24*%
%LNBACKMASK*%
%ADD13C,0.0200*%
%ADD35C,0.0660*%
%ADD36C,0.0420*%
%ADD37C,0.0520*%
%ADD38C,0.1260*%
G54D35*X11730Y8080D03*
Y6080D03*
G54D13*G36*
X11400Y9410D02*Y8750D01*
X12060D01*
Y9410D01*
X11400D01*
G37*
G54D36*X8570Y15650D03*
X9070D03*
X9570D03*
X10070D03*
X10570D03*
X11070D03*
X11570D03*
X12070D03*
G54D37*X2711Y18423D03*
X5270D03*
Y16652D03*
X2711D03*
X2710Y26025D03*
Y24254D03*
G54D35*X11730Y7080D03*
G54D13*G36*
X1660Y7440D02*Y6780D01*
X2320D01*
Y7440D01*
X1660D01*
G37*
G36*
X5230Y7880D02*Y7220D01*
X5890D01*
Y7880D01*
X5230D01*
G37*
G54D35*X1990Y6110D03*
X5560Y6550D03*
Y5550D03*
G54D13*G36*
X7680Y3720D02*Y3060D01*
X8340D01*
Y3720D01*
X7680D01*
G37*
G54D35*X7010Y3390D03*
Y2590D03*
X8010D03*
G54D38*X9910Y1490D03*
X5110D03*
G54D13*G36*
X3320Y28340D02*Y27680D01*
X3980D01*
Y28340D01*
X3320D01*
G37*
G54D35*X4650Y28010D03*
G54D13*G36*
X9200Y28070D02*Y27410D01*
X9860D01*
Y28070D01*
X9200D01*
G37*
G54D35*X9530Y26740D03*
Y25740D03*
G54D37*X5269Y26025D03*
Y24254D03*
G54D35*X9530Y24740D03*
Y23740D03*
G54D37*X8810Y22423D03*
X11369D03*
Y20652D03*
X8810D03*
M02*
