G04 start of page 7 for group -4079 idx -4079
G04 Title: (unknown), topsilk *
G04 Creator: pcb 20080202 *
G04 CreationDate: Mon 07 Jul 2008 02:37:13 PM GMT UTC *
G04 For: sean *
G04 Format: Gerber/RS-274X *
G04 PCB-Dimensions: 130000 290000 *
G04 PCB-Coordinate-Origin: lower left *
%MOIN*%
%FSLAX24Y24*%
%LNFRONTSILK*%
%ADD11C,0.0100*%
%ADD13C,0.0200*%
%ADD31C,0.0150*%
%ADD50C,0.0080*%
%ADD51C,0.0158*%
G54D31*X10500Y24200D02*X10300Y24400D01*
G54D11*Y23700D02*X10500Y23900D01*
X10300Y23700D02*X10500Y23500D01*
X11800Y23700D02*X10300D01*
G54D31*Y24000D02*X10700Y24400D01*
X11600Y25300D02*X12000Y25700D01*
X11600D02*X12000Y25300D01*
G54D11*X11800Y25200D02*X11600Y25000D01*
X11800Y25200D02*X12000Y25000D01*
G54D31*Y23300D02*X12400D01*
X12000Y22900D02*X12400D01*
Y23300D02*X12000Y22900D01*
G54D11*X11600Y23900D02*X12000Y23500D01*
X11600D02*X12000Y23900D01*
X11800Y23700D02*Y25200D01*
X2880Y6230D02*X2930Y6180D01*
X2730Y6230D02*X2880D01*
X2680Y6180D02*X2730Y6230D01*
X2680Y6180D02*Y5880D01*
X2730Y5830D01*
X2880D01*
X2930Y5880D01*
Y5980D02*Y5880D01*
X2880Y6030D02*X2930Y5980D01*
X2780Y6030D02*X2880D01*
X3100Y5980D02*Y5830D01*
Y5980D02*X3150Y6030D01*
X3200D01*
X3250Y5980D01*
Y5830D01*
X3050Y6030D02*X3100Y5980D01*
X3570Y6230D02*Y5830D01*
X3520D02*X3570Y5880D01*
X3420Y5830D02*X3520D01*
X3370Y5880D02*X3420Y5830D01*
X3370Y5980D02*Y5880D01*
Y5980D02*X3420Y6030D01*
X3520D01*
X3570Y5980D01*
X6510Y7110D02*Y6760D01*
X6560Y6710D01*
X6660D01*
X6710Y6760D01*
Y7110D02*Y6760D01*
X7030Y7110D02*X7080Y7060D01*
X6880Y7110D02*X7030D01*
X6830Y7060D02*X6880Y7110D01*
X6830Y7060D02*Y6960D01*
X6880Y6910D01*
X7030D01*
X7080Y6860D01*
Y6760D01*
X7030Y6710D02*X7080Y6760D01*
X6880Y6710D02*X7030D01*
X6830Y6760D02*X6880Y6710D01*
X7200D02*X7400D01*
X7450Y6760D01*
Y6860D02*Y6760D01*
X7400Y6910D02*X7450Y6860D01*
X7250Y6910D02*X7400D01*
X7250Y7110D02*Y6710D01*
X7200Y7110D02*X7400D01*
X7450Y7060D01*
Y6960D01*
X7400Y6910D02*X7450Y6960D01*
X6530Y5900D02*X6680D01*
X6530Y5700D02*X6730D01*
X6530Y6100D02*Y5700D01*
Y6100D02*X6730D01*
X6850D02*Y6050D01*
X7100Y5800D01*
Y5700D01*
X6850Y5800D02*Y5700D01*
Y5800D02*X7100Y6050D01*
Y6100D02*Y6050D01*
X7220Y6100D02*X7420D01*
X7320D02*Y5700D01*
X2640Y7210D02*Y6910D01*
X2740Y6810D01*
X2840Y6910D01*
Y7210D02*Y6910D01*
X3010Y7010D02*X3160D01*
X2960Y6960D02*X3010Y7010D01*
X2960Y6960D02*Y6860D01*
X3010Y6810D01*
X3160D01*
X3330Y7010D02*X3480D01*
X3280Y6960D02*X3330Y7010D01*
X3280Y6960D02*Y6860D01*
X3330Y6810D01*
X3480D01*
X3780Y7160D02*X3830Y7210D01*
X3930D01*
X3980Y7160D01*
Y6860D01*
X3930Y6810D02*X3980Y6860D01*
X3830Y6810D02*X3930D01*
X3780Y6860D02*X3830Y6810D01*
Y7010D02*X3980D01*
X4100D02*X4300D01*
X4570Y7210D02*X4620Y7160D01*
X4470Y7210D02*X4570D01*
X4420Y7160D02*X4470Y7210D01*
X4420Y7160D02*Y6860D01*
X4470Y6810D01*
X4570Y7010D02*X4620Y6960D01*
X4420Y7010D02*X4570D01*
X4470Y6810D02*X4570D01*
X4620Y6860D01*
Y6960D02*Y6860D01*
X4740Y7010D02*Y6910D01*
X4840Y6810D01*
X4940Y6910D01*
Y7010D02*Y6910D01*
X10320Y6110D02*X10370Y6060D01*
X10170Y6110D02*X10320D01*
X10120Y6060D02*X10170Y6110D01*
X10120Y6060D02*Y5760D01*
X10170Y5710D01*
X10320D01*
X10370Y5760D01*
Y5860D02*Y5760D01*
X10320Y5910D02*X10370Y5860D01*
X10220Y5910D02*X10320D01*
X10540Y5860D02*Y5710D01*
Y5860D02*X10590Y5910D01*
X10640D01*
X10690Y5860D01*
Y5710D01*
X10490Y5910D02*X10540Y5860D01*
X11010Y6110D02*Y5710D01*
X10960D02*X11010Y5760D01*
X10860Y5710D02*X10960D01*
X10810Y5760D02*X10860Y5710D01*
X10810Y5860D02*Y5760D01*
Y5860D02*X10860Y5910D01*
X10960D01*
X11010Y5860D01*
X680Y21530D02*X755Y21605D01*
X680Y21530D02*Y21305D01*
X755Y21230D02*X680Y21305D01*
X755Y21230D02*X905D01*
X980Y21305D01*
Y21530D02*Y21305D01*
Y21530D02*X1055Y21605D01*
X1205D01*
X1280Y21530D02*X1205Y21605D01*
X1280Y21530D02*Y21305D01*
X1205Y21230D02*X1280Y21305D01*
Y22085D02*Y21860D01*
X1205Y21785D02*X1280Y21860D01*
X1055Y21785D02*X1205D01*
X1055D02*X980Y21860D01*
Y22010D02*Y21860D01*
Y22010D02*X1055Y22085D01*
X1130D02*Y21785D01*
X1055Y22085D02*X1130D01*
X980Y22490D02*X1055Y22565D01*
X980Y22490D02*Y22340D01*
X1055Y22265D02*X980Y22340D01*
X1055Y22265D02*X1205D01*
X1280Y22340D01*
X980Y22565D02*X1205D01*
X1280Y22640D01*
Y22490D02*Y22340D01*
Y22490D02*X1205Y22565D01*
X1055Y22895D02*X1280D01*
X1055D02*X980Y22970D01*
Y23045D02*Y22970D01*
Y23045D02*X1055Y23120D01*
X1280D01*
X980Y22820D02*X1055Y22895D01*
X680Y23645D02*X1280D01*
X680Y23870D02*X755Y23945D01*
X1205D01*
X1280Y23870D02*X1205Y23945D01*
X1280Y23870D02*Y23570D01*
X680Y23870D02*Y23570D01*
X830Y24125D02*X680Y24275D01*
X980Y24680D02*Y24455D01*
X1280Y24755D02*Y24455D01*
X680D02*X1280D01*
X680Y24755D02*Y24455D01*
X1055Y25011D02*X1505D01*
X980Y24936D02*X1055Y25011D01*
X980Y25086D01*
Y25236D02*Y25086D01*
Y25236D02*X1055Y25311D01*
X1205D01*
X1280Y25236D02*X1205Y25311D01*
X1280Y25236D02*Y25086D01*
X1205Y25011D02*X1280Y25086D01*
X980Y25716D02*X1055Y25791D01*
X980Y25716D02*Y25566D01*
X1055Y25491D02*X980Y25566D01*
X1055Y25491D02*X1205D01*
X1280Y25566D01*
X980Y25791D02*X1205D01*
X1280Y25866D01*
Y25716D02*Y25566D01*
Y25716D02*X1205Y25791D01*
X980Y26271D02*X1055Y26346D01*
X980Y26271D02*Y26121D01*
X1055Y26046D02*X980Y26121D01*
X1055Y26046D02*X1205D01*
X1280Y26121D01*
Y26271D02*Y26121D01*
Y26271D02*X1205Y26346D01*
X1430Y26046D02*X1505Y26121D01*
Y26271D02*Y26121D01*
Y26271D02*X1430Y26346D01*
X980D02*X1430D01*
X1055Y26601D02*X1280D01*
X1055D02*X980Y26676D01*
Y26751D02*Y26676D01*
Y26751D02*X1055Y26826D01*
X1280D01*
X980Y26526D02*X1055Y26601D01*
X830Y27006D02*X905D01*
X1055D02*X1280D01*
Y27456D02*Y27231D01*
X1205Y27156D02*X1280Y27231D01*
X1055Y27156D02*X1205D01*
X1055D02*X980Y27231D01*
Y27381D02*Y27231D01*
Y27381D02*X1055Y27456D01*
X1130D02*Y27156D01*
X1055Y27456D02*X1130D01*
X1055Y27711D02*X1280D01*
X1055D02*X980Y27786D01*
Y27936D02*Y27786D01*
Y27636D02*X1055Y27711D01*
X2960Y19685D02*Y19460D01*
Y19685D02*X3485D01*
X3560Y19610D02*X3485Y19685D01*
X3560Y19610D02*Y19535D01*
X3485Y19460D02*X3560Y19535D01*
X3260Y19865D02*X3485D01*
X3560Y19940D01*
Y20090D02*Y19940D01*
Y20090D02*X3485Y20165D01*
X3260D02*X3485D01*
X3335Y20420D02*X3560D01*
X3335D02*X3260Y20495D01*
Y20570D02*Y20495D01*
Y20570D02*X3335Y20645D01*
X3560D01*
X3260Y20345D02*X3335Y20420D01*
X3560Y21125D02*Y20900D01*
X3485Y20825D02*X3560Y20900D01*
X3335Y20825D02*X3485D01*
X3335D02*X3260Y20900D01*
Y21050D02*Y20900D01*
Y21050D02*X3335Y21125D01*
X3410D02*Y20825D01*
X3335Y21125D02*X3410D01*
X3035Y21575D02*X2960Y21650D01*
Y21875D02*Y21650D01*
Y21875D02*X3035Y21950D01*
X3185D01*
X3560Y21575D02*X3185Y21950D01*
X3560D02*Y21575D01*
X3485Y22130D02*X3560Y22205D01*
X3035Y22130D02*X3485D01*
X3035D02*X2960Y22205D01*
Y22355D02*Y22205D01*
Y22355D02*X3035Y22430D01*
X3485D01*
X3560Y22355D02*X3485Y22430D01*
X3560Y22355D02*Y22205D01*
X3410Y22130D02*X3110Y22430D01*
X3485Y22610D02*X3560Y22685D01*
X3035Y22610D02*X3485D01*
X3035D02*X2960Y22685D01*
Y22835D02*Y22685D01*
Y22835D02*X3035Y22910D01*
X3485D01*
X3560Y22835D02*X3485Y22910D01*
X3560Y22835D02*Y22685D01*
X3410Y22610D02*X3110Y22910D01*
X3485Y23091D02*X3560Y23166D01*
X3335Y23091D02*X3485D01*
X3335D02*X3260Y23166D01*
Y23316D02*Y23166D01*
Y23316D02*X3335Y23391D01*
X3485D01*
X3560Y23316D02*X3485Y23391D01*
X3560Y23316D02*Y23166D01*
X3185Y23091D02*X3260Y23166D01*
X3035Y23091D02*X3185D01*
X3035D02*X2960Y23166D01*
Y23316D02*Y23166D01*
Y23316D02*X3035Y23391D01*
X3185D01*
X3260Y23316D02*X3185Y23391D01*
X10410Y8210D02*X10610D01*
X10510D02*Y7810D01*
X10730Y8010D02*X10930Y7810D01*
X10730D02*X10930Y8010D01*
X10500Y9150D02*X10550Y9200D01*
X10650D01*
X10700Y9150D01*
Y8850D01*
X10650Y8800D02*X10700Y8850D01*
X10550Y8800D02*X10650D01*
X10500Y8850D02*X10550Y8800D01*
Y9000D02*X10700D01*
X10820Y9200D02*Y8900D01*
X10920Y8800D01*
X11020Y8900D01*
Y9200D02*Y8900D01*
X1720Y16730D02*X2320D01*
Y16655D02*X2245Y16730D01*
X2320Y16655D02*Y16505D01*
X2245Y16430D02*X2320Y16505D01*
X2095Y16430D02*X2245D01*
X2095D02*X2020Y16505D01*
Y16655D02*Y16505D01*
Y16655D02*X2095Y16730D01*
X1870Y16910D02*X1945D01*
X2095D02*X2320D01*
X2020Y17285D02*X2095Y17360D01*
X2020Y17285D02*Y17135D01*
X2095Y17060D02*X2020Y17135D01*
X2095Y17060D02*X2245D01*
X2320Y17135D01*
Y17285D02*Y17135D01*
Y17285D02*X2245Y17360D01*
X2470Y17060D02*X2545Y17135D01*
Y17285D02*Y17135D01*
Y17285D02*X2470Y17360D01*
X2020D02*X2470D01*
X1870Y17540D02*X1945D01*
X2095D02*X2320D01*
X1720Y17765D02*X2245D01*
X2320Y17840D01*
X1945D02*Y17690D01*
X2020Y18215D02*X2095Y18290D01*
X2020Y18215D02*Y18065D01*
X2095Y17990D02*X2020Y18065D01*
X2095Y17990D02*X2245D01*
X2320Y18065D01*
X2020Y18290D02*X2245D01*
X2320Y18365D01*
Y18215D02*Y18065D01*
Y18215D02*X2245Y18290D01*
X1720Y18545D02*X2245D01*
X2320Y18620D01*
Y19071D02*Y18846D01*
Y19071D02*X2245Y19146D01*
X2170Y19071D02*X2245Y19146D01*
X2170Y19071D02*Y18846D01*
X2095Y18771D02*X2170Y18846D01*
X2095Y18771D02*X2020Y18846D01*
Y19071D02*Y18846D01*
Y19071D02*X2095Y19146D01*
X2245Y18771D02*X2320Y18846D01*
X2020Y19326D02*X2245D01*
X2320Y19401D01*
Y19551D02*Y19401D01*
Y19551D02*X2245Y19626D01*
X2020D02*X2245D01*
X2095Y19881D02*X2320D01*
X2095D02*X2020Y19956D01*
Y20106D02*Y19956D01*
Y19806D02*X2095Y19881D01*
X2020Y20286D02*X2170D01*
X2320Y20436D01*
X2170Y20586D01*
X2020D02*X2170D01*
X2320Y21066D02*Y20841D01*
X2245Y20766D02*X2320Y20841D01*
X2095Y20766D02*X2245D01*
X2095D02*X2020Y20841D01*
Y20991D02*Y20841D01*
Y20991D02*X2095Y21066D01*
X2170D02*Y20766D01*
X2095Y21066D02*X2170D01*
X2020Y21246D02*X2245D01*
X2320Y21321D01*
X2020Y21546D02*X2470D01*
X2545Y21471D02*X2470Y21546D01*
X2545Y21471D02*Y21321D01*
X2470Y21246D02*X2545Y21321D01*
X2320Y21471D02*Y21321D01*
Y21471D02*X2245Y21546D01*
X1870Y21726D02*X1945D01*
X2095D02*X2320D01*
X2095Y21952D02*X2320D01*
X2095D02*X2020Y22027D01*
Y22102D02*Y22027D01*
Y22102D02*X2095Y22177D01*
X2320D01*
X2020Y21877D02*X2095Y21952D01*
X2320Y22657D02*Y22432D01*
Y22657D02*X2245Y22732D01*
X2170Y22657D02*X2245Y22732D01*
X2170Y22657D02*Y22432D01*
X2095Y22357D02*X2170Y22432D01*
X2095Y22357D02*X2020Y22432D01*
Y22657D02*Y22432D01*
Y22657D02*X2095Y22732D01*
X2245Y22357D02*X2320Y22432D01*
X1720Y22987D02*X2245D01*
X2320Y23062D01*
X1945D02*Y22912D01*
X2095Y23287D02*X2320D01*
X2095D02*X2020Y23362D01*
Y23512D02*Y23362D01*
Y23212D02*X2095Y23287D01*
X2020Y23692D02*X2245D01*
X2320Y23767D01*
Y23917D02*Y23767D01*
Y23917D02*X2245Y23992D01*
X2020D02*X2245D01*
X2095Y24247D02*X2320D01*
X2095D02*X2020Y24322D01*
Y24397D02*Y24322D01*
Y24397D02*X2095Y24472D01*
X2320D01*
X2095D02*X2020Y24547D01*
Y24622D02*Y24547D01*
Y24622D02*X2095Y24697D01*
X2320D01*
X2020Y24172D02*X2095Y24247D01*
X2320Y25178D02*Y24953D01*
X2245Y24878D02*X2320Y24953D01*
X2095Y24878D02*X2245D01*
X2095D02*X2020Y24953D01*
Y25103D02*Y24953D01*
Y25103D02*X2095Y25178D01*
X2170D02*Y24878D01*
X2095Y25178D02*X2170D01*
X2095Y25433D02*X2320D01*
X2095D02*X2020Y25508D01*
Y25583D02*Y25508D01*
Y25583D02*X2095Y25658D01*
X2320D01*
X2020Y25358D02*X2095Y25433D01*
X1720Y25913D02*X2245D01*
X2320Y25988D01*
X1945D02*Y25838D01*
X2320Y26438D02*Y26213D01*
Y26438D02*X2245Y26513D01*
X2170Y26438D02*X2245Y26513D01*
X2170Y26438D02*Y26213D01*
X2095Y26138D02*X2170Y26213D01*
X2095Y26138D02*X2020Y26213D01*
Y26438D02*Y26213D01*
Y26438D02*X2095Y26513D01*
X2245Y26138D02*X2320Y26213D01*
Y26768D02*Y26693D01*
X2020Y27248D02*Y27023D01*
X2095Y26948D02*X2020Y27023D01*
X2095Y26948D02*X2245D01*
X2320Y27023D01*
Y27248D02*Y27023D01*
X2095Y27428D02*X2245D01*
X2095D02*X2020Y27503D01*
Y27653D02*Y27503D01*
Y27653D02*X2095Y27728D01*
X2245D01*
X2320Y27653D02*X2245Y27728D01*
X2320Y27653D02*Y27503D01*
X2245Y27428D02*X2320Y27503D01*
X2095Y27984D02*X2320D01*
X2095D02*X2020Y28059D01*
Y28134D02*Y28059D01*
Y28134D02*X2095Y28209D01*
X2320D01*
X2095D02*X2020Y28284D01*
Y28359D02*Y28284D01*
Y28359D02*X2095Y28434D01*
X2320D01*
X2020Y27909D02*X2095Y27984D01*
X10390Y7230D02*X10590D01*
X10640Y7180D01*
Y7080D01*
X10590Y7030D02*X10640Y7080D01*
X10440Y7030D02*X10590D01*
X10440Y7230D02*Y6830D01*
Y7030D02*X10640Y6830D01*
X10760Y7030D02*X10960Y6830D01*
X10760D02*X10960Y7030D01*
G54D50*X10000Y9850D02*Y9150D01*
X8900D02*X10100D01*
X8900Y9850D02*Y9150D01*
Y9850D02*X10100D01*
Y9150D01*
G54D11*X11230Y9580D02*Y5580D01*
X12230D01*
Y9580D01*
X11230D01*
Y8580D02*X12230D01*
Y9580D01*
G54D50*X10000Y9050D02*Y8350D01*
X8900D02*X10100D01*
X8900Y9050D02*Y8350D01*
Y9050D02*X10100D01*
Y8350D01*
X8950Y7240D02*X9830D01*
X8950D02*Y5700D01*
X9830D01*
Y7240D02*Y5700D01*
X8950Y7140D02*X9830D01*
G54D13*X1490Y7610D02*Y5610D01*
X2490D01*
Y7610D01*
X1490D01*
G54D11*Y6610D02*X2490D01*
Y7610D01*
G54D51*X9107Y15111D02*Y10387D01*
X12172Y15111D02*Y10387D01*
X9107D02*X12172D01*
X9107Y15111D02*X12172D01*
G54D50*X4120Y2510D02*X4820D01*
X4120Y3610D02*Y2410D01*
Y3610D02*X4820D01*
Y2410D01*
X4120D02*X4820D01*
X4190Y4560D02*X4890D01*
X4190Y5660D02*Y4460D01*
Y5660D02*X4890D01*
Y4460D01*
X4190D02*X4890D01*
G54D13*X5060Y8050D02*Y5050D01*
X6060D01*
Y8050D01*
X5060D01*
G54D11*Y7050D02*X6060D01*
Y8050D01*
G54D13*X9910Y4890D02*Y2390D01*
X5110Y4890D02*Y2390D01*
Y4890D02*X9910D01*
G54D11*X7760Y7180D02*Y5790D01*
X8940D01*
Y7180D01*
X7760D01*
G54D50*X9090Y8120D02*Y7240D01*
X7550Y8120D02*X9090D01*
X7550D02*Y7240D01*
X9090D01*
X8990Y8120D02*Y7240D01*
G54D11*X2600Y9560D02*X2320Y9840D01*
X2600Y9560D02*X7830D01*
Y15070D02*Y9560D01*
X2320Y15070D02*X7830D01*
X2320D02*Y9840D01*
X2670Y9810D02*G75*G03X2670Y9810I0J100D01*G01*
X12208Y17928D02*Y16351D01*
X10631Y17928D02*X12208D01*
X10631D02*Y16351D01*
X12208D01*
X10631Y17928D02*X10481Y18078D01*
G54D50*X7570Y28300D02*Y27600D01*
X6470D02*X7670D01*
X6470Y28300D02*Y27600D01*
Y28300D02*X7670D01*
Y27600D01*
G54D11*X10030Y27240D02*Y28240D01*
X9030Y27240D02*X10030D01*
G54D13*Y28240D02*X9030D01*
X10030Y23240D02*Y28240D01*
X9030Y23240D02*X10030D01*
X9030Y28240D02*Y23240D01*
G54D11*X8810Y20356D02*Y20160D01*
X11369D02*Y20356D01*
X8810Y20160D02*X11369D01*
X8810Y22719D02*Y22916D01*
X11369D02*Y22719D01*
X8810Y22916D02*X11369D01*
X10146Y18730D02*Y16609D01*
X7033Y18730D02*X10146D01*
X7033D02*Y16609D01*
X8840D02*X10146D01*
X7033D02*X8340D01*
X8840D02*G75*G03X8340Y16609I-250J0D01*G01*
G54D50*X7970Y23950D02*Y23250D01*
X6870D02*X8070D01*
X6870Y23950D02*Y23250D01*
Y23950D02*X8070D01*
Y23250D01*
G54D11*X8270Y15950D02*Y15350D01*
Y15950D02*X12370D01*
Y15350D01*
X8270D02*X12370D01*
X3150Y28510D02*X4150D01*
Y27510D01*
G54D13*X3150Y28510D02*Y27510D01*
Y28510D02*X5150D01*
Y27510D01*
X3150D02*X5150D01*
G54D11*X2711Y16356D02*Y16160D01*
X5270D02*Y16356D01*
X2711Y16160D02*X5270D01*
X2711Y18719D02*Y18916D01*
X5270D02*Y18719D01*
X2711Y18916D02*X5270D01*
G54D50*X6290Y17060D02*X6990D01*
X6290Y18160D02*Y16960D01*
Y18160D02*X6990D01*
Y16960D01*
X6290D02*X6990D01*
G54D11*X2710Y23958D02*Y23762D01*
X5269D02*Y23958D01*
X2710Y23762D02*X5269D01*
X2710Y26321D02*Y26518D01*
X5269D02*Y26321D01*
X2710Y26518D02*X5269D01*
G54D50*X8610Y20080D02*Y19380D01*
X7410Y20080D02*X8610D01*
X7410D02*Y19380D01*
X8610D01*
X8510Y20080D02*Y19380D01*
X6920Y19280D02*Y18580D01*
X5820D02*X7020D01*
X5820Y19280D02*Y18580D01*
Y19280D02*X7020D01*
Y18580D01*
X6950Y20070D02*Y19370D01*
X5850D02*X7050D01*
X5850Y20070D02*Y19370D01*
Y20070D02*X7050D01*
Y19370D01*
G54D11*X5820Y21360D02*X6960D01*
X6720D02*X7870D01*
Y20340D01*
X5820D02*X7870D01*
X5820Y21360D02*Y20340D01*
X6720Y21360D02*G75*G03X6960Y21360I120J0D01*G01*
G54D50*X4720Y21450D02*X5600D01*
Y22990D02*Y21450D01*
X4720Y22990D02*X5600D01*
X4720D02*Y21450D01*
Y21550D02*X5600D01*
X4270Y21330D02*Y20630D01*
X5370Y21330D02*X4170D01*
X5370Y20630D02*Y21330D01*
X4170Y20630D02*X5370D01*
X4170Y21330D02*Y20630D01*
G54D11*X5820Y22710D02*X6960D01*
X6720D02*X7870D01*
Y21690D01*
X5820D02*X7870D01*
X5820Y22710D02*Y21690D01*
X6720Y22710D02*G75*G03X6960Y22710I120J0D01*G01*
X8820Y27590D02*Y23960D01*
X5820Y27590D02*Y23960D01*
X8820D01*
X5820Y27590D02*X8820D01*
X6620Y24930D02*G75*G03X6620Y24930I0J230D01*G01*
X8000Y27770D02*X8150D01*
X7950Y27820D02*X8000Y27770D01*
X7950Y28120D02*Y27820D01*
Y28120D02*X8000Y28170D01*
X8150D01*
X8270Y27970D02*X8470Y28170D01*
X8270Y27970D02*X8520D01*
X8470Y28170D02*Y27770D01*
X8160Y23270D02*X8310D01*
X8110Y23320D02*X8160Y23270D01*
X8110Y23620D02*Y23320D01*
Y23620D02*X8160Y23670D01*
X8310D01*
X8430Y23620D02*X8480Y23670D01*
X8580D01*
X8630Y23620D01*
Y23320D01*
X8580Y23270D02*X8630Y23320D01*
X8480Y23270D02*X8580D01*
X8430Y23320D02*X8480Y23270D01*
Y23470D02*X8630D01*
X10290Y27660D02*X10440D01*
X10240Y27710D02*X10290Y27660D01*
X10240Y28010D02*Y27710D01*
Y28010D02*X10290Y28060D01*
X10440D01*
X10560Y28010D02*Y27710D01*
Y28010D02*X10610Y28060D01*
X10710D01*
X10760Y28010D01*
Y27710D01*
X10710Y27660D02*X10760Y27710D01*
X10610Y27660D02*X10710D01*
X10560Y27710D02*X10610Y27660D01*
X10880Y28060D02*Y27660D01*
Y28060D02*Y28010D01*
X11130Y27760D01*
Y28060D02*Y27660D01*
X11250Y28060D02*Y27660D01*
Y28060D02*Y28010D01*
X11500Y27760D01*
Y28060D02*Y27660D01*
X11620Y28010D02*X11670Y28060D01*
X11820D01*
X11870Y28010D01*
Y27910D01*
X11620Y27660D02*X11870Y27910D01*
X11620Y27660D02*X11870D01*
X2480Y26850D02*X2680D01*
X2730Y26900D01*
Y27000D02*Y26900D01*
X2680Y27050D02*X2730Y27000D01*
X2530Y27050D02*X2680D01*
X2530Y27250D02*Y26850D01*
X2480Y27250D02*X2680D01*
X2730Y27200D01*
Y27100D01*
X2680Y27050D02*X2730Y27100D01*
X2850Y27000D02*Y26900D01*
Y27000D02*X2900Y27050D01*
X3000D01*
X3050Y27000D01*
Y26900D01*
X3000Y26850D02*X3050Y26900D01*
X2900Y26850D02*X3000D01*
X2850Y26900D02*X2900Y26850D01*
X3170Y27000D02*Y26900D01*
Y27000D02*X3220Y27050D01*
X3320D01*
X3370Y27000D01*
Y26900D01*
X3320Y26850D02*X3370Y26900D01*
X3220Y26850D02*X3320D01*
X3170Y26900D02*X3220Y26850D01*
X3540Y27250D02*Y26900D01*
X3590Y26850D01*
X3490Y27100D02*X3590D01*
X3690Y27250D02*Y26900D01*
X3740Y26850D01*
X3840Y27000D02*Y26900D01*
Y27000D02*X3890Y27050D01*
X3990D01*
X4040Y27000D01*
Y26900D01*
X3990Y26850D02*X4040Y26900D01*
X3890Y26850D02*X3990D01*
X3840Y26900D02*X3890Y26850D01*
X4310Y27050D02*X4360Y27000D01*
X4210Y27050D02*X4310D01*
X4160Y27000D02*X4210Y27050D01*
X4160Y27000D02*Y26900D01*
X4210Y26850D01*
X4360Y27050D02*Y26900D01*
X4410Y26850D01*
X4210D02*X4310D01*
X4360Y26900D01*
X4730Y27250D02*Y26850D01*
X4680D02*X4730Y26900D01*
X4580Y26850D02*X4680D01*
X4530Y26900D02*X4580Y26850D01*
X4530Y27000D02*Y26900D01*
Y27000D02*X4580Y27050D01*
X4680D01*
X4730Y27000D01*
X4900Y26850D02*X5050D01*
X4850Y26900D02*X4900Y26850D01*
X4850Y27000D02*Y26900D01*
Y27000D02*X4900Y27050D01*
X5000D01*
X5050Y27000D01*
X4850Y26950D02*X5050D01*
Y27000D02*Y26950D01*
X5220Y27000D02*Y26850D01*
Y27000D02*X5270Y27050D01*
X5370D01*
X5170D02*X5220Y27000D01*
X5541Y26850D02*X5641D01*
X5591Y27250D02*Y26850D01*
X5491Y27150D02*X5591Y27250D01*
X3763Y25404D02*X3813Y25354D01*
X3613Y25404D02*X3763D01*
X3563Y25354D02*X3613Y25404D01*
X3563Y25354D02*Y25254D01*
X3613Y25204D01*
X3763D01*
X3813Y25154D01*
Y25054D01*
X3763Y25004D02*X3813Y25054D01*
X3613Y25004D02*X3763D01*
X3563Y25054D02*X3613Y25004D01*
X3983D02*X4083D01*
X4033Y25404D02*Y25004D01*
X3933Y25304D02*X4033Y25404D01*
X7320Y26200D02*Y25850D01*
X7370Y25800D01*
X7470D01*
X7520Y25850D01*
Y26200D02*Y25850D01*
X7640Y26200D02*X7840D01*
X7640D02*Y26000D01*
X7690Y26050D01*
X7790D01*
X7840Y26000D01*
Y25850D01*
X7790Y25800D02*X7840Y25850D01*
X7690Y25800D02*X7790D01*
X7640Y25850D02*X7690Y25800D01*
X11290Y18600D02*Y18250D01*
X11340Y18200D01*
X11440D01*
X11490Y18250D01*
Y18600D02*Y18250D01*
X11660Y18200D02*X11760D01*
X11710Y18600D02*Y18200D01*
X11610Y18500D02*X11710Y18600D01*
X12030D02*X12080Y18550D01*
X11930Y18600D02*X12030D01*
X11880Y18550D02*X11930Y18600D01*
X11880Y18550D02*Y18250D01*
X11930Y18200D01*
X12030Y18400D02*X12080Y18350D01*
X11880Y18400D02*X12030D01*
X11930Y18200D02*X12030D01*
X12080Y18250D01*
Y18350D02*Y18250D01*
X10890Y10280D02*X10940Y10230D01*
X10740Y10280D02*X10890D01*
X10690Y10230D02*X10740Y10280D01*
X10690Y10230D02*Y10130D01*
X10740Y10080D01*
X10890D01*
X10940Y10030D01*
Y9930D01*
X10890Y9880D02*X10940Y9930D01*
X10740Y9880D02*X10890D01*
X10690Y9930D02*X10740Y9880D01*
X11110D02*X11260D01*
X11060Y9930D02*X11110Y9880D01*
X11060Y10030D02*Y9930D01*
Y10030D02*X11110Y10080D01*
X11210D01*
X11260Y10030D01*
X11060Y9980D02*X11260D01*
Y10030D02*Y9980D01*
X11430Y10030D02*Y9880D01*
Y10030D02*X11480Y10080D01*
X11580D01*
X11380D02*X11430Y10030D01*
X11700Y10180D02*Y10130D01*
Y10030D02*Y9880D01*
X11950Y10080D02*X12000Y10030D01*
X11850Y10080D02*X11950D01*
X11800Y10030D02*X11850Y10080D01*
X11800Y10030D02*Y9930D01*
X11850Y9880D01*
X12000Y10080D02*Y9930D01*
X12050Y9880D01*
X11850D02*X11950D01*
X12000Y9930D01*
X12170Y10280D02*Y9930D01*
X12220Y9880D01*
X12370D02*X12470D01*
X12420Y10280D02*Y9880D01*
X12320Y10180D02*X12420Y10280D01*
X5513Y17802D02*X5663D01*
X5463Y17852D02*X5513Y17802D01*
X5463Y18152D02*Y17852D01*
Y18152D02*X5513Y18202D01*
X5663D01*
X5783Y17802D02*X6033Y18052D01*
Y18202D02*Y18052D01*
X5783Y18202D02*X6033D01*
X9400Y16500D02*Y16150D01*
X9450Y16100D01*
X9550D01*
X9600Y16150D01*
Y16500D02*Y16150D01*
X9720Y16450D02*X9770Y16500D01*
X9920D01*
X9970Y16450D01*
Y16350D01*
X9720Y16100D02*X9970Y16350D01*
X9720Y16100D02*X9970D01*
X10400Y12990D02*Y12640D01*
X10450Y12590D01*
X10550D01*
X10600Y12640D01*
Y12990D02*Y12640D01*
X10720Y12590D02*X10970Y12840D01*
Y12990D02*Y12840D01*
X10720Y12990D02*X10970D01*
X1540Y8150D02*X1690D01*
X1540Y7950D02*X1740D01*
X1540Y8350D02*Y7950D01*
Y8350D02*X1740D01*
X1860D02*Y8300D01*
X2110Y8050D01*
Y7950D01*
X1860Y8050D02*Y7950D01*
Y8050D02*X2110Y8300D01*
Y8350D02*Y8300D01*
X2230Y8350D02*X2430D01*
X2330D02*Y7950D01*
X2600Y8350D02*Y7950D01*
X2550Y8350D02*X2750D01*
X2800Y8300D01*
Y8200D01*
X2750Y8150D02*X2800Y8200D01*
X2600Y8150D02*X2750D01*
X2920Y8350D02*Y7950D01*
X3070Y8100D01*
X3220Y7950D01*
Y8350D02*Y7950D01*
X3340Y8350D02*X3540D01*
X3590Y8300D01*
Y8200D01*
X3540Y8150D02*X3590Y8200D01*
X3390Y8150D02*X3540D01*
X3390Y8350D02*Y7950D01*
Y8150D02*X3590Y7950D01*
X3760D02*X3860D01*
X3810Y8350D02*Y7950D01*
X3710Y8250D02*X3810Y8350D01*
X8190Y9260D02*X8340D01*
X8140Y9310D02*X8190Y9260D01*
X8140Y9610D02*Y9310D01*
Y9610D02*X8190Y9660D01*
X8340D01*
X8610D02*X8660Y9610D01*
X8510Y9660D02*X8610D01*
X8460Y9610D02*X8510Y9660D01*
X8460Y9610D02*Y9310D01*
X8510Y9260D01*
X8610Y9460D02*X8660Y9410D01*
X8460Y9460D02*X8610D01*
X8510Y9260D02*X8610D01*
X8660Y9310D01*
Y9410D02*Y9310D01*
X8190Y8490D02*X8340D01*
X8140Y8540D02*X8190Y8490D01*
X8140Y8840D02*Y8540D01*
Y8840D02*X8190Y8890D01*
X8340D01*
X8460D02*X8660D01*
X8460D02*Y8690D01*
X8510Y8740D01*
X8610D01*
X8660Y8690D01*
Y8540D01*
X8610Y8490D02*X8660Y8540D01*
X8510Y8490D02*X8610D01*
X8460Y8540D02*X8510Y8490D01*
X5070Y8620D02*Y8220D01*
X5020Y8620D02*X5220D01*
X5270Y8570D01*
Y8470D01*
X5220Y8420D02*X5270Y8470D01*
X5070Y8420D02*X5220D01*
X5390Y8620D02*Y8220D01*
X5540Y8370D01*
X5690Y8220D01*
Y8620D02*Y8220D01*
X5810Y8620D02*X6010D01*
X6060Y8570D01*
Y8470D01*
X6010Y8420D02*X6060Y8470D01*
X5860Y8420D02*X6010D01*
X5860Y8620D02*Y8220D01*
Y8420D02*X6060Y8220D01*
X6380Y8620D02*X6430Y8570D01*
X6230Y8620D02*X6380D01*
X6180Y8570D02*X6230Y8620D01*
X6180Y8570D02*Y8470D01*
X6230Y8420D01*
X6380D01*
X6430Y8370D01*
Y8270D01*
X6380Y8220D02*X6430Y8270D01*
X6230Y8220D02*X6380D01*
X6180Y8270D02*X6230Y8220D01*
X6550Y8420D02*X6700D01*
X6550Y8220D02*X6750D01*
X6550Y8620D02*Y8220D01*
Y8620D02*X6750D01*
X6870D02*Y8220D01*
X7070D01*
X7240D02*X7340D01*
X7290Y8620D02*Y8220D01*
X7190Y8520D02*X7290Y8620D01*
X3130Y3000D02*X3330D01*
X3380Y2950D01*
Y2850D01*
X3330Y2800D02*X3380Y2850D01*
X3180Y2800D02*X3330D01*
X3180Y3000D02*Y2600D01*
Y2800D02*X3380Y2600D01*
X3500Y2800D02*X3700Y3000D01*
X3500Y2800D02*X3750D01*
X3700Y3000D02*Y2600D01*
X4170Y4210D02*X4370D01*
X4420Y4160D01*
Y4060D01*
X4370Y4010D02*X4420Y4060D01*
X4220Y4010D02*X4370D01*
X4220Y4210D02*Y3810D01*
Y4010D02*X4420Y3810D01*
X4540Y4210D02*X4740D01*
X4540D02*Y4010D01*
X4590Y4060D01*
X4690D01*
X4740Y4010D01*
Y3860D01*
X4690Y3810D02*X4740Y3860D01*
X4590Y3810D02*X4690D01*
X4540Y3860D02*X4590Y3810D01*
X5940Y4180D02*X6090D01*
X5890Y4230D02*X5940Y4180D01*
X5890Y4530D02*Y4230D01*
Y4530D02*X5940Y4580D01*
X6090D01*
X6210Y4530D02*Y4230D01*
Y4530D02*X6260Y4580D01*
X6360D01*
X6410Y4530D01*
Y4230D01*
X6360Y4180D02*X6410Y4230D01*
X6260Y4180D02*X6360D01*
X6210Y4230D02*X6260Y4180D01*
X6530Y4580D02*Y4180D01*
Y4580D02*Y4530D01*
X6780Y4280D01*
Y4580D02*Y4180D01*
X6900Y4580D02*Y4180D01*
Y4580D02*Y4530D01*
X7150Y4280D01*
Y4580D02*Y4180D01*
X7270Y4230D02*X7320Y4180D01*
X7270Y4330D02*Y4230D01*
Y4330D02*X7320Y4380D01*
X7420D01*
X7470Y4330D01*
Y4230D01*
X7420Y4180D02*X7470Y4230D01*
X7320Y4180D02*X7420D01*
X7270Y4430D02*X7320Y4380D01*
X7270Y4530D02*Y4430D01*
Y4530D02*X7320Y4580D01*
X7420D01*
X7470Y4530D01*
Y4430D01*
X7420Y4380D02*X7470Y4430D01*
X7540Y5640D02*Y5290D01*
X7590Y5240D01*
X7690D01*
X7740Y5290D01*
Y5640D02*Y5290D01*
X7910Y5240D02*X8010D01*
X7960Y5640D02*Y5240D01*
X7860Y5540D02*X7960Y5640D01*
X8130Y5590D02*X8180Y5640D01*
X8330D01*
X8380Y5590D01*
Y5490D01*
X8130Y5240D02*X8380Y5490D01*
X8130Y5240D02*X8380D01*
X9310Y7560D02*X9460D01*
X9260Y7610D02*X9310Y7560D01*
X9260Y7910D02*Y7610D01*
Y7910D02*X9310Y7960D01*
X9460D01*
X9580Y7560D02*X9780Y7760D01*
Y7910D02*Y7760D01*
X9730Y7960D02*X9780Y7910D01*
X9630Y7960D02*X9730D01*
X9580Y7910D02*X9630Y7960D01*
X9580Y7910D02*Y7810D01*
X9630Y7760D01*
X9780D01*
X8980Y5140D02*X9130D01*
X8930Y5190D02*X8980Y5140D01*
X8930Y5490D02*Y5190D01*
Y5490D02*X8980Y5540D01*
X9130D01*
X9300Y5140D02*X9400D01*
X9350Y5540D02*Y5140D01*
X9250Y5440D02*X9350Y5540D01*
X9520Y5190D02*X9570Y5140D01*
X9520Y5490D02*Y5190D01*
Y5490D02*X9570Y5540D01*
X9670D01*
X9720Y5490D01*
Y5190D01*
X9670Y5140D02*X9720Y5190D01*
X9570Y5140D02*X9670D01*
X9520Y5240D02*X9720Y5440D01*
X4250Y12280D02*Y11930D01*
X4300Y11880D01*
X4400D01*
X4450Y11930D01*
Y12280D02*Y11930D01*
X4620Y11880D02*X4720D01*
X4670Y12280D02*Y11880D01*
X4570Y12180D02*X4670Y12280D01*
X4890Y11880D02*X4990D01*
X4940Y12280D02*Y11880D01*
X4840Y12180D02*X4940Y12280D01*
X8690Y19450D02*X8840D01*
X8640Y19500D02*X8690Y19450D01*
X8640Y19800D02*Y19500D01*
Y19800D02*X8690Y19850D01*
X8840D01*
X9010Y19450D02*X9110D01*
X9060Y19850D02*Y19450D01*
X8960Y19750D02*X9060Y19850D01*
X8230Y18180D02*Y17830D01*
X8280Y17780D01*
X8380D01*
X8430Y17830D01*
Y18180D02*Y17830D01*
X8600Y17780D02*X8700D01*
X8650Y18180D02*Y17780D01*
X8550Y18080D02*X8650Y18180D01*
X10126Y21849D02*X10176Y21799D01*
X9976Y21849D02*X10126D01*
X9926Y21799D02*X9976Y21849D01*
X9926Y21799D02*Y21699D01*
X9976Y21649D01*
X10126D01*
X10176Y21599D01*
Y21499D01*
X10126Y21449D02*X10176Y21499D01*
X9976Y21449D02*X10126D01*
X9926Y21499D02*X9976Y21449D01*
X10296Y21799D02*X10346Y21849D01*
X10496D01*
X10546Y21799D01*
Y21699D01*
X10296Y21449D02*X10546Y21699D01*
X10296Y21449D02*X10546D01*
X3865Y17927D02*X3915Y17877D01*
X3715Y17927D02*X3865D01*
X3665Y17877D02*X3715Y17927D01*
X3665Y17877D02*Y17777D01*
X3715Y17727D01*
X3865D01*
X3915Y17677D01*
Y17577D01*
X3865Y17527D02*X3915Y17577D01*
X3715Y17527D02*X3865D01*
X3665Y17577D02*X3715Y17527D01*
X4035Y17877D02*X4085Y17927D01*
X4185D01*
X4235Y17877D01*
Y17577D01*
X4185Y17527D02*X4235Y17577D01*
X4085Y17527D02*X4185D01*
X4035Y17577D02*X4085Y17527D01*
Y17727D02*X4235D01*
X4990Y19200D02*X5190D01*
X5240Y19150D01*
Y19050D01*
X5190Y19000D02*X5240Y19050D01*
X5040Y19000D02*X5190D01*
X5040Y19200D02*Y18800D01*
Y19000D02*X5240Y18800D01*
X5360Y19150D02*X5410Y19200D01*
X5560D01*
X5610Y19150D01*
Y19050D01*
X5360Y18800D02*X5610Y19050D01*
X5360Y18800D02*X5610D01*
X4990Y19860D02*X5190D01*
X5240Y19810D01*
Y19710D01*
X5190Y19660D02*X5240Y19710D01*
X5040Y19660D02*X5190D01*
X5040Y19860D02*Y19460D01*
Y19660D02*X5240Y19460D01*
X5410D02*X5510D01*
X5460Y19860D02*Y19460D01*
X5360Y19760D02*X5460Y19860D01*
X6430Y20870D02*Y20520D01*
X6480Y20470D01*
X6580D01*
X6630Y20520D01*
Y20870D02*Y20520D01*
X6800Y20470D02*X6900D01*
X6850Y20870D02*Y20470D01*
X6750Y20770D02*X6850Y20870D01*
X7020Y20670D02*X7220Y20870D01*
X7020Y20670D02*X7270D01*
X7220Y20870D02*Y20470D01*
X4060Y22130D02*X4210D01*
X4010Y22180D02*X4060Y22130D01*
X4010Y22480D02*Y22180D01*
Y22480D02*X4060Y22530D01*
X4210D01*
X4330Y22480D02*X4380Y22530D01*
X4530D01*
X4580Y22480D01*
Y22380D01*
X4330Y22130D02*X4580Y22380D01*
X4330Y22130D02*X4580D01*
X4830Y20440D02*X5030D01*
X5080Y20390D01*
Y20290D01*
X5030Y20240D02*X5080Y20290D01*
X4880Y20240D02*X5030D01*
X4880Y20440D02*Y20040D01*
Y20240D02*X5080Y20040D01*
X5200Y20390D02*X5250Y20440D01*
X5350D01*
X5400Y20390D01*
Y20090D01*
X5350Y20040D02*X5400Y20090D01*
X5250Y20040D02*X5350D01*
X5200Y20090D02*X5250Y20040D01*
Y20240D02*X5400D01*
X6500Y22400D02*Y22050D01*
X6550Y22000D01*
X6650D01*
X6700Y22050D01*
Y22400D02*Y22050D01*
X6870Y22000D02*X6970D01*
X6920Y22400D02*Y22000D01*
X6820Y22300D02*X6920Y22400D01*
X7090D02*X7290D01*
X7090D02*Y22200D01*
X7140Y22250D01*
X7240D01*
X7290Y22200D01*
Y22050D01*
X7240Y22000D02*X7290Y22050D01*
X7140Y22000D02*X7240D01*
X7090Y22050D02*X7140Y22000D01*
M02*
