M48
INCH,TZ
T13C0.020
T16C0.120
T19C0.038
T20C0.030
T21C0.028
T22C0.090
T23C0.018
%
T23
X003072Y009637
X002720Y009637
X002335Y010865
X006242Y025438
X012439Y019680
X011979Y016509
X011979Y018430
X011940Y019010
X011395Y018208
X005990Y020120
X008154Y021733
X008162Y019035
X007428Y019250
X007110Y020520
X009570Y020362
X010370Y020362
X002901Y023744
X004839Y023859
X005740Y021520
X005480Y021189
X008780Y021082
X006165Y017330
X006860Y016800
X009320Y016270
X010531Y017435
X009000Y016232
X008999Y016709
X004295Y015005
X003072Y014377
X007825Y013015
X010526Y012385
X008838Y017542
X008428Y016226
X008143Y016546
X008412Y017797
X006112Y016255
X006492Y016470
X004335Y016075
X009450Y011053
X008993Y011755
X010056Y010933
X009200Y009100
X008892Y010837
X009450Y008105
X007870Y006500
X008410Y006420
X006112Y010711
X006742Y010531
X006480Y010174
X007446Y009924
X007126Y009619
X005740Y011069
X006768Y009619
X004905Y009619
X008220Y009595
X004280Y008475
T13
X008570Y015650
X009070Y015650
X009570Y015650
X010070Y015650
X010570Y015650
X011070Y015650
X011570Y015650
X012070Y015650
T21
X008010Y003390
X007010Y003390
X007010Y002590
X008010Y002590
T20
X002711Y018423
X005270Y018423
X005270Y016652
X002711Y016652
X002710Y026025
X002710Y024254
X005269Y026025
X005269Y024254
X008810Y022423
X011369Y022423
X011369Y020652
X008810Y020652
T19
X011730Y008080
X011730Y006080
X011730Y009080
X011730Y007080
X001990Y007110
X005560Y007550
X001990Y006110
X005560Y006550
X005560Y005550
X003650Y028010
X004650Y028010
X009530Y027740
X009530Y026740
X009530Y025740
X009530Y024740
X009530Y023740
T22
X009910Y001490
X005110Y001490
T16
X003190Y004340
X010890Y026850
M30
